<?xml version="1.0" standalone="no"?>
<!DOCTYPE svg PUBLIC "-//W3C//DTD SVG 1.1//EN" "http://www.w3.org/Graphics/SVG/1.1/DTD/svg11.dtd" >
<svg xmlns="http://www.w3.org/2000/svg" xmlns:xlink="http://www.w3.org/1999/xlink" version="1.1">
<metadata>
Created by FontForge 20170731 at Thu Dec  3 13:42:52 2015
 By Aleksey,,,
Copyright (c) 2009. Designed by Andreu Balius. All rights reserved.
</metadata>
<defs>
<font id="FerrovialNew-Light" horiz-adv-x="487" >
  <font-face 
    font-family="Ferrovial New Light"
    font-weight="300"
    font-stretch="normal"
    units-per-em="1000"
    panose-1="2 0 5 6 4 0 0 2 0 3"
    ascent="750"
    descent="-250"
    x-height="464"
    cap-height="700"
    bbox="-75 -235 3411 956"
    underline-thickness="50"
    underline-position="-150"
    unicode-range="U+000D-FB04"
  />
<missing-glyph horiz-adv-x="0" 
 />
    <glyph glyph-name="ff" unicode="ff" horiz-adv-x="529" 
d="M140 420v-407q0 -7 -3 -10t-12 -3h-20q-10 0 -12.5 3t-2.5 10v407h-56q-8 0 -11 3t-3 12v13q0 10 3 13t11 3h56v41q0 54 3 92.5t15 63t37 36.5t69 12q24 0 46.5 -5t22.5 -13q0 -2 -1 -6.5t-2 -7.5q-3 -11 -5.5 -15t-9.5 -4q-3 0 -17 3.5t-37 3.5q-26 0 -40.5 -9t-21 -27
t-8 -44.5t-1.5 -61.5v-59h201v41q0 54 3 92.5t15 63t37 36.5t69 12q24 0 46.5 -5t22.5 -13q0 -2 -1 -6.5t-2 -7.5q-3 -11 -5.5 -15t-9.5 -4q-3 0 -17 3.5t-37 3.5q-26 0 -40.5 -9t-21 -27t-8 -44.5t-1.5 -61.5v-59h107q8 0 10.5 -3t2.5 -13v-12q0 -11 -3 -13.5t-10 -2.5
h-107v-407q0 -7 -3 -10t-12 -3h-20q-10 0 -12.5 3t-2.5 10v407h-201z" />
    <glyph glyph-name="fi" unicode="fi" horiz-adv-x="498" 
d="M34 420q-8 0 -11 3t-3 12v13q0 10 3 13t11 3h56v58q0 42 8 76t27 59t48.5 38.5t73.5 13.5q34 0 62 -8.5t47.5 -20t30.5 -22t11 -13.5q0 -7 -8 -18t-16 -11q-4 0 -15 7.5t-27.5 17t-38 17t-46.5 7.5q-52 0 -79.5 -32t-27.5 -110v-59h252q16 0 16 -14v-436q0 -8 -3 -11
t-13 -3h-19q-11 0 -13.5 3.5t-2.5 10.5v406h-217v-407q0 -7 -3 -10t-12 -3h-20q-10 0 -12.5 3t-2.5 10v407h-56z" />
    <glyph glyph-name="fl" unicode="fl" horiz-adv-x="535" 
d="M410 171q0 -75 17.5 -105.5t64.5 -30.5q5 0 13 0.5t12 0.5q13 0 13 -12v-19q0 -8 -6.5 -11t-34.5 -3q-42 0 -67.5 13.5t-39 37.5t-18 56.5t-4.5 69.5v475q-20 6 -50.5 14t-62.5 8q-52 0 -79.5 -32t-27.5 -110v-59h132q8 0 10.5 -3t2.5 -13v-12q0 -11 -3 -13.5t-10 -2.5
h-132v-407q0 -7 -3 -10t-12 -3h-20q-10 0 -12.5 3t-2.5 10v407h-56q-8 0 -11 3t-3 12v13q0 10 3 13t11 3h56v29q0 47 6 87t23.5 68.5t48 44.5t79.5 16q21 0 40.5 -2.5t34.5 -6.5t25 -7.5t13 -4.5q0 6 6.5 9t8.5 4l16.5 5.5t11.5 2.5q5 0 6 -3t1 -11v-524v0z" />
    <glyph glyph-name="ffi" unicode="ffi" horiz-adv-x="749" 
d="M34 420q-8 0 -11 3t-3 12v13q0 10 3 13t11 3h56v41q0 54 3 92.5t15 63t37 36.5t69 12q27 0 48 -5t21 -13q0 -2 -1 -6.5t-2 -7.5q-3 -11 -5.5 -15t-9.5 -4q-5 0 -17 3.5t-37 3.5q-26 0 -40.5 -9t-21 -27t-8 -44.5t-1.5 -61.5v-59h201v29q0 47 6 87t23.5 68.5t48 44.5
t79.5 16q34 0 62 -8.5t47.5 -20t30.5 -22t11 -13.5q0 -7 -8 -18t-16 -11q-4 0 -15 7.5t-27.5 17t-38 17t-46.5 7.5q-52 0 -79.5 -32t-27.5 -110v-59h252q16 0 16 -14v-436q0 -8 -3 -11t-13 -3h-19q-11 0 -13.5 3.5t-2.5 10.5v406h-217v-407q0 -7 -3 -10t-12 -3h-20
q-10 0 -12.5 3t-2.5 10v407h-201v-407q0 -7 -3 -10t-12 -3h-20q-10 0 -12.5 3t-2.5 10v407h-56z" />
    <glyph glyph-name="ffl" unicode="ffl" horiz-adv-x="786" 
d="M34 420q-8 0 -11 3t-3 12v13q0 10 3 13t11 3h56v41q0 54 3 92.5t15 63t37 36.5t69 12q7 0 18.5 -1t22.5 -3t19.5 -5.5t8.5 -8.5q0 -2 -1 -6.5t-2 -7.5q-3 -11 -5.5 -15t-9.5 -4q-3 0 -17 3.5t-37 3.5q-26 0 -40.5 -9t-21 -27t-8 -44.5t-1.5 -61.5v-59h201v29q0 47 6 87
t23.5 68.5t48 44.5t79.5 16q21 0 40.5 -2.5t34.5 -6.5t25 -7.5t13 -4.5q0 5 6 9t14 6.5t14.5 4t8.5 1.5q5 0 6 -3t1 -11v-524q0 -75 17.5 -105.5t64.5 -30.5q5 0 13 0.5t12 0.5q13 0 13 -12v-19q0 -8 -6.5 -11t-34.5 -3q-42 0 -67.5 13.5t-39 37.5t-18 56.5t-4.5 69.5v475
q-20 6 -50.5 14t-62.5 8q-52 0 -79.5 -32t-27.5 -110v-59h132q8 0 10.5 -3t2.5 -13v-12q0 -11 -3 -13.5t-10 -2.5h-132v-407q0 -7 -3 -10t-12 -3h-20q-10 0 -12.5 3t-2.5 10v407h-201v-407q0 -7 -3 -10t-12 -3h-20q-10 0 -12.5 3t-2.5 10v407h-56z" />
    <glyph glyph-name=".notdef" horiz-adv-x="0" 
 />
    <glyph glyph-name=".null" horiz-adv-x="0" 
 />
    <glyph glyph-name="nonmarkingreturn" unicode="&#xd;" horiz-adv-x="180" 
 />
    <glyph glyph-name="NULL" horiz-adv-x="0" 
 />
    <glyph glyph-name="NULL" horiz-adv-x="0" 
 />
    <glyph glyph-name="space" unicode=" " horiz-adv-x="180" 
 />
    <glyph glyph-name="exclam" unicode="!" horiz-adv-x="248" 
d="M149 358l-6 -159q0 -11 -11 -11h-15q-12 0 -12 11l-6 159v328q0 8 3 11t13 3h18q11 0 13.5 -3.5t2.5 -10.5v-328zM70 45q0 23 15.5 38.5t38.5 15.5t38.5 -15.5t15.5 -38.5t-15.5 -38.5t-38.5 -15.5t-38.5 15.5t-15.5 38.5z" />
    <glyph glyph-name="quotedbl" unicode="&#x22;" horiz-adv-x="238" 
d="M82 448q0 -8 -2.5 -10.5t-7.5 -2.5h-10q-10 0 -10 13l-12 235q0 7 2.5 12t13.5 5h22q11 0 13.5 -5t2.5 -12zM186 448q0 -8 -2.5 -10.5t-7.5 -2.5h-10q-10 0 -10 13l-12 235q0 7 2.5 12t13.5 5h22q11 0 13.5 -5t2.5 -12z" />
    <glyph glyph-name="numbersign" unicode="#" horiz-adv-x="720" 
d="M234 472l45 200q2 12 7 20t19 8h12q18 0 18 -15q0 1 -0.5 -4.5t-1.5 -8.5l-45 -200h187l45 200q2 12 7 20t19 8h12q18 0 18 -15q0 1 -0.5 -4.5t-1.5 -8.5l-45 -200h107q9 0 11.5 -3t2.5 -11v-16q0 -8 -2.5 -11t-11.5 -3h-116l-32 -143h108q9 0 11.5 -3t2.5 -11v-16
q0 -8 -2.5 -11t-11.5 -3h-117l-47 -213q-3 -14 -8 -21t-18 -7h-12q-18 0 -18 15q0 5 2 13l47 213h-187l-47 -213q-3 -14 -8 -21t-18 -7h-12q-18 0 -18 15q0 5 2 13l47 213h-100q-9 0 -11.5 3t-2.5 11v16q0 8 2.5 11t11.5 3h109l32 143h-101q-9 0 -11.5 3t-2.5 11v16
q0 8 2.5 11t11.5 3h110zM247 285h187l32 143h-187z" />
    <glyph glyph-name="dollar" unicode="$" horiz-adv-x="509" 
d="M265 -91q0 -7 -3 -10t-12 -3h-17q-15 0 -15 13v82q-36 0 -65.5 7t-50 15t-31.5 15.5t-11 9.5t2 8t5 12t6.5 10.5t5.5 4.5q4 0 16 -6t30.5 -13t42.5 -13t52 -6q52 0 86.5 12t55 31.5t29 43.5t8.5 48q0 19 -7 38.5t-26.5 41t-53.5 47t-88 57.5q-71 42 -114 88t-43 108
q0 69 44.5 111t135.5 47v83q0 7 3 10t12 3h17q15 0 15 -13v-83q29 -2 51 -7t36.5 -11t22 -10.5t7.5 -5.5q0 -2 -2.5 -8t-6 -12t-7 -11t-5.5 -5q-3 0 -11.5 4t-23.5 9.5t-36.5 9.5t-50.5 4q-43 0 -72 -8.5t-46.5 -24t-25 -36.5t-7.5 -46q0 -41 33.5 -80t114.5 -88
q40 -25 74 -48.5t58.5 -48t38 -52.5t13.5 -63q0 -74 -49 -120t-135 -56v-85v0z" />
    <glyph glyph-name="percent" unicode="%" horiz-adv-x="882" 
d="M322 517q0 43 -6 71.5t-19 46t-34 24.5t-52 7t-52.5 -7t-35 -24.5t-19.5 -46t-6 -71.5q0 -44 6 -73t19.5 -46.5t35 -24.5t52.5 -7t52 7t34 24.5t19 46.5t6 73zM370 517q0 -106 -37 -150t-122 -44q-43 0 -73.5 10.5t-50 33.5t-28.5 60t-9 90q0 105 37.5 148.5t123.5 43.5
q85 0 122 -43.5t37 -148.5zM556 672q6 14 10 21t12 7h23q14 0 14 -13q0 -2 -2 -7.5t-3 -7.5l-284 -644q-6 -14 -10 -21t-12 -7h-23q-5 0 -9.5 2.5t-4.5 10.5q0 2 2 7.5t3 7.5zM784 185q0 43 -6 71.5t-19 46t-34 24.5t-52 7t-52.5 -7t-35 -24.5t-19.5 -46t-6 -71.5
q0 -44 6 -73t19.5 -46.5t35 -24.5t52.5 -7t52 7t34 24.5t19 46.5t6 73zM832 185q0 -106 -37 -150t-122 -44q-43 0 -73.5 10.5t-50 33.5t-28.5 60t-9 90q0 105 37.5 148.5t123.5 43.5q85 0 122 -43.5t37 -148.5z" />
    <glyph glyph-name="ampersand" unicode="&#x26;" horiz-adv-x="623" 
d="M558 363q0 -17 -2 -47.5t-7.5 -65t-14.5 -67.5t-24 -55l99 -99q9 -9 9 -15q0 -14 -11 -14h-32q-5 0 -8 3l-6 6l-79 79q-14 -18 -30.5 -35.5t-41.5 -31t-61 -22t-89 -8.5q-65 0 -107.5 14t-67.5 40.5t-35 63.5t-10 82q0 47 16.5 79t40 54t49.5 34.5t45 20.5q-11 13 -29 32
t-34.5 41.5t-28.5 49t-12 55.5q0 35 7 63t28 48t58.5 30.5t97.5 10.5q92 0 134 -35.5t42 -116.5q0 -36 -15 -64.5t-40.5 -51t-58.5 -40.5t-69 -33l204 -205q14 29 23 78t10 122q0 14 3 21.5t14 7.5h17q11 0 13.5 -7.5t2.5 -21.5zM260 35q71 0 114 22.5t75 63.5l-225 226
q-29 -11 -53.5 -24.5t-42.5 -31.5t-28 -42t-10 -58q0 -86 40 -121t130 -35zM137 559q0 -20 8.5 -39.5t22.5 -39.5t32.5 -40t38.5 -40q81 33 123 68.5t42 88.5q0 57 -29.5 82.5t-95.5 25.5q-43 0 -70.5 -6t-43.5 -18.5t-22 -33t-6 -48.5z" />
    <glyph glyph-name="quotesingle" unicode="'" horiz-adv-x="134" 
d="M82 448q0 -8 -2.5 -10.5t-7.5 -2.5h-10q-10 0 -10 13l-12 235q0 7 2.5 12t13.5 5h22q11 0 13.5 -5t2.5 -12l-12 -235v0z" />
    <glyph glyph-name="parenleft" unicode="(" horiz-adv-x="232" 
d="M50 345q0 102 31 197t89 179q4 6 8 6q3 0 7 -2l2 -1q5 -3 5 -8q0 -2 -2.5 -7.5t-8.5 -20.5q-7 -16 -19.5 -49.5t-25 -79t-22 -100.5t-9.5 -114q0 -55 8 -107t20 -96.5t25 -80.5t23 -59q4 -8 7.5 -17t3.5 -11t-0.5 -4t-4.5 -4l-2 -1q-4 -2 -7 -2q-4 0 -8 6q-58 85 -89 180
t-31 196z" />
    <glyph glyph-name="parenright" unicode=")" horiz-adv-x="232" 
d="M182 345q0 -101 -31 -196t-89 -180q-2 -3 -3.5 -4.5t-4.5 -1.5t-7 2l-2 1q-4 2 -4.5 4t-0.5 4t3.5 11t7.5 17q10 23 23 59t25 80.5t20 96.5t8 107q0 59 -9.5 114t-22 100.5t-25 79t-19.5 49.5q-6 15 -8.5 20.5t-2.5 7.5q0 5 5 8l2 1q4 2 7 2t8 -6q58 -84 89 -179t31 -197
z" />
    <glyph glyph-name="asterisk" unicode="*" horiz-adv-x="425" 
d="M223 501l21 -132q0 -28 -27 -28h-10q-27 0 -27 28l21 132l-104 -84q-7 -6 -17 -6q-11 0 -20 15l-5 9q-5 7 -5 16q0 6 3.5 12t11.5 9l125 48l-125 48q-8 3 -11.5 9t-3.5 12q0 9 5 17l5 9q8 14 20 14q7 0 17 -5l104 -84l-21 132q0 28 27 28h10q27 0 27 -28l-21 -133l105 85
q4 3 8.5 4t8.5 1q12 0 20 -14l5 -9q5 -8 5 -17q0 -6 -3.5 -12t-11.5 -9l-125 -48l125 -48q8 -3 11.5 -9t3.5 -12q0 -9 -5 -16l-5 -9q-9 -15 -20 -15q-8 0 -17 6z" />
    <glyph glyph-name="plus" unicode="+" horiz-adv-x="495" 
d="M84 256q-9 0 -11.5 3t-2.5 11v16q0 8 2.5 11t11.5 3h141v142q0 9 3 11.5t11 2.5h16q8 0 11 -2.5t3 -11.5v-142h142q9 0 11.5 -3t2.5 -11v-16q0 -8 -2.5 -11t-11.5 -3h-142v-142q0 -9 -3 -11.5t-11 -2.5h-16q-8 0 -11 2.5t-3 11.5v142h-141v0z" />
    <glyph glyph-name="comma" unicode="," horiz-adv-x="228" 
d="M58 44q0 23 16 39t39 16t39 -16t16 -39q0 -42 -20 -83t-60 -75q-13 -11 -26 -19.5t-18 -8.5q-3 0 -7.5 6t-6.5 11q12 7 23.5 20t21 28.5t15.5 32t6 31.5q0 2 -6 5.5t-13 10t-13 16.5t-6 25z" />
    <glyph glyph-name="hyphen" unicode="-" horiz-adv-x="448" 
d="M364 300q9 0 11.5 -3t2.5 -11v-16q0 -8 -2.5 -11t-11.5 -3h-280q-9 0 -11.5 3t-2.5 11v16q0 8 2.5 11t11.5 3h280z" />
    <glyph glyph-name="period" unicode="." horiz-adv-x="228" 
d="M60 45q0 23 15.5 38.5t38.5 15.5t38.5 -15.5t15.5 -38.5t-15.5 -38.5t-38.5 -15.5t-38.5 15.5t-15.5 38.5z" />
    <glyph glyph-name="slash" unicode="/" horiz-adv-x="368" 
d="M299 672q6 14 10 21t12 7h23q14 0 14 -13q0 -2 -2 -7.5t-3 -7.5l-284 -644q-6 -14 -10 -21t-12 -7h-23q-5 0 -9.5 2.5t-4.5 10.5q0 2 2 7.5t3 7.5z" />
    <glyph glyph-name="zero" unicode="0" horiz-adv-x="614" 
d="M55 350q0 102 12.5 170.5t41.5 110.5t77.5 60t120.5 18t120.5 -18t77.5 -60t41.5 -110.5t12.5 -170.5t-12.5 -170.5t-41.5 -110.5t-77.5 -60t-120.5 -18t-120.5 18t-77.5 60t-41.5 110.5t-12.5 170.5zM509 350q0 90 -8.5 150t-31 97t-62 52.5t-100.5 15.5t-100.5 -15.5
t-62 -52.5t-31 -97t-8.5 -150t8.5 -150t31 -97t62 -52.5t100.5 -15.5t100.5 15.5t62 52.5t31 97t8.5 150z" />
    <glyph glyph-name="one" unicode="1" horiz-adv-x="381" 
d="M68 0q-7 0 -10 3t-3 12v13q0 10 3 13t10 3h119v603l-123 -39q-6 -2 -10 -2q-9 0 -9 16v15q0 8 3 11t10 5q38 12 69 23q26 9 49 16.5t26 7.5h20q10 0 12.5 -3t2.5 -10v-643h111q7 0 10 -3t3 -13v-13q0 -9 -3 -12t-10 -3h-280v0z" />
    <glyph glyph-name="two" unicode="2" horiz-adv-x="463" 
d="M185 665q-29 0 -52 -5.5t-39.5 -11.5t-26.5 -11.5t-13 -5.5q-5 0 -13 12t-8 23q0 1 11.5 8t32 14.5t48 14t60.5 6.5q106 0 160.5 -44t54.5 -129q0 -28 -6.5 -53.5t-17 -47.5t-22.5 -39.5t-22 -30.5l-264 -321h347q7 0 10 -3t3 -13v-13q0 -9 -3 -12t-10 -3h-386
q-11 0 -12.5 5t-1.5 21v11q0 5 0.5 11t5.5 11l255 310q30 37 52 75.5t22 89.5q0 27 -8.5 51t-28 41.5t-51 28t-77.5 10.5z" />
    <glyph glyph-name="three" unicode="3" horiz-adv-x="443" 
d="M161 -9q-36 0 -63.5 4.5t-46 9.5t-27.5 10t-9 6q0 3 2 9t4.5 12t5.5 11t5 5q4 0 14 -3.5t26.5 -8t39 -8t49.5 -3.5q187 0 187 155q0 67 -45.5 107t-139.5 40h-55q-7 0 -10 3t-3 12v14q0 9 3 12t10 3h48q90 0 136 40.5t46 112.5q0 28 -8.5 52.5t-27.5 41.5t-50 27t-76 10
q-30 0 -54 -5.5t-41.5 -12.5t-28 -12.5t-13.5 -5.5q-2 0 -5.5 5t-7 11t-6 11.5t-2.5 7.5q0 1 11 8t31.5 15.5t49 15t64.5 6.5q60 0 101 -14t66 -38t36 -56t11 -67q0 -62 -31.5 -106t-85.5 -64q26 -10 49 -24t40.5 -35t27.5 -49.5t10 -66.5q0 -53 -17 -90.5t-48 -61.5
t-74.5 -35t-97.5 -11z" />
    <glyph glyph-name="four" unicode="4" horiz-adv-x="512" 
d="M221 692q3 8 11 8h32q9 0 9 -8q0 -2 -1 -4.5t-3 -6.5l-195 -425h284v194q0 8 3 11t12 3h19q10 0 13 -3t3 -11v-194h70q8 0 11 -2.5t3 -12.5v-14q0 -9 -3 -12t-11 -3h-70v-199q0 -7 -3 -10t-13 -3h-19q-9 0 -12 3t-3 10v199h-331q-5 0 -11 2t-6 9q0 5 4 13l207 456v0z" />
    <glyph glyph-name="five" unicode="5" horiz-adv-x="468" 
d="M176 35q45 0 82 11.5t63.5 34t41.5 56.5t15 78q0 35 -9 67t-32 56t-63 38t-102 14h-106v297q0 7 3 10t12 3h304q8 0 10.5 -3t2.5 -12v-14q0 -10 -2.5 -12.5t-10.5 -2.5h-269v-222h88q48 0 89 -13.5t71 -40.5t47 -68.5t17 -97.5q0 -42 -14 -82t-44 -71.5t-78 -50.5
t-116 -19q-36 0 -63.5 4.5t-46 9.5t-27.5 10t-9 6q0 3 1.5 9t4 12t5.5 11t6 5q4 0 14 -3.5t26.5 -8t39 -8t49.5 -3.5z" />
    <glyph glyph-name="six" unicode="6" horiz-adv-x="524" 
d="M334 681q-21 -26 -45.5 -57.5t-49.5 -65.5t-48.5 -70.5t-43.5 -72.5q12 7 30 13q15 5 38 9t54 4q47 0 87.5 -15t70 -43.5t46 -70t16.5 -94.5q0 -44 -13.5 -85t-41.5 -72.5t-71.5 -50.5t-103.5 -19q-58 0 -100 16t-69.5 46t-41 71.5t-13.5 92.5q0 46 18 101t51 116
t79 126.5t102 131.5q7 8 13 8h31q10 0 10 -7q0 -2 -0.5 -4.5t-4.5 -7.5zM85 218q0 -40 10 -73.5t31 -58t54 -38t80 -13.5q81 0 130 48t49 136q0 36 -10 68.5t-32.5 57t-60 38.5t-91.5 14q-26 0 -48 -5t-38 -11q-19 -7 -34 -15q-9 -16 -16 -35t-12.5 -39t-8.5 -39t-3 -35z
" />
    <glyph glyph-name="seven" unicode="7" horiz-adv-x="437" 
d="M33 656q-8 0 -10.5 2.5t-2.5 12.5v14q0 9 2.5 12t10.5 3h375q3 0 6 -2t3 -7q0 -2 -2 -7.5t-4 -9.5l-275 -667q-3 -7 -8 -7h-32q-5 0 -7 3t-2 5q0 3 3 11l262 637h-319v0z" />
    <glyph glyph-name="eight" unicode="8" horiz-adv-x="561" 
d="M281 -9q-126 0 -183.5 47.5t-57.5 153.5q0 37 10.5 65.5t28.5 49.5t42.5 35t53.5 22q-21 7 -41 19t-35.5 32t-25 48t-9.5 67q0 43 11.5 76t37 56t67 35t101.5 12q117 0 166.5 -44.5t49.5 -134.5q0 -39 -10 -67t-26 -47t-35.5 -30.5t-38.5 -17.5q64 -21 99 -64t35 -112
q0 -106 -57 -153.5t-183 -47.5zM282 381q39 1 69.5 13.5t51.5 32.5t32.5 46.5t11.5 56.5q0 76 -40 105.5t-126 29.5t-126.5 -29.5t-40.5 -105.5q0 -62 38 -102t130 -47zM281 35q101 0 145.5 37.5t44.5 120.5q0 39 -15.5 66t-43 44.5t-65 25.5t-81.5 8q-43 0 -76 -11.5
t-55 -31t-33.5 -45.5t-11.5 -56q0 -83 45 -120.5t146 -37.5z" />
    <glyph glyph-name="nine" unicode="9" horiz-adv-x="523" 
d="M187 19q42 51 91.5 116t100.5 154q-12 -7 -30 -12q-15 -5 -38 -8.5t-54 -3.5q-47 0 -87.5 15t-70.5 43.5t-47 69.5t-17 92q0 43 13 83.5t41 71.5t71.5 50t103.5 19q58 0 100.5 -16t70 -46t40.5 -71.5t13 -92.5q0 -46 -18 -101t-50.5 -115.5t-78.5 -126t-102 -132.5
q-7 -8 -13 -8h-34q-9 0 -9 9q0 2 0.5 4t3.5 6zM438 482q0 40 -10 73.5t-31.5 58t-54.5 38t-79 13.5q-80 0 -129 -47.5t-49 -133.5q0 -35 10 -67t33 -56t60 -38.5t92 -14.5q26 0 47.5 5t38.5 11q19 7 35 16q17 32 27 71t10 71z" />
    <glyph glyph-name="colon" unicode=":" horiz-adv-x="228" 
d="M60 45q0 23 15.5 38.5t38.5 15.5t38.5 -15.5t15.5 -38.5t-15.5 -38.5t-38.5 -15.5t-38.5 15.5t-15.5 38.5zM60 336q0 23 15.5 38.5t38.5 15.5t38.5 -15.5t15.5 -38.5t-15.5 -38.5t-38.5 -15.5t-38.5 15.5t-15.5 38.5z" />
    <glyph glyph-name="semicolon" unicode=";" horiz-adv-x="228" 
d="M58 44q0 23 16 39t39 16t39 -16t16 -39q0 -42 -20 -83t-60 -75q-13 -11 -26 -19.5t-18 -8.5q-3 0 -7.5 6t-6.5 11q12 7 23.5 20t21 28.5t15.5 32t6 31.5q0 2 -6 5.5t-13 10t-13 16.5t-6 25zM60 336q0 23 15.5 38.5t38.5 15.5t38.5 -15.5t15.5 -38.5t-15.5 -38.5
t-38.5 -15.5t-38.5 15.5t-15.5 38.5z" />
    <glyph glyph-name="less" unicode="&#x3c;" horiz-adv-x="434" 
d="M78 262q-8 5 -8 10v13q0 5 8 10l254 176q5 4 10 4t10 -8l7 -11q5 -7 5 -9q0 -5 -8 -10l-229 -158l229 -159q8 -5 8 -10q0 -3 -5 -10l-7 -10q-5 -8 -9 -8q-6 0 -11 4z" />
    <glyph glyph-name="equal" unicode="=" horiz-adv-x="523" 
d="M439 385q9 0 11.5 -3t2.5 -11v-16q0 -8 -2.5 -11t-11.5 -3h-355q-9 0 -11.5 3t-2.5 11v16q0 8 2.5 11t11.5 3h355zM439 217q9 0 11.5 -3t2.5 -11v-16q0 -8 -2.5 -11t-11.5 -3h-355q-9 0 -11.5 3t-2.5 11v16q0 8 2.5 11t11.5 3h355z" />
    <glyph glyph-name="greater" unicode="&#x3e;" horiz-adv-x="434" 
d="M102 86q-5 -4 -11 -4q-4 0 -9 8l-7 10q-5 7 -5 10q0 5 8 10l229 159l-229 158q-8 5 -8 10q0 2 5 9l7 11q5 8 10 8t10 -4l254 -176q8 -5 8 -10v-13q0 -5 -8 -10z" />
    <glyph glyph-name="question" unicode="?" horiz-adv-x="467" 
d="M153 188q-11 0 -13.5 4.5t-2.5 18.5v34q0 27 2 47t10 36.5t25.5 31.5t47.5 32q45 25 73.5 44.5t44 38.5t21.5 38.5t6 44.5q0 48 -34.5 77.5t-117.5 29.5q-27 0 -52.5 -5t-45 -11.5t-31.5 -11.5t-14 -5q-5 0 -9 5t-7 11t-4.5 12t-1.5 8t14 8.5t37.5 14t53 13t60.5 5.5
q55 0 93.5 -10.5t62.5 -30t35 -47.5t11 -63q0 -33 -9 -59t-28 -48t-47 -42.5t-66 -42.5q-26 -16 -42 -26t-24.5 -22t-11 -28.5t-2.5 -44.5v-34q0 -14 -2.5 -18.5t-13.5 -4.5h-18zM108 45q0 23 15.5 38.5t38.5 15.5t38.5 -15.5t15.5 -38.5t-15.5 -38.5t-38.5 -15.5
t-38.5 15.5t-15.5 38.5z" />
    <glyph glyph-name="at" unicode="@" horiz-adv-x="929" 
d="M567 366q-14 8 -31 15q-14 5 -33.5 10t-41.5 5q-75 0 -109 -44.5t-34 -146.5q0 -40 10 -67t26 -43.5t36 -24t39 -7.5q48 0 79 21.5t45 42.5zM608 -129q2 -6 2 -9q0 -5 -13.5 -10t-37 -10t-54 -8t-63.5 -3q-87 0 -155.5 25.5t-115 73t-71 115.5t-24.5 153t23.5 161.5
t72.5 134t124.5 91t179.5 33.5q90 0 160 -27t118.5 -72.5t73.5 -106.5t25 -128q0 -69 -16.5 -119t-43.5 -82.5t-62.5 -48t-72.5 -15.5q-27 0 -44.5 9t-28.5 20q-12 12 -18 29q-16 -17 -38 -29q-19 -11 -45.5 -20t-60.5 -9q-33 0 -61.5 13t-49.5 37t-32.5 58.5t-11.5 77.5
q0 55 10.5 99t34 74t61 46t90.5 16q21 0 42.5 -4.5t42.5 -12t39 -16.5t31 -18l-16 -266q0 -25 15 -42.5t48 -17.5q25 0 49.5 12.5t44 39.5t31.5 69t12 100q0 63 -24 116t-67.5 91.5t-103.5 60.5t-131 22q-99 0 -166.5 -33t-108.5 -86.5t-58.5 -120.5t-17.5 -136
q0 -81 23.5 -141.5t65.5 -101t100 -60.5t127 -20q48 0 85 7.5t60 13.5q8 2 9 2q4 0 5 -3.5t3 -8.5z" />
    <glyph glyph-name="A" unicode="A" horiz-adv-x="550" 
d="M407 258l-132 399l-132 -399h264zM538 13q2 -6 2 -7q0 -6 -11 -6h-26q-8 0 -10 2.5t-5 10.5l-67 201h-293l-66 -201q-2 -7 -4.5 -10t-10.5 -3h-26q-11 0 -11 6q0 1 2 7l221 674q2 7 5 10t11 3h53q7 0 10 -2t6 -11z" />
    <glyph glyph-name="B" unicode="B" horiz-adv-x="550" 
d="M60 687q0 7 3 10t12 3h226q62 0 100 -17t58.5 -43t27.5 -58t7 -62q0 -58 -22 -95.5t-54 -57.5q44 -20 70.5 -60.5t26.5 -115.5q0 -85 -48 -138t-140 -53h-252q-9 0 -12 3t-3 10v674zM465 191q0 75 -36 112.5t-116 37.5h-203v-297h212q29 0 55 7.5t45.5 25t31 45.5
t11.5 69zM444 520q0 29 -7 54t-24 43t-45.5 28.5t-72.5 10.5h-185v-271h185q45 0 73.5 10.5t45.5 29t23.5 43t6.5 52.5z" />
    <glyph glyph-name="C" unicode="C" horiz-adv-x="509" 
d="M311 -9q-72 0 -121.5 19.5t-80.5 62t-45 111t-14 166.5t14 166.5t45 111t80.5 62t121.5 19.5q36 0 62.5 -5t44 -11.5t26.5 -12t9 -6.5q0 -5 -8 -20q-5 -9 -8 -12t-5 -3q-3 0 -11.5 4t-23 9t-36 9t-50.5 4q-60 0 -100.5 -16.5t-65 -54t-35 -97.5t-10.5 -147t10.5 -147
t35 -97.5t65 -54t100.5 -16.5q31 0 55.5 6t42 12.5t28 12.5t13.5 6q4 0 11 -13q8 -15 8 -21q0 -2 -11 -9.5t-31 -16t-49.5 -15t-66.5 -6.5z" />
    <glyph glyph-name="D" unicode="D" horiz-adv-x="585" 
d="M60 687q0 7 3 10t12 3h188q72 0 123.5 -18t84.5 -59t48.5 -108t15.5 -165t-15.5 -165t-48.5 -108t-84.5 -59t-123.5 -18h-188q-9 0 -12 3t-3 10v674zM263 44q63 0 105.5 16t68.5 52t37 94.5t11 143.5t-11 143.5t-37 94.5t-68.5 52t-105.5 16h-153v-612h153z" />
    <glyph glyph-name="E" unicode="E" 
d="M60 687q0 7 3 10t12 3h349q8 0 10.5 -3t2.5 -12v-14q0 -10 -2.5 -12.5t-10.5 -2.5h-314v-274h295q8 0 10.5 -3t2.5 -12v-14q0 -9 -2.5 -12t-10.5 -3h-295v-294h314q8 0 10.5 -3t2.5 -13v-13q0 -9 -2.5 -12t-10.5 -3h-349q-9 0 -12 3t-3 10v674v0z" />
    <glyph glyph-name="F" unicode="F" horiz-adv-x="468" 
d="M60 687q0 7 3 10t12 3h340q7 0 10 -3t3 -12v-14q0 -10 -3 -12.5t-10 -2.5h-305v-274h286q7 0 10 -3t3 -12v-14q0 -9 -3 -12t-10 -3h-286v-325q0 -7 -3 -10t-12 -3h-20q-9 0 -12 3t-3 10v674v0z" />
    <glyph glyph-name="G" unicode="G" horiz-adv-x="563" 
d="M453 295q0 8 3 10.5t12 2.5h20q10 0 12.5 -2.5t2.5 -10.5v-254q0 -7 -2 -11.5t-10 -7.5q-7 -3 -23 -8t-39.5 -10.5t-53 -9t-64.5 -3.5q-72 0 -121.5 19.5t-80.5 62t-45 111t-14 166.5t14 166.5t45 111t80.5 62t121.5 19.5q32 0 57.5 -4.5t43 -10t26.5 -10.5t9 -6
q0 -2 -1.5 -7.5t-5.5 -12.5q-9 -17 -13 -17q-3 0 -11 3.5t-22.5 8t-35 8.5t-47.5 4q-60 0 -100.5 -16.5t-65 -54t-35 -97.5t-10.5 -147t10.5 -147t35 -97.5t65 -54t100.5 -16.5q42 0 80.5 7t61.5 15v238v0z" />
    <glyph glyph-name="H" unicode="H" horiz-adv-x="563" 
d="M453 687q0 7 3 10t12 3h20q10 0 12.5 -3t2.5 -10v-674q0 -7 -2.5 -10t-12.5 -3h-20q-9 0 -12 3t-3 10v326h-343v-326q0 -7 -3 -10t-12 -3h-20q-9 0 -12 3t-3 10v674q0 7 3 10t12 3h20q9 0 12 -3t3 -10v-304h343v304v0z" />
    <glyph glyph-name="I" unicode="I" horiz-adv-x="170" 
d="M60 687q0 7 3 10t12 3h20q15 0 15 -13v-674q0 -7 -3 -10t-12 -3h-20q-10 0 -12.5 3.5t-2.5 9.5v674v0z" />
    <glyph glyph-name="J" unicode="J" horiz-adv-x="421" 
d="M20 24q0 2 2 7.5t5 11.5t6 10.5t6 4.5q2 0 5.5 -1.5t11.5 -4.5q5 -2 30 -9.5t71 -7.5q36 0 65.5 8.5t50 34t32 72t11.5 123.5v383h-181q-7 0 -10 2.5t-3 12.5v14q0 9 3 12t10 3h216q10 0 12.5 -3t2.5 -10v-405q0 -75 -9.5 -129.5t-33 -90.5t-64 -53.5t-102.5 -17.5
q-64 0 -100.5 12.5t-36.5 20.5z" />
    <glyph glyph-name="K" unicode="K" horiz-adv-x="485" 
d="M365 692q6 8 12 8h33q10 0 10 -9q0 -5 -4 -10l-259 -326l311 -332q7 -7 7 -14q0 -9 -9 -9h-33q-5 0 -13 8l-310 326v-321q0 -7 -3 -10t-12 -3h-20q-9 0 -12 3t-3 10v674q0 7 3 10t12 3h20q9 0 12 -3t3 -10v-314l255 319v0z" />
    <glyph glyph-name="L" unicode="L" horiz-adv-x="458" 
d="M75 0q-9 0 -12 3t-3 10v674q0 7 3 10t12 3h20q9 0 12 -3t3 -10v-643h305q7 0 10 -3t3 -13v-13q0 -9 -3 -12t-10 -3h-340v0z" />
    <glyph glyph-name="M" unicode="M" horiz-adv-x="600" 
d="M60 687q0 7 3 10t12 3h21q9 0 15 -8l189 -312l189 312q4 5 6.5 6.5t7.5 1.5h22q9 0 12 -3t3 -10v-674q0 -7 -3 -10t-12 -3h-20q-9 0 -12 3t-3 10v587l-165 -266q-5 -8 -11 -8h-28q-7 0 -12 8l-164 266v-587q0 -7 -3 -10t-12 -3h-20q-9 0 -12 3t-3 10v674z" />
    <glyph glyph-name="N" unicode="N" horiz-adv-x="564" 
d="M454 687q0 7 2.5 10t12.5 3h20q9 0 12 -3t3 -10v-674q0 -7 -3 -10t-12 -3h-23q-11 0 -14 7l-342 584v-578q0 -7 -3 -10t-12 -3h-20q-9 0 -12 3t-3 10v674q0 7 3 10t12 3h22q10 0 14 -8l343 -589v584v0z" />
    <glyph glyph-name="O" unicode="O" horiz-adv-x="613" 
d="M513 350q0 76 -8 134.5t-30.5 98.5t-63 61t-105.5 21t-105 -21t-62.5 -61t-30.5 -98.5t-8 -134.5t8 -134.5t30.5 -98.5t62.5 -61t105 -21t105.5 21t63 61t30.5 98.5t8 134.5zM50 350q0 97 14 165.5t44.5 111.5t79 62.5t118.5 19.5t119 -19.5t79.5 -62.5t44.5 -111.5
t14 -165.5t-14 -165.5t-44.5 -111.5t-79.5 -62.5t-119 -19.5t-118.5 19.5t-79 62.5t-44.5 111.5t-14 165.5z" />
    <glyph glyph-name="P" unicode="P" horiz-adv-x="534" 
d="M60 687q0 7 3 10t12 3h230q61 0 100 -17t61 -44.5t30 -62.5t8 -70t-8 -70t-30 -62.5t-61 -44.5t-100 -17h-195v-299q0 -7 -3 -10t-12 -3h-20q-9 0 -12 3t-3 10v674zM454 506q0 34 -7.5 62t-25 47.5t-47 30t-73.5 10.5h-191v-300h191q44 0 73.5 10.5t47 30t25 47.5t7.5 62
z" />
    <glyph glyph-name="Q" unicode="Q" horiz-adv-x="613" 
d="M563 350q0 -159 -38.5 -242.5t-128.5 -106.5l36 -128q1 -3 1 -7q0 -7 -12 -10l-13 -4q-4 -2 -8 -2q-5 0 -6.5 3t-3.5 8l-37 133l-46 -3q-70 0 -119 19.5t-79.5 62.5t-44.5 111.5t-14 165.5t14 165.5t44.5 111.5t79.5 62.5t119 19.5t118.5 -19.5t79 -62.5t44.5 -111.5
t14 -165.5zM100 350q0 -76 8 -134.5t30.5 -98.5t63 -61t105.5 -21q9 0 17.5 0.5t16.5 1.5l-31 115q-1 3 -2 7t-1 6q0 5 3 5.5t5 1.5l20 5q4 1 8 1q5 0 8 -11l33 -122q40 12 65 37.5t39 64t19.5 89.5t5.5 114q0 76 -8 134.5t-30.5 98.5t-62.5 61t-105 21t-105.5 -21t-63 -61
t-30.5 -98.5t-8 -134.5z" />
    <glyph glyph-name="R" unicode="R" horiz-adv-x="551" 
d="M293 298h-183v-285q0 -7 -3 -10t-12 -3h-20q-9 0 -12 3t-3 10v674q0 7 3 10t12 3h230q61 0 100 -18.5t61 -48t30 -65.5t8 -71q0 -32 -6.5 -64.5t-24.5 -60t-48.5 -47t-78.5 -25.5l166 -281q4 -5 4 -10q0 -9 -10 -9h-32q-8 0 -12 8zM453 497q0 34 -7.5 63t-25 50.5
t-46.5 33.5t-73 12h-191v-313h191q44 0 73 11.5t46.5 31.5t25 48.5t7.5 62.5z" />
    <glyph glyph-name="S" unicode="S" horiz-adv-x="459" 
d="M54 73q4 0 16 -6t30.5 -13t42.5 -13t52 -6q52 0 86.5 12t55 31.5t29 43.5t8.5 48q0 19 -7 38.5t-26.5 41t-53.5 47t-88 57.5q-71 42 -114 88t-43 108q0 73 50 116t152 43q36 0 62.5 -5t44 -11.5t26.5 -12t9 -6.5q0 -2 -2.5 -8t-6 -12t-7 -11t-5.5 -5q-3 0 -11.5 4
t-23.5 9.5t-36.5 9.5t-50.5 4q-43 0 -72 -8.5t-46.5 -24t-25 -36.5t-7.5 -46q0 -41 33.5 -80t114.5 -88q40 -25 74 -48.5t58.5 -48t38 -52.5t13.5 -63q0 -41 -16 -74.5t-46 -56.5t-72.5 -35.5t-94.5 -12.5q-37 0 -66.5 6.5t-50.5 15t-32 16t-11 9.5t2 8t5 12t6.5 10.5
t5.5 4.5z" />
    <glyph glyph-name="T" unicode="T" horiz-adv-x="506" 
d="M29 657q-8 0 -11 2.5t-3 12.5v13q0 9 3 12t11 3h449q7 0 10 -3t3 -12v-13q0 -10 -3 -12.5t-10 -2.5h-200v-644q0 -7 -2.5 -10t-12.5 -3h-20q-9 0 -12 3t-3 10v644h-199v0z" />
    <glyph glyph-name="U" unicode="U" horiz-adv-x="579" 
d="M290 35q56 0 92 13.5t56.5 43t28 77t7.5 115.5v403q0 7 3 10t12 3h19q10 0 13 -3t3 -10v-403q0 -78 -11 -134t-38 -91t-72 -51.5t-113 -16.5t-113.5 16.5t-72.5 51.5t-38 91t-11 134v403q0 7 3 10t12 3h20q9 0 12 -3t3 -10v-403q0 -68 7.5 -115.5t28 -77t56.5 -43
t93 -13.5z" />
    <glyph glyph-name="V" unicode="V" horiz-adv-x="528" 
d="M12 687q-2 6 -2 7q0 6 11 6h27q8 0 10.5 -3t4.5 -10l201 -646l202 646q2 7 4.5 10t10.5 3h27q10 0 10 -6q0 -1 -2 -7l-210 -674q-2 -7 -4.5 -10t-10.5 -3h-53q-8 0 -11 3t-5 10z" />
    <glyph glyph-name="W" unicode="W" horiz-adv-x="836" 
d="M607 41q30 121 53.5 213t40.5 160.5t28.5 115.5t19.5 77l20 81q2 5 3 8.5t8 3.5h32q9 0 9 -5l-2 -8l-170 -674q-2 -7 -4.5 -10t-10.5 -3h-53q-8 0 -10.5 3t-4.5 10l-148 595l-148 -595q-2 -7 -4.5 -10t-10.5 -3h-52q-8 0 -10.5 3t-4.5 10l-171 674l-2 8q0 5 9 5h32
q8 0 9 -4t3 -9l161 -646l162 646q2 6 3.5 9.5t8.5 3.5h31q8 0 11 -13l162 -646v0z" />
    <glyph glyph-name="X" unicode="X" horiz-adv-x="512" 
d="M499 19q2 -4 2.5 -6t0.5 -4t-2.5 -5.5t-8.5 -3.5h-31q-6 0 -10 7l-194 318l-194 -318q-4 -7 -10 -7h-31q-6 0 -8.5 3.5t-2.5 5.5t0.5 4t2.5 6l214 352l-188 310q-4 7 -4 11q0 8 9 8h35q5 0 6.5 -2.5t3.5 -5.5l167 -274l167 274q5 8 10 8h35q9 0 9 -8q0 -4 -4 -11
l-189 -310l215 -352v0z" />
    <glyph glyph-name="Y" unicode="Y" horiz-adv-x="483" 
d="M10 692q0 8 10 8h33q7 0 12 -10l177 -343l178 345q5 8 11 8h33q9 0 9 -8q0 -4 -3 -11l-203 -383v-285q0 -7 -3 -10t-12 -3h-20q-9 0 -12 3t-3 10v285l-203 383q-4 7 -4 11z" />
    <glyph glyph-name="Z" unicode="Z" horiz-adv-x="516" 
d="M59 656q-7 0 -10 2.5t-3 12.5v14q0 9 3 12t10 3h421q11 0 11 -9q0 -4 -4 -11l-389 -636h373q7 0 10 -3t3 -13v-13q0 -9 -3 -12t-10 -3h-435q-6 0 -8.5 3.5t-2.5 5.5t0.5 4t2.5 6l387 637h-356v0z" />
    <glyph glyph-name="bracketleft" unicode="[" horiz-adv-x="280" 
d="M74 -209q-10 0 -12 3t-2 11v900q0 8 2.5 11t11.5 3h162q9 0 11.5 -3t2.5 -11v-16q0 -8 -2.5 -11t-11.5 -3h-125v-840h125q9 0 11.5 -3t2.5 -11v-16q0 -8 -2.5 -11t-11.5 -3h-162v0z" />
    <glyph glyph-name="backslash" unicode="\" horiz-adv-x="368" 
d="M353 28q1 -2 3 -7.5t2 -7.5q0 -8 -4.5 -10.5t-9.5 -2.5h-23q-8 0 -12 7t-10 21l-284 644q-1 2 -3 7.5t-2 7.5q0 13 14 13h23q8 0 12 -7t10 -21z" />
    <glyph glyph-name="bracketright" unicode="]" horiz-adv-x="280" 
d="M44 -209q-9 0 -11.5 3t-2.5 11v16q0 8 2.5 11t11.5 3h125v840h-125q-9 0 -11.5 3t-2.5 11v16q0 8 2.5 11t11.5 3h162q9 0 11.5 -3t2.5 -11v-900q0 -8 -2 -11t-12 -3h-162z" />
    <glyph glyph-name="underscore" unicode="_" horiz-adv-x="518" 
d="M494 -70q9 0 11.5 -3t2.5 -11v-16q0 -8 -2.5 -11t-11.5 -3h-470q-9 0 -11.5 3t-2.5 11v16q0 8 2.5 11t11.5 3h470z" />
    <glyph glyph-name="grave" unicode="`" horiz-adv-x="300" 
d="M65 643q-15 9 -15 20q0 7 5 13l11 15q4 5 7 7t9 2t10.5 -2t9.5 -7l137 -118q11 -9 11 -14q0 -3 -3 -7l-6 -7q-5 -5 -7 -5q-3 0 -16 8z" />
    <glyph glyph-name="a" unicode="a" horiz-adv-x="506" 
d="M489 35q8 0 9 -12q1 -5 2 -12.5t1 -9.5q0 -3 -11 -6.5t-32 -3.5q-31 0 -49.5 13.5t-27.5 39.5q-4 -5 -16 -14t-30.5 -17.5t-42.5 -15t-53 -6.5q-44 0 -79.5 13t-61 41.5t-39.5 74.5t-14 112q0 70 15 116.5t42 74t65.5 39t85.5 11.5q61 0 106 -15.5t65 -28.5v-334
q0 -28 9 -45t36 -17q8 0 13 1t7 1zM374 401q-17 8 -36 14q-17 5 -38.5 9.5t-45.5 4.5q-36 0 -65 -9t-50 -31.5t-32.5 -60.5t-11.5 -96q0 -55 11 -92.5t30.5 -61t47 -33.5t60.5 -10q32 0 56 9t41 20q19 13 33 30v307z" />
    <glyph glyph-name="b" unicode="b" horiz-adv-x="484" 
d="M60 687q0 11 15 15q7 1 12 3t9 3t6 1q6 0 7 -2.5t1 -11.5v-266q15 12 34 22q17 8 41 15t55 7q43 0 80 -13t63 -41.5t41 -74.5t15 -112q0 -70 -14.5 -116.5t-42.5 -74t-67.5 -39t-90.5 -11.5q-41 0 -81.5 8t-82.5 20v668zM389 232q0 56 -11 93.5t-31.5 60.5t-49 33
t-62.5 10q-29 0 -51.5 -7.5t-39.5 -16.5q-19 -11 -34 -23v-328q17 -6 36 -10q17 -4 38 -6.5t45 -2.5q36 0 65.5 9t50.5 31t32.5 60t11.5 97z" />
    <glyph glyph-name="c" unicode="c" horiz-adv-x="391" 
d="M248 35q47 0 70.5 9.5t30.5 9.5q6 0 8 -2.5t4 -9.5l2 -8q1 -3 2 -6.5t1 -4.5q0 -5 -10 -11t-26 -10.5t-36 -7.5t-40 -3q-53 0 -92.5 13t-65.5 41.5t-38.5 74.5t-12.5 112q0 67 13.5 113.5t39.5 74.5t64.5 40.5t88.5 12.5q14 0 31 -1.5t31.5 -4.5t24 -7.5t9.5 -10.5
q0 -2 -1 -4.5t-2 -5.5q-1 -4 -2 -7q-3 -8 -5 -11.5t-7 -3.5q-7 0 -26.5 6t-51.5 6q-37 0 -66 -8.5t-49.5 -30t-31 -60t-10.5 -98.5q0 -51 8 -88t26 -61.5t47 -36t72 -11.5z" />
    <glyph glyph-name="d" unicode="d" horiz-adv-x="484" 
d="M424 19q-42 -12 -83 -20t-82 -8q-50 0 -90 11t-67.5 38.5t-42 74t-14.5 117.5q0 66 16 112t44 74.5t65.5 41.5t80.5 13q29 0 51.5 -5.5t38.5 -12.5q18 -8 33 -18v258q0 9 1 11.5t6 2.5q2 0 5.5 -1t8.5 -2q5 -2 11 -3q10 -3 14 -6t4 -10v-668zM374 390q-14 10 -32 19
q-15 8 -36.5 14t-48.5 6q-34 0 -63.5 -10.5t-51.5 -33.5t-34.5 -60.5t-12.5 -92.5q0 -60 11.5 -98t32 -60t50 -30.5t65.5 -8.5q23 0 45 2.5t39 6.5q19 4 36 10v336z" />
    <glyph glyph-name="e" unicode="e" horiz-adv-x="462" 
d="M367 269q0 33 -6.5 62t-22 50.5t-40 34.5t-60.5 13q-40 0 -67 -13.5t-43.5 -36.5t-24 -55t-7.5 -68h271v13zM262 -9q-62 0 -103.5 14.5t-66.5 44.5t-36 75.5t-11 106.5q0 115 46 178t147 63q91 0 135 -55.5t44 -170.5q0 -21 -6.5 -28t-23.5 -7h-291q0 -43 8.5 -76
t28 -55.5t52.5 -34t81 -11.5q50 0 79.5 11t36.5 11q8 0 12.5 -13t4.5 -20q0 -6 -12.5 -11.5t-32 -10.5t-44 -8t-48.5 -3z" />
    <glyph glyph-name="f" unicode="f" horiz-adv-x="278" 
d="M34 420q-8 0 -11 3t-3 12v13q0 10 3 13t11 3h56v41q0 54 3 92.5t15 63t37 36.5t69 12q24 0 46.5 -5t22.5 -13q0 -2 -1 -6.5t-2 -7.5q-3 -11 -5.5 -15t-9.5 -4q-3 0 -17 3.5t-37 3.5q-26 0 -40.5 -9t-21 -27t-8 -44.5t-1.5 -61.5v-59h107q8 0 10.5 -3t2.5 -13v-12
q0 -11 -3 -13.5t-10 -2.5h-107v-407q0 -7 -3 -10t-12 -3h-20q-10 0 -12.5 3t-2.5 10v407h-56z" />
    <glyph glyph-name="g" unicode="g" 
d="M427 -40q0 -48 -13 -82t-37 -55.5t-58 -31t-76 -9.5q-23 0 -48.5 3t-46.5 7.5t-35 10t-14 10.5q0 8 5.5 21.5t10.5 13.5q3 0 14 -3.5t27.5 -7.5t38 -7.5t46.5 -3.5q67 0 101.5 31.5t34.5 104.5v75q-8 -6 -21 -14t-30.5 -15t-39.5 -12t-47 -5q-44 0 -79.5 13t-61 41.5
t-39.5 74.5t-14 112q0 70 15 116.5t42 74t65.5 39t85.5 11.5q62 0 108 -15.5t66 -28.5v-469zM377 400q-18 8 -37 14q-17 5 -39 9.5t-47 4.5q-37 0 -66.5 -8.5t-50 -30.5t-31.5 -60t-11 -97q0 -56 10.5 -94t29.5 -61t46.5 -32.5t62.5 -9.5q32 0 56.5 9t41.5 20q20 13 35 30
v306z" />
    <glyph glyph-name="h" unicode="h" horiz-adv-x="489" 
d="M60 687q0 7 3.5 9.5t11.5 5.5q7 1 12 3t9 3t6 1q6 0 7 -2.5t1 -11.5v-256q22 12 53.5 23t82.5 11q58 0 95 -14.5t57.5 -37t28 -50t7.5 -53.5v-305q0 -7 -3 -10t-12 -3h-19q-10 0 -13 3t-3 10v291q0 65 -36 95t-108 30q-26 0 -47 -5t-37.5 -11.5t-27.5 -13t-18 -10.5v-376
q0 -7 -3 -10t-12 -3h-20q-9 0 -12 3t-3 10v674v0z" />
    <glyph glyph-name="i" unicode="i" horiz-adv-x="175" 
d="M62 450q0 8 3 11t13 3h19q16 0 16 -14v-436q0 -8 -3 -11t-13 -3h-19q-11 0 -13.5 3.5t-2.5 10.5v436zM127 595q0 -17 -11.5 -28t-27.5 -11q-18 0 -29 11t-11 28q0 18 11 28.5t29 10.5q14 0 26.5 -11t12.5 -28z" />
    <glyph glyph-name="j" unicode="j" horiz-adv-x="231" 
d="M183 595q0 -17 -11.5 -28t-27.5 -11q-18 0 -29 11t-11 28q0 18 11 28.5t29 10.5q14 0 26.5 -11t12.5 -28zM43 -174q47 0 64 30.5t17 105.5v458h-105q-8 0 -11 3t-3 12v13q0 10 3 13t11 3h140q9 0 12 -3t3 -11v-490q0 -37 -4.5 -69.5t-18 -56.5t-39 -38t-66.5 -14
q-28 0 -34.5 3.5t-6.5 12.5v14q0 7 2 11t10 4q5 0 13 -0.5t13 -0.5z" />
    <glyph glyph-name="k" unicode="k" horiz-adv-x="387" 
d="M110 275h32l135 170q9 12 13 15.5t15 3.5h19q14 0 14 -13q0 -7 -6 -14l-149 -176l202 -235q5 -6 5.5 -9.5t0.5 -5.5q0 -4 -3 -7.5t-10 -3.5h-24q-9 0 -13.5 4t-11.5 12l-189 226h-30v-229q0 -7 -3 -10t-12 -3h-20q-9 0 -12 3t-3 10v674q0 7 3.5 9.5t11.5 5.5q7 1 12 3
t9 3t6 1q6 0 7 -2.5t1 -11.5v-420z" />
    <glyph glyph-name="l" unicode="l" horiz-adv-x="230" 
d="M105 171q0 -75 17.5 -105.5t64.5 -30.5q5 0 13 0.5t12 0.5q13 0 13 -12v-19q0 -8 -6.5 -11t-34.5 -3q-42 0 -67.5 13.5t-39 37.5t-18 56.5t-4.5 69.5v518q0 7 3.5 9.5t11.5 5.5l12 4q5 2 9.5 3t6.5 1q5 0 6 -2.5t1 -11.5v-524z" />
    <glyph glyph-name="m" unicode="m" horiz-adv-x="767" 
d="M360 302q0 63 -30 95t-97 32q-21 0 -40 -4t-35.5 -10t-28.5 -12t-19 -10v-380q0 -7 -3 -10t-12 -3h-20q-9 0 -12 3t-3 10v409q34 22 79.5 36.5t96.5 14.5q54 0 86.5 -13.5t52.5 -35.5q28 18 67.5 33.5t95.5 15.5t90.5 -14.5t53 -37t24.5 -50t6 -53.5v-305q0 -7 -2.5 -10
t-12.5 -3h-20q-9 0 -12 3t-3 10v291q0 66 -30 95.5t-96 29.5q-50 0 -82 -13.5t-57 -28.5q8 -17 10.5 -35t2.5 -36v-303q0 -7 -3 -10t-12 -3h-19q-10 0 -13 3t-3 10v289v0z" />
    <glyph glyph-name="n" unicode="n" horiz-adv-x="489" 
d="M384 304q0 66 -37.5 95.5t-107.5 29.5q-22 0 -42.5 -4.5t-37.5 -10.5t-29.5 -12.5t-19.5 -10.5v-378q0 -7 -3 -10t-12 -3h-20q-9 0 -12 3t-3 10v406q34 22 80 38t102 16q60 0 97.5 -14.5t58.5 -37t28.5 -50t7.5 -53.5v-305q0 -7 -3 -10t-12 -3h-19q-10 0 -13 3t-3 10v291
z" />
    <glyph glyph-name="o" unicode="o" horiz-adv-x="496" 
d="M401 232q0 57 -9.5 95t-29 60.5t-48 32t-66.5 9.5t-66.5 -9.5t-48 -32t-29 -60.5t-9.5 -95t9.5 -95t29 -60.5t48 -32t66.5 -9.5t66.5 9.5t48 32t29 60.5t9.5 95zM45 232q0 130 50.5 185.5t152.5 55.5t152.5 -55.5t50.5 -185.5q0 -65 -12.5 -111t-38 -75t-63.5 -42
t-89 -13t-89 13t-63.5 42t-38 75t-12.5 111z" />
    <glyph glyph-name="p" unicode="p" horiz-adv-x="484" 
d="M60 419q10 6 26.5 15.5t38.5 18t48.5 14.5t57.5 6q47 0 85.5 -11.5t65.5 -39t42 -74t15 -116.5q0 -66 -15 -112t-41 -74.5t-63 -41.5t-80 -13q-45 0 -76.5 13t-53.5 30v-229q0 -7 -3 -10t-12 -3h-20q-9 0 -12 3t-3 10v614zM389 232q0 58 -11.5 96t-32.5 60.5t-50.5 31.5
t-64.5 9q-24 0 -45.5 -6t-38.5 -13q-19 -9 -36 -19v-309q15 -13 34 -24q17 -9 39.5 -16t51.5 -7q34 0 62.5 10t49 33.5t31.5 61t11 92.5z" />
    <glyph glyph-name="q" unicode="q" horiz-adv-x="484" 
d="M424 -195q0 -7 -3 -10t-12 -3h-20q-9 0 -12 3t-3 10v229q-22 -17 -53.5 -30t-76.5 -13q-44 0 -80.5 13t-62.5 41.5t-41 74.5t-15 112q0 70 15 116.5t42 74t65.5 39t85.5 11.5q31 0 57.5 -6t48.5 -14.5t38.5 -18t26.5 -15.5v-614zM374 391q-16 10 -34 19q-16 7 -38 13
t-48 6q-35 0 -64.5 -9t-50.5 -31.5t-32.5 -60.5t-11.5 -96q0 -55 11 -92.5t31.5 -61t48.5 -33.5t63 -10q29 0 51.5 7t39.5 16q19 11 34 24v309z" />
    <glyph glyph-name="r" unicode="r" horiz-adv-x="297" 
d="M110 13q0 -7 -3 -10t-12 -3h-20q-9 0 -12 3t-3 10v406q11 8 28.5 17.5t39.5 17.5t48 13.5t54 5.5q10 0 21 -1t20 -2.5t15 -3.5t6 -4t-1 -9.5t-3 -15.5t-3.5 -9.5t-6.5 -1.5t-15 1.5t-33 1.5q-35 0 -67.5 -12t-52.5 -26v-378v0z" />
    <glyph glyph-name="s" unicode="s" horiz-adv-x="338" 
d="M142 -9q-17 0 -36 2.5t-34.5 6.5t-26 9t-10.5 10q0 7 5 20t10 13q9 0 32.5 -8.5t59.5 -8.5q49 0 80 17.5t31 61.5q0 18 -6 32t-19.5 26.5t-37 26.5t-57.5 32q-16 8 -33 19t-30.5 26t-22 34.5t-8.5 45.5q0 50 34.5 83.5t112.5 33.5q16 0 34.5 -1.5t34.5 -4.5t26 -7.5
t10 -10.5q0 -2 -1 -7t-3 -10.5t-5 -10t-7 -4.5q-8 0 -31.5 6t-56.5 6q-29 0 -48 -6t-30 -16t-15.5 -22.5t-4.5 -25.5q0 -18 4.5 -31t17 -25.5t34.5 -26t56 -31.5q48 -26 75 -54t27 -70q0 -24 -7 -47.5t-25 -41.5t-49.5 -29.5t-79.5 -11.5z" />
    <glyph glyph-name="t" unicode="t" horiz-adv-x="287" 
d="M139 171q0 -75 17.5 -105.5t64.5 -30.5q5 0 13 0.5t12 0.5q9 0 11 -4.5t2 -8.5v-18q0 -11 -10.5 -12.5t-30.5 -1.5q-38 0 -63 12t-39.5 34.5t-20.5 55.5t-6 75v252h-56q-7 0 -10 3t-3 12v13q0 10 3 13t10 3h56v120q0 7 3.5 9.5t11.5 5.5q7 1 12 3t9.5 3t6.5 1q5 0 6 -2.5
t1 -11.5v-128h115q7 0 10 -3t3 -13v-13q0 -9 -3 -12t-10 -3h-115v-249v0z" />
    <glyph glyph-name="u" unicode="u" horiz-adv-x="502" 
d="M105 173q0 -31 7 -56.5t23 -43.5t42 -28t64 -10q26 0 47.5 7t38 16.5t27.5 20t17 17.5v354q0 8 3 11t12 3h19q10 0 13 -3t3 -11v-353q0 -25 9.5 -44t35.5 -19q7 0 12 1t8 1q5 0 6 -3t2 -9q0 -7 1 -11q1 -5 1.5 -8t0.5 -4q0 -3 -10 -6.5t-28 -3.5q-31 0 -52 14t-29 40
q-6 -6 -18.5 -15t-30 -18t-40.5 -15t-51 -6q-89 0 -136 42t-47 130v287q0 8 3 11t12 3h20q9 0 12 -3t3 -11v-277z" />
    <glyph glyph-name="v" unicode="v" horiz-adv-x="398" 
d="M182 0q-8 0 -10.5 3.5t-4.5 9.5l-165 434q-2 4 -2 8q0 9 13 9h25q8 0 10.5 -3.5t4.5 -10.5l146 -395l146 395q2 7 4.5 10.5t10.5 3.5h25q13 0 13 -9q0 -4 -2 -8l-165 -434q-2 -6 -4.5 -9.5t-10.5 -3.5h-34z" />
    <glyph glyph-name="w" unicode="w" horiz-adv-x="622" 
d="M205 13q-2 -6 -4 -9.5t-12 -3.5h-33q-9 0 -11 3.5t-4 9.5l-129 434q-2 6 -2 9q0 8 13 8h25q9 0 11 -3.5t4 -10.5l110 -395l115 404q2 5 8 5h28q9 0 10 -5l116 -404l110 395q2 7 4 10.5t11 3.5h25q12 0 12 -8q0 -3 -2 -9l-128 -434q-2 -6 -4 -9.5t-11 -3.5h-35
q-9 0 -11 3.5t-4 9.5l-106 364l-106 -364v0z" />
    <glyph glyph-name="x" unicode="x" horiz-adv-x="377" 
d="M28 447q-2 4 -2 8q0 9 12 9h22q8 0 11.5 -3t7.5 -9l110 -169l110 169q4 6 7.5 9t11.5 3h23q11 0 11 -8q0 -5 -3 -9l-134 -205l150 -229q2 -3 2 -6q0 -7 -10 -7h-27q-7 0 -10.5 3t-6.5 8l-125 190l-123 -190q-4 -5 -6.5 -8t-10.5 -3h-27q-11 0 -11 7q0 3 2 6l150 229
l-134 205v0z" />
    <glyph glyph-name="y" unicode="y" horiz-adv-x="397" 
d="M156 -170l-4.5 -10.5t-10.5 -3.5h-21q-13 0 -13 8q0 4 1 6l66 177l-167 440q-2 4 -2 8q0 9 13 9h25q8 0 10 -3t5 -11l141 -382l141 382q2 7 4.5 10.5t10.5 3.5h24q13 0 13 -9q0 -4 -2 -8l-234 -617v0z" />
    <glyph glyph-name="z" unicode="z" horiz-adv-x="375" 
d="M332 464q13 0 13 -10q0 -3 -2 -7l-238 -403h224q8 0 11 -3t3 -13v-13q0 -9 -3 -12t-11 -3h-288q-11 0 -11 7q0 2 1 4l2 4l239 405h-221q-7 0 -10 3t-3 12v13q0 10 3 13t10 3h281v0z" />
    <glyph glyph-name="braceleft" unicode="{" horiz-adv-x="266" 
d="M104 574q0 40 3 71t15 51.5t35.5 31t64.5 10.5h16q11 0 14.5 -2.5t3.5 -14.5v-11q0 -11 -3.5 -13.5t-14.5 -2.5h-22q-19 0 -31 -4.5t-19 -15t-9.5 -28t-2.5 -43.5v-178q0 -24 -2 -39.5t-7.5 -26.5t-14.5 -19t-23 -16q13 -7 22.5 -14.5t14.5 -19t7.5 -27.5t2.5 -40v-183
q0 -47 12 -69t50 -22h22q11 0 14.5 -2.5t3.5 -13.5v-11q0 -12 -3.5 -14.5t-14.5 -2.5h-16q-41 0 -64.5 10.5t-35.5 31t-15 51t-3 71.5v183q0 15 -1.5 24t-6.5 13.5t-14 6t-25 1.5q-18 0 -22.5 4t-4.5 17v12q0 14 6 17.5t21 3.5q16 0 25 1.5t14 6t6.5 13.5t1.5 24v178v0z" />
    <glyph glyph-name="bar" unicode="|" horiz-adv-x="210" 
d="M130 -195q0 -7 -3 -10t-12 -3h-20q-15 0 -15 13v882q0 7 3 10t12 3h20q15 0 15 -13v-882v0z" />
    <glyph glyph-name="braceright" unicode="}" horiz-adv-x="266" 
d="M162 396q0 -15 1.5 -24t6.5 -13.5t14 -6t25 -1.5q15 0 21 -3.5t6 -17.5v-12q0 -13 -4.5 -17t-22.5 -4q-16 0 -25 -1.5t-14 -6t-6.5 -13.5t-1.5 -24v-183q0 -41 -3.5 -71.5t-15.5 -51t-35.5 -31t-63.5 -10.5h-16q-11 0 -14.5 2.5t-3.5 14.5v11q0 11 3.5 13.5t14.5 2.5h22
q38 0 50 22t12 69v183q0 24 2.5 40t7.5 27.5t14 19t23 14.5q-14 8 -23.5 16t-14.5 19t-7 26.5t-2 39.5v178q0 52 -12.5 71.5t-49.5 19.5h-22q-11 0 -14.5 2.5t-3.5 13.5v11q0 12 3.5 14.5t14.5 2.5h16q40 0 63.5 -10.5t35.5 -31t15.5 -51.5t3.5 -71v-178z" />
    <glyph glyph-name="exclamdown" unicode="&#xa1;" horiz-adv-x="248" 
d="M149 14q0 -7 -2.5 -10.5t-13.5 -3.5h-18q-10 0 -13 3t-3 11v328l8 159q0 11 12 11h11q11 0 11 -11l8 -159v-328zM70 655q0 23 15.5 38.5t38.5 15.5t38.5 -15.5t15.5 -38.5t-15.5 -38.5t-38.5 -15.5t-38.5 15.5t-15.5 38.5z" />
    <glyph glyph-name="cent" unicode="&#xa2;" horiz-adv-x="441" 
d="M275 473q14 0 29.5 -2t28 -5t21 -7.5t8.5 -9.5q0 -7 -5.5 -19.5t-11.5 -12.5q-7 0 -26.5 6t-51.5 6q-35 0 -63.5 -7.5t-49.5 -28.5t-32.5 -59.5t-11.5 -101.5q0 -51 8 -88t26 -61.5t47 -36t72 -11.5q47 0 70.5 9.5t30.5 9.5q5 0 11 -10t6 -21q0 -5 -9.5 -10.5t-24.5 -10
t-34 -7.5t-38 -4v-72q0 -7 -3 -10t-12 -3h-20q-15 0 -15 13v75q-85 9 -125 64.5t-40 173.5q0 120 42.5 175t122.5 64v74q0 7 3 10t12 3h20q15 0 15 -13v-72v0z" />
    <glyph glyph-name="sterling" unicode="&#xa3;" horiz-adv-x="558" 
d="M74 0q-9 0 -11.5 3t-2.5 11v16q0 8 2 11t12 3h69v256h-69q-9 0 -11.5 2.5t-2.5 11.5v16q0 8 2 11t12 3h69v97q0 49 5 97t24 86t57 61.5t104 23.5q41 0 71.5 -6t51 -13.5t30.5 -15t10 -9.5t-2.5 -7.5t-6 -11t-7.5 -9.5t-6 -4q-5 0 -15.5 5t-28 11t-41.5 11t-56 5
q-44 0 -71 -14t-42.5 -41.5t-21 -69.5t-5.5 -99v-97h171q8 0 11 -2.5t3 -11.5v-16q0 -8 -2.5 -11t-11.5 -3h-171v-256h281q9 0 11.5 -3t2.5 -11v-16q0 -8 -2.5 -11t-11.5 -3h-400v0z" />
    <glyph glyph-name="yen" unicode="&#xa5;" horiz-adv-x="523" 
d="M215 339l-181 342q-4 7 -4 11q0 8 10 8h33q7 0 12 -10l177 -343l178 345q5 8 11 8h33q9 0 9 -8q0 -4 -3 -11l-182 -342h131q9 0 11.5 -3t2.5 -11v-16q0 -8 -2.5 -11t-11.5 -3h-152v-75h152q9 0 11.5 -3t2.5 -11v-16q0 -8 -2.5 -11t-11.5 -3h-152v-163q0 -7 -3 -10t-12 -3
h-20q-9 0 -12 3t-3 10v163h-153q-9 0 -11.5 3t-2.5 11v16q0 8 2.5 11t11.5 3h153v75h-153q-9 0 -11.5 3t-2.5 11v16q0 8 2.5 11t11.5 3h131z" />
    <glyph glyph-name="brokenbar" unicode="&#xa6;" horiz-adv-x="190" 
d="M120 297q0 -7 -3 -10t-12 -3h-20q-15 0 -15 13v390q0 7 3 10t12 3h20q15 0 15 -13v-390zM120 -195q0 -7 -3 -10t-12 -3h-20q-15 0 -15 13v390q0 7 3 10t12 3h20q15 0 15 -13v-390z" />
    <glyph glyph-name="section" unicode="&#xa7;" horiz-adv-x="431" 
d="M321 324q0 19 -15 35.5t-37.5 31.5t-48.5 28.5t-49 26.5q-17 -8 -30 -24t-13 -45q0 -23 19 -43t45 -37t52.5 -30t40.5 -22q21 13 28.5 32t7.5 47zM78 577q0 27 9.5 51t29.5 42t51 28.5t74 10.5q62 0 95.5 -12t33.5 -21q0 -3 -1.5 -8t-3.5 -10t-4.5 -9t-5.5 -4
q-8 0 -37 10t-79 10q-53 0 -82.5 -24t-29.5 -71q0 -27 18 -46.5t45 -36.5t58.5 -32.5t58.5 -34t45 -42.5t18 -56t-9.5 -56.5t-34.5 -47.5q20 -17 32 -37t12 -47q0 -26 -8 -51.5t-28.5 -46t-55.5 -33t-88 -12.5q-25 0 -48.5 4t-42 9.5t-29.5 12.5t-11 13q0 2 1.5 7t3.5 10.5
t4.5 10t4.5 4.5q4 0 13 -4t23 -9.5t33 -9.5t43 -4q71 0 103 27.5t32 66.5q0 25 -18 44t-45 35t-58.5 32t-58.5 35t-45 43.5t-18 58.5q0 9 1.5 21.5t7 25t15.5 25.5t28 24q-21 17 -36.5 38.5t-15.5 65.5z" />
    <glyph glyph-name="dieresis" unicode="&#xa8;" horiz-adv-x="291" 
d="M241 594q0 -16 -10.5 -26.5t-25.5 -10.5q-17 0 -27.5 10.5t-10.5 26.5q0 17 10.5 26.5t27.5 9.5q14 0 25 -10t11 -26zM123 594q0 -16 -10.5 -26.5t-25.5 -10.5q-17 0 -27 10.5t-10 26.5q0 17 10 26.5t27 9.5q14 0 25 -10t11 -26z" />
    <glyph glyph-name="copyright" unicode="&#xa9;" horiz-adv-x="839" 
d="M434 159q-83 0 -118 44.5t-35 148.5q0 105 35 149.5t118 44.5q18 0 34 -3.5t28 -8.5t19 -10.5t7 -9.5t-2 -7l-6 -9q-6 -10 -13 -10q-5 0 -22 7t-45 7q-29 0 -48.5 -7t-31.5 -24t-17.5 -46t-5.5 -73q0 -39 4.5 -67.5t16 -46.5t31.5 -26.5t51 -8.5q32 0 49 8t22 8
q7 0 8.5 -3t3.5 -5q4 -7 7 -11.5t3 -7.5q0 -8 -24 -20.5t-69 -12.5zM60 350q0 75 28 140t77 114t114.5 77t139.5 28q75 0 140.5 -28t114 -77t77 -114t28.5 -140t-28.5 -140t-77 -114t-114 -77t-140.5 -28q-74 0 -139.5 28t-114.5 77t-77 114t-28 140zM111 350
q0 -64 24 -121.5t66 -101t98 -69.5t120 -26t120.5 26t98.5 69.5t66 101t24 121.5t-24 121.5t-66 101t-98.5 69t-120.5 25.5t-120 -25.5t-98 -69t-66 -101t-24 -121.5z" />
    <glyph glyph-name="ordfeminine" unicode="&#xaa;" horiz-adv-x="451" 
d="M305 647q-3 1 -11.5 4.5t-22 7t-29.5 6.5t-34 3q-33 0 -54.5 -10.5t-34 -29.5t-17.5 -44.5t-5 -55.5q0 -132 106 -132q24 0 41.5 5t29.5 12t19.5 15t11.5 15v204zM352 423q0 -25 23 -25q6 0 10.5 0.5t6.5 0.5q5 0 7 -10.5t2 -12.5q0 -8 -13 -14.5t-34 -6.5
q-17 0 -26.5 5.5t-14.5 13.5q-6 9 -8 20q-10 -11 -35.5 -24.5t-71.5 -13.5q-39 0 -67 13t-46 35.5t-26.5 54t-8.5 69.5q0 94 38.5 137.5t120.5 43.5q36 0 62.5 -6t44.5 -13q21 -8 36 -18v-249z" />
    <glyph glyph-name="guillemotleft" unicode="&#xab;" horiz-adv-x="329" 
d="M35 234q-5 6 -5 14q0 7 5 13l96 136q8 12 12.5 15.5t12.5 3.5l13 -2q6 -1 6 -7q0 -2 -2 -5.5t-5 -9.5l-83 -144l83 -145q2 -4 4.5 -8.5t2.5 -6.5q0 -6 -6 -7l-13 -2q-8 0 -12.5 3.5t-12.5 15.5zM155 234q-5 6 -5 14q0 7 5 13l90 136q8 12 12.5 15.5t12.5 3.5l13 -2
q6 -1 6 -7q0 -2 -2 -5.5t-5 -9.5l-77 -144l77 -145q2 -4 4.5 -8.5t2.5 -6.5q0 -6 -6 -7l-13 -2q-8 0 -12.5 3.5t-12.5 15.5z" />
    <glyph glyph-name="registered" unicode="&#xae;" horiz-adv-x="839" 
d="M453 538q46 0 77 -27t31 -84q0 -44 -22 -71t-60 -35l71 -134q3 -6 3 -9q0 -11 -15 -11h-20q-8 0 -13 5.5t-10 14.5l-70 130h-84v-133q0 -10 -3 -13.5t-13 -3.5h-18q-11 0 -13.5 3.5t-2.5 13.5v335q0 11 3.5 15t14.5 4h144zM511 428q0 26 -14.5 46t-43.5 20h-112v-133h112
q29 0 43.5 19.5t14.5 47.5zM60 350q0 75 28 140t77 114t114.5 77t139.5 28q75 0 140.5 -28t114 -77t77 -114t28.5 -140t-28.5 -140t-77 -114t-114 -77t-140.5 -28q-74 0 -139.5 28t-114.5 77t-77 114t-28 140zM111 350q0 -64 24 -121.5t66 -101t98 -69.5t120 -26t120.5 26
t98.5 69.5t66 101t24 121.5t-24 121.5t-66 101t-98.5 69t-120.5 25.5t-120 -25.5t-98 -69t-66 -101t-24 -121.5z" />
    <glyph glyph-name="macron" unicode="&#xaf;" horiz-adv-x="348" 
d="M74 570q-15 0 -19.5 2t-4.5 15v10q0 12 4.5 14.5t19.5 2.5h200q15 0 19.5 -2t4.5 -15v-10q0 -13 -4.5 -15t-19.5 -2h-200v0z" />
    <glyph glyph-name="degree" unicode="&#xb0;" horiz-adv-x="346" 
d="M50 587q0 25 9.5 47.5t26.5 39t39 26t48 9.5q25 0 47.5 -9.5t39.5 -26t26.5 -39t9.5 -47.5q0 -26 -9.5 -48.5t-26.5 -39t-39.5 -26t-47.5 -9.5q-26 0 -48 9.5t-39 26t-26.5 39t-9.5 48.5zM88 588q0 -36 25 -60.5t60 -24.5q36 0 60.5 24.5t24.5 60.5q0 35 -24.5 59
t-60.5 24q-35 0 -60 -24t-25 -59z" />
    <glyph glyph-name="plusminus" unicode="&#xb1;" horiz-adv-x="495" 
d="M225 419v142q0 9 3 11.5t11 2.5h16q8 0 11 -2.5t3 -11.5v-142h142q9 0 11.5 -3t2.5 -11v-16q0 -8 -2.5 -11t-11.5 -3h-142v-142q0 -9 -3 -11.5t-11 -2.5h-16q-8 0 -11 2.5t-3 11.5v142h-141q-9 0 -11.5 3t-2.5 11v16q0 8 2.5 11t11.5 3h141zM411 126q9 0 11.5 -3t2.5 -11
v-16q0 -8 -2.5 -11t-11.5 -3h-327q-9 0 -11.5 3t-2.5 11v16q0 8 2.5 11t11.5 3h327z" />
    <glyph glyph-name="acute" unicode="&#xb4;" horiz-adv-x="300" 
d="M82 548q-13 -8 -15 -8q-3 0 -8 5l-6 7q-3 4 -3 7q0 5 11 14l137 118q10 9 20 9q6 0 9 -2t7 -7l11 -15q5 -6 5 -13q0 -11 -15 -20z" />
    <glyph glyph-name="paragraph" unicode="&#xb6;" horiz-adv-x="598" 
d="M478 656h-141v-643q0 -5 -2 -9t-13 -4h-20q-15 0 -15 13v301h-54q-54 0 -92.5 14.5t-63 40t-36 61t-11.5 77.5t12.5 77.5t37.5 61t63 40t90 14.5h268q27 0 27 -26v-661q0 -5 -2 -9t-13 -4h-20q-8 0 -11.5 2.5t-3.5 10.5v643zM80 507q0 -33 8.5 -60t26.5 -47t47 -31
t71 -11h54v298h-54q-32 0 -60 -7.5t-48.5 -25t-32.5 -46t-12 -70.5z" />
    <glyph glyph-name="periodcentered" unicode="&#xb7;" horiz-adv-x="207" 
d="M50 322q0 22 15.5 37.5t38.5 15.5q22 0 37.5 -15.5t15.5 -37.5q0 -23 -15.5 -38.5t-37.5 -15.5q-23 0 -38.5 15.5t-15.5 38.5z" />
    <glyph glyph-name="cedilla" unicode="&#xb8;" horiz-adv-x="284" 
d="M50 -158q0 4 1 7t2 5q3 9 11 9q5 0 19.5 -5t42.5 -5q30 0 47.5 11.5t17.5 31.5t-13 27.5t-35 7.5q-16 0 -30.5 -3.5t-21.5 -6.5l-21 26l41 53h39l-27 -40l10 2t11 2t14 1q37 0 56.5 -18.5t19.5 -47.5q0 -34 -26.5 -56.5t-87.5 -22.5q-11 0 -23 1.5t-22.5 4.5t-17.5 7
t-7 9z" />
    <glyph glyph-name="ordmasculine" unicode="&#xba;" horiz-adv-x="416" 
d="M366 531q0 -96 -39.5 -136t-118.5 -40t-118.5 40t-39.5 136q0 97 39.5 137.5t118.5 40.5t118.5 -40.5t39.5 -137.5zM319 531q0 30 -4.5 55t-17 43.5t-34 28.5t-55.5 10t-55.5 -10t-34 -28.5t-17 -43.5t-4.5 -55q0 -29 4.5 -54t17 -43t34 -28t55.5 -10t55.5 10t34 28
t17 43t4.5 54z" />
    <glyph glyph-name="guillemotright" unicode="&#xbb;" horiz-adv-x="329" 
d="M198 98q-8 -12 -12.5 -15.5t-12.5 -3.5l-13 2q-6 1 -6 7q0 2 2.5 6.5t4.5 8.5l83 145l-83 144q-3 6 -5 9.5t-2 5.5q0 6 6 7l13 2q8 0 12.5 -3.5t12.5 -15.5l96 -136q5 -6 5 -13q0 -8 -5 -14zM84 98q-8 -12 -12.5 -15.5t-12.5 -3.5l-13 2q-6 1 -6 7q0 2 2.5 6.5t4.5 8.5
l77 145l-77 144q-3 6 -5 9.5t-2 5.5q0 6 6 7l13 2q8 0 12.5 -3.5t12.5 -15.5l90 -136q5 -6 5 -13q0 -8 -5 -14z" />
    <glyph glyph-name="questiondown" unicode="&#xbf;" horiz-adv-x="467" 
d="M314 512q11 0 13.5 -4.5t2.5 -18.5v-34q0 -27 -2 -47t-10 -36.5t-25.5 -31.5t-47.5 -32q-45 -25 -73.5 -44.5t-44 -38.5t-21.5 -38.5t-6 -44.5q0 -48 34.5 -77.5t117.5 -29.5q27 0 52 5t44.5 11.5t32 11.5t14.5 5q4 0 8 -5t7 -11t5 -12t2 -8t-14.5 -8.5t-37.5 -14
t-52.5 -13t-60.5 -5.5q-56 0 -94.5 10.5t-62.5 30t-34.5 47.5t-10.5 63q0 33 9 59t28 48t47 42.5t66 42.5q26 16 42 26t24.5 22t11 28.5t2.5 44.5v34q0 14 2.5 18.5t13.5 4.5h18zM359 655q0 -23 -15.5 -38.5t-38.5 -15.5t-38.5 15.5t-15.5 38.5t15.5 38.5t38.5 15.5
t38.5 -15.5t15.5 -38.5z" />
    <glyph glyph-name="Agrave" unicode="&#xc0;" horiz-adv-x="550" 
d="M407 258l-132 399l-132 -399h264zM538 13q2 -6 2 -7q0 -6 -11 -6h-26q-8 0 -10 2.5t-5 10.5l-67 201h-293l-66 -201q-2 -7 -4.5 -10t-10.5 -3h-26q-11 0 -11 6q0 1 2 7l221 674q2 7 5 10t11 3h53q7 0 10 -2t6 -11zM150 879q-15 9 -15 20q0 7 5 13l11 15q4 5 7 7t9 2
t10.5 -2t9.5 -7l137 -118q11 -9 11 -14q0 -3 -3 -7l-6 -7q-5 -5 -7 -5q-3 0 -16 8z" />
    <glyph glyph-name="Aacute" unicode="&#xc1;" horiz-adv-x="550" 
d="M407 258l-132 399l-132 -399h264zM538 13q2 -6 2 -7q0 -6 -11 -6h-26q-8 0 -10 2.5t-5 10.5l-67 201h-293l-66 -201q-2 -7 -4.5 -10t-10.5 -3h-26q-11 0 -11 6q0 1 2 7l221 674q2 7 5 10t11 3h53q7 0 10 -2t6 -11zM247 784q-13 -8 -15 -8q-3 0 -8 5l-6 7q-3 4 -3 7
q0 5 11 14l137 118q10 9 20 9q6 0 9 -2t7 -7l11 -15q5 -6 5 -13q0 -11 -15 -20z" />
    <glyph glyph-name="Acircumflex" unicode="&#xc2;" horiz-adv-x="550" 
d="M407 258l-132 399l-132 -399h264zM538 13q2 -6 2 -7q0 -6 -11 -6h-26q-8 0 -10 2.5t-5 10.5l-67 201h-293l-66 -201q-2 -7 -4.5 -10t-10.5 -3h-26q-11 0 -11 6q0 1 2 7l221 674q2 7 5 10t11 3h53q7 0 10 -2t6 -11zM132 795q0 5 11 14l112 103q6 5 10 7.5t10 2.5
t10.5 -2.5t9.5 -7.5l112 -103q11 -9 11 -14q0 -3 -3 -7l-4 -6q-1 -2 -2 -3q-2 -2 -5 -2t-7 2.5t-10 6.5l-112 73l-112 -73q-6 -4 -10 -6.5t-7 -2.5q-4 0 -7 5l-4 6q-3 4 -3 7z" />
    <glyph glyph-name="Atilde" unicode="&#xc3;" horiz-adv-x="550" 
d="M407 258l-132 399l-132 -399h264zM538 13q2 -6 2 -7q0 -6 -11 -6h-26q-8 0 -10 2.5t-5 10.5l-67 201h-293l-66 -201q-2 -7 -4.5 -10t-10.5 -3h-26q-11 0 -11 6q0 1 2 7l221 674q2 7 5 10t11 3h53q7 0 10 -2t6 -11zM199 812q-21 0 -37 -7t-31 -7q-10 0 -12 6q-1 2 -2 5
q-2 6 -2 8q0 5 9.5 12t24 13.5t32.5 11t35 4.5q23 0 39.5 -4.5t31 -10t30 -10t36.5 -4.5q25 0 38.5 7t27.5 7q9 0 12 -6q1 -2 2 -5q2 -6 2 -8q0 -5 -9 -12t-23.5 -13t-32 -10.5t-33.5 -4.5q-24 0 -41 4.5t-31.5 9.5t-29.5 9.5t-36 4.5z" />
    <glyph glyph-name="Adieresis" unicode="&#xc4;" horiz-adv-x="550" 
d="M407 258l-132 399l-132 -399h264zM538 13q2 -6 2 -7q0 -6 -11 -6h-26q-8 0 -10 2.5t-5 10.5l-67 201h-293l-66 -201q-2 -7 -4.5 -10t-10.5 -3h-26q-11 0 -11 6q0 1 2 7l221 674q2 7 5 10t11 3h53q7 0 10 -2t6 -11zM370 830q0 -16 -10.5 -26.5t-25.5 -10.5
q-17 0 -27.5 10.5t-10.5 26.5q0 17 10.5 26.5t27.5 9.5q14 0 25 -10t11 -26zM252 830q0 -16 -10.5 -26.5t-25.5 -10.5q-17 0 -27 10.5t-10 26.5q0 17 10 26.5t27 9.5q14 0 25 -10t11 -26z" />
    <glyph glyph-name="Aring" unicode="&#xc5;" horiz-adv-x="550" 
d="M407 258l-132 399l-132 -399h264zM538 13q2 -6 2 -7q0 -6 -11 -6h-26q-8 0 -10 2.5t-5 10.5l-67 201h-293l-66 -201q-2 -7 -4.5 -10t-10.5 -3h-26q-11 0 -11 6q0 1 2 7l221 674q2 7 5 10t11 3h53q7 0 10 -2t6 -11zM361 860q0 -35 -25.5 -60t-60.5 -25q-38 0 -62 25
t-24 60q0 38 24 61.5t62 23.5q16 0 31.5 -6.5t27.5 -18t19.5 -27t7.5 -33.5zM325 860q0 21 -15.5 36.5t-35.5 15.5q-22 0 -35.5 -14.5t-13.5 -37.5q0 -20 13.5 -36t35.5 -16q21 0 36 16t15 36z" />
    <glyph glyph-name="AE" unicode="&#xc6;" horiz-adv-x="848" 
d="M421 650l-219 -392h219v392zM785 700q9 0 11 -4t2 -12v-13q0 -8 -2 -11.5t-11 -3.5h-314v-274h295q9 0 11 -4t2 -12v-13q0 -7 -2 -11t-11 -4h-295v-294h314q9 0 11 -4t2 -12v-13q0 -6 -1.5 -10.5t-11.5 -4.5h-337q-27 0 -27 28v186h-244l-107 -191q-7 -12 -11.5 -17.5
t-12.5 -5.5h-22q-14 0 -14 10q0 6 7 18l359 644q8 14 15 21t21 7h373z" />
    <glyph glyph-name="Ccedilla" unicode="&#xc7;" horiz-adv-x="509" 
d="M205 -158q0 11 4.5 16t9.5 5t19.5 -5t42.5 -5t46.5 11t18.5 32q0 20 -13 27.5t-35 7.5q-16 0 -30.5 -3.5t-21.5 -6.5l-21 26l36 47q-57 6 -97.5 29t-65.5 66t-36.5 107.5t-11.5 153.5q0 98 14 166.5t45 111t80.5 62t121.5 19.5q36 0 62.5 -5t44 -11.5t26.5 -12t9 -6.5
q0 -2 -2.5 -8t-6 -12t-7 -10.5t-5.5 -4.5q-3 0 -11.5 4t-23 9t-36 9t-50.5 4q-60 0 -100.5 -16.5t-65 -54t-35 -97.5t-10.5 -147t10.5 -147t35 -97.5t65 -54t100.5 -16.5q31 0 55.5 6t42 12.5t28 12.5t13.5 6t6.5 -5t6 -11.5t4.5 -12l2 -5.5q0 -4 -13 -11.5t-35 -15.5
t-52.5 -14t-64.5 -6h-5l-21 -31l10 2t11 2t14 1q37 0 56.5 -18.5t19.5 -47.5q0 -34 -26.5 -56.5t-87.5 -22.5q-11 0 -23 1.5t-22.5 4.5t-17.5 7t-7 9z" />
    <glyph glyph-name="Egrave" unicode="&#xc8;" 
d="M60 687q0 7 3 10t12 3h349q8 0 10.5 -3t2.5 -12v-14q0 -10 -2.5 -12.5t-10.5 -2.5h-314v-274h295q8 0 10.5 -3t2.5 -12v-14q0 -9 -2.5 -12t-10.5 -3h-295v-294h314q8 0 10.5 -3t2.5 -13v-13q0 -9 -2.5 -12t-10.5 -3h-349q-9 0 -12 3t-3 10v674v0zM138 879q-15 9 -15 20
q0 7 5 13l11 15q4 5 7 7t9 2t10.5 -2t9.5 -7l137 -118q11 -9 11 -14q0 -3 -3 -7l-6 -7q-5 -5 -7 -5q-3 0 -16 8z" />
    <glyph glyph-name="Eacute" unicode="&#xc9;" 
d="M60 687q0 7 3 10t12 3h349q8 0 10.5 -3t2.5 -12v-14q0 -10 -2.5 -12.5t-10.5 -2.5h-314v-274h295q8 0 10.5 -3t2.5 -12v-14q0 -9 -2.5 -12t-10.5 -3h-295v-294h314q8 0 10.5 -3t2.5 -13v-13q0 -9 -2.5 -12t-10.5 -3h-349q-9 0 -12 3t-3 10v674v0zM215 784q-13 -8 -15 -8
q-3 0 -8 5l-6 7q-3 4 -3 7q0 5 11 14l137 118q10 9 20 9q6 0 9 -2t7 -7l11 -15q5 -6 5 -13q0 -11 -15 -20z" />
    <glyph glyph-name="Ecircumflex" unicode="&#xca;" 
d="M60 687q0 7 3 10t12 3h349q8 0 10.5 -3t2.5 -12v-14q0 -10 -2.5 -12.5t-10.5 -2.5h-314v-274h295q8 0 10.5 -3t2.5 -12v-14q0 -9 -2.5 -12t-10.5 -3h-295v-294h314q8 0 10.5 -3t2.5 -13v-13q0 -9 -2.5 -12t-10.5 -3h-349q-9 0 -12 3t-3 10v674v0zM100 795q0 5 11 14
l112 103q6 5 10 7.5t10 2.5t10.5 -2.5t9.5 -7.5l112 -103q11 -9 11 -14q0 -3 -3 -7l-4 -6q-1 -2 -2 -3q-2 -2 -5 -2t-7 2.5t-10 6.5l-112 73l-112 -73q-6 -4 -10 -6.5t-7 -2.5q-4 0 -7 5l-4 6q-3 4 -3 7z" />
    <glyph glyph-name="Edieresis" unicode="&#xcb;" 
d="M60 687q0 7 3 10t12 3h349q8 0 10.5 -3t2.5 -12v-14q0 -10 -2.5 -12.5t-10.5 -2.5h-314v-274h295q8 0 10.5 -3t2.5 -12v-14q0 -9 -2.5 -12t-10.5 -3h-295v-294h314q8 0 10.5 -3t2.5 -13v-13q0 -9 -2.5 -12t-10.5 -3h-349q-9 0 -12 3t-3 10v674v0zM339 830
q0 -16 -10.5 -26.5t-25.5 -10.5q-17 0 -27.5 10.5t-10.5 26.5q0 17 10.5 26.5t27.5 9.5q14 0 25 -10t11 -26zM221 830q0 -16 -10.5 -26.5t-25.5 -10.5q-17 0 -27 10.5t-10 26.5q0 17 10 26.5t27 9.5q14 0 25 -10t11 -26z" />
    <glyph glyph-name="Igrave" unicode="&#xcc;" horiz-adv-x="170" 
d="M60 687q0 7 3 10t12 3h20q15 0 15 -13v-674q0 -7 -3 -10t-12 -3h-20q-10 0 -12.5 3.5t-2.5 9.5v674v0zM-40 879q-15 9 -15 20q0 7 5 13l11 15q4 5 7 7t9 2t10.5 -2t9.5 -7l137 -118q11 -9 11 -14q0 -3 -3 -7l-6 -7q-5 -5 -7 -5q-3 0 -16 8z" />
    <glyph glyph-name="Iacute" unicode="&#xcd;" horiz-adv-x="170" 
d="M60 687q0 7 3 10t12 3h20q15 0 15 -13v-674q0 -7 -3 -10t-12 -3h-20q-10 0 -12.5 3.5t-2.5 9.5v674v0zM57 784q-13 -8 -15 -8q-3 0 -8 5l-6 7q-3 4 -3 7q0 5 11 14l137 118q10 9 20 9q6 0 9 -2t7 -7l11 -15q5 -6 5 -13q0 -11 -15 -20z" />
    <glyph glyph-name="Icircumflex" unicode="&#xce;" horiz-adv-x="170" 
d="M60 687q0 7 3 10t12 3h20q15 0 15 -13v-674q0 -7 -3 -10t-12 -3h-20q-10 0 -12.5 3.5t-2.5 9.5v674v0zM-58 795q0 5 11 14l112 103q6 5 10 7.5t10 2.5t10.5 -2.5t9.5 -7.5l112 -103q11 -9 11 -14q0 -3 -3 -7l-4 -6q-1 -2 -2 -3q-2 -2 -5 -2t-7 2.5t-10 6.5l-112 73
l-112 -73q-6 -4 -10 -6.5t-7 -2.5q-4 0 -7 5l-4 6q-3 4 -3 7z" />
    <glyph glyph-name="Idieresis" unicode="&#xcf;" horiz-adv-x="170" 
d="M60 687q0 7 3 10t12 3h20q15 0 15 -13v-674q0 -7 -3 -10t-12 -3h-20q-10 0 -12.5 3.5t-2.5 9.5v674v0zM181 830q0 -16 -10.5 -26.5t-25.5 -10.5q-17 0 -27.5 10.5t-10.5 26.5q0 17 10.5 26.5t27.5 9.5q14 0 25 -10t11 -26zM63 830q0 -16 -10.5 -26.5t-25.5 -10.5
q-17 0 -27 10.5t-10 26.5q0 17 10 26.5t27 9.5q14 0 25 -10t11 -26z" />
    <glyph glyph-name="Eth" unicode="&#xd0;" horiz-adv-x="579" 
d="M257 44q63 0 105.5 16t68.5 52t37 94.5t11 143.5t-11 143.5t-37 94.5t-68.5 52t-105.5 16h-153v-264h157q8 0 10.5 -3t2.5 -12v-15q0 -11 -3.5 -13t-9.5 -2h-157v-303h153zM54 687q0 7 3 10t12 3h188q72 0 123.5 -18t84.5 -59t48.5 -108t15.5 -165t-15.5 -165t-48.5 -108
t-84.5 -59t-123.5 -18h-188q-9 0 -12 3t-3 10v334h-41q-7 0 -10 3t-3 12v15q0 9 3 12t10 3h41v295z" />
    <glyph glyph-name="Ntilde" unicode="&#xd1;" horiz-adv-x="564" 
d="M454 687q0 7 2.5 10t12.5 3h20q9 0 12 -3t3 -10v-674q0 -7 -3 -10t-12 -3h-23q-11 0 -14 7l-342 584v-578q0 -7 -3 -10t-12 -3h-20q-9 0 -12 3t-3 10v674q0 7 3 10t12 3h22q10 0 14 -8l343 -589v584v0zM204 812q-21 0 -37 -7t-31 -7q-10 0 -12 6q-1 2 -2 5q-2 6 -2 8
q0 5 9.5 12t24 13.5t32.5 11t35 4.5q23 0 39.5 -4.5t31 -10t30 -10t36.5 -4.5q25 0 38.5 7t27.5 7q9 0 12 -6q1 -2 2 -5q2 -6 2 -8q0 -5 -9 -12t-23.5 -13t-32 -10.5t-33.5 -4.5q-24 0 -41 4.5t-31.5 9.5t-29.5 9.5t-36 4.5z" />
    <glyph glyph-name="Ograve" unicode="&#xd2;" horiz-adv-x="613" 
d="M513 350q0 76 -8 134.5t-30.5 98.5t-63 61t-105.5 21t-105 -21t-62.5 -61t-30.5 -98.5t-8 -134.5t8 -134.5t30.5 -98.5t62.5 -61t105 -21t105.5 21t63 61t30.5 98.5t8 134.5zM50 350q0 97 14 165.5t44.5 111.5t79 62.5t118.5 19.5t119 -19.5t79.5 -62.5t44.5 -111.5
t14 -165.5t-14 -165.5t-44.5 -111.5t-79.5 -62.5t-119 -19.5t-118.5 19.5t-79 62.5t-44.5 111.5t-14 165.5zM171 879q-15 9 -15 20q0 7 5 13l11 15q4 5 7 7t9 2t10.5 -2t9.5 -7l137 -118q11 -9 11 -14q0 -3 -3 -7l-6 -7q-5 -5 -7 -5q-3 0 -16 8z" />
    <glyph glyph-name="Oacute" unicode="&#xd3;" horiz-adv-x="613" 
d="M513 350q0 76 -8 134.5t-30.5 98.5t-63 61t-105.5 21t-105 -21t-62.5 -61t-30.5 -98.5t-8 -134.5t8 -134.5t30.5 -98.5t62.5 -61t105 -21t105.5 21t63 61t30.5 98.5t8 134.5zM50 350q0 97 14 165.5t44.5 111.5t79 62.5t118.5 19.5t119 -19.5t79.5 -62.5t44.5 -111.5
t14 -165.5t-14 -165.5t-44.5 -111.5t-79.5 -62.5t-119 -19.5t-118.5 19.5t-79 62.5t-44.5 111.5t-14 165.5zM268 784q-13 -8 -15 -8q-3 0 -8 5l-6 7q-3 4 -3 7q0 5 11 14l137 118q10 9 20 9q6 0 9 -2t7 -7l11 -15q5 -6 5 -13q0 -11 -15 -20z" />
    <glyph glyph-name="Ocircumflex" unicode="&#xd4;" horiz-adv-x="613" 
d="M513 350q0 76 -8 134.5t-30.5 98.5t-63 61t-105.5 21t-105 -21t-62.5 -61t-30.5 -98.5t-8 -134.5t8 -134.5t30.5 -98.5t62.5 -61t105 -21t105.5 21t63 61t30.5 98.5t8 134.5zM50 350q0 97 14 165.5t44.5 111.5t79 62.5t118.5 19.5t119 -19.5t79.5 -62.5t44.5 -111.5
t14 -165.5t-14 -165.5t-44.5 -111.5t-79.5 -62.5t-119 -19.5t-118.5 19.5t-79 62.5t-44.5 111.5t-14 165.5zM153 795q0 5 11 14l112 103q6 5 10 7.5t10 2.5t10.5 -2.5t9.5 -7.5l112 -103q11 -9 11 -14q0 -3 -3 -7l-4 -6q-1 -2 -2 -3q-2 -2 -5 -2t-7 2.5t-10 6.5l-112 73
l-112 -73q-6 -4 -10 -6.5t-7 -2.5q-4 0 -7 5l-4 6q-3 4 -3 7z" />
    <glyph glyph-name="Otilde" unicode="&#xd5;" horiz-adv-x="613" 
d="M513 350q0 76 -8 134.5t-30.5 98.5t-63 61t-105.5 21t-105 -21t-62.5 -61t-30.5 -98.5t-8 -134.5t8 -134.5t30.5 -98.5t62.5 -61t105 -21t105.5 21t63 61t30.5 98.5t8 134.5zM50 350q0 97 14 165.5t44.5 111.5t79 62.5t118.5 19.5t119 -19.5t79.5 -62.5t44.5 -111.5
t14 -165.5t-14 -165.5t-44.5 -111.5t-79.5 -62.5t-119 -19.5t-118.5 19.5t-79 62.5t-44.5 111.5t-14 165.5zM220 812q-21 0 -37 -7t-31 -7q-10 0 -12 6q-1 2 -2 5q-2 6 -2 8q0 5 9.5 12t24 13.5t32.5 11t35 4.5q23 0 39.5 -4.5t31 -10t30 -10t36.5 -4.5q25 0 38.5 7t27.5 7
q9 0 12 -6q1 -2 2 -5q2 -6 2 -8q0 -5 -9 -12t-23.5 -13t-32 -10.5t-33.5 -4.5q-24 0 -41 4.5t-31.5 9.5t-29.5 9.5t-36 4.5z" />
    <glyph glyph-name="Odieresis" unicode="&#xd6;" horiz-adv-x="613" 
d="M513 350q0 76 -8 134.5t-30.5 98.5t-63 61t-105.5 21t-105 -21t-62.5 -61t-30.5 -98.5t-8 -134.5t8 -134.5t30.5 -98.5t62.5 -61t105 -21t105.5 21t63 61t30.5 98.5t8 134.5zM50 350q0 97 14 165.5t44.5 111.5t79 62.5t118.5 19.5t119 -19.5t79.5 -62.5t44.5 -111.5
t14 -165.5t-14 -165.5t-44.5 -111.5t-79.5 -62.5t-119 -19.5t-118.5 19.5t-79 62.5t-44.5 111.5t-14 165.5zM392 830q0 -16 -10.5 -26.5t-25.5 -10.5q-17 0 -27.5 10.5t-10.5 26.5q0 17 10.5 26.5t27.5 9.5q14 0 25 -10t11 -26zM274 830q0 -16 -10.5 -26.5t-25.5 -10.5
q-17 0 -27 10.5t-10 26.5q0 17 10 26.5t27 9.5q14 0 25 -10t11 -26z" />
    <glyph glyph-name="multiply" unicode="&#xd7;" horiz-adv-x="431" 
d="M77 385q-6 6 -6 10t6 10l11 11q6 6 10 6t10 -6l107 -107l107 108q6 6 10 6t10 -6l12 -12q2 -2 4.5 -5t2.5 -5q0 -3 -7 -10l-108 -107l108 -107q6 -6 6 -10t-6 -10l-12 -12q-6 -6 -9 -6q-5 0 -11 6l-107 108l-107 -108q-8 -6 -10 -6q-4 0 -10 6l-12 12q-6 6 -6 10t6 10
l108 107l-107 107v0z" />
    <glyph glyph-name="Oslash" unicode="&#xd8;" horiz-adv-x="613" 
d="M563 350q0 -97 -14 -165.5t-44.5 -111.5t-79.5 -62.5t-119 -19.5q-35 0 -64 5t-53 14l-12 -26q-7 -15 -10.5 -18.5t-12.5 -3.5h-22q-11 0 -11 13q0 2 2.5 8.5t3.5 8.5l19 42q-42 29 -66 95t-29 162q-1 14 -1 28.5v30.5q0 97 14 165.5t44.5 111.5t79 62.5t118.5 19.5
q80 0 131 -26l14 32q6 14 10.5 18.5t12.5 4.5h20q5 0 9.5 -2.5t4.5 -10.5q0 -2 -2 -7.5t-3 -7.5l-24 -55q43 -44 63.5 -116t20.5 -189zM306 665q-62 0 -101.5 -19t-63 -58t-32.5 -98t-9 -140q0 -97 13 -164.5t53 -105.5q29 64 58.5 129t60 133.5t64 142t69.5 155.5
q-44 25 -112 25zM513 350q0 89 -11.5 153.5t-44.5 104.5l-249 -555q39 -18 98 -18q63 0 103.5 20t63.5 60t31.5 98.5t8.5 136.5z" />
    <glyph glyph-name="Ugrave" unicode="&#xd9;" horiz-adv-x="579" 
d="M290 35q56 0 92 13.5t56.5 43t28 77t7.5 115.5v403q0 7 3 10t12 3h19q10 0 13 -3t3 -10v-403q0 -78 -11 -134t-38 -91t-72 -51.5t-113 -16.5t-113.5 16.5t-72.5 51.5t-38 91t-11 134v403q0 7 3 10t12 3h20q9 0 12 -3t3 -10v-403q0 -68 7.5 -115.5t28 -77t56.5 -43
t93 -13.5zM154 879q-15 9 -15 20q0 7 5 13l11 15q4 5 7 7t9 2t10.5 -2t9.5 -7l137 -118q11 -9 11 -14q0 -3 -3 -7l-6 -7q-5 -5 -7 -5q-3 0 -16 8z" />
    <glyph glyph-name="Uacute" unicode="&#xda;" horiz-adv-x="579" 
d="M290 35q56 0 92 13.5t56.5 43t28 77t7.5 115.5v403q0 7 3 10t12 3h19q10 0 13 -3t3 -10v-403q0 -78 -11 -134t-38 -91t-72 -51.5t-113 -16.5t-113.5 16.5t-72.5 51.5t-38 91t-11 134v403q0 7 3 10t12 3h20q9 0 12 -3t3 -10v-403q0 -68 7.5 -115.5t28 -77t56.5 -43
t93 -13.5zM271 784q-13 -8 -15 -8q-3 0 -8 5l-6 7q-3 4 -3 7q0 5 11 14l137 118q10 9 20 9q6 0 9 -2t7 -7l11 -15q5 -6 5 -13q0 -11 -15 -20z" />
    <glyph glyph-name="Ucircumflex" unicode="&#xdb;" horiz-adv-x="579" 
d="M290 35q56 0 92 13.5t56.5 43t28 77t7.5 115.5v403q0 7 3 10t12 3h19q10 0 13 -3t3 -10v-403q0 -78 -11 -134t-38 -91t-72 -51.5t-113 -16.5t-113.5 16.5t-72.5 51.5t-38 91t-11 134v403q0 7 3 10t12 3h20q9 0 12 -3t3 -10v-403q0 -68 7.5 -115.5t28 -77t56.5 -43
t93 -13.5zM146 795q0 5 11 14l112 103q6 5 10 7.5t10 2.5t10.5 -2.5t9.5 -7.5l112 -103q11 -9 11 -14q0 -3 -3 -7l-4 -6q-1 -2 -2 -3q-2 -2 -5 -2t-7 2.5t-10 6.5l-112 73l-112 -73q-6 -4 -10 -6.5t-7 -2.5q-4 0 -7 5l-4 6q-3 4 -3 7z" />
    <glyph glyph-name="Udieresis" unicode="&#xdc;" horiz-adv-x="579" 
d="M290 35q56 0 92 13.5t56.5 43t28 77t7.5 115.5v403q0 7 3 10t12 3h19q10 0 13 -3t3 -10v-403q0 -78 -11 -134t-38 -91t-72 -51.5t-113 -16.5t-113.5 16.5t-72.5 51.5t-38 91t-11 134v403q0 7 3 10t12 3h20q9 0 12 -3t3 -10v-403q0 -68 7.5 -115.5t28 -77t56.5 -43
t93 -13.5zM385 830q0 -16 -10.5 -26.5t-25.5 -10.5q-17 0 -27.5 10.5t-10.5 26.5q0 17 10.5 26.5t27.5 9.5q14 0 25 -10t11 -26zM267 830q0 -16 -10.5 -26.5t-25.5 -10.5q-17 0 -27 10.5t-10 26.5q0 17 10 26.5t27 9.5q14 0 25 -10t11 -26z" />
    <glyph glyph-name="Yacute" unicode="&#xdd;" horiz-adv-x="483" 
d="M10 692q0 8 10 8h33q7 0 12 -10l177 -343l178 345q5 8 11 8h33q9 0 9 -8q0 -4 -3 -11l-203 -383v-285q0 -7 -3 -10t-12 -3h-20q-9 0 -12 3t-3 10v285l-203 383q-4 7 -4 11zM233 784q-13 -8 -15 -8q-3 0 -8 5l-6 7q-3 4 -3 7q0 5 11 14l137 118q10 9 20 9q6 0 9 -2t7 -7
l11 -15q5 -6 5 -13q0 -11 -15 -20z" />
    <glyph glyph-name="Thorn" unicode="&#xde;" horiz-adv-x="527" 
d="M60 687q0 7 3 10t12 3h20q9 0 12 -3t3 -10v-100h192q61 0 100 -17t61 -45t30 -62.5t8 -69.5t-8 -70t-30 -62.5t-61 -44.5t-100 -17h-192v-186q0 -7 -3 -10t-12 -3h-20q-9 0 -12 3t-3 10v674zM451 393q0 34 -7.5 61.5t-25 47t-47 30.5t-73.5 11h-188v-301h188
q44 0 73.5 11t47 30.5t25 47.5t7.5 62z" />
    <glyph glyph-name="germandbls" unicode="&#xdf;" horiz-adv-x="538" 
d="M478 126q0 -16 -5.5 -39t-22 -44.5t-47.5 -36.5t-81 -15q-23 0 -45 4t-39 10t-27.5 13.5t-10.5 13.5q0 3 2.5 7.5t5.5 9t7 8t7 3.5t11.5 -4t21.5 -8.5t30 -8.5t37 -4q19 0 38 5t34 15.5t24.5 27.5t9.5 42q0 16 -6 29.5t-17.5 27t-28.5 28.5t-39 33q-28 24 -49 41.5
t-35.5 34.5t-21.5 37t-7 49q0 27 11 48t29 36.5t41 26t47 17.5q-7 26 -20 50t-30 42t-38 29t-43 11q-30 0 -48.5 -12t-29 -36t-14 -60.5t-3.5 -85.5v-458q0 -13 -15 -13h-20q-8 0 -11.5 2.5t-3.5 10.5v458q0 53 5 96.5t21 75t44 49t75 17.5q43 0 75 -20t54 -48t34.5 -59.5
t17.5 -53.5l5 -23q-68 -14 -100.5 -39.5t-32.5 -60.5q0 -22 9 -40t23.5 -33.5t31.5 -29t33 -26.5q23 -19 42.5 -36.5t34 -35.5t22.5 -37t8 -41z" />
    <glyph glyph-name="agrave" unicode="&#xe0;" horiz-adv-x="506" 
d="M489 35q8 0 9 -12q1 -5 2 -12.5t1 -9.5q0 -3 -11 -6.5t-32 -3.5q-31 0 -49.5 13.5t-27.5 39.5q-4 -5 -16 -14t-30.5 -17.5t-42.5 -15t-53 -6.5q-44 0 -79.5 13t-61 41.5t-39.5 74.5t-14 112q0 70 15 116.5t42 74t65.5 39t85.5 11.5q61 0 106 -15.5t65 -28.5v-334
q0 -28 9 -45t36 -17q8 0 13 1t7 1zM374 401q-17 8 -36 14q-17 5 -38.5 9.5t-45.5 4.5q-36 0 -65 -9t-50 -31.5t-32.5 -60.5t-11.5 -96q0 -55 11 -92.5t30.5 -61t47 -33.5t60.5 -10q32 0 56 9t41 20q19 13 33 30v307zM128 643q-15 9 -15 20q0 7 5 13l11 15q4 5 7 7t9 2
t10.5 -2t9.5 -7l137 -118q11 -9 11 -14q0 -3 -3 -7l-6 -7q-5 -5 -7 -5q-3 0 -16 8z" />
    <glyph glyph-name="aacute" unicode="&#xe1;" horiz-adv-x="506" 
d="M489 35q8 0 9 -12q1 -5 2 -12.5t1 -9.5q0 -3 -11 -6.5t-32 -3.5q-31 0 -49.5 13.5t-27.5 39.5q-4 -5 -16 -14t-30.5 -17.5t-42.5 -15t-53 -6.5q-44 0 -79.5 13t-61 41.5t-39.5 74.5t-14 112q0 70 15 116.5t42 74t65.5 39t85.5 11.5q61 0 106 -15.5t65 -28.5v-334
q0 -28 9 -45t36 -17q8 0 13 1t7 1zM374 401q-17 8 -36 14q-17 5 -38.5 9.5t-45.5 4.5q-36 0 -65 -9t-50 -31.5t-32.5 -60.5t-11.5 -96q0 -55 11 -92.5t30.5 -61t47 -33.5t60.5 -10q32 0 56 9t41 20q19 13 33 30v307zM225 548q-13 -8 -15 -8q-3 0 -8 5l-6 7q-3 4 -3 7
q0 5 11 14l137 118q10 9 20 9q6 0 9 -2t7 -7l11 -15q5 -6 5 -13q0 -11 -15 -20z" />
    <glyph glyph-name="acircumflex" unicode="&#xe2;" horiz-adv-x="506" 
d="M489 35q8 0 9 -12q1 -5 2 -12.5t1 -9.5q0 -3 -11 -6.5t-32 -3.5q-31 0 -49.5 13.5t-27.5 39.5q-4 -5 -16 -14t-30.5 -17.5t-42.5 -15t-53 -6.5q-44 0 -79.5 13t-61 41.5t-39.5 74.5t-14 112q0 70 15 116.5t42 74t65.5 39t85.5 11.5q61 0 106 -15.5t65 -28.5v-334
q0 -28 9 -45t36 -17q8 0 13 1t7 1zM374 401q-17 8 -36 14q-17 5 -38.5 9.5t-45.5 4.5q-36 0 -65 -9t-50 -31.5t-32.5 -60.5t-11.5 -96q0 -55 11 -92.5t30.5 -61t47 -33.5t60.5 -10q32 0 56 9t41 20q19 13 33 30v307zM110 559q0 5 11 14l112 103q6 5 10 7.5t10 2.5t10.5 -2.5
t9.5 -7.5l112 -103q11 -9 11 -14q0 -3 -3 -7l-4 -6q-1 -2 -2 -3q-2 -2 -5 -2t-7 2.5t-10 6.5l-112 73l-112 -73q-6 -4 -10 -6.5t-7 -2.5q-4 0 -7 5l-4 6q-3 4 -3 7z" />
    <glyph glyph-name="atilde" unicode="&#xe3;" horiz-adv-x="506" 
d="M489 35q8 0 9 -12q1 -5 2 -12.5t1 -9.5q0 -3 -11 -6.5t-32 -3.5q-31 0 -49.5 13.5t-27.5 39.5q-4 -5 -16 -14t-30.5 -17.5t-42.5 -15t-53 -6.5q-44 0 -79.5 13t-61 41.5t-39.5 74.5t-14 112q0 70 15 116.5t42 74t65.5 39t85.5 11.5q61 0 106 -15.5t65 -28.5v-334
q0 -28 9 -45t36 -17q8 0 13 1t7 1zM374 401q-17 8 -36 14q-17 5 -38.5 9.5t-45.5 4.5q-36 0 -65 -9t-50 -31.5t-32.5 -60.5t-11.5 -96q0 -55 11 -92.5t30.5 -61t47 -33.5t60.5 -10q32 0 56 9t41 20q19 13 33 30v307zM177 576q-21 0 -37 -7t-31 -7q-10 0 -12 6q-1 2 -2 5
q-2 6 -2 8q0 5 9.5 12t24 13.5t32.5 11t35 4.5q23 0 39.5 -4.5t31 -10t30 -10t36.5 -4.5q25 0 38.5 7t27.5 7q9 0 12 -6q1 -2 2 -5q2 -6 2 -8q0 -5 -9 -12t-23.5 -13t-32 -10.5t-33.5 -4.5q-24 0 -41 4.5t-31.5 9.5t-29.5 9.5t-36 4.5z" />
    <glyph glyph-name="adieresis" unicode="&#xe4;" horiz-adv-x="506" 
d="M489 35q8 0 9 -12q1 -5 2 -12.5t1 -9.5q0 -3 -11 -6.5t-32 -3.5q-31 0 -49.5 13.5t-27.5 39.5q-4 -5 -16 -14t-30.5 -17.5t-42.5 -15t-53 -6.5q-44 0 -79.5 13t-61 41.5t-39.5 74.5t-14 112q0 70 15 116.5t42 74t65.5 39t85.5 11.5q61 0 106 -15.5t65 -28.5v-334
q0 -28 9 -45t36 -17q8 0 13 1t7 1zM374 401q-17 8 -36 14q-17 5 -38.5 9.5t-45.5 4.5q-36 0 -65 -9t-50 -31.5t-32.5 -60.5t-11.5 -96q0 -55 11 -92.5t30.5 -61t47 -33.5t60.5 -10q32 0 56 9t41 20q19 13 33 30v307zM348 594q0 -16 -10.5 -26.5t-25.5 -10.5
q-17 0 -27.5 10.5t-10.5 26.5q0 17 10.5 26.5t27.5 9.5q14 0 25 -10t11 -26zM230 594q0 -16 -10.5 -26.5t-25.5 -10.5q-17 0 -27 10.5t-10 26.5q0 17 10 26.5t27 9.5q14 0 25 -10t11 -26z" />
    <glyph glyph-name="aring" unicode="&#xe5;" horiz-adv-x="506" 
d="M489 35q8 0 9 -12q1 -5 2 -12.5t1 -9.5q0 -3 -11 -6.5t-32 -3.5q-31 0 -49.5 13.5t-27.5 39.5q-4 -5 -16 -14t-30.5 -17.5t-42.5 -15t-53 -6.5q-44 0 -79.5 13t-61 41.5t-39.5 74.5t-14 112q0 70 15 116.5t42 74t65.5 39t85.5 11.5q61 0 106 -15.5t65 -28.5v-334
q0 -28 9 -45t36 -17q8 0 13 1t7 1zM374 401q-17 8 -36 14q-17 5 -38.5 9.5t-45.5 4.5q-36 0 -65 -9t-50 -31.5t-32.5 -60.5t-11.5 -96q0 -55 11 -92.5t30.5 -61t47 -33.5t60.5 -10q32 0 56 9t41 20q19 13 33 30v307zM339 624q0 -35 -25.5 -60t-60.5 -25q-38 0 -62 25t-24 60
q0 38 24 61.5t62 23.5q16 0 31.5 -6.5t27.5 -18t19.5 -27t7.5 -33.5zM303 624q0 21 -15.5 36.5t-35.5 15.5q-22 0 -35.5 -14.5t-13.5 -37.5q0 -20 13.5 -36t35.5 -16q21 0 36 16t15 36z" />
    <glyph glyph-name="ae" unicode="&#xe6;" horiz-adv-x="790" 
d="M590 -9q-76 0 -118 20.5t-65 56.5q-8 -11 -22 -24t-34.5 -25t-48 -20t-63.5 -8q-44 0 -79.5 13t-61 41.5t-39.5 74.5t-14 112q0 70 15 116.5t42 74t65.5 39t85.5 11.5q61 0 103 -18.5t68 -38.5q23 25 55.5 41t86.5 16q91 0 135 -55.5t44 -170.5q0 -21 -6.5 -28t-23.5 -7
h-291q0 -69 22.5 -112t80.5 -58q27 -7 67 -7q50 0 79.5 11t36.5 11q8 0 12.5 -13t4.5 -20q0 -6 -12.5 -11.5t-32 -10.5t-44 -8t-48.5 -3zM374 392q-19 10 -38 18q-17 7 -38 13t-44 6q-36 0 -65 -9t-50 -31.5t-32.5 -60.5t-11.5 -96q0 -55 11 -92.5t30.5 -61t47 -33.5
t60.5 -10q32 0 56 9.5t41 21.5q19 13 33 31v295zM695 269q0 33 -6.5 62t-22 50.5t-40 34.5t-60.5 13q-40 0 -67 -13.5t-43.5 -36.5t-24 -55t-7.5 -68h271v13z" />
    <glyph glyph-name="ccedilla" unicode="&#xe7;" horiz-adv-x="391" 
d="M136 -158q0 11 4.5 16t9.5 5t19.5 -5t42.5 -5q30 0 47.5 11.5t17.5 31.5t-13 27.5t-35 7.5q-16 0 -30.5 -3.5t-21.5 -6.5l-21 26l37 49q-75 13 -111.5 68.5t-36.5 167.5q0 67 13.5 113.5t39.5 74.5t64.5 40.5t88.5 12.5q14 0 31 -1.5t31.5 -4.5t24 -7.5t9.5 -10.5
q0 -15 -7 -23.5t-10 -8.5q-7 0 -26.5 6t-51.5 6h-13.5t-12.5 -1q-31 -3 -55.5 -13.5t-41 -33t-25.5 -59t-9 -90.5q0 -51 8 -88t26 -61.5t47 -36t72 -11.5q47 0 70.5 9.5t30.5 9.5q5 0 11 -7.5t6 -23.5q0 -5 -10 -11t-26 -10.5t-36 -7.5t-40 -3h-17q-4 0 -7 1l-21 -32
q5 1 11 2q5 1 11 2t13 1q37 0 56.5 -18.5t19.5 -47.5q0 -34 -26.5 -56.5t-87.5 -22.5q-11 0 -23 1.5t-22.5 4.5t-17.5 7t-7 9z" />
    <glyph glyph-name="egrave" unicode="&#xe8;" horiz-adv-x="462" 
d="M367 269q0 33 -6.5 62t-22 50.5t-40 34.5t-60.5 13q-40 0 -67 -13.5t-43.5 -36.5t-24 -55t-7.5 -68h271v13zM262 -9q-62 0 -103.5 14.5t-66.5 44.5t-36 75.5t-11 106.5q0 115 46 178t147 63q91 0 135 -55.5t44 -170.5q0 -21 -6.5 -28t-23.5 -7h-291q0 -43 8.5 -76
t28 -55.5t52.5 -34t81 -11.5q50 0 79.5 11t36.5 11q8 0 12.5 -13t4.5 -20q0 -6 -12.5 -11.5t-32 -10.5t-44 -8t-48.5 -3zM123 643q-15 9 -15 20q0 7 5 13l11 15q4 5 7 7t9 2t10.5 -2t9.5 -7l137 -118q11 -9 11 -14q0 -3 -3 -7l-6 -7q-5 -5 -7 -5q-3 0 -16 8z" />
    <glyph glyph-name="eacute" unicode="&#xe9;" horiz-adv-x="462" 
d="M367 269q0 33 -6.5 62t-22 50.5t-40 34.5t-60.5 13q-40 0 -67 -13.5t-43.5 -36.5t-24 -55t-7.5 -68h271v13zM262 -9q-62 0 -103.5 14.5t-66.5 44.5t-36 75.5t-11 106.5q0 115 46 178t147 63q91 0 135 -55.5t44 -170.5q0 -21 -6.5 -28t-23.5 -7h-291q0 -43 8.5 -76
t28 -55.5t52.5 -34t81 -11.5q50 0 79.5 11t36.5 11q8 0 12.5 -13t4.5 -20q0 -6 -12.5 -11.5t-32 -10.5t-44 -8t-48.5 -3zM220 548q-13 -8 -15 -8q-3 0 -8 5l-6 7q-3 4 -3 7q0 5 11 14l137 118q10 9 20 9q6 0 9 -2t7 -7l11 -15q5 -6 5 -13q0 -11 -15 -20z" />
    <glyph glyph-name="ecircumflex" unicode="&#xea;" horiz-adv-x="462" 
d="M367 269q0 33 -6.5 62t-22 50.5t-40 34.5t-60.5 13q-40 0 -67 -13.5t-43.5 -36.5t-24 -55t-7.5 -68h271v13zM262 -9q-62 0 -103.5 14.5t-66.5 44.5t-36 75.5t-11 106.5q0 115 46 178t147 63q91 0 135 -55.5t44 -170.5q0 -21 -6.5 -28t-23.5 -7h-291q0 -43 8.5 -76
t28 -55.5t52.5 -34t81 -11.5q50 0 79.5 11t36.5 11q8 0 12.5 -13t4.5 -20q0 -6 -12.5 -11.5t-32 -10.5t-44 -8t-48.5 -3zM95 559q0 5 11 14l112 103q6 5 10 7.5t10 2.5t10.5 -2.5t9.5 -7.5l112 -103q11 -9 11 -14q0 -3 -3 -7l-4 -6q-1 -2 -2 -3q-2 -2 -5 -2t-7 2.5t-10 6.5
l-112 73l-112 -73q-6 -4 -10 -6.5t-7 -2.5q-4 0 -7 5l-4 6q-3 4 -3 7z" />
    <glyph glyph-name="edieresis" unicode="&#xeb;" horiz-adv-x="462" 
d="M367 269q0 33 -6.5 62t-22 50.5t-40 34.5t-60.5 13q-40 0 -67 -13.5t-43.5 -36.5t-24 -55t-7.5 -68h271v13zM262 -9q-62 0 -103.5 14.5t-66.5 44.5t-36 75.5t-11 106.5q0 115 46 178t147 63q91 0 135 -55.5t44 -170.5q0 -21 -6.5 -28t-23.5 -7h-291q0 -43 8.5 -76
t28 -55.5t52.5 -34t81 -11.5q50 0 79.5 11t36.5 11q8 0 12.5 -13t4.5 -20q0 -6 -12.5 -11.5t-32 -10.5t-44 -8t-48.5 -3zM334 594q0 -16 -10.5 -26.5t-25.5 -10.5q-17 0 -27.5 10.5t-10.5 26.5q0 17 10.5 26.5t27.5 9.5q14 0 25 -10t11 -26zM216 594q0 -16 -10.5 -26.5
t-25.5 -10.5q-17 0 -27 10.5t-10 26.5q0 17 10 26.5t27 9.5q14 0 25 -10t11 -26z" />
    <glyph glyph-name="igrave" unicode="&#xec;" horiz-adv-x="175" 
d="M62 450q0 8 3 11t13 3h19q16 0 16 -14v-436q0 -8 -3 -11t-13 -3h-19q-11 0 -13.5 3.5t-2.5 10.5v436v0zM-7 643q-15 9 -15 20q0 7 5 13l11 15q4 5 7 7t9 2t10.5 -2t9.5 -7l137 -118q11 -9 11 -14q0 -3 -3 -7l-6 -7q-5 -5 -7 -5q-3 0 -16 8z" />
    <glyph glyph-name="iacute" unicode="&#xed;" horiz-adv-x="175" 
d="M62 450q0 8 3 11t13 3h19q16 0 16 -14v-436q0 -8 -3 -11t-13 -3h-19q-11 0 -13.5 3.5t-2.5 10.5v436v0zM40 548q-13 -8 -15 -8q-3 0 -8 5l-6 7q-3 4 -3 7q0 5 11 14l137 118q10 9 20 9q6 0 9 -2t7 -7l11 -15q5 -6 5 -13q0 -11 -15 -20z" />
    <glyph glyph-name="icircumflex" unicode="&#xee;" horiz-adv-x="175" 
d="M62 450q0 8 3 11t13 3h19q16 0 16 -14v-436q0 -8 -3 -11t-13 -3h-19q-11 0 -13.5 3.5t-2.5 10.5v436v0zM-55 559q0 5 11 14l112 103q6 5 10 7.5t10 2.5t10.5 -2.5t9.5 -7.5l112 -103q11 -9 11 -14q0 -3 -3 -7l-4 -6q-1 -2 -2 -3q-2 -2 -5 -2t-7 2.5t-10 6.5l-112 73
l-112 -73q-6 -4 -10 -6.5t-7 -2.5q-4 0 -7 5l-4 6q-3 4 -3 7z" />
    <glyph glyph-name="idieresis" unicode="&#xef;" horiz-adv-x="175" 
d="M62 450q0 8 3 11t13 3h19q16 0 16 -14v-436q0 -8 -3 -11t-13 -3h-19q-11 0 -13.5 3.5t-2.5 10.5v436v0zM183 594q0 -16 -10.5 -26.5t-25.5 -10.5q-17 0 -27.5 10.5t-10.5 26.5q0 17 10.5 26.5t27.5 9.5q14 0 25 -10t11 -26zM65 594q0 -16 -10.5 -26.5t-25.5 -10.5
q-17 0 -27 10.5t-10 26.5q0 17 10 26.5t27 9.5q14 0 25 -10t11 -26z" />
    <glyph glyph-name="eth" unicode="&#xf0;" horiz-adv-x="498" 
d="M239 700q8 0 11.5 -5t7.5 -10l29 -46l70 31q8 4 12 4t9 -11l6 -13q3 -8 3 -11q0 -5 -9 -9l-66 -29q141 -223 141 -368q0 -51 -8.5 -95.5t-30.5 -77t-61.5 -51t-100.5 -18.5q-59 0 -98.5 16t-63.5 46.5t-34.5 74t-10.5 98.5q0 52 12 94t36.5 72t61 46t86.5 16
q27 0 47.5 -3.5t34.5 -7.5q17 -4 29 -10q-43 81 -86 149l-130 -58q-3 -1 -5 -1.5t-4 -0.5q-6 1 -10 10l-6 12q-3 6 -3 11q0 6 9 10l124 55q-6 10 -12.5 18.5t-12.5 18.5q-14 21 -14 28q0 10 5.5 12.5t12.5 2.5h19zM403 227q0 46 -8.5 82t-27.5 70q-11 8 -29 15
q-15 6 -37.5 11t-53.5 5q-77 0 -114.5 -44t-37.5 -139q0 -53 9.5 -90t28.5 -59.5t48.5 -32.5t69.5 -10q81 0 116.5 46t35.5 146z" />
    <glyph glyph-name="ntilde" unicode="&#xf1;" horiz-adv-x="489" 
d="M384 304q0 66 -37.5 95.5t-107.5 29.5q-22 0 -42.5 -4.5t-37.5 -10.5t-29.5 -12.5t-19.5 -10.5v-378q0 -7 -3 -10t-12 -3h-20q-9 0 -12 3t-3 10v406q34 22 80 38t102 16q60 0 97.5 -14.5t58.5 -37t28.5 -50t7.5 -53.5v-305q0 -7 -3 -10t-12 -3h-19q-10 0 -13 3t-3 10v291
zM173 576q-21 0 -37 -7t-31 -7q-10 0 -12 6q-1 2 -2 5q-2 6 -2 8q0 5 9.5 12t24 13.5t32.5 11t35 4.5q23 0 39.5 -4.5t31 -10t30 -10t36.5 -4.5q25 0 38.5 7t27.5 7q9 0 12 -6q1 -2 2 -5q2 -6 2 -8q0 -5 -9 -12t-23.5 -13t-32 -10.5t-33.5 -4.5q-24 0 -41 4.5t-31.5 9.5
t-29.5 9.5t-36 4.5z" />
    <glyph glyph-name="ograve" unicode="&#xf2;" horiz-adv-x="496" 
d="M401 232q0 57 -9.5 95t-29 60.5t-48 32t-66.5 9.5t-66.5 -9.5t-48 -32t-29 -60.5t-9.5 -95t9.5 -95t29 -60.5t48 -32t66.5 -9.5t66.5 9.5t48 32t29 60.5t9.5 95zM45 232q0 130 50.5 185.5t152.5 55.5t152.5 -55.5t50.5 -185.5q0 -65 -12.5 -111t-38 -75t-63.5 -42
t-89 -13t-89 13t-63.5 42t-38 75t-12.5 111zM123 643q-15 9 -15 20q0 7 5 13l11 15q4 5 7 7t9 2t10.5 -2t9.5 -7l137 -118q11 -9 11 -14q0 -3 -3 -7l-6 -7q-5 -5 -7 -5q-3 0 -16 8z" />
    <glyph glyph-name="oacute" unicode="&#xf3;" horiz-adv-x="496" 
d="M401 232q0 57 -9.5 95t-29 60.5t-48 32t-66.5 9.5t-66.5 -9.5t-48 -32t-29 -60.5t-9.5 -95t9.5 -95t29 -60.5t48 -32t66.5 -9.5t66.5 9.5t48 32t29 60.5t9.5 95zM45 232q0 130 50.5 185.5t152.5 55.5t152.5 -55.5t50.5 -185.5q0 -65 -12.5 -111t-38 -75t-63.5 -42
t-89 -13t-89 13t-63.5 42t-38 75t-12.5 111zM230 548q-13 -8 -15 -8q-3 0 -8 5l-6 7q-3 4 -3 7q0 5 11 14l137 118q10 9 20 9q6 0 9 -2t7 -7l11 -15q5 -6 5 -13q0 -11 -15 -20z" />
    <glyph glyph-name="ocircumflex" unicode="&#xf4;" horiz-adv-x="496" 
d="M401 232q0 57 -9.5 95t-29 60.5t-48 32t-66.5 9.5t-66.5 -9.5t-48 -32t-29 -60.5t-9.5 -95t9.5 -95t29 -60.5t48 -32t66.5 -9.5t66.5 9.5t48 32t29 60.5t9.5 95zM45 232q0 130 50.5 185.5t152.5 55.5t152.5 -55.5t50.5 -185.5q0 -65 -12.5 -111t-38 -75t-63.5 -42
t-89 -13t-89 13t-63.5 42t-38 75t-12.5 111zM105 559q0 5 11 14l112 103q6 5 10 7.5t10 2.5t10.5 -2.5t9.5 -7.5l112 -103q11 -9 11 -14q0 -3 -3 -7l-4 -6q-1 -2 -2 -3q-2 -2 -5 -2t-7 2.5t-10 6.5l-112 73l-112 -73q-6 -4 -10 -6.5t-7 -2.5q-4 0 -7 5l-4 6q-3 4 -3 7z" />
    <glyph glyph-name="otilde" unicode="&#xf5;" horiz-adv-x="496" 
d="M401 232q0 57 -9.5 95t-29 60.5t-48 32t-66.5 9.5t-66.5 -9.5t-48 -32t-29 -60.5t-9.5 -95t9.5 -95t29 -60.5t48 -32t66.5 -9.5t66.5 9.5t48 32t29 60.5t9.5 95zM45 232q0 130 50.5 185.5t152.5 55.5t152.5 -55.5t50.5 -185.5q0 -65 -12.5 -111t-38 -75t-63.5 -42
t-89 -13t-89 13t-63.5 42t-38 75t-12.5 111zM172 576q-21 0 -37 -7t-31 -7q-10 0 -12 6q-1 2 -2 5q-2 6 -2 8q0 5 9.5 12t24 13.5t32.5 11t35 4.5q23 0 39.5 -4.5t31 -10t30 -10t36.5 -4.5q25 0 38.5 7t27.5 7q9 0 12 -6q1 -2 2 -5q2 -6 2 -8q0 -5 -9 -12t-23.5 -13
t-32 -10.5t-33.5 -4.5q-24 0 -41 4.5t-31.5 9.5t-29.5 9.5t-36 4.5z" />
    <glyph glyph-name="odieresis" unicode="&#xf6;" horiz-adv-x="496" 
d="M401 232q0 57 -9.5 95t-29 60.5t-48 32t-66.5 9.5t-66.5 -9.5t-48 -32t-29 -60.5t-9.5 -95t9.5 -95t29 -60.5t48 -32t66.5 -9.5t66.5 9.5t48 32t29 60.5t9.5 95zM45 232q0 130 50.5 185.5t152.5 55.5t152.5 -55.5t50.5 -185.5q0 -65 -12.5 -111t-38 -75t-63.5 -42
t-89 -13t-89 13t-63.5 42t-38 75t-12.5 111zM343 594q0 -16 -10.5 -26.5t-25.5 -10.5q-17 0 -27.5 10.5t-10.5 26.5q0 17 10.5 26.5t27.5 9.5q14 0 25 -10t11 -26zM225 594q0 -16 -10.5 -26.5t-25.5 -10.5q-17 0 -27 10.5t-10 26.5q0 17 10 26.5t27 9.5q14 0 25 -10t11 -26z
" />
    <glyph glyph-name="divide" unicode="&#xf7;" horiz-adv-x="493" 
d="M192 442q0 22 16 37.5t38 15.5t37.5 -15.5t15.5 -37.5t-15.5 -38t-37.5 -16t-38 16t-16 38zM409 300q9 0 11.5 -3t2.5 -11v-16q0 -8 -2.5 -11t-11.5 -3h-325q-9 0 -11.5 3t-2.5 11v16q0 8 2.5 11t11.5 3h325zM192 115q0 22 16 37.5t38 15.5t37.5 -15.5t15.5 -37.5
t-15.5 -38t-37.5 -16t-38 16t-16 38z" />
    <glyph glyph-name="oslash" unicode="&#xf8;" horiz-adv-x="496" 
d="M130 18q-43 26 -64 77.5t-21 136.5q0 130 50.5 185.5t152.5 55.5q22 0 41.5 -2.5t36.5 -7.5l9 20q6 14 10 21t12 7h23q14 0 14 -13q0 -5 -8.5 -23.5t-14.5 -31.5q80 -51 80 -211q0 -65 -12.5 -111t-38 -75t-63.5 -42t-89 -13q-39 0 -73 8q-11 -26 -16 -35.5t-13 -9.5h-23
q-7 0 -10.5 2.5t-3.5 10.5q0 2 2 7.5t3 7.5zM308 422q-7 1 -17 3q-8 2 -19 3t-24 1q-47 0 -76.5 -13.5t-46.5 -39t-23.5 -62t-6.5 -82.5q0 -70 14.5 -111.5t39.5 -58.5zM401 232q0 65 -12 105.5t-37 61.5l-158 -358q6 -2 14 -3q13 -3 40 -3q38 0 66.5 9.5t48 32t29 60.5
t9.5 95z" />
    <glyph glyph-name="ugrave" unicode="&#xf9;" horiz-adv-x="502" 
d="M105 173q0 -31 7 -56.5t23 -43.5t42 -28t64 -10q26 0 47.5 7t38 16.5t27.5 20t17 17.5v354q0 8 3 11t12 3h19q10 0 13 -3t3 -11v-353q0 -25 9.5 -44t35.5 -19q7 0 12 1t8 1q5 0 6 -3t2 -9q0 -7 1 -11q1 -5 1.5 -8t0.5 -4q0 -3 -10 -6.5t-28 -3.5q-31 0 -52 14t-29 40
q-6 -6 -18.5 -15t-30 -18t-40.5 -15t-51 -6q-89 0 -136 42t-47 130v287q0 8 3 11t12 3h20q9 0 12 -3t3 -11v-277zM91 643q-15 9 -15 20q0 7 5 13l11 15q4 5 7 7t9 2t10.5 -2t9.5 -7l137 -118q11 -9 11 -14q0 -3 -3 -7l-6 -7q-5 -5 -7 -5q-3 0 -16 8z" />
    <glyph glyph-name="uacute" unicode="&#xfa;" horiz-adv-x="502" 
d="M105 173q0 -31 7 -56.5t23 -43.5t42 -28t64 -10q26 0 47.5 7t38 16.5t27.5 20t17 17.5v354q0 8 3 11t12 3h19q10 0 13 -3t3 -11v-353q0 -25 9.5 -44t35.5 -19q7 0 12 1t8 1q5 0 6 -3t2 -9q0 -7 1 -11q1 -5 1.5 -8t0.5 -4q0 -3 -10 -6.5t-28 -3.5q-31 0 -52 14t-29 40
q-6 -6 -18.5 -15t-30 -18t-40.5 -15t-51 -6q-89 0 -136 42t-47 130v287q0 8 3 11t12 3h20q9 0 12 -3t3 -11v-277zM228 548q-13 -8 -15 -8q-3 0 -8 5l-6 7q-3 4 -3 7q0 5 11 14l137 118q10 9 20 9q6 0 9 -2t7 -7l11 -15q5 -6 5 -13q0 -11 -15 -20z" />
    <glyph glyph-name="ucircumflex" unicode="&#xfb;" horiz-adv-x="502" 
d="M105 173q0 -31 7 -56.5t23 -43.5t42 -28t64 -10q26 0 47.5 7t38 16.5t27.5 20t17 17.5v354q0 8 3 11t12 3h19q10 0 13 -3t3 -11v-353q0 -25 9.5 -44t35.5 -19q7 0 12 1t8 1q5 0 6 -3t2 -9q0 -7 1 -11q1 -5 1.5 -8t0.5 -4q0 -3 -10 -6.5t-28 -3.5q-31 0 -52 14t-29 40
q-6 -6 -18.5 -15t-30 -18t-40.5 -15t-51 -6q-89 0 -136 42t-47 130v287q0 8 3 11t12 3h20q9 0 12 -3t3 -11v-277zM103 559q0 5 11 14l112 103q6 5 10 7.5t10 2.5t10.5 -2.5t9.5 -7.5l112 -103q11 -9 11 -14q0 -3 -3 -7l-4 -6q-1 -2 -2 -3q-2 -2 -5 -2t-7 2.5t-10 6.5
l-112 73l-112 -73q-6 -4 -10 -6.5t-7 -2.5q-4 0 -7 5l-4 6q-3 4 -3 7z" />
    <glyph glyph-name="udieresis" unicode="&#xfc;" horiz-adv-x="502" 
d="M105 173q0 -31 7 -56.5t23 -43.5t42 -28t64 -10q26 0 47.5 7t38 16.5t27.5 20t17 17.5v354q0 8 3 11t12 3h19q10 0 13 -3t3 -11v-353q0 -25 9.5 -44t35.5 -19q7 0 12 1t8 1q5 0 6 -3t2 -9q0 -7 1 -11q1 -5 1.5 -8t0.5 -4q0 -3 -10 -6.5t-28 -3.5q-31 0 -52 14t-29 40
q-6 -6 -18.5 -15t-30 -18t-40.5 -15t-51 -6q-89 0 -136 42t-47 130v287q0 8 3 11t12 3h20q9 0 12 -3t3 -11v-277zM341 594q0 -16 -10.5 -26.5t-25.5 -10.5q-17 0 -27.5 10.5t-10.5 26.5q0 17 10.5 26.5t27.5 9.5q14 0 25 -10t11 -26zM223 594q0 -16 -10.5 -26.5t-25.5 -10.5
q-17 0 -27 10.5t-10 26.5q0 17 10 26.5t27 9.5q14 0 25 -10t11 -26z" />
    <glyph glyph-name="yacute" unicode="&#xfd;" horiz-adv-x="397" 
d="M156 -170l-4.5 -10.5t-10.5 -3.5h-21q-13 0 -13 8q0 4 1 6l66 177l-167 440q-2 4 -2 8q0 9 13 9h25q8 0 10 -3t5 -11l141 -382l141 382q2 7 4.5 10.5t10.5 3.5h24q13 0 13 -9q0 -4 -2 -8l-234 -617v0zM190 548q-13 -8 -15 -8q-3 0 -8 5l-6 7q-3 4 -3 7q0 5 11 14l137 118
q10 9 20 9q6 0 9 -2t7 -7l11 -15q5 -6 5 -13q0 -11 -15 -20z" />
    <glyph glyph-name="thorn" unicode="&#xfe;" horiz-adv-x="484" 
d="M60 687q0 7 3.5 9.5t11.5 5.5q7 1 12 3t9 3t6 1q6 0 7 -2.5t1 -11.5v-249q23 11 54 19t67 8q47 0 85.5 -11.5t65.5 -39t42 -74t15 -116.5q0 -66 -15 -112t-41 -74.5t-63 -41.5t-80 -13q-45 0 -76.5 13t-53.5 30v-229q0 -7 -3 -10t-12 -3h-20q-9 0 -12 3t-3 10v882z
M110 82q15 -13 34 -24q17 -9 39.5 -16t51.5 -7q34 0 62.5 10t49 33.5t31.5 61t11 92.5q0 58 -11.5 96t-32.5 60.5t-50.5 31.5t-64.5 9q-24 0 -45.5 -6t-38.5 -13q-19 -9 -36 -19v-309z" />
    <glyph glyph-name="ydieresis" unicode="&#xff;" horiz-adv-x="397" 
d="M156 -170l-4.5 -10.5t-10.5 -3.5h-21q-13 0 -13 8q0 4 1 6l66 177l-167 440q-2 4 -2 8q0 9 13 9h25q8 0 10 -3t5 -11l141 -382l141 382q2 7 4.5 10.5t10.5 3.5h24q13 0 13 -9q0 -4 -2 -8l-234 -617v0zM294 594q0 -16 -10.5 -26.5t-25.5 -10.5q-17 0 -27.5 10.5
t-10.5 26.5q0 17 10.5 26.5t27.5 9.5q14 0 25 -10t11 -26zM176 594q0 -16 -10.5 -26.5t-25.5 -10.5q-17 0 -27 10.5t-10 26.5q0 17 10 26.5t27 9.5q14 0 25 -10t11 -26z" />
    <glyph glyph-name="Amacron" unicode="&#x100;" horiz-adv-x="550" 
d="M407 258l-132 399l-132 -399h264zM538 13q2 -6 2 -7q0 -6 -11 -6h-26q-8 0 -10 2.5t-5 10.5l-67 201h-293l-66 -201q-2 -7 -4.5 -10t-10.5 -3h-26q-11 0 -11 6q0 1 2 7l221 674q2 7 5 10t11 3h53q7 0 10 -2t6 -11zM175 806q-15 0 -19.5 2t-4.5 15v10q0 12 4.5 14.5
t19.5 2.5h200q15 0 19.5 -2t4.5 -15v-10q0 -13 -4.5 -15t-19.5 -2h-200v0z" />
    <glyph glyph-name="amacron" unicode="&#x101;" horiz-adv-x="506" 
d="M489 35q8 0 9 -12q1 -5 2 -12.5t1 -9.5q0 -3 -11 -6.5t-32 -3.5q-31 0 -49.5 13.5t-27.5 39.5q-4 -5 -16 -14t-30.5 -17.5t-42.5 -15t-53 -6.5q-44 0 -79.5 13t-61 41.5t-39.5 74.5t-14 112q0 70 15 116.5t42 74t65.5 39t85.5 11.5q61 0 106 -15.5t65 -28.5v-334
q0 -28 9 -45t36 -17q8 0 13 1t7 1zM374 401q-17 8 -36 14q-17 5 -38.5 9.5t-45.5 4.5q-36 0 -65 -9t-50 -31.5t-32.5 -60.5t-11.5 -96q0 -55 11 -92.5t30.5 -61t47 -33.5t60.5 -10q32 0 56 9t41 20q19 13 33 30v307zM148 570q-15 0 -19.5 2t-4.5 15v10q0 12 4.5 14.5
t19.5 2.5h200q15 0 19.5 -2t4.5 -15v-10q0 -13 -4.5 -15t-19.5 -2h-200v0z" />
    <glyph glyph-name="Abreve" unicode="&#x102;" horiz-adv-x="550" 
d="M407 258l-132 399l-132 -399h264zM538 13q2 -6 2 -7q0 -6 -11 -6h-26q-8 0 -10 2.5t-5 10.5l-67 201h-293l-66 -201q-2 -7 -4.5 -10t-10.5 -3h-26q-11 0 -11 6q0 1 2 7l221 674q2 7 5 10t11 3h53q7 0 10 -2t6 -11zM371 884q0 -23 -8.5 -39t-22 -27t-30.5 -16t-34 -5
q-39 0 -68 21t-29 66h30q7 -20 21 -33t45 -13q29 0 44.5 13t22.5 33h29z" />
    <glyph glyph-name="abreve" unicode="&#x103;" horiz-adv-x="506" 
d="M489 35q8 0 9 -12q1 -5 2 -12.5t1 -9.5q0 -3 -11 -6.5t-32 -3.5q-31 0 -49.5 13.5t-27.5 39.5q-4 -5 -16 -14t-30.5 -17.5t-42.5 -15t-53 -6.5q-44 0 -79.5 13t-61 41.5t-39.5 74.5t-14 112q0 70 15 116.5t42 74t65.5 39t85.5 11.5q61 0 106 -15.5t65 -28.5v-334
q0 -28 9 -45t36 -17q8 0 13 1t7 1zM374 401q-17 8 -36 14q-17 5 -38.5 9.5t-45.5 4.5q-36 0 -65 -9t-50 -31.5t-32.5 -60.5t-11.5 -96q0 -55 11 -92.5t30.5 -61t47 -33.5t60.5 -10q32 0 56 9t41 20q19 13 33 30v307zM349 648q0 -23 -8.5 -39t-22 -27t-30.5 -16t-34 -5
q-39 0 -68 21t-29 66h30q7 -20 21 -33t45 -13q29 0 44.5 13t22.5 33h29z" />
    <glyph glyph-name="Aogonek" unicode="&#x104;" horiz-adv-x="550" 
d="M540 -160q0 -8 -19.5 -14t-41.5 -6q-46 0 -64.5 22t-18.5 51q0 19 8.5 35.5t21 29.5t28 23.5t29.5 18.5l7 4l-69 210h-293l-66 -201q-2 -7 -4.5 -10t-10.5 -3h-26q-11 0 -11 6q0 1 2 7l221 674q2 7 5 10t11 3h53q7 0 10 -2t6 -11l220 -674q2 -6 2 -7q0 -6 -11 -6h-11
q-32 -29 -52 -54t-20 -50q0 -20 13 -32t35 -12q17 0 24.5 3t11.5 3t7 -3.5t3 -14.5zM407 258l-132 399l-132 -399h264z" />
    <glyph glyph-name="aogonek" unicode="&#x105;" horiz-adv-x="506" 
d="M501 -160q0 -8 -20.5 -14t-42.5 -6q-46 0 -66 22t-20 51q0 18 6.5 33.5t17 28t23.5 23t26 18.5q-31 10 -44 48q-4 -5 -16 -14t-30.5 -17.5t-42.5 -15t-53 -6.5q-9 0 -17.5 0.5t-16.5 1.5q-36 4 -65.5 20t-50.5 45t-32.5 72t-11.5 102q0 70 15 116.5t42 74t65.5 39
t85.5 11.5q61 0 106 -15.5t65 -28.5v-334q0 -26 8.5 -44t36.5 -18q8 0 13 1t7 1q4 0 6 -4.5t3.5 -10t2 -11t0.5 -8.5t-11 -6.5t-32 -3.5q-56 -49 -56 -95q0 -20 14.5 -32t36.5 -12q17 0 25.5 3t12.5 3t7 -3.5t3 -14.5zM374 401q-17 8 -36 14q-17 5 -38.5 9.5t-45.5 4.5
q-36 0 -65 -9t-50 -31.5t-32.5 -60.5t-11.5 -96q0 -55 11 -92.5t30.5 -61t47 -33.5t60.5 -10q32 0 56 9t41 20q19 13 33 30v307z" />
    <glyph glyph-name="Cacute" unicode="&#x106;" horiz-adv-x="509" 
d="M311 -9q-72 0 -121.5 19.5t-80.5 62t-45 111t-14 166.5t14 166.5t45 111t80.5 62t121.5 19.5q36 0 62.5 -5t44 -11.5t26.5 -12t9 -6.5q0 -5 -8 -20q-5 -9 -8 -12t-5 -3q-3 0 -11.5 4t-23 9t-36 9t-50.5 4q-60 0 -100.5 -16.5t-65 -54t-35 -97.5t-10.5 -147t10.5 -147
t35 -97.5t65 -54t100.5 -16.5q31 0 55.5 6t42 12.5t28 12.5t13.5 6q4 0 11 -13q8 -15 8 -21q0 -2 -11 -9.5t-31 -16t-49.5 -15t-66.5 -6.5zM246 784q-13 -8 -15 -8q-3 0 -8 5l-6 7q-3 4 -3 7q0 5 11 14l137 118q10 9 20 9q6 0 9 -2t7 -7l11 -15q5 -6 5 -13q0 -11 -15 -20z
" />
    <glyph glyph-name="cacute" unicode="&#x107;" horiz-adv-x="391" 
d="M248 35q47 0 70.5 9.5t30.5 9.5q6 0 8 -2.5t4 -9.5l2 -8q1 -3 2 -6.5t1 -4.5q0 -5 -10 -11t-26 -10.5t-36 -7.5t-40 -3q-53 0 -92.5 13t-65.5 41.5t-38.5 74.5t-12.5 112q0 67 13.5 113.5t39.5 74.5t64.5 40.5t88.5 12.5q14 0 31 -1.5t31.5 -4.5t24 -7.5t9.5 -10.5
q0 -2 -1 -4.5t-2 -5.5q-1 -4 -2 -7q-3 -8 -5 -11.5t-7 -3.5q-7 0 -26.5 6t-51.5 6q-37 0 -66 -8.5t-49.5 -30t-31 -60t-10.5 -98.5q0 -51 8 -88t26 -61.5t47 -36t72 -11.5zM197 548q-13 -8 -15 -8q-3 0 -8 5l-6 7q-3 4 -3 7q0 5 11 14l137 118q10 9 20 9q6 0 9 -2t7 -7
l11 -15q5 -6 5 -13q0 -11 -15 -20z" />
    <glyph glyph-name="Ccircumflex" unicode="&#x108;" horiz-adv-x="509" 
d="M311 -9q-72 0 -121.5 19.5t-80.5 62t-45 111t-14 166.5t14 166.5t45 111t80.5 62t121.5 19.5q36 0 62.5 -5t44 -11.5t26.5 -12t9 -6.5q0 -5 -8 -20q-5 -9 -8 -12t-5 -3q-3 0 -11.5 4t-23 9t-36 9t-50.5 4q-60 0 -100.5 -16.5t-65 -54t-35 -97.5t-10.5 -147t10.5 -147
t35 -97.5t65 -54t100.5 -16.5q31 0 55.5 6t42 12.5t28 12.5t13.5 6q4 0 11 -13q8 -15 8 -21q0 -2 -11 -9.5t-31 -16t-49.5 -15t-66.5 -6.5zM151 795q0 5 11 14l112 103q6 5 10 7.5t10 2.5t10.5 -2.5t9.5 -7.5l112 -103q11 -9 11 -14q0 -3 -3 -7l-4 -6q-1 -2 -2 -3
q-2 -2 -5 -2t-7 2.5t-10 6.5l-112 73l-112 -73q-6 -4 -10 -6.5t-7 -2.5q-4 0 -7 5l-4 6q-3 4 -3 7z" />
    <glyph glyph-name="ccircumflex" unicode="&#x109;" horiz-adv-x="393" 
d="M248 35q47 0 70.5 9.5t30.5 9.5q6 0 8 -2.5t4 -9.5l2 -8q1 -3 2 -6.5t1 -4.5q0 -5 -10 -11t-26 -10.5t-36 -7.5t-40 -3q-53 0 -92.5 13t-65.5 41.5t-38.5 74.5t-12.5 112q0 67 13.5 113.5t39.5 74.5t64.5 40.5t88.5 12.5q14 0 31 -1.5t31.5 -4.5t24 -7.5t9.5 -10.5
q0 -2 -1 -4.5t-2 -5.5q-1 -4 -2 -7q-3 -8 -5 -11.5t-7 -3.5q-7 0 -26.5 6t-51.5 6q-37 0 -66 -8.5t-49.5 -30t-31 -60t-10.5 -98.5q0 -51 8 -88t26 -61.5t47 -36t72 -11.5zM82 559q0 5 11 14l112 103q6 5 10 7.5t10 2.5t10.5 -2.5t9.5 -7.5l112 -103q11 -9 11 -14
q0 -3 -3 -7l-4 -6q-1 -2 -2 -3q-2 -2 -5 -2t-7 2.5t-10 6.5l-112 73l-112 -73q-6 -4 -10 -6.5t-7 -2.5q-4 0 -7 5l-4 6q-3 4 -3 7z" />
    <glyph glyph-name="Cdotaccent" unicode="&#x10a;" horiz-adv-x="509" 
d="M311 -9q-72 0 -121.5 19.5t-80.5 62t-45 111t-14 166.5t14 166.5t45 111t80.5 62t121.5 19.5q36 0 62.5 -5t44 -11.5t26.5 -12t9 -6.5q0 -5 -8 -20q-5 -9 -8 -12t-5 -3q-3 0 -11.5 4t-23 9t-36 9t-50.5 4q-60 0 -100.5 -16.5t-65 -54t-35 -97.5t-10.5 -147t10.5 -147
t35 -97.5t65 -54t100.5 -16.5q31 0 55.5 6t42 12.5t28 12.5t13.5 6q4 0 11 -13q8 -15 8 -21q0 -2 -11 -9.5t-31 -16t-49.5 -15t-66.5 -6.5zM341 831q0 -20 -14 -33t-32 -13q-21 0 -34.5 13t-13.5 33q0 21 13.5 33t34.5 12q17 0 31.5 -12.5t14.5 -32.5z" />
    <glyph glyph-name="cdotaccent" unicode="&#x10b;" horiz-adv-x="391" 
d="M248 35q47 0 70.5 9.5t30.5 9.5q6 0 8 -2.5t4 -9.5l2 -8q1 -3 2 -6.5t1 -4.5q0 -5 -10 -11t-26 -10.5t-36 -7.5t-40 -3q-53 0 -92.5 13t-65.5 41.5t-38.5 74.5t-12.5 112q0 67 13.5 113.5t39.5 74.5t64.5 40.5t88.5 12.5q14 0 31 -1.5t31.5 -4.5t24 -7.5t9.5 -10.5
q0 -2 -1 -4.5t-2 -5.5q-1 -4 -2 -7q-3 -8 -5 -11.5t-7 -3.5q-7 0 -26.5 6t-51.5 6q-37 0 -66 -8.5t-49.5 -30t-31 -60t-10.5 -98.5q0 -51 8 -88t26 -61.5t47 -36t72 -11.5zM282 595q0 -20 -14 -33t-32 -13q-21 0 -34.5 13t-13.5 33q0 21 13.5 33t34.5 12q17 0 31.5 -12.5
t14.5 -32.5z" />
    <glyph glyph-name="Ccaron" unicode="&#x10c;" horiz-adv-x="509" 
d="M311 -9q-72 0 -121.5 19.5t-80.5 62t-45 111t-14 166.5t14 166.5t45 111t80.5 62t121.5 19.5q36 0 62.5 -5t44 -11.5t26.5 -12t9 -6.5q0 -5 -8 -20q-5 -9 -8 -12t-5 -3q-3 0 -11.5 4t-23 9t-36 9t-50.5 4q-60 0 -100.5 -16.5t-65 -54t-35 -97.5t-10.5 -147t10.5 -147
t35 -97.5t65 -54t100.5 -16.5q31 0 55.5 6t42 12.5t28 12.5t13.5 6q4 0 11 -13q8 -15 8 -21q0 -2 -11 -9.5t-31 -16t-49.5 -15t-66.5 -6.5zM437 904q0 -5 -11 -14l-112 -103q-6 -5 -10 -7.5t-10 -2.5t-10.5 2.5t-9.5 7.5l-112 103q-11 9 -11 14q0 2 3 7l4 6l2 2q3 3 5 3
q3 0 7 -2.5t10 -6.5l112 -73l112 73q6 4 10 6.5t7 2.5q4 0 7 -5l4 -6q3 -5 3 -7z" />
    <glyph glyph-name="ccaron" unicode="&#x10d;" horiz-adv-x="393" 
d="M248 35q47 0 70.5 9.5t30.5 9.5q6 0 8 -2.5t4 -9.5l2 -8q1 -3 2 -6.5t1 -4.5q0 -5 -10 -11t-26 -10.5t-36 -7.5t-40 -3q-53 0 -92.5 13t-65.5 41.5t-38.5 74.5t-12.5 112q0 67 13.5 113.5t39.5 74.5t64.5 40.5t88.5 12.5q14 0 31 -1.5t31.5 -4.5t24 -7.5t9.5 -10.5
q0 -2 -1 -4.5t-2 -5.5q-1 -4 -2 -7q-3 -8 -5 -11.5t-7 -3.5q-7 0 -26.5 6t-51.5 6q-37 0 -66 -8.5t-49.5 -30t-31 -60t-10.5 -98.5q0 -51 8 -88t26 -61.5t47 -36t72 -11.5zM368 668q0 -5 -11 -14l-112 -103q-6 -5 -10 -7.5t-10 -2.5t-10.5 2.5t-9.5 7.5l-112 103
q-11 9 -11 14q0 2 3 7l4 6l2 2q3 3 5 3q3 0 7 -2.5t10 -6.5l112 -73l112 73q6 4 10 6.5t7 2.5q4 0 7 -5l4 -6q3 -5 3 -7z" />
    <glyph glyph-name="Dcaron" unicode="&#x10e;" horiz-adv-x="585" 
d="M60 687q0 7 3 10t12 3h188q72 0 123.5 -18t84.5 -59t48.5 -108t15.5 -165t-15.5 -165t-48.5 -108t-84.5 -59t-123.5 -18h-188q-9 0 -12 3t-3 10v674zM263 44q63 0 105.5 16t68.5 52t37 94.5t11 143.5t-11 143.5t-37 94.5t-68.5 52t-105.5 16h-153v-612h153zM395 904
q0 -5 -11 -14l-112 -103q-6 -5 -10 -7.5t-10 -2.5t-10.5 2.5t-9.5 7.5l-112 103q-11 9 -11 14q0 2 3 7l4 6l2 2q3 3 5 3q3 0 7 -2.5t10 -6.5l112 -73l112 73q6 4 10 6.5t7 2.5q4 0 7 -5l4 -6q3 -5 3 -7z" />
    <glyph glyph-name="dcaron" unicode="&#x10f;" horiz-adv-x="600" 
d="M424 19q-42 -12 -83 -20t-82 -8q-50 0 -90 11t-67.5 38.5t-42 74t-14.5 117.5q0 66 16 112t44 74.5t65.5 41.5t80.5 13q29 0 51.5 -5.5t38.5 -12.5q18 -8 33 -18v258q0 9 1 11.5t6 2.5q2 0 5.5 -1t8.5 -2q5 -2 11 -3q10 -3 14 -6t4 -10v-668zM374 390q-14 10 -32 19
q-15 8 -36.5 14t-48.5 6q-34 0 -63.5 -10.5t-51.5 -33.5t-34.5 -60.5t-12.5 -92.5q0 -60 11.5 -98t32 -60t50 -30.5t65.5 -8.5q23 0 45 2.5t39 6.5q19 4 36 10v336zM516 667q0 18 12.5 30t29.5 12q19 0 30.5 -12t11.5 -30q0 -26 -14 -61.5t-46 -62.5q-12 -11 -22 -15.5
t-14 -4.5q-6 0 -10 11q9 6 18.5 16.5t16.5 23t11.5 26t4.5 24.5q0 1 -4.5 4t-10 7.5t-10 12t-4.5 19.5z" />
    <glyph glyph-name="Dcroat" unicode="&#x110;" horiz-adv-x="579" 
d="M257 44q63 0 105.5 16t68.5 52t37 94.5t11 143.5t-11 143.5t-37 94.5t-68.5 52t-105.5 16h-153v-264h157q8 0 10.5 -3t2.5 -12v-15q0 -11 -3.5 -13t-9.5 -2h-157v-303h153zM54 687q0 7 3 10t12 3h188q72 0 123.5 -18t84.5 -59t48.5 -108t15.5 -165t-15.5 -165t-48.5 -108
t-84.5 -59t-123.5 -18h-188q-9 0 -12 3t-3 10v334h-41q-7 0 -10 3t-3 12v15q0 9 3 12t10 3h41v295z" />
    <glyph glyph-name="dcroat" unicode="&#x111;" horiz-adv-x="484" 
d="M374 630v65q0 9 1 11.5t6 2.5l25 -6q10 -3 14 -6t4 -10v-57h56q9 0 11.5 -3t2.5 -11v-17q0 -8 -2.5 -11t-11.5 -3h-56v-566q-42 -12 -83 -20t-82 -8q-50 0 -90 11t-67.5 38.5t-42 74t-14.5 117.5q0 66 16 112t44 74.5t65.5 41.5t80.5 13q29 0 51.5 -5.5t38.5 -12.5
q18 -8 33 -18v148h-124q-9 0 -11.5 3t-2.5 11v17q0 8 2.5 11t11.5 3h124zM374 390q-14 10 -32 19q-15 8 -36.5 14t-48.5 6q-34 0 -63.5 -10.5t-51.5 -33.5t-34.5 -60.5t-12.5 -92.5q0 -60 11.5 -98t32 -60t50 -30.5t65.5 -8.5q23 0 45 2.5t39 6.5q19 4 36 10v336z" />
    <glyph glyph-name="Emacron" unicode="&#x112;" 
d="M60 687q0 7 3 10t12 3h349q8 0 10.5 -3t2.5 -12v-14q0 -10 -2.5 -12.5t-10.5 -2.5h-314v-274h295q8 0 10.5 -3t2.5 -12v-14q0 -9 -2.5 -12t-10.5 -3h-295v-294h314q8 0 10.5 -3t2.5 -13v-13q0 -9 -2.5 -12t-10.5 -3h-349q-9 0 -12 3t-3 10v674v0zM143 806q-15 0 -19.5 2
t-4.5 15v10q0 12 4.5 14.5t19.5 2.5h200q15 0 19.5 -2t4.5 -15v-10q0 -13 -4.5 -15t-19.5 -2h-200v0z" />
    <glyph glyph-name="emacron" unicode="&#x113;" horiz-adv-x="462" 
d="M367 269q0 33 -6.5 62t-22 50.5t-40 34.5t-60.5 13q-40 0 -67 -13.5t-43.5 -36.5t-24 -55t-7.5 -68h271v13zM262 -9q-62 0 -103.5 14.5t-66.5 44.5t-36 75.5t-11 106.5q0 115 46 178t147 63q91 0 135 -55.5t44 -170.5q0 -21 -6.5 -28t-23.5 -7h-291q0 -43 8.5 -76
t28 -55.5t52.5 -34t81 -11.5q50 0 79.5 11t36.5 11q8 0 12.5 -13t4.5 -20q0 -6 -12.5 -11.5t-32 -10.5t-44 -8t-48.5 -3zM141 570q-15 0 -19.5 2t-4.5 15v10q0 12 4.5 14.5t19.5 2.5h200q15 0 19.5 -2t4.5 -15v-10q0 -13 -4.5 -15t-19.5 -2h-200v0z" />
    <glyph glyph-name="Ebreve" unicode="&#x114;" 
d="M60 687q0 7 3 10t12 3h349q8 0 10.5 -3t2.5 -12v-14q0 -10 -2.5 -12.5t-10.5 -2.5h-314v-274h295q8 0 10.5 -3t2.5 -12v-14q0 -9 -2.5 -12t-10.5 -3h-295v-294h314q8 0 10.5 -3t2.5 -13v-13q0 -9 -2.5 -12t-10.5 -3h-349q-9 0 -12 3t-3 10v674v0zM339 884q0 -23 -8.5 -39
t-22 -27t-30.5 -16t-34 -5q-39 0 -68 21t-29 66h30q7 -20 21 -33t45 -13q29 0 44.5 13t22.5 33h29z" />
    <glyph glyph-name="ebreve" unicode="&#x115;" horiz-adv-x="462" 
d="M367 269q0 33 -6.5 62t-22 50.5t-40 34.5t-60.5 13q-40 0 -67 -13.5t-43.5 -36.5t-24 -55t-7.5 -68h271v13zM262 -9q-62 0 -103.5 14.5t-66.5 44.5t-36 75.5t-11 106.5q0 115 46 178t147 63q91 0 135 -55.5t44 -170.5q0 -21 -6.5 -28t-23.5 -7h-291q0 -43 8.5 -76
t28 -55.5t52.5 -34t81 -11.5q50 0 79.5 11t36.5 11q8 0 12.5 -13t4.5 -20q0 -6 -12.5 -11.5t-32 -10.5t-44 -8t-48.5 -3zM327 648q0 -23 -8.5 -39t-22 -27t-30.5 -16t-34 -5q-39 0 -68 21t-29 66h30q7 -20 21 -33t45 -13q29 0 44.5 13t22.5 33h29z" />
    <glyph glyph-name="Edotaccent" unicode="&#x116;" 
d="M60 687q0 7 3 10t12 3h349q8 0 10.5 -3t2.5 -12v-14q0 -10 -2.5 -12.5t-10.5 -2.5h-314v-274h295q8 0 10.5 -3t2.5 -12v-14q0 -9 -2.5 -12t-10.5 -3h-295v-294h314q8 0 10.5 -3t2.5 -13v-13q0 -9 -2.5 -12t-10.5 -3h-349q-9 0 -12 3t-3 10v674v0zM290 831q0 -20 -14 -33
t-32 -13q-21 0 -34.5 13t-13.5 33q0 21 13.5 33t34.5 12q17 0 31.5 -12.5t14.5 -32.5z" />
    <glyph glyph-name="edotaccent" unicode="&#x117;" horiz-adv-x="462" 
d="M367 269q0 33 -6.5 62t-22 50.5t-40 34.5t-60.5 13q-40 0 -67 -13.5t-43.5 -36.5t-24 -55t-7.5 -68h271v13zM262 -9q-62 0 -103.5 14.5t-66.5 44.5t-36 75.5t-11 106.5q0 115 46 178t147 63q91 0 135 -55.5t44 -170.5q0 -21 -6.5 -28t-23.5 -7h-291q0 -43 8.5 -76
t28 -55.5t52.5 -34t81 -11.5q50 0 79.5 11t36.5 11q8 0 12.5 -13t4.5 -20q0 -6 -12.5 -11.5t-32 -10.5t-44 -8t-48.5 -3zM278 595q0 -20 -14 -33t-32 -13q-21 0 -34.5 13t-13.5 33q0 21 13.5 33t34.5 12q17 0 31.5 -12.5t14.5 -32.5z" />
    <glyph glyph-name="Eogonek" unicode="&#x118;" 
d="M437 -160q0 -8 -20.5 -14t-42.5 -6q-46 0 -66 22t-20 51q0 19 7.5 35t19 29t25.5 23.5t28 19.5h-293q-9 0 -12 3t-3 10v674q0 7 3 10t12 3h349q8 0 10.5 -3t2.5 -12v-14q0 -10 -2.5 -12.5t-10.5 -2.5h-314v-274h295q8 0 10.5 -3t2.5 -12v-14q0 -9 -2.5 -12t-10.5 -3h-295
v-294h314q8 0 10.5 -3t2.5 -13v-13q0 -9 -2.5 -12t-10.5 -3h-21q-65 -57 -65 -104q0 -20 14.5 -32t36.5 -12q17 0 25.5 3t12.5 3t7 -3.5t3 -14.5z" />
    <glyph glyph-name="eogonek" unicode="&#x119;" horiz-adv-x="462" 
d="M377 -160q0 -8 -20.5 -14t-42.5 -6q-46 0 -66 22t-20 51q0 35 22 59t47 41q-5 -1 -10 -1q-5 -1 -11.5 -1h-13.5q-62 0 -103.5 14.5t-66.5 44.5t-36 75.5t-11 106.5q0 115 46 178t147 63q91 0 135 -55.5t44 -170.5q0 -21 -6.5 -28t-23.5 -7h-291q0 -43 8.5 -76t28 -55.5
t52.5 -34t81 -11.5q50 0 79.5 11t36.5 11q8 0 12.5 -13t4.5 -20t-16.5 -13.5t-40.5 -11.5q-64 -55 -64 -103q0 -20 14.5 -32t36.5 -12q17 0 25.5 3t12.5 3t7 -3.5t3 -14.5zM367 269q0 33 -6.5 62t-22 50.5t-40 34.5t-60.5 13q-40 0 -67 -13.5t-43.5 -36.5t-24 -55t-7.5 -68
h271v13z" />
    <glyph glyph-name="Ecaron" unicode="&#x11a;" 
d="M60 687q0 7 3 10t12 3h349q8 0 10.5 -3t2.5 -12v-14q0 -10 -2.5 -12.5t-10.5 -2.5h-314v-274h295q8 0 10.5 -3t2.5 -12v-14q0 -9 -2.5 -12t-10.5 -3h-295v-294h314q8 0 10.5 -3t2.5 -13v-13q0 -9 -2.5 -12t-10.5 -3h-349q-9 0 -12 3t-3 10v674v0zM386 904q0 -5 -11 -14
l-112 -103q-6 -5 -10 -7.5t-10 -2.5t-10.5 2.5t-9.5 7.5l-112 103q-11 9 -11 14q0 2 3 7l4 6l2 2q3 3 5 3q3 0 7 -2.5t10 -6.5l112 -73l112 73q6 4 10 6.5t7 2.5q4 0 7 -5l4 -6q3 -5 3 -7z" />
    <glyph glyph-name="ecaron" unicode="&#x11b;" horiz-adv-x="462" 
d="M367 269q0 33 -6.5 62t-22 50.5t-40 34.5t-60.5 13q-40 0 -67 -13.5t-43.5 -36.5t-24 -55t-7.5 -68h271v13zM262 -9q-62 0 -103.5 14.5t-66.5 44.5t-36 75.5t-11 106.5q0 115 46 178t147 63q91 0 135 -55.5t44 -170.5q0 -21 -6.5 -28t-23.5 -7h-291q0 -43 8.5 -76
t28 -55.5t52.5 -34t81 -11.5q50 0 79.5 11t36.5 11q8 0 12.5 -13t4.5 -20q0 -6 -12.5 -11.5t-32 -10.5t-44 -8t-48.5 -3zM374 668q0 -5 -11 -14l-112 -103q-6 -5 -10 -7.5t-10 -2.5t-10.5 2.5t-9.5 7.5l-112 103q-11 9 -11 14q0 2 3 7l4 6l2 2q3 3 5 3q3 0 7 -2.5t10 -6.5
l112 -73l112 73q6 4 10 6.5t7 2.5q4 0 7 -5l4 -6q3 -5 3 -7z" />
    <glyph glyph-name="Gcircumflex" unicode="&#x11c;" horiz-adv-x="563" 
d="M453 295q0 8 3 10.5t12 2.5h20q10 0 12.5 -2.5t2.5 -10.5v-254q0 -7 -2 -11.5t-10 -7.5q-7 -3 -23 -8t-39.5 -10.5t-53 -9t-64.5 -3.5q-72 0 -121.5 19.5t-80.5 62t-45 111t-14 166.5t14 166.5t45 111t80.5 62t121.5 19.5q32 0 57.5 -4.5t43 -10t26.5 -10.5t9 -6
q0 -2 -1.5 -7.5t-5.5 -12.5q-9 -17 -13 -17q-3 0 -11 3.5t-22.5 8t-35 8.5t-47.5 4q-60 0 -100.5 -16.5t-65 -54t-35 -97.5t-10.5 -147t10.5 -147t35 -97.5t65 -54t100.5 -16.5q42 0 80.5 7t61.5 15v238v0zM137 795q0 5 11 14l112 103q6 5 10 7.5t10 2.5t10.5 -2.5t9.5 -7.5
l112 -103q11 -9 11 -14q0 -3 -3 -7l-4 -6q-1 -2 -2 -3q-2 -2 -5 -2t-7 2.5t-10 6.5l-112 73l-112 -73q-6 -4 -10 -6.5t-7 -2.5q-4 0 -7 5l-4 6q-3 4 -3 7z" />
    <glyph glyph-name="gcircumflex" unicode="&#x11d;" 
d="M427 -40q0 -48 -13 -82t-37 -55.5t-58 -31t-76 -9.5q-23 0 -48.5 3t-46.5 7.5t-35 10t-14 10.5q0 8 5.5 21.5t10.5 13.5q3 0 14 -3.5t27.5 -7.5t38 -7.5t46.5 -3.5q67 0 101.5 31.5t34.5 104.5v75q-8 -6 -21 -14t-30.5 -15t-39.5 -12t-47 -5q-44 0 -79.5 13t-61 41.5
t-39.5 74.5t-14 112q0 70 15 116.5t42 74t65.5 39t85.5 11.5q62 0 108 -15.5t66 -28.5v-469zM377 400q-18 8 -37 14q-17 5 -39 9.5t-47 4.5q-37 0 -66.5 -8.5t-50 -30.5t-31.5 -60t-11 -97q0 -56 10.5 -94t29.5 -61t46.5 -32.5t62.5 -9.5q32 0 56.5 9t41.5 20q20 13 35 30
v306zM110 559q0 5 11 14l112 103q6 5 10 7.5t10 2.5t10.5 -2.5t9.5 -7.5l112 -103q11 -9 11 -14q0 -3 -3 -7l-4 -6q-1 -2 -2 -3q-2 -2 -5 -2t-7 2.5t-10 6.5l-112 73l-112 -73q-6 -4 -10 -6.5t-7 -2.5q-4 0 -7 5l-4 6q-3 4 -3 7z" />
    <glyph glyph-name="Gbreve" unicode="&#x11e;" horiz-adv-x="563" 
d="M453 295q0 8 3 10.5t12 2.5h20q10 0 12.5 -2.5t2.5 -10.5v-254q0 -7 -2 -11.5t-10 -7.5q-7 -3 -23 -8t-39.5 -10.5t-53 -9t-64.5 -3.5q-72 0 -121.5 19.5t-80.5 62t-45 111t-14 166.5t14 166.5t45 111t80.5 62t121.5 19.5q32 0 57.5 -4.5t43 -10t26.5 -10.5t9 -6
q0 -2 -1.5 -7.5t-5.5 -12.5q-9 -17 -13 -17q-3 0 -11 3.5t-22.5 8t-35 8.5t-47.5 4q-60 0 -100.5 -16.5t-65 -54t-35 -97.5t-10.5 -147t10.5 -147t35 -97.5t65 -54t100.5 -16.5q42 0 80.5 7t61.5 15v238v0zM376 884q0 -23 -8.5 -39t-22 -27t-30.5 -16t-34 -5q-39 0 -68 21
t-29 66h30q7 -20 21 -33t45 -13q29 0 44.5 13t22.5 33h29z" />
    <glyph glyph-name="gbreve" unicode="&#x11f;" 
d="M427 -40q0 -48 -13 -82t-37 -55.5t-58 -31t-76 -9.5q-23 0 -48.5 3t-46.5 7.5t-35 10t-14 10.5q0 8 5.5 21.5t10.5 13.5q3 0 14 -3.5t27.5 -7.5t38 -7.5t46.5 -3.5q67 0 101.5 31.5t34.5 104.5v75q-8 -6 -21 -14t-30.5 -15t-39.5 -12t-47 -5q-44 0 -79.5 13t-61 41.5
t-39.5 74.5t-14 112q0 70 15 116.5t42 74t65.5 39t85.5 11.5q62 0 108 -15.5t66 -28.5v-469zM377 400q-18 8 -37 14q-17 5 -39 9.5t-47 4.5q-37 0 -66.5 -8.5t-50 -30.5t-31.5 -60t-11 -97q0 -56 10.5 -94t29.5 -61t46.5 -32.5t62.5 -9.5q32 0 56.5 9t41.5 20q20 13 35 30
v306zM346 648q0 -23 -8.5 -39t-22 -27t-30.5 -16t-34 -5q-39 0 -68 21t-29 66h30q7 -20 21 -33t45 -13q29 0 44.5 13t22.5 33h29z" />
    <glyph glyph-name="Gdotaccent" unicode="&#x120;" horiz-adv-x="563" 
d="M453 295q0 8 3 10.5t12 2.5h20q10 0 12.5 -2.5t2.5 -10.5v-254q0 -7 -2 -11.5t-10 -7.5q-7 -3 -23 -8t-39.5 -10.5t-53 -9t-64.5 -3.5q-72 0 -121.5 19.5t-80.5 62t-45 111t-14 166.5t14 166.5t45 111t80.5 62t121.5 19.5q32 0 57.5 -4.5t43 -10t26.5 -10.5t9 -6
q0 -2 -1.5 -7.5t-5.5 -12.5q-9 -17 -13 -17q-3 0 -11 3.5t-22.5 8t-35 8.5t-47.5 4q-60 0 -100.5 -16.5t-65 -54t-35 -97.5t-10.5 -147t10.5 -147t35 -97.5t65 -54t100.5 -16.5q42 0 80.5 7t61.5 15v238v0zM327 831q0 -20 -14 -33t-32 -13q-21 0 -34.5 13t-13.5 33
q0 21 13.5 33t34.5 12q17 0 31.5 -12.5t14.5 -32.5z" />
    <glyph glyph-name="gdotaccent" unicode="&#x121;" 
d="M427 -40q0 -48 -13 -82t-37 -55.5t-58 -31t-76 -9.5q-23 0 -48.5 3t-46.5 7.5t-35 10t-14 10.5q0 8 5.5 21.5t10.5 13.5q3 0 14 -3.5t27.5 -7.5t38 -7.5t46.5 -3.5q67 0 101.5 31.5t34.5 104.5v75q-8 -6 -21 -14t-30.5 -15t-39.5 -12t-47 -5q-44 0 -79.5 13t-61 41.5
t-39.5 74.5t-14 112q0 70 15 116.5t42 74t65.5 39t85.5 11.5q62 0 108 -15.5t66 -28.5v-469zM377 400q-18 8 -37 14q-17 5 -39 9.5t-47 4.5q-37 0 -66.5 -8.5t-50 -30.5t-31.5 -60t-11 -97q0 -56 10.5 -94t29.5 -61t46.5 -32.5t62.5 -9.5q32 0 56.5 9t41.5 20q20 13 35 30
v306zM290 595q0 -20 -14 -33t-32 -13q-21 0 -34.5 13t-13.5 33q0 21 13.5 33t34.5 12q17 0 31.5 -12.5t14.5 -32.5z" />
    <glyph glyph-name="Gcommaaccent" unicode="&#x122;" horiz-adv-x="563" 
d="M453 295q0 8 3 10.5t12 2.5h20q10 0 12.5 -2.5t2.5 -10.5v-254q0 -7 -2 -11.5t-10 -7.5q-7 -3 -23 -8t-39.5 -10.5t-53 -9t-64.5 -3.5q-72 0 -121.5 19.5t-80.5 62t-45 111t-14 166.5t14 166.5t45 111t80.5 62t121.5 19.5q32 0 57.5 -4.5t43 -10t26.5 -10.5t9 -6
q0 -2 -1.5 -7.5t-5.5 -12.5q-9 -17 -13 -17q-3 0 -11 3.5t-22.5 8t-35 8.5t-47.5 4q-60 0 -100.5 -16.5t-65 -54t-35 -97.5t-10.5 -147t10.5 -147t35 -97.5t65 -54t100.5 -16.5q42 0 80.5 7t61.5 15v238v0zM289 -91q0 18 12.5 30t29.5 12q19 0 30.5 -12t11.5 -30
q0 -26 -14 -61.5t-46 -62.5q-12 -11 -22 -15.5t-14 -4.5q-6 0 -10 11q9 6 18.5 16.5t16.5 23t11.5 26t4.5 24.5q0 1 -4.5 4t-10 7.5t-10 12t-4.5 19.5z" />
    <glyph glyph-name="gcommaaccent" unicode="&#x123;" 
d="M427 -40q0 -48 -13 -82t-37 -55.5t-58 -31t-76 -9.5q-23 0 -48.5 3t-46.5 7.5t-35 10t-14 10.5q0 8 5.5 21.5t10.5 13.5q3 0 14 -3.5t27.5 -7.5t38 -7.5t46.5 -3.5q67 0 101.5 31.5t34.5 104.5v75q-8 -6 -21 -14t-30.5 -15t-39.5 -12t-47 -5q-44 0 -79.5 13t-61 41.5
t-39.5 74.5t-14 112q0 70 15 116.5t42 74t65.5 39t85.5 11.5q62 0 108 -15.5t66 -28.5v-469zM377 400q-18 8 -37 14q-17 5 -39 9.5t-47 4.5q-37 0 -66.5 -8.5t-50 -30.5t-31.5 -60t-11 -97q0 -56 10.5 -94t29.5 -61t46.5 -32.5t62.5 -9.5q32 0 56.5 9t41.5 20q20 13 35 30
v306zM292.004 586.994q0 -17.999 -12.499 -29.998t-29.498 -11.999q-18.999 0 -30.498 11.999t-11.499 29.998q0 25.999 13.999 61.4961q13.999 35.498 45.9971 62.4971q11.999 10.999 21.999 15.499q9.99902 4.49902 13.999 4.49902q5.99902 0 9.99902 -10.999
q-8.99902 -6 -18.499 -16.499q-9.49902 -10.499 -16.499 -22.999q-6.99902 -12.499 -11.499 -25.998t-4.5 -24.498q0 -1 4.5 -4t9.99902 -7.5q5.5 -4.49902 10 -11.999q4.49902 -7.49902 4.49902 -19.499z" />
    <glyph glyph-name="Hcircumflex" unicode="&#x124;" horiz-adv-x="563" 
d="M453 687q0 7 3 10t12 3h20q10 0 12.5 -3t2.5 -10v-674q0 -7 -2.5 -10t-12.5 -3h-20q-9 0 -12 3t-3 10v326h-343v-326q0 -7 -3 -10t-12 -3h-20q-9 0 -12 3t-3 10v674q0 7 3 10t12 3h20q9 0 12 -3t3 -10v-304h343v304v0zM138 795q0 5 11 14l112 103q6 5 10 7.5t10 2.5
t10.5 -2.5t9.5 -7.5l112 -103q11 -9 11 -14q0 -3 -3 -7l-4 -6q-1 -2 -2 -3q-2 -2 -5 -2t-7 2.5t-10 6.5l-112 73l-112 -73q-6 -4 -10 -6.5t-7 -2.5q-4 0 -7 5l-4 6q-3 4 -3 7z" />
    <glyph glyph-name="hcircumflex" unicode="&#x125;" horiz-adv-x="489" 
d="M60 687q0 7 3.5 9.5t11.5 5.5q7 1 12 3t9 3t6 1q6 0 7 -2.5t1 -11.5v-256q22 12 53.5 23t82.5 11q58 0 95 -14.5t57.5 -37t28 -50t7.5 -53.5v-305q0 -7 -3 -10t-12 -3h-19q-10 0 -13 3t-3 10v291q0 65 -36 95t-108 30q-26 0 -47 -5t-37.5 -11.5t-27.5 -13t-18 -10.5v-376
q0 -7 -3 -10t-12 -3h-20q-9 0 -12 3t-3 10v674v0zM101 758q0 5 11 14l112 103q6 5 10 7.5t10 2.5t10.5 -2.5t9.5 -7.5l112 -103q11 -9 11 -14q0 -3 -3 -7l-4 -6q-1 -2 -2 -3q-2 -2 -5 -2t-7 2.5t-10 6.5l-112 73l-112 -73q-6 -4 -10 -6.5t-7 -2.5q-4 0 -7 5l-4 6q-3 4 -3 7z
" />
    <glyph glyph-name="Hbar" unicode="&#x126;" horiz-adv-x="563" 
d="M34 464q-15 0 -19.5 2t-4.5 15v10q0 12 4.5 14.5t19.5 2.5h26v179q0 7 3 10t12 3h20q9 0 12 -3t3 -10v-179h343v179q0 7 3 10t12 3h20q10 0 12.5 -3t2.5 -10v-179h26q15 0 19.5 -2t4.5 -15v-10q0 -13 -4.5 -15t-19.5 -2h-26v-451q0 -7 -2.5 -10t-12.5 -3h-20q-9 0 -12 3
t-3 10v326h-343v-326q0 -7 -3 -10t-12 -3h-20q-9 0 -12 3t-3 10v451h-26zM453 383v81h-343v-81h343z" />
    <glyph glyph-name="hbar" unicode="&#x127;" horiz-adv-x="499" 
d="M24 585q-15 0 -19.5 2t-4.5 15v11q0 12 4.5 14.5t19.5 2.5h46v57q0 7 3.5 9.5t11.5 5.5q7 1 12 3t9 3t6 1q6 0 7 -2.5t1 -11.5v-65h134q15 0 19.5 -2t4.5 -15v-11q0 -13 -4.5 -15t-19.5 -2h-134v-146q22 12 53.5 23t82.5 11q58 0 95 -14.5t57.5 -37t28 -50t7.5 -53.5
v-305q0 -7 -3 -10t-12 -3h-19q-10 0 -13 3t-3 10v291q0 65 -36 95t-108 30q-26 0 -47 -5t-37.5 -11.5t-27.5 -13t-18 -10.5v-376q0 -7 -3 -10t-12 -3h-20q-9 0 -12 3t-3 10v572h-46v0z" />
    <glyph glyph-name="Itilde" unicode="&#x128;" horiz-adv-x="170" 
d="M60 687q0 7 3 10t12 3h20q15 0 15 -13v-674q0 -7 -3 -10t-12 -3h-20q-10 0 -12.5 3.5t-2.5 9.5v674v0zM9 812q-21 0 -37 -7t-31 -7q-10 0 -12 6q-1 2 -2 5q-2 6 -2 8q0 5 9.5 12t24 13.5t32.5 11t35 4.5q23 0 39.5 -4.5t31 -10t30 -10t36.5 -4.5q25 0 38.5 7t27.5 7
q9 0 12 -6q1 -2 2 -5q2 -6 2 -8q0 -5 -9 -12t-23.5 -13t-32 -10.5t-33.5 -4.5q-24 0 -41 4.5t-31.5 9.5t-29.5 9.5t-36 4.5z" />
    <glyph glyph-name="itilde" unicode="&#x129;" horiz-adv-x="175" 
d="M62 450q0 8 3 11t13 3h19q16 0 16 -14v-436q0 -8 -3 -11t-13 -3h-19q-11 0 -13.5 3.5t-2.5 10.5v436v0zM12 576q-21 0 -37 -7t-31 -7q-10 0 -12 6q-1 2 -2 5q-2 6 -2 8q0 5 9.5 12t24 13.5t32.5 11t35 4.5q23 0 39.5 -4.5t31 -10t30 -10t36.5 -4.5q25 0 38.5 7t27.5 7
q9 0 12 -6q1 -2 2 -5q2 -6 2 -8q0 -5 -9 -12t-23.5 -13t-32 -10.5t-33.5 -4.5q-24 0 -41 4.5t-31.5 9.5t-29.5 9.5t-36 4.5z" />
    <glyph glyph-name="Imacron" unicode="&#x12a;" horiz-adv-x="170" 
d="M60 687q0 7 3 10t12 3h20q15 0 15 -13v-674q0 -7 -3 -10t-12 -3h-20q-10 0 -12.5 3.5t-2.5 9.5v674v0zM-15 806q-15 0 -19.5 2t-4.5 15v10q0 12 4.5 14.5t19.5 2.5h200q15 0 19.5 -2t4.5 -15v-10q0 -13 -4.5 -15t-19.5 -2h-200v0z" />
    <glyph glyph-name="imacron" unicode="&#x12b;" horiz-adv-x="175" 
d="M62 450q0 8 3 11t13 3h19q16 0 16 -14v-436q0 -8 -3 -11t-13 -3h-19q-11 0 -13.5 3.5t-2.5 10.5v436v0zM-12 570q-15 0 -19.5 2t-4.5 15v10q0 12 4.5 14.5t19.5 2.5h200q15 0 19.5 -2t4.5 -15v-10q0 -13 -4.5 -15t-19.5 -2h-200v0z" />
    <glyph glyph-name="Ibreve" unicode="&#x12c;" horiz-adv-x="170" 
d="M60 687q0 7 3 10t12 3h20q15 0 15 -13v-674q0 -7 -3 -10t-12 -3h-20q-10 0 -12.5 3.5t-2.5 9.5v674v0zM181 884q0 -23 -8.5 -39t-22 -27t-30.5 -16t-34 -5q-39 0 -68 21t-29 66h30q7 -20 21 -33t45 -13q29 0 44.5 13t22.5 33h29z" />
    <glyph glyph-name="ibreve" unicode="&#x12d;" horiz-adv-x="175" 
d="M62 450q0 8 3 11t13 3h19q16 0 16 -14v-436q0 -8 -3 -11t-13 -3h-19q-11 0 -13.5 3.5t-2.5 10.5v436v0zM184 648q0 -23 -8.5 -39t-22 -27t-30.5 -16t-34 -5q-39 0 -68 21t-29 66h30q7 -20 21 -33t45 -13q29 0 44.5 13t22.5 33h29z" />
    <glyph glyph-name="Iogonek" unicode="&#x12e;" horiz-adv-x="170" 
d="M140 -160q0 -8 -20.5 -14t-42.5 -6q-46 0 -66 22t-20 51q0 19 7.5 35t19 29t25.5 23.5t28 19.5q-8 1 -9.5 4.5t-1.5 8.5v674q0 7 3 10t12 3h20q15 0 15 -13v-674q0 -3 -0.5 -4.5t-0.5 -3.5v-2l-3 -3q-65 -57 -65 -104q0 -20 14.5 -32t36.5 -12q17 0 25.5 3t12.5 3t7 -3.5
t3 -14.5z" />
    <glyph glyph-name="iogonek" unicode="&#x12f;" horiz-adv-x="175" 
d="M137 -160q0 -8 -20.5 -14t-42.5 -6q-46 0 -66 22t-20 51q0 36 26.5 64.5t59.5 42.5q-8 0 -10 4t-2 10v436q0 8 3 11t13 3h19q16 0 16 -14v-436q0 -14 -10 -14q-65 -57 -65 -104q0 -20 14.5 -32t36.5 -12q17 0 25.5 3t12.5 3t7 -3.5t3 -14.5zM127 595q0 -17 -11.5 -28
t-27.5 -11q-18 0 -29 11t-11 28q0 18 11 28.5t29 10.5q14 0 26.5 -11t12.5 -28z" />
    <glyph glyph-name="Idotaccent" unicode="&#x130;" horiz-adv-x="170" 
d="M60 687q0 7 3 10t12 3h20q15 0 15 -13v-674q0 -7 -3 -10t-12 -3h-20q-10 0 -12.5 3.5t-2.5 9.5v674v0zM132 831q0 -20 -14 -33t-32 -13q-21 0 -34.5 13t-13.5 33q0 21 13.5 33t34.5 12q17 0 31.5 -12.5t14.5 -32.5z" />
    <glyph glyph-name="dotlessi" unicode="&#x131;" horiz-adv-x="175" 
d="M62 450q0 8 3 11t13 3h19q16 0 16 -14v-436q0 -8 -3 -11t-13 -3h-19q-11 0 -13.5 3.5t-2.5 10.5v436v0z" />
    <glyph glyph-name="IJ" unicode="&#x132;" horiz-adv-x="531" 
d="M60 687q0 7 3 10t12 3h20q15 0 15 -13v-674q0 -7 -3 -10t-12 -3h-20q-10 0 -12.5 3.5t-2.5 9.5v674zM130 -185q0 2 2 7.5t5 11.5t6 10.5t6 4.5q2 0 5.5 -1.5t11.5 -4.5q5 -2 30 -9.5t71 -7.5q36 0 65.5 8.5t50 34t32 72t11.5 123.5v592h-181q-7 0 -10 2.5t-3 12.5v14
q0 9 3 12t10 3h216q10 0 12.5 -3t2.5 -10v-614q0 -75 -9.5 -129.5t-33 -90.5t-64 -53.5t-102.5 -17.5q-64 0 -100.5 12.5t-36.5 20.5z" />
    <glyph glyph-name="ij" unicode="&#x133;" horiz-adv-x="406" 
d="M62 450q0 8 3 11t13 3h19q16 0 16 -14v-436q0 -8 -3 -11t-13 -3h-19q-11 0 -13.5 3.5t-2.5 10.5v436zM127 595q0 -17 -11.5 -28t-27.5 -11q-18 0 -29 11t-11 28q0 18 11 28.5t29 10.5q14 0 26.5 -11t12.5 -28zM358 595q0 -17 -11.5 -28t-27.5 -11q-18 0 -29 11t-11 28
q0 18 11 28.5t29 10.5q14 0 26.5 -11t12.5 -28zM218 -174q47 0 64 30.5t17 105.5v458h-105q-8 0 -11 3t-3 12v13q0 10 3 13t11 3h140q9 0 12 -3t3 -11v-490q0 -37 -4.5 -69.5t-18 -56.5t-39 -38t-66.5 -14q-28 0 -34.5 3.5t-6.5 12.5v14q0 7 2 11t10 4q5 0 13 -0.5t13 -0.5z
" />
    <glyph glyph-name="Jcircumflex" unicode="&#x134;" horiz-adv-x="421" 
d="M20 24q0 2 2 7.5t5 11.5t6 10.5t6 4.5q2 0 5.5 -1.5t11.5 -4.5q5 -2 30 -9.5t71 -7.5q36 0 65.5 8.5t50 34t32 72t11.5 123.5v383h-181q-7 0 -10 2.5t-3 12.5v14q0 9 3 12t10 3h216q10 0 12.5 -3t2.5 -10v-405q0 -75 -9.5 -129.5t-33 -90.5t-64 -53.5t-102.5 -17.5
q-64 0 -100.5 12.5t-36.5 20.5zM77 795q0 5 11 14l112 103q6 5 10 7.5t10 2.5t10.5 -2.5t9.5 -7.5l112 -103q11 -9 11 -14q0 -3 -3 -7l-4 -6q-1 -2 -2 -3q-2 -2 -5 -2t-7 2.5t-10 6.5l-112 73l-112 -73q-6 -4 -10 -6.5t-7 -2.5q-4 0 -7 5l-4 6q-3 4 -3 7z" />
    <glyph glyph-name="jcircumflex" unicode="&#x135;" horiz-adv-x="231" 
d="M43 -174q47 0 64 30.5t17 105.5v458h-105q-8 0 -11 3t-3 12v13q0 10 3 13t11 3h140q9 0 12 -3t3 -11v-490q0 -37 -4.5 -69.5t-18 -56.5t-39 -38t-66.5 -14q-28 0 -34.5 3.5t-6.5 12.5v14q0 7 2 11t10 4q5 0 13 -0.5t13 -0.5zM-27 559q0 5 11 14l112 103q6 5 10 7.5
t10 2.5t10.5 -2.5t9.5 -7.5l112 -103q11 -9 11 -14q0 -3 -3 -7l-4 -6q-1 -2 -2 -3q-2 -2 -5 -2t-7 2.5t-10 6.5l-112 73l-112 -73q-6 -4 -10 -6.5t-7 -2.5q-4 0 -7 5l-4 6q-3 4 -3 7z" />
    <glyph glyph-name="Kcommaaccent" unicode="&#x136;" horiz-adv-x="485" 
d="M365 692q6 8 12 8h33q10 0 10 -9q0 -5 -4 -10l-259 -326l311 -332q7 -7 7 -14q0 -9 -9 -9h-33q-5 0 -13 8l-310 326v-321q0 -7 -3 -10t-12 -3h-20q-9 0 -12 3t-3 10v674q0 7 3 10t12 3h20q9 0 12 -3t3 -10v-314l255 319v0zM211 -91q0 18 12.5 30t29.5 12q19 0 30.5 -12
t11.5 -30q0 -26 -14 -61.5t-46 -62.5q-12 -11 -22 -15.5t-14 -4.5q-6 0 -10 11q9 6 18.5 16.5t16.5 23t11.5 26t4.5 24.5q0 1 -4.5 4t-10 7.5t-10 12t-4.5 19.5z" />
    <glyph glyph-name="kcommaaccent" unicode="&#x137;" horiz-adv-x="387" 
d="M110 275h32l135 170q9 12 13 15.5t15 3.5h19q14 0 14 -13q0 -7 -6 -14l-149 -176l202 -235q5 -6 5.5 -9.5t0.5 -5.5q0 -4 -3 -7.5t-10 -3.5h-24q-9 0 -13.5 4t-11.5 12l-189 226h-30v-229q0 -7 -3 -10t-12 -3h-20q-9 0 -12 3t-3 10v674q0 7 3.5 9.5t11.5 5.5q7 1 12 3
t9 3t6 1q6 0 7 -2.5t1 -11.5v-420zM162 -91q0 18 12.5 30t29.5 12q19 0 30.5 -12t11.5 -30q0 -26 -14 -61.5t-46 -62.5q-12 -11 -22 -15.5t-14 -4.5q-6 0 -10 11q9 6 18.5 16.5t16.5 23t11.5 26t4.5 24.5q0 1 -4.5 4t-10 7.5t-10 12t-4.5 19.5z" />
    <glyph glyph-name="Lacute" unicode="&#x139;" horiz-adv-x="458" 
d="M75 0q-9 0 -12 3t-3 10v674q0 7 3 10t12 3h20q9 0 12 -3t3 -10v-643h305q7 0 10 -3t3 -13v-13q0 -9 -3 -12t-10 -3h-340v0zM121 784q-13 -8 -15 -8q-3 0 -8 5l-6 7q-3 4 -3 7q0 5 11 14l137 118q10 9 20 9q6 0 9 -2t7 -7l11 -15q5 -6 5 -13q0 -11 -15 -20z" />
    <glyph glyph-name="lacute" unicode="&#x13a;" horiz-adv-x="230" 
d="M105 171q0 -75 17.5 -105.5t64.5 -30.5q5 0 13 0.5t12 0.5q13 0 13 -12v-19q0 -8 -6.5 -11t-34.5 -3q-42 0 -67.5 13.5t-39 37.5t-18 56.5t-4.5 69.5v518q0 7 3.5 9.5t11.5 5.5l12 4q5 2 9.5 3t6.5 1q5 0 6 -2.5t1 -11.5v-524zM90 784q-13 -8 -15 -8q-3 0 -8 5l-6 7
q-3 4 -3 7q0 5 11 14l137 118q10 9 20 9q6 0 9 -2t7 -7l11 -15q5 -6 5 -13q0 -11 -15 -20z" />
    <glyph glyph-name="Lcommaaccent" unicode="&#x13b;" horiz-adv-x="458" 
d="M75 0q-9 0 -12 3t-3 10v674q0 7 3 10t12 3h20q9 0 12 -3t3 -10v-643h305q7 0 10 -3t3 -13v-13q0 -9 -3 -12t-10 -3h-340v0zM198 -91q0 18 12.5 30t29.5 12q19 0 30.5 -12t11.5 -30q0 -26 -14 -61.5t-46 -62.5q-12 -11 -22 -15.5t-14 -4.5q-6 0 -10 11q9 6 18.5 16.5
t16.5 23t11.5 26t4.5 24.5q0 1 -4.5 4t-10 7.5t-10 12t-4.5 19.5z" />
    <glyph glyph-name="lcommaaccent" unicode="&#x13c;" horiz-adv-x="230" 
d="M105 171q0 -75 17.5 -105.5t64.5 -30.5q5 0 13 0.5t12 0.5q13 0 13 -12v-19q0 -8 -6.5 -11t-34.5 -3q-42 0 -67.5 13.5t-39 37.5t-18 56.5t-4.5 69.5v518q0 7 3.5 9.5t11.5 5.5l12 4q5 2 9.5 3t6.5 1q5 0 6 -2.5t1 -11.5v-524zM118 -91q0 18 12.5 30t29.5 12
q19 0 30.5 -12t11.5 -30q0 -26 -14 -61.5t-46 -62.5q-12 -11 -22 -15.5t-14 -4.5q-6 0 -10 11q9 6 18.5 16.5t16.5 23t11.5 26t4.5 24.5q0 1 -4.5 4t-10 7.5t-10 12t-4.5 19.5z" />
    <glyph glyph-name="Lcaron" unicode="&#x13d;" horiz-adv-x="458" 
d="M75 0q-9 0 -12 3t-3 10v674q0 7 3 10t12 3h20q9 0 12 -3t3 -10v-643h305q7 0 10 -3t3 -13v-13q0 -9 -3 -12t-10 -3h-340v0zM298 667q0 18 12.5 30t29.5 12q19 0 30.5 -12t11.5 -30q0 -26 -14 -61.5t-46 -62.5q-12 -11 -22 -15.5t-14 -4.5q-6 0 -10 11q9 6 18.5 16.5
t16.5 23t11.5 26t4.5 24.5q0 1 -4.5 4t-10 7.5t-10 12t-4.5 19.5z" />
    <glyph glyph-name="lcaron" unicode="&#x13e;" horiz-adv-x="303" 
d="M105 171q0 -75 17.5 -105.5t64.5 -30.5q5 0 13 0.5t12 0.5q13 0 13 -12v-19q0 -8 -6.5 -11t-34.5 -3q-42 0 -67.5 13.5t-39 37.5t-18 56.5t-4.5 69.5v518q0 7 3.5 9.5t11.5 5.5l12 4q5 2 9.5 3t6.5 1q5 0 6 -2.5t1 -11.5v-524zM219 667q0 18 12.5 30t29.5 12
q19 0 30.5 -12t11.5 -30q0 -26 -14 -61.5t-46 -62.5q-12 -11 -22 -15.5t-14 -4.5q-6 0 -10 11q9 6 18.5 16.5t16.5 23t11.5 26t4.5 24.5q0 1 -4.5 4t-10 7.5t-10 12t-4.5 19.5z" />
    <glyph glyph-name="Ldot" unicode="&#x13f;" horiz-adv-x="488" 
d="M302 322q0 22 15.5 37.5t38.5 15.5q22 0 37.5 -15.5t15.5 -37.5q0 -23 -15.5 -38.5t-37.5 -15.5q-23 0 -38.5 15.5t-15.5 38.5zM75 0q-9 0 -12 3t-3 10v674q0 7 3 10t12 3h20q9 0 12 -3t3 -10v-643h305q7 0 10 -3t3 -13v-13q0 -9 -3 -12t-10 -3h-340z" />
    <glyph glyph-name="ldot" unicode="&#x140;" horiz-adv-x="356" 
d="M105 171q0 -75 17.5 -105.5t64.5 -30.5q5 0 13 0.5t12 0.5q13 0 13 -12v-19q0 -8 -6.5 -11t-34.5 -3q-42 0 -67.5 13.5t-39 37.5t-18 56.5t-4.5 69.5v518q0 7 3.5 9.5t11.5 5.5l12 4q5 2 9.5 3t6.5 1q5 0 6 -2.5t1 -11.5v-524zM204 322q0 22 15.5 37.5t38.5 15.5
q22 0 37.5 -15.5t15.5 -37.5q0 -23 -15.5 -38.5t-37.5 -15.5q-23 0 -38.5 15.5t-15.5 38.5z" />
    <glyph glyph-name="Lslash" unicode="&#x141;" horiz-adv-x="476" 
d="M93 0q-9 0 -12 3t-3 10v263l-46 -26q-6 -3 -9 -3q-6 0 -11 8l-9 16q-3 6 -3 10q0 5 7 9l71 41v356q0 7 3 10t12 3h20q9 0 12 -3t3 -10v-327l127 75q6 3 9 3q6 0 11 -9l8 -15q4 -8 4 -10q0 -5 -7 -10l-152 -89v-261h305q7 0 10 -3t3 -13v-13q0 -9 -3 -12t-10 -3h-340v0z
" />
    <glyph glyph-name="lslash" unicode="&#x142;" horiz-adv-x="269" 
d="M124 171q0 -75 17.5 -105.5t64.5 -30.5q5 0 13.5 0.5t12.5 0.5q5 0 8.5 -2.5t3.5 -8.5v-22q0 -8 -9.5 -10t-31.5 -2q-48 0 -74 17t-38.5 45t-14.5 64t-2 73v94l-45 -26q-5 -3 -8 -3q-7 0 -12 9l-6 12q-3 6 -3 11t7 9l67 39v352q0 7 3.5 9.5t11.5 5.5q7 1 12 3t9.5 3
t6.5 1q5 0 6 -2.5t1 -11.5v-331l90 52q6 3 10 3q6 0 10 -8l6 -12q4 -8 4 -11q0 -5 -8 -10l-112 -65v-142v0z" />
    <glyph glyph-name="Nacute" unicode="&#x143;" horiz-adv-x="564" 
d="M454 687q0 7 2.5 10t12.5 3h20q9 0 12 -3t3 -10v-674q0 -7 -3 -10t-12 -3h-23q-11 0 -14 7l-342 584v-578q0 -7 -3 -10t-12 -3h-20q-9 0 -12 3t-3 10v674q0 7 3 10t12 3h22q10 0 14 -8l343 -589v584v0zM264 784q-13 -8 -15 -8q-3 0 -8 5l-6 7q-3 4 -3 7q0 5 11 14
l137 118q10 9 20 9q6 0 9 -2t7 -7l11 -15q5 -6 5 -13q0 -11 -15 -20z" />
    <glyph glyph-name="nacute" unicode="&#x144;" horiz-adv-x="489" 
d="M384 304q0 66 -37.5 95.5t-107.5 29.5q-22 0 -42.5 -4.5t-37.5 -10.5t-29.5 -12.5t-19.5 -10.5v-378q0 -7 -3 -10t-12 -3h-20q-9 0 -12 3t-3 10v406q34 22 80 38t102 16q60 0 97.5 -14.5t58.5 -37t28.5 -50t7.5 -53.5v-305q0 -7 -3 -10t-12 -3h-19q-10 0 -13 3t-3 10v291
zM206 548q-13 -8 -15 -8q-3 0 -8 5l-6 7q-3 4 -3 7q0 5 11 14l137 118q10 9 20 9q6 0 9 -2t7 -7l11 -15q5 -6 5 -13q0 -11 -15 -20z" />
    <glyph glyph-name="Ncommaaccent" unicode="&#x145;" horiz-adv-x="564" 
d="M454 687q0 7 2.5 10t12.5 3h20q9 0 12 -3t3 -10v-674q0 -7 -3 -10t-12 -3h-23q-11 0 -14 7l-342 584v-578q0 -7 -3 -10t-12 -3h-20q-9 0 -12 3t-3 10v674q0 7 3 10t12 3h22q10 0 14 -8l343 -589v584v0zM251 -91q0 18 12.5 30t29.5 12q19 0 30.5 -12t11.5 -30
q0 -26 -14 -61.5t-46 -62.5q-12 -11 -22 -15.5t-14 -4.5q-6 0 -10 11q9 6 18.5 16.5t16.5 23t11.5 26t4.5 24.5q0 1 -4.5 4t-10 7.5t-10 12t-4.5 19.5z" />
    <glyph glyph-name="ncommaaccent" unicode="&#x146;" horiz-adv-x="489" 
d="M384 304q0 66 -37.5 95.5t-107.5 29.5q-22 0 -42.5 -4.5t-37.5 -10.5t-29.5 -12.5t-19.5 -10.5v-378q0 -7 -3 -10t-12 -3h-20q-9 0 -12 3t-3 10v406q34 22 80 38t102 16q60 0 97.5 -14.5t58.5 -37t28.5 -50t7.5 -53.5v-305q0 -7 -3 -10t-12 -3h-19q-10 0 -13 3t-3 10v291
zM213 -91q0 18 12.5 30t29.5 12q19 0 30.5 -12t11.5 -30q0 -26 -14 -61.5t-46 -62.5q-12 -11 -22 -15.5t-14 -4.5q-6 0 -10 11q9 6 18.5 16.5t16.5 23t11.5 26t4.5 24.5q0 1 -4.5 4t-10 7.5t-10 12t-4.5 19.5z" />
    <glyph glyph-name="Ncaron" unicode="&#x147;" horiz-adv-x="564" 
d="M454 687q0 7 2.5 10t12.5 3h20q9 0 12 -3t3 -10v-674q0 -7 -3 -10t-12 -3h-23q-11 0 -14 7l-342 584v-578q0 -7 -3 -10t-12 -3h-20q-9 0 -12 3t-3 10v674q0 7 3 10t12 3h22q10 0 14 -8l343 -589v584v0zM425 904q0 -5 -11 -14l-112 -103q-6 -5 -10 -7.5t-10 -2.5
t-10.5 2.5t-9.5 7.5l-112 103q-11 9 -11 14q0 2 3 7l4 6l2 2q3 3 5 3q3 0 7 -2.5t10 -6.5l112 -73l112 73q6 4 10 6.5t7 2.5q4 0 7 -5l4 -6q3 -5 3 -7z" />
    <glyph glyph-name="ncaron" unicode="&#x148;" horiz-adv-x="489" 
d="M384 304q0 66 -37.5 95.5t-107.5 29.5q-22 0 -42.5 -4.5t-37.5 -10.5t-29.5 -12.5t-19.5 -10.5v-378q0 -7 -3 -10t-12 -3h-20q-9 0 -12 3t-3 10v406q34 22 80 38t102 16q60 0 97.5 -14.5t58.5 -37t28.5 -50t7.5 -53.5v-305q0 -7 -3 -10t-12 -3h-19q-10 0 -13 3t-3 10v291
zM387 668q0 -5 -11 -14l-112 -103q-6 -5 -10 -7.5t-10 -2.5t-10.5 2.5t-9.5 7.5l-112 103q-11 9 -11 14q0 2 3 7l4 6l2 2q3 3 5 3q3 0 7 -2.5t10 -6.5l112 -73l112 73q6 4 10 6.5t7 2.5q4 0 7 -5l4 -6q3 -5 3 -7z" />
    <glyph glyph-name="Eng" unicode="&#x14a;" horiz-adv-x="564" 
d="M188 -185q0 3 2 8.5t4.5 11.5t6 10t6.5 4q2 0 10 -3.5t21.5 -8t33 -8t43.5 -3.5q34 0 60 8.5t44 28.5t27.5 53.5t9.5 83.5q0 1 -0.5 1.5t-0.5 1.5l-345 588v-578q0 -7 -3 -10t-12 -3h-20q-9 0 -12 3t-3 10v674q0 7 3 10t12 3h22q10 0 14 -8l343 -589v553h-131
q-7 0 -10 2.5t-3 12.5v14q0 9 3 12t10 3h166q10 0 12.5 -3t2.5 -10v-675q0 -48 -7.5 -90t-28 -73t-57.5 -49t-96 -18q-27 0 -50 3.5t-40.5 9t-27 11t-9.5 9.5z" />
    <glyph glyph-name="eng" unicode="&#x14b;" horiz-adv-x="489" 
d="M384 304q0 66 -37.5 95.5t-107.5 29.5q-22 0 -42.5 -4.5t-37.5 -10.5t-29.5 -12.5t-19.5 -10.5v-378q0 -7 -3 -10t-12 -3h-20q-9 0 -12 3t-3 10v406q34 22 80 38t102 16q60 0 97.5 -14.5t58.5 -37t28.5 -50t7.5 -53.5v-358q0 -37 -4.5 -69.5t-18 -56.5t-39 -38t-66.5 -14
q-28 0 -34.5 3.5t-6.5 12.5v14q0 7 2 11t10 4q5 0 13 -0.5t13 -0.5q47 0 64 30.5t17 105.5v342z" />
    <glyph glyph-name="Omacron" unicode="&#x14c;" horiz-adv-x="613" 
d="M513 350q0 76 -8 134.5t-30.5 98.5t-63 61t-105.5 21t-105 -21t-62.5 -61t-30.5 -98.5t-8 -134.5t8 -134.5t30.5 -98.5t62.5 -61t105 -21t105.5 21t63 61t30.5 98.5t8 134.5zM50 350q0 97 14 165.5t44.5 111.5t79 62.5t118.5 19.5t119 -19.5t79.5 -62.5t44.5 -111.5
t14 -165.5t-14 -165.5t-44.5 -111.5t-79.5 -62.5t-119 -19.5t-118.5 19.5t-79 62.5t-44.5 111.5t-14 165.5zM196 806q-15 0 -19.5 2t-4.5 15v10q0 12 4.5 14.5t19.5 2.5h200q15 0 19.5 -2t4.5 -15v-10q0 -13 -4.5 -15t-19.5 -2h-200v0z" />
    <glyph glyph-name="omacron" unicode="&#x14d;" horiz-adv-x="496" 
d="M401 232q0 57 -9.5 95t-29 60.5t-48 32t-66.5 9.5t-66.5 -9.5t-48 -32t-29 -60.5t-9.5 -95t9.5 -95t29 -60.5t48 -32t66.5 -9.5t66.5 9.5t48 32t29 60.5t9.5 95zM45 232q0 130 50.5 185.5t152.5 55.5t152.5 -55.5t50.5 -185.5q0 -65 -12.5 -111t-38 -75t-63.5 -42
t-89 -13t-89 13t-63.5 42t-38 75t-12.5 111zM144 570q-15 0 -19.5 2t-4.5 15v10q0 12 4.5 14.5t19.5 2.5h200q15 0 19.5 -2t4.5 -15v-10q0 -13 -4.5 -15t-19.5 -2h-200v0z" />
    <glyph glyph-name="Obreve" unicode="&#x14e;" horiz-adv-x="613" 
d="M513 350q0 76 -8 134.5t-30.5 98.5t-63 61t-105.5 21t-105 -21t-62.5 -61t-30.5 -98.5t-8 -134.5t8 -134.5t30.5 -98.5t62.5 -61t105 -21t105.5 21t63 61t30.5 98.5t8 134.5zM50 350q0 97 14 165.5t44.5 111.5t79 62.5t118.5 19.5t119 -19.5t79.5 -62.5t44.5 -111.5
t14 -165.5t-14 -165.5t-44.5 -111.5t-79.5 -62.5t-119 -19.5t-118.5 19.5t-79 62.5t-44.5 111.5t-14 165.5zM392 884q0 -23 -8.5 -39t-22 -27t-30.5 -16t-34 -5q-39 0 -68 21t-29 66h30q7 -20 21 -33t45 -13q29 0 44.5 13t22.5 33h29z" />
    <glyph glyph-name="obreve" unicode="&#x14f;" horiz-adv-x="496" 
d="M401 232q0 57 -9.5 95t-29 60.5t-48 32t-66.5 9.5t-66.5 -9.5t-48 -32t-29 -60.5t-9.5 -95t9.5 -95t29 -60.5t48 -32t66.5 -9.5t66.5 9.5t48 32t29 60.5t9.5 95zM45 232q0 130 50.5 185.5t152.5 55.5t152.5 -55.5t50.5 -185.5q0 -65 -12.5 -111t-38 -75t-63.5 -42
t-89 -13t-89 13t-63.5 42t-38 75t-12.5 111zM344 648q0 -23 -8.5 -39t-22 -27t-30.5 -16t-34 -5q-39 0 -68 21t-29 66h30q7 -20 21 -33t45 -13q29 0 44.5 13t22.5 33h29z" />
    <glyph glyph-name="Ohungarumlaut" unicode="&#x150;" horiz-adv-x="613" 
d="M513 350q0 76 -8 134.5t-30.5 98.5t-63 61t-105.5 21t-105 -21t-62.5 -61t-30.5 -98.5t-8 -134.5t8 -134.5t30.5 -98.5t62.5 -61t105 -21t105.5 21t63 61t30.5 98.5t8 134.5zM50 350q0 97 14 165.5t44.5 111.5t79 62.5t118.5 19.5t119 -19.5t79.5 -62.5t44.5 -111.5
t14 -165.5t-14 -165.5t-44.5 -111.5t-79.5 -62.5t-119 -19.5t-118.5 19.5t-79 62.5t-44.5 111.5t-14 165.5zM248 762q-4 -4 -6.5 -8t-7.5 -4q-6 0 -10 2l-10 6q-5 4 -5 9q0 3 5 13l85 159q4 7 8.5 12t12.5 5q6 0 13 -5l19 -12q4 -2 7 -6t3 -10q0 -10 -8 -19zM390 762
q-4 -4 -7 -8t-7 -4q-6 0 -10 2l-10 6q-5 4 -5 9q0 3 5 13l85 159q4 7 8.5 12t12.5 5q5 0 13 -5l19 -12q4 -2 7 -6t3 -10q0 -10 -8 -19z" />
    <glyph glyph-name="ohungarumlaut" unicode="&#x151;" horiz-adv-x="496" 
d="M401 232q0 57 -9.5 95t-29 60.5t-48 32t-66.5 9.5t-66.5 -9.5t-48 -32t-29 -60.5t-9.5 -95t9.5 -95t29 -60.5t48 -32t66.5 -9.5t66.5 9.5t48 32t29 60.5t9.5 95zM45 232q0 130 50.5 185.5t152.5 55.5t152.5 -55.5t50.5 -185.5q0 -65 -12.5 -111t-38 -75t-63.5 -42
t-89 -13t-89 13t-63.5 42t-38 75t-12.5 111zM189 526q-4 -4 -6.5 -8t-7.5 -4q-6 0 -10 2l-10 6q-5 4 -5 9q0 3 5 13l85 159q4 7 8.5 12t12.5 5q6 0 13 -5l19 -12q4 -2 7 -6t3 -10q0 -10 -8 -19zM331 526q-4 -4 -7 -8t-7 -4q-6 0 -10 2l-10 6q-5 4 -5 9q0 3 5 13l85 159
q4 7 8.5 12t12.5 5q5 0 13 -5l19 -12q4 -2 7 -6t3 -10q0 -10 -8 -19z" />
    <glyph glyph-name="OE" unicode="&#x152;" horiz-adv-x="872" 
d="M445 653q-17 3 -35 6q-16 2 -36.5 4t-43.5 2q-75 0 -120 -20t-69.5 -59.5t-32.5 -98.5t-8 -137q0 -96 13.5 -157.5t41.5 -97t71.5 -48.5t103.5 -13q24 0 45 2t37 4q18 3 33 6v607zM462 0q-17 0 -31 -1.5t-29 -3t-32.5 -3t-39.5 -1.5q-77 0 -130.5 19.5t-86.5 62t-48 111
t-15 166.5t15 166.5t48 111t86.5 62t130.5 19.5q45 0 79 -4.5t53 -4.5h347q13 0 13 -16v-13q0 -8 -2 -11.5t-11 -3.5h-314v-274h295q9 0 11 -4t2 -12v-13q0 -15 -13 -15h-295v-294h314q9 0 11 -4t2 -12v-13q0 -15 -13 -15h-347z" />
    <glyph glyph-name="oe" unicode="&#x153;" horiz-adv-x="818" 
d="M618 -9q-78 0 -124 23t-68 71q-23 -50 -67.5 -72t-110.5 -22q-51 0 -89 13t-63.5 42t-38 75t-12.5 111q0 130 50.5 185.5t152.5 55.5q67 0 111.5 -23t67.5 -74q22 47 63 72t104 25q91 0 135 -55.5t44 -170.5q0 -21 -6.5 -28t-23.5 -7h-291q0 -43 8.5 -76t28 -55.5
t52.5 -34t81 -11.5q50 0 79.5 11t36.5 11q8 0 12.5 -13t4.5 -20q0 -6 -12.5 -11.5t-32 -10.5t-44 -8t-48.5 -3zM401 232q0 57 -9.5 95t-29 60.5t-48 32t-66.5 9.5t-66.5 -9.5t-48 -32t-29 -60.5t-9.5 -95t9.5 -95t29 -60.5t48 -32t66.5 -9.5t66.5 9.5t48 32t29 60.5t9.5 95z
M723 269q0 33 -6.5 62t-22 50.5t-40 34.5t-60.5 13q-40 0 -67 -13.5t-43.5 -36.5t-24 -55t-7.5 -68h271v13z" />
    <glyph glyph-name="Racute" unicode="&#x154;" horiz-adv-x="551" 
d="M293 298h-183v-285q0 -7 -3 -10t-12 -3h-20q-9 0 -12 3t-3 10v674q0 7 3 10t12 3h230q61 0 100 -18.5t61 -48t30 -65.5t8 -71q0 -32 -6.5 -64.5t-24.5 -60t-48.5 -47t-78.5 -25.5l166 -281q4 -5 4 -10q0 -9 -10 -9h-32q-8 0 -12 8zM453 497q0 34 -7.5 63t-25 50.5
t-46.5 33.5t-73 12h-191v-313h191q44 0 73 11.5t46.5 31.5t25 48.5t7.5 62.5zM227 784q-13 -8 -15 -8q-3 0 -8 5l-6 7q-3 4 -3 7q0 5 11 14l137 118q10 9 20 9q6 0 9 -2t7 -7l11 -15q5 -6 5 -13q0 -11 -15 -20z" />
    <glyph glyph-name="racute" unicode="&#x155;" horiz-adv-x="297" 
d="M110 13q0 -7 -3 -10t-12 -3h-20q-9 0 -12 3t-3 10v406q11 8 28.5 17.5t39.5 17.5t48 13.5t54 5.5q10 0 21 -1t20 -2.5t15 -3.5t6 -4t-1 -9.5t-3 -15.5t-3.5 -9.5t-6.5 -1.5t-15 1.5t-33 1.5q-35 0 -67.5 -12t-52.5 -26v-378v0zM121 548q-13 -8 -15 -8q-3 0 -8 5l-6 7
q-3 4 -3 7q0 5 11 14l137 118q10 9 20 9q6 0 9 -2t7 -7l11 -15q5 -6 5 -13q0 -11 -15 -20z" />
    <glyph glyph-name="Rcommaaccent" unicode="&#x156;" horiz-adv-x="551" 
d="M293 298h-183v-285q0 -7 -3 -10t-12 -3h-20q-9 0 -12 3t-3 10v674q0 7 3 10t12 3h230q61 0 100 -18.5t61 -48t30 -65.5t8 -71q0 -32 -6.5 -64.5t-24.5 -60t-48.5 -47t-78.5 -25.5l166 -281q4 -5 4 -10q0 -9 -10 -9h-32q-8 0 -12 8zM453 497q0 34 -7.5 63t-25 50.5
t-46.5 33.5t-73 12h-191v-313h191q44 0 73 11.5t46.5 31.5t25 48.5t7.5 62.5zM234 -91q0 18 12.5 30t29.5 12q19 0 30.5 -12t11.5 -30q0 -26 -14 -61.5t-46 -62.5q-12 -11 -22 -15.5t-14 -4.5q-6 0 -10 11q9 6 18.5 16.5t16.5 23t11.5 26t4.5 24.5q0 1 -4.5 4t-10 7.5
t-10 12t-4.5 19.5z" />
    <glyph glyph-name="rcommaaccent" unicode="&#x157;" horiz-adv-x="297" 
d="M110 13q0 -7 -3 -10t-12 -3h-20q-9 0 -12 3t-3 10v406q11 8 28.5 17.5t39.5 17.5t48 13.5t54 5.5q10 0 21 -1t20 -2.5t15 -3.5t6 -4t-1 -9.5t-3 -15.5t-3.5 -9.5t-6.5 -1.5t-15 1.5t-33 1.5q-35 0 -67.5 -12t-52.5 -26v-378v0zM97 -91q0 18 12.5 30t29.5 12
q19 0 30.5 -12t11.5 -30q0 -26 -14 -61.5t-46 -62.5q-12 -11 -22 -15.5t-14 -4.5q-6 0 -10 11q9 6 18.5 16.5t16.5 23t11.5 26t4.5 24.5q0 1 -4.5 4t-10 7.5t-10 12t-4.5 19.5z" />
    <glyph glyph-name="Rcaron" unicode="&#x158;" horiz-adv-x="551" 
d="M293 298h-183v-285q0 -7 -3 -10t-12 -3h-20q-9 0 -12 3t-3 10v674q0 7 3 10t12 3h230q61 0 100 -18.5t61 -48t30 -65.5t8 -71q0 -32 -6.5 -64.5t-24.5 -60t-48.5 -47t-78.5 -25.5l166 -281q4 -5 4 -10q0 -9 -10 -9h-32q-8 0 -12 8zM453 497q0 34 -7.5 63t-25 50.5
t-46.5 33.5t-73 12h-191v-313h191q44 0 73 11.5t46.5 31.5t25 48.5t7.5 62.5zM378 904q0 -5 -11 -14l-112 -103q-6 -5 -10 -7.5t-10 -2.5t-10.5 2.5t-9.5 7.5l-112 103q-11 9 -11 14q0 2 3 7l4 6l2 2q3 3 5 3q3 0 7 -2.5t10 -6.5l112 -73l112 73q6 4 10 6.5t7 2.5q4 0 7 -5
l4 -6q3 -5 3 -7z" />
    <glyph glyph-name="rcaron" unicode="&#x159;" horiz-adv-x="297" 
d="M110 13q0 -7 -3 -10t-12 -3h-20q-9 0 -12 3t-3 10v406q11 8 28.5 17.5t39.5 17.5t48 13.5t54 5.5q10 0 21 -1t20 -2.5t15 -3.5t6 -4t-1 -9.5t-3 -15.5t-3.5 -9.5t-6.5 -1.5t-15 1.5t-33 1.5q-35 0 -67.5 -12t-52.5 -26v-378v0zM312 668q0 -5 -11 -14l-112 -103
q-6 -5 -10 -7.5t-10 -2.5t-10.5 2.5t-9.5 7.5l-112 103q-11 9 -11 14q0 2 3 7l4 6l2 2q3 3 5 3q3 0 7 -2.5t10 -6.5l112 -73l112 73q6 4 10 6.5t7 2.5q4 0 7 -5l4 -6q3 -5 3 -7z" />
    <glyph glyph-name="Sacute" unicode="&#x15a;" horiz-adv-x="459" 
d="M54 73q4 0 16 -6t30.5 -13t42.5 -13t52 -6q52 0 86.5 12t55 31.5t29 43.5t8.5 48q0 19 -7 38.5t-26.5 41t-53.5 47t-88 57.5q-71 42 -114 88t-43 108q0 73 50 116t152 43q36 0 62.5 -5t44 -11.5t26.5 -12t9 -6.5q0 -2 -2.5 -8t-6 -12t-7 -11t-5.5 -5q-3 0 -11.5 4
t-23.5 9.5t-36.5 9.5t-50.5 4q-43 0 -72 -8.5t-46.5 -24t-25 -36.5t-7.5 -46q0 -41 33.5 -80t114.5 -88q40 -25 74 -48.5t58.5 -48t38 -52.5t13.5 -63q0 -41 -16 -74.5t-46 -56.5t-72.5 -35.5t-94.5 -12.5q-37 0 -66.5 6.5t-50.5 15t-32 16t-11 9.5t2 8t5 12t6.5 10.5
t5.5 4.5zM191 784q-13 -8 -15 -8q-3 0 -8 5l-6 7q-3 4 -3 7q0 5 11 14l137 118q10 9 20 9q6 0 9 -2t7 -7l11 -15q5 -6 5 -13q0 -11 -15 -20z" />
    <glyph glyph-name="sacute" unicode="&#x15b;" horiz-adv-x="338" 
d="M142 -9q-17 0 -36 2.5t-34.5 6.5t-26 9t-10.5 10q0 7 5 20t10 13q9 0 32.5 -8.5t59.5 -8.5q49 0 80 17.5t31 61.5q0 18 -6 32t-19.5 26.5t-37 26.5t-57.5 32q-16 8 -33 19t-30.5 26t-22 34.5t-8.5 45.5q0 50 34.5 83.5t112.5 33.5q16 0 34.5 -1.5t34.5 -4.5t26 -7.5
t10 -10.5q0 -2 -1 -7t-3 -10.5t-5 -10t-7 -4.5q-8 0 -31.5 6t-56.5 6q-29 0 -48 -6t-30 -16t-15.5 -22.5t-4.5 -25.5q0 -18 4.5 -31t17 -25.5t34.5 -26t56 -31.5q48 -26 75 -54t27 -70q0 -24 -7 -47.5t-25 -41.5t-49.5 -29.5t-79.5 -11.5zM131 548q-13 -8 -15 -8q-3 0 -8 5
l-6 7q-3 4 -3 7q0 5 11 14l137 118q10 9 20 9q6 0 9 -2t7 -7l11 -15q5 -6 5 -13q0 -11 -15 -20z" />
    <glyph glyph-name="Scircumflex" unicode="&#x15c;" horiz-adv-x="459" 
d="M54 73q4 0 16 -6t30.5 -13t42.5 -13t52 -6q52 0 86.5 12t55 31.5t29 43.5t8.5 48q0 19 -7 38.5t-26.5 41t-53.5 47t-88 57.5q-71 42 -114 88t-43 108q0 73 50 116t152 43q36 0 62.5 -5t44 -11.5t26.5 -12t9 -6.5q0 -2 -2.5 -8t-6 -12t-7 -11t-5.5 -5q-3 0 -11.5 4
t-23.5 9.5t-36.5 9.5t-50.5 4q-43 0 -72 -8.5t-46.5 -24t-25 -36.5t-7.5 -46q0 -41 33.5 -80t114.5 -88q40 -25 74 -48.5t58.5 -48t38 -52.5t13.5 -63q0 -41 -16 -74.5t-46 -56.5t-72.5 -35.5t-94.5 -12.5q-37 0 -66.5 6.5t-50.5 15t-32 16t-11 9.5t2 8t5 12t6.5 10.5
t5.5 4.5zM86 795q0 5 11 14l112 103q6 5 10 7.5t10 2.5t10.5 -2.5t9.5 -7.5l112 -103q11 -9 11 -14q0 -3 -3 -7l-4 -6q-1 -2 -2 -3q-2 -2 -5 -2t-7 2.5t-10 6.5l-112 73l-112 -73q-6 -4 -10 -6.5t-7 -2.5q-4 0 -7 5l-4 6q-3 4 -3 7z" />
    <glyph glyph-name="scircumflex" unicode="&#x15d;" horiz-adv-x="338" 
d="M142 -9q-17 0 -36 2.5t-34.5 6.5t-26 9t-10.5 10q0 7 5 20t10 13q9 0 32.5 -8.5t59.5 -8.5q49 0 80 17.5t31 61.5q0 18 -6 32t-19.5 26.5t-37 26.5t-57.5 32q-16 8 -33 19t-30.5 26t-22 34.5t-8.5 45.5q0 50 34.5 83.5t112.5 33.5q16 0 34.5 -1.5t34.5 -4.5t26 -7.5
t10 -10.5q0 -2 -1 -7t-3 -10.5t-5 -10t-7 -4.5q-8 0 -31.5 6t-56.5 6q-29 0 -48 -6t-30 -16t-15.5 -22.5t-4.5 -25.5q0 -18 4.5 -31t17 -25.5t34.5 -26t56 -31.5q48 -26 75 -54t27 -70q0 -24 -7 -47.5t-25 -41.5t-49.5 -29.5t-79.5 -11.5zM26 559q0 5 11 14l112 103
q6 5 10 7.5t10 2.5t10.5 -2.5t9.5 -7.5l112 -103q11 -9 11 -14q0 -3 -3 -7l-4 -6q-1 -2 -2 -3q-2 -2 -5 -2t-7 2.5t-10 6.5l-112 73l-112 -73q-6 -4 -10 -6.5t-7 -2.5q-4 0 -7 5l-4 6q-3 4 -3 7z" />
    <glyph glyph-name="Scedilla" unicode="&#x15e;" horiz-adv-x="459" 
d="M137 -158q0 4 1 7t2 5q3 9 11 9q5 0 19.5 -5t42.5 -5q30 0 47.5 11.5t17.5 31.5t-13 27.5t-35 7.5q-16 0 -30.5 -3.5t-21.5 -6.5l-21 26l34 44q-36 0 -65 7t-49 15t-31 15.5t-11 9.5t2 8t5 12t6.5 10.5t5.5 4.5q4 0 16 -6t30.5 -13t42.5 -13t52 -6q52 0 86.5 12t55 31.5
t29 43.5t8.5 48q0 19 -7 38.5t-26.5 41t-53.5 47t-88 57.5q-71 42 -114 88t-43 108q0 73 50 116t152 43q36 0 62.5 -5t44 -11.5t26.5 -12t9 -6.5q0 -2 -2.5 -8t-6 -12t-7 -11t-5.5 -5q-3 0 -11.5 4t-23.5 9.5t-36.5 9.5t-50.5 4q-43 0 -72 -8.5t-46.5 -24t-25 -36.5
t-7.5 -46q0 -41 33.5 -80t114.5 -88q40 -25 74 -48.5t58.5 -48t38 -52.5t13.5 -63q0 -75 -51.5 -122t-140.5 -55l-22 -33l10 2t11 2t14 1q37 0 56.5 -18.5t19.5 -47.5q0 -34 -26.5 -56.5t-87.5 -22.5q-11 0 -23 1.5t-22.5 4.5t-17.5 7t-7 9z" />
    <glyph glyph-name="scedilla" unicode="&#x15f;" horiz-adv-x="338" 
d="M77 -158q0 4 1 7t2 5q3 9 11 9q5 0 19.5 -5t42.5 -5q30 0 47.5 11.5t17.5 31.5t-13 27.5t-35 7.5q-16 0 -30.5 -3.5t-21.5 -6.5l-21 26l34 44q-17 1 -34 3.5t-30.5 6.5t-22.5 8.5t-9 9.5q0 7 5 20t10 13q9 0 32.5 -8.5t59.5 -8.5q49 0 80 17.5t31 61.5q0 18 -6 32
t-19.5 26.5t-37 26.5t-57.5 32q-16 8 -33 19t-30.5 26t-22 34.5t-8.5 45.5q0 50 34.5 83.5t112.5 33.5q16 0 34.5 -1.5t34.5 -4.5t26 -7.5t10 -10.5q0 -2 -1 -7t-3 -10.5t-5 -10t-7 -4.5q-8 0 -31.5 6t-56.5 6q-29 0 -48 -6t-30 -16t-15.5 -22.5t-4.5 -25.5q0 -18 4.5 -31
t17 -25.5t34.5 -26t56 -31.5q48 -26 75 -54t27 -70q0 -22 -6 -43.5t-20.5 -39t-40 -30t-64.5 -15.5l-22 -33l10 2t11 2t14 1q37 0 56.5 -18.5t19.5 -47.5q0 -34 -26.5 -56.5t-87.5 -22.5q-11 0 -23 1.5t-22.5 4.5t-17.5 7t-7 9z" />
    <glyph glyph-name="Scaron" unicode="&#x160;" horiz-adv-x="459" 
d="M54 73q4 0 16 -6t30.5 -13t42.5 -13t52 -6q52 0 86.5 12t55 31.5t29 43.5t8.5 48q0 19 -7 38.5t-26.5 41t-53.5 47t-88 57.5q-71 42 -114 88t-43 108q0 73 50 116t152 43q36 0 62.5 -5t44 -11.5t26.5 -12t9 -6.5q0 -2 -2.5 -8t-6 -12t-7 -11t-5.5 -5q-3 0 -11.5 4
t-23.5 9.5t-36.5 9.5t-50.5 4q-43 0 -72 -8.5t-46.5 -24t-25 -36.5t-7.5 -46q0 -41 33.5 -80t114.5 -88q40 -25 74 -48.5t58.5 -48t38 -52.5t13.5 -63q0 -41 -16 -74.5t-46 -56.5t-72.5 -35.5t-94.5 -12.5q-37 0 -66.5 6.5t-50.5 15t-32 16t-11 9.5t2 8t5 12t6.5 10.5
t5.5 4.5zM372 904q0 -5 -11 -14l-112 -103q-6 -5 -10 -7.5t-10 -2.5t-10.5 2.5t-9.5 7.5l-112 103q-11 9 -11 14q0 2 3 7l4 6l2 2q3 3 5 3q3 0 7 -2.5t10 -6.5l112 -73l112 73q6 4 10 6.5t7 2.5q4 0 7 -5l4 -6q3 -5 3 -7z" />
    <glyph glyph-name="scaron" unicode="&#x161;" horiz-adv-x="338" 
d="M142 -9q-17 0 -36 2.5t-34.5 6.5t-26 9t-10.5 10q0 7 5 20t10 13q9 0 32.5 -8.5t59.5 -8.5q49 0 80 17.5t31 61.5q0 18 -6 32t-19.5 26.5t-37 26.5t-57.5 32q-16 8 -33 19t-30.5 26t-22 34.5t-8.5 45.5q0 50 34.5 83.5t112.5 33.5q16 0 34.5 -1.5t34.5 -4.5t26 -7.5
t10 -10.5q0 -2 -1 -7t-3 -10.5t-5 -10t-7 -4.5q-8 0 -31.5 6t-56.5 6q-29 0 -48 -6t-30 -16t-15.5 -22.5t-4.5 -25.5q0 -18 4.5 -31t17 -25.5t34.5 -26t56 -31.5q48 -26 75 -54t27 -70q0 -24 -7 -47.5t-25 -41.5t-49.5 -29.5t-79.5 -11.5zM312 668q0 -5 -11 -14l-112 -103
q-6 -5 -10 -7.5t-10 -2.5t-10.5 2.5t-9.5 7.5l-112 103q-11 9 -11 14q0 2 3 7l4 6l2 2q3 3 5 3q3 0 7 -2.5t10 -6.5l112 -73l112 73q6 4 10 6.5t7 2.5q4 0 7 -5l4 -6q3 -5 3 -7z" />
    <glyph glyph-name="Tcommaaccent" unicode="&#x162;" horiz-adv-x="506" 
d="M29 657q-8 0 -11 2.5t-3 12.5v13q0 9 3 12t11 3h449q7 0 10 -3t3 -12v-13q0 -10 -3 -12.5t-10 -2.5h-200v-644q0 -7 -2.5 -10t-12.5 -3h-20q-9 0 -12 3t-3 10v644h-199v0zM222 -91q0 18 12.5 30t29.5 12q19 0 30.5 -12t11.5 -30q0 -26 -14 -61.5t-46 -62.5
q-12 -11 -22 -15.5t-14 -4.5q-6 0 -10 11q9 6 18.5 16.5t16.5 23t11.5 26t4.5 24.5q0 1 -4.5 4t-10 7.5t-10 12t-4.5 19.5z" />
    <glyph glyph-name="tcommaaccent" unicode="&#x163;" horiz-adv-x="287" 
d="M139 171q0 -75 17.5 -105.5t64.5 -30.5q5 0 13 0.5t12 0.5q9 0 11 -4.5t2 -8.5v-18q0 -11 -10.5 -12.5t-30.5 -1.5q-38 0 -63 12t-39.5 34.5t-20.5 55.5t-6 75v252h-56q-7 0 -10 3t-3 12v13q0 10 3 13t10 3h56v120q0 7 3.5 9.5t11.5 5.5q7 1 12 3t9.5 3t6.5 1q5 0 6 -2.5
t1 -11.5v-128h115q7 0 10 -3t3 -13v-13q0 -9 -3 -12t-10 -3h-115v-249v0zM142 -91q0 18 12.5 30t29.5 12q19 0 30.5 -12t11.5 -30q0 -26 -14 -61.5t-46 -62.5q-12 -11 -22 -15.5t-14 -4.5q-6 0 -10 11q9 6 18.5 16.5t16.5 23t11.5 26t4.5 24.5q0 1 -4.5 4t-10 7.5t-10 12
t-4.5 19.5z" />
    <glyph glyph-name="Tcaron" unicode="&#x164;" horiz-adv-x="506" 
d="M29 657q-8 0 -11 2.5t-3 12.5v13q0 9 3 12t11 3h449q7 0 10 -3t3 -12v-13q0 -10 -3 -12.5t-10 -2.5h-200v-644q0 -7 -2.5 -10t-12.5 -3h-20q-9 0 -12 3t-3 10v644h-199v0zM396 904q0 -5 -11 -14l-112 -103q-6 -5 -10 -7.5t-10 -2.5t-10.5 2.5t-9.5 7.5l-112 103
q-11 9 -11 14q0 2 3 7l4 6l2 2q3 3 5 3q3 0 7 -2.5t10 -6.5l112 -73l112 73q6 4 10 6.5t7 2.5q4 0 7 -5l4 -6q3 -5 3 -7z" />
    <glyph glyph-name="tcaron" unicode="&#x165;" horiz-adv-x="333" 
d="M139 171q0 -75 17.5 -105.5t64.5 -30.5q5 0 13 0.5t12 0.5q9 0 11 -4.5t2 -8.5v-18q0 -11 -10.5 -12.5t-30.5 -1.5q-38 0 -63 12t-39.5 34.5t-20.5 55.5t-6 75v252h-56q-7 0 -10 3t-3 12v13q0 10 3 13t10 3h56v120q0 7 3.5 9.5t11.5 5.5q7 1 12 3t9.5 3t6.5 1q5 0 6 -2.5
t1 -11.5v-128h115q7 0 10 -3t3 -13v-13q0 -9 -3 -12t-10 -3h-115v-249v0zM219 667q0 18 12.5 30t29.5 12q19 0 30.5 -12t11.5 -30q0 -26 -14 -61.5t-46 -62.5q-12 -11 -22 -15.5t-14 -4.5q-6 0 -10 11q9 6 18.5 16.5t16.5 23t11.5 26t4.5 24.5q0 1 -4.5 4t-10 7.5t-10 12
t-4.5 19.5z" />
    <glyph glyph-name="Tbar" unicode="&#x166;" horiz-adv-x="506" 
d="M29 657q-8 0 -11 2.5t-3 12.5v13q0 9 3 12t11 3h449q7 0 10 -3t3 -12v-13q0 -10 -3 -12.5t-10 -2.5h-200v-149h137q15 0 18.5 -3t3.5 -14v-10q0 -11 -3.5 -14t-18.5 -3h-137v-451q0 -7 -2.5 -10t-12.5 -3h-20q-9 0 -12 3t-3 10v451h-137q-15 0 -18.5 3t-3.5 14v10
q0 11 3.5 14t18.5 3h137v149h-199v0z" />
    <glyph glyph-name="tbar" unicode="&#x167;" horiz-adv-x="287" 
d="M44 300q-15 0 -19.5 2t-4.5 15v11q0 12 4.5 14.5t19.5 2.5h45v75h-56q-7 0 -10 3t-3 12v13q0 10 3 13t10 3h56v120q0 7 3.5 9.5t11.5 5.5q7 1 12 3t9.5 3t6.5 1q5 0 6 -2.5t1 -11.5v-128h115q7 0 10 -3t3 -13v-13q0 -9 -3 -12t-10 -3h-115v-75h104q15 0 19.5 -2t4.5 -15
v-11q0 -13 -4.5 -15t-19.5 -2h-104v-129q0 -75 17.5 -105.5t64.5 -30.5q5 0 13 0.5t12 0.5q9 0 11 -4.5t2 -8.5v-18q0 -11 -10.5 -12.5t-30.5 -1.5q-38 0 -63 12t-39.5 34.5t-20.5 55.5t-6 75v132h-45v0z" />
    <glyph glyph-name="Utilde" unicode="&#x168;" horiz-adv-x="579" 
d="M290 35q56 0 92 13.5t56.5 43t28 77t7.5 115.5v403q0 7 3 10t12 3h19q10 0 13 -3t3 -10v-403q0 -78 -11 -134t-38 -91t-72 -51.5t-113 -16.5t-113.5 16.5t-72.5 51.5t-38 91t-11 134v403q0 7 3 10t12 3h20q9 0 12 -3t3 -10v-403q0 -68 7.5 -115.5t28 -77t56.5 -43
t93 -13.5zM213 812q-21 0 -37 -7t-31 -7q-10 0 -12 6q-1 2 -2 5q-2 6 -2 8q0 5 9.5 12t24 13.5t32.5 11t35 4.5q23 0 39.5 -4.5t31 -10t30 -10t36.5 -4.5q25 0 38.5 7t27.5 7q9 0 12 -6q1 -2 2 -5q2 -6 2 -8q0 -5 -9 -12t-23.5 -13t-32 -10.5t-33.5 -4.5q-24 0 -41 4.5
t-31.5 9.5t-29.5 9.5t-36 4.5z" />
    <glyph glyph-name="utilde" unicode="&#x169;" horiz-adv-x="502" 
d="M105 173q0 -31 7 -56.5t23 -43.5t42 -28t64 -10q26 0 47.5 7t38 16.5t27.5 20t17 17.5v354q0 8 3 11t12 3h19q10 0 13 -3t3 -11v-353q0 -25 9.5 -44t35.5 -19q7 0 12 1t8 1q5 0 6 -3t2 -9q0 -7 1 -11q1 -5 1.5 -8t0.5 -4q0 -3 -10 -6.5t-28 -3.5q-31 0 -52 14t-29 40
q-6 -6 -18.5 -15t-30 -18t-40.5 -15t-51 -6q-89 0 -136 42t-47 130v287q0 8 3 11t12 3h20q9 0 12 -3t3 -11v-277zM175 576q-21 0 -37 -7t-31 -7q-10 0 -12 6q-1 2 -2 5q-2 6 -2 8q0 5 9.5 12t24 13.5t32.5 11t35 4.5q23 0 39.5 -4.5t31 -10t30 -10t36.5 -4.5q25 0 38.5 7
t27.5 7q9 0 12 -6q1 -2 2 -5q2 -6 2 -8q0 -5 -9 -12t-23.5 -13t-32 -10.5t-33.5 -4.5q-24 0 -41 4.5t-31.5 9.5t-29.5 9.5t-36 4.5z" />
    <glyph glyph-name="Umacron" unicode="&#x16a;" horiz-adv-x="579" 
d="M290 35q56 0 92 13.5t56.5 43t28 77t7.5 115.5v403q0 7 3 10t12 3h19q10 0 13 -3t3 -10v-403q0 -78 -11 -134t-38 -91t-72 -51.5t-113 -16.5t-113.5 16.5t-72.5 51.5t-38 91t-11 134v403q0 7 3 10t12 3h20q9 0 12 -3t3 -10v-403q0 -68 7.5 -115.5t28 -77t56.5 -43
t93 -13.5zM189 806q-15 0 -19.5 2t-4.5 15v10q0 12 4.5 14.5t19.5 2.5h200q15 0 19.5 -2t4.5 -15v-10q0 -13 -4.5 -15t-19.5 -2h-200v0z" />
    <glyph glyph-name="umacron" unicode="&#x16b;" horiz-adv-x="502" 
d="M105 173q0 -31 7 -56.5t23 -43.5t42 -28t64 -10q26 0 47.5 7t38 16.5t27.5 20t17 17.5v354q0 8 3 11t12 3h19q10 0 13 -3t3 -11v-353q0 -25 9.5 -44t35.5 -19q7 0 12 1t8 1q5 0 6 -3t2 -9q0 -7 1 -11q1 -5 1.5 -8t0.5 -4q0 -3 -10 -6.5t-28 -3.5q-31 0 -52 14t-29 40
q-6 -6 -18.5 -15t-30 -18t-40.5 -15t-51 -6q-89 0 -136 42t-47 130v287q0 8 3 11t12 3h20q9 0 12 -3t3 -11v-277zM151 570q-15 0 -19.5 2t-4.5 15v10q0 12 4.5 14.5t19.5 2.5h200q15 0 19.5 -2t4.5 -15v-10q0 -13 -4.5 -15t-19.5 -2h-200v0z" />
    <glyph glyph-name="Ubreve" unicode="&#x16c;" horiz-adv-x="579" 
d="M290 35q56 0 92 13.5t56.5 43t28 77t7.5 115.5v403q0 7 3 10t12 3h19q10 0 13 -3t3 -10v-403q0 -78 -11 -134t-38 -91t-72 -51.5t-113 -16.5t-113.5 16.5t-72.5 51.5t-38 91t-11 134v403q0 7 3 10t12 3h20q9 0 12 -3t3 -10v-403q0 -68 7.5 -115.5t28 -77t56.5 -43
t93 -13.5zM385 884q0 -23 -8.5 -39t-22 -27t-30.5 -16t-34 -5q-39 0 -68 21t-29 66h30q7 -20 21 -33t45 -13q29 0 44.5 13t22.5 33h29z" />
    <glyph glyph-name="ubreve" unicode="&#x16d;" horiz-adv-x="502" 
d="M105 173q0 -31 7 -56.5t23 -43.5t42 -28t64 -10q26 0 47.5 7t38 16.5t27.5 20t17 17.5v354q0 8 3 11t12 3h19q10 0 13 -3t3 -11v-353q0 -25 9.5 -44t35.5 -19q7 0 12 1t8 1q5 0 6 -3t2 -9q0 -7 1 -11q1 -5 1.5 -8t0.5 -4q0 -3 -10 -6.5t-28 -3.5q-31 0 -52 14t-29 40
q-6 -6 -18.5 -15t-30 -18t-40.5 -15t-51 -6q-89 0 -136 42t-47 130v287q0 8 3 11t12 3h20q9 0 12 -3t3 -11v-277zM347 648q0 -23 -8.5 -39t-22 -27t-30.5 -16t-34 -5q-39 0 -68 21t-29 66h30q7 -20 21 -33t45 -13q29 0 44.5 13t22.5 33h29z" />
    <glyph glyph-name="Uring" unicode="&#x16e;" horiz-adv-x="579" 
d="M290 35q56 0 92 13.5t56.5 43t28 77t7.5 115.5v403q0 7 3 10t12 3h19q10 0 13 -3t3 -10v-403q0 -78 -11 -134t-38 -91t-72 -51.5t-113 -16.5t-113.5 16.5t-72.5 51.5t-38 91t-11 134v403q0 7 3 10t12 3h20q9 0 12 -3t3 -10v-403q0 -68 7.5 -115.5t28 -77t56.5 -43
t93 -13.5zM375 860q0 -35 -25.5 -60t-60.5 -25q-38 0 -62 25t-24 60q0 38 24 61.5t62 23.5q16 0 31.5 -6.5t27.5 -18t19.5 -27t7.5 -33.5zM339 860q0 21 -15.5 36.5t-35.5 15.5q-22 0 -35.5 -14.5t-13.5 -37.5q0 -20 13.5 -36t35.5 -16q21 0 36 16t15 36z" />
    <glyph glyph-name="uring" unicode="&#x16f;" horiz-adv-x="502" 
d="M105 173q0 -31 7 -56.5t23 -43.5t42 -28t64 -10q26 0 47.5 7t38 16.5t27.5 20t17 17.5v354q0 8 3 11t12 3h19q10 0 13 -3t3 -11v-353q0 -25 9.5 -44t35.5 -19q7 0 12 1t8 1q5 0 6 -3t2 -9q0 -7 1 -11q1 -5 1.5 -8t0.5 -4q0 -3 -10 -6.5t-28 -3.5q-31 0 -52 14t-29 40
q-6 -6 -18.5 -15t-30 -18t-40.5 -15t-51 -6q-89 0 -136 42t-47 130v287q0 8 3 11t12 3h20q9 0 12 -3t3 -11v-277zM337 624q0 -35 -25.5 -60t-60.5 -25q-38 0 -62 25t-24 60q0 38 24 61.5t62 23.5q16 0 31.5 -6.5t27.5 -18t19.5 -27t7.5 -33.5zM301 624q0 21 -15.5 36.5
t-35.5 15.5q-22 0 -35.5 -14.5t-13.5 -37.5q0 -20 13.5 -36t35.5 -16q21 0 36 16t15 36z" />
    <glyph glyph-name="Uhungarumlaut" unicode="&#x170;" horiz-adv-x="579" 
d="M290 35q56 0 92 13.5t56.5 43t28 77t7.5 115.5v403q0 7 3 10t12 3h19q10 0 13 -3t3 -10v-403q0 -78 -11 -134t-38 -91t-72 -51.5t-113 -16.5t-113.5 16.5t-72.5 51.5t-38 91t-11 134v403q0 7 3 10t12 3h20q9 0 12 -3t3 -10v-403q0 -68 7.5 -115.5t28 -77t56.5 -43
t93 -13.5zM231 762q-4 -4 -6.5 -8t-7.5 -4q-6 0 -10 2l-10 6q-5 4 -5 9q0 3 5 13l85 159q4 7 8.5 12t12.5 5q6 0 13 -5l19 -12q4 -2 7 -6t3 -10q0 -10 -8 -19zM373 762q-4 -4 -7 -8t-7 -4q-6 0 -10 2l-10 6q-5 4 -5 9q0 3 5 13l85 159q4 7 8.5 12t12.5 5q5 0 13 -5l19 -12
q4 -2 7 -6t3 -10q0 -10 -8 -19z" />
    <glyph glyph-name="uhungarumlaut" unicode="&#x171;" horiz-adv-x="502" 
d="M105 173q0 -31 7 -56.5t23 -43.5t42 -28t64 -10q26 0 47.5 7t38 16.5t27.5 20t17 17.5v354q0 8 3 11t12 3h19q10 0 13 -3t3 -11v-353q0 -25 9.5 -44t35.5 -19q7 0 12 1t8 1q5 0 6 -3t2 -9q0 -7 1 -11q1 -5 1.5 -8t0.5 -4q0 -3 -10 -6.5t-28 -3.5q-31 0 -52 14t-29 40
q-6 -6 -18.5 -15t-30 -18t-40.5 -15t-51 -6q-89 0 -136 42t-47 130v287q0 8 3 11t12 3h20q9 0 12 -3t3 -11v-277zM182 526q-4 -4 -6.5 -8t-7.5 -4q-6 0 -10 2l-10 6q-5 4 -5 9q0 3 5 13l85 159q4 7 8.5 12t12.5 5q6 0 13 -5l19 -12q4 -2 7 -6t3 -10q0 -10 -8 -19zM324 526
q-4 -4 -7 -8t-7 -4q-6 0 -10 2l-10 6q-5 4 -5 9q0 3 5 13l85 159q4 7 8.5 12t12.5 5q5 0 13 -5l19 -12q4 -2 7 -6t3 -10q0 -10 -8 -19z" />
    <glyph glyph-name="Uogonek" unicode="&#x172;" horiz-adv-x="579" 
d="M414 -160q0 -8 -20.5 -14t-42.5 -6q-46 0 -66 22t-20 51q0 35 21.5 59t47.5 41q-11 -1 -22 -1.5t-22 -0.5q-68 0 -113.5 16.5t-72.5 51.5t-38 91t-11 134v403q0 7 3 10t12 3h20q9 0 12 -3t3 -10v-403q0 -68 7.5 -115.5t28 -77t56.5 -43t93 -13.5q56 0 92 13.5t56.5 43
t28 77t7.5 115.5v403q0 7 3 10t12 3h19q10 0 13 -3t3 -10v-403q0 -128 -31.5 -196.5t-112.5 -87.5q-65 -57 -65 -104q0 -20 14.5 -32t36.5 -12q17 0 25.5 3t12.5 3t7 -3.5t3 -14.5z" />
    <glyph glyph-name="uogonek" unicode="&#x173;" horiz-adv-x="502" 
d="M492 -160q0 -8 -20.5 -14t-42.5 -6q-46 0 -66 22t-20 51q0 19 7 34.5t18 28.5t24.5 23t27.5 19q-33 13 -42 47q-6 -6 -18.5 -15t-30 -18t-40.5 -15t-51 -6q-89 0 -136 42t-47 130v287q0 8 3 11t12 3h20q9 0 12 -3t3 -11v-277q0 -31 7 -56.5t23 -43.5t42 -28t64 -10
q26 0 47.5 7t38 16.5t27.5 20t17 17.5v354q0 8 3 11t12 3h19q10 0 13 -3t3 -11v-353q0 -25 9.5 -44t35.5 -19q7 0 13 1t9 1t4.5 -5t2.5 -11.5t1.5 -12t0.5 -6.5q0 -3 -10.5 -6.5t-30.5 -3.5h-8q-27 -26 -41 -49t-14 -46q0 -20 14.5 -32t36.5 -12q17 0 25.5 3t12.5 3t7 -3.5
t3 -14.5z" />
    <glyph glyph-name="Wcircumflex" unicode="&#x174;" horiz-adv-x="836" 
d="M607 41q30 121 53.5 213t40.5 160.5t28.5 115.5t19.5 77l20 81q2 5 3 8.5t8 3.5h32q9 0 9 -5l-2 -8l-170 -674q-2 -7 -4.5 -10t-10.5 -3h-53q-8 0 -10.5 3t-4.5 10l-148 595l-148 -595q-2 -7 -4.5 -10t-10.5 -3h-52q-8 0 -10.5 3t-4.5 10l-171 674l-2 8q0 5 9 5h32
q8 0 9 -4t3 -9l161 -646l162 646q2 6 3.5 9.5t8.5 3.5h31q8 0 11 -13l162 -646v0zM275 795q0 5 11 14l112 103q6 5 10 7.5t10 2.5t10.5 -2.5t9.5 -7.5l112 -103q11 -9 11 -14q0 -3 -3 -7l-4 -6q-1 -2 -2 -3q-2 -2 -5 -2t-7 2.5t-10 6.5l-112 73l-112 -73q-6 -4 -10 -6.5
t-7 -2.5q-4 0 -7 5l-4 6q-3 4 -3 7z" />
    <glyph glyph-name="wcircumflex" unicode="&#x175;" horiz-adv-x="622" 
d="M205 13q-2 -6 -4 -9.5t-12 -3.5h-33q-9 0 -11 3.5t-4 9.5l-129 434q-2 6 -2 9q0 8 13 8h25q9 0 11 -3.5t4 -10.5l110 -395l115 404q2 5 8 5h28q9 0 10 -5l116 -404l110 395q2 7 4 10.5t11 3.5h25q12 0 12 -8q0 -3 -2 -9l-128 -434q-2 -6 -4 -9.5t-11 -3.5h-35
q-9 0 -11 3.5t-4 9.5l-106 364l-106 -364v0zM168 559q0 5 11 14l112 103q6 5 10 7.5t10 2.5t10.5 -2.5t9.5 -7.5l112 -103q11 -9 11 -14q0 -3 -3 -7l-4 -6q-1 -2 -2 -3q-2 -2 -5 -2t-7 2.5t-10 6.5l-112 73l-112 -73q-6 -4 -10 -6.5t-7 -2.5q-4 0 -7 5l-4 6q-3 4 -3 7z" />
    <glyph glyph-name="Ycircumflex" unicode="&#x176;" horiz-adv-x="483" 
d="M10 692q0 8 10 8h33q7 0 12 -10l177 -343l178 345q5 8 11 8h33q9 0 9 -8q0 -4 -3 -11l-203 -383v-285q0 -7 -3 -10t-12 -3h-20q-9 0 -12 3t-3 10v285l-203 383q-4 7 -4 11zM98 795q0 5 11 14l112 103q6 5 10 7.5t10 2.5t10.5 -2.5t9.5 -7.5l112 -103q11 -9 11 -14
q0 -3 -3 -7l-4 -6q-1 -2 -2 -3q-2 -2 -5 -2t-7 2.5t-10 6.5l-112 73l-112 -73q-6 -4 -10 -6.5t-7 -2.5q-4 0 -7 5l-4 6q-3 4 -3 7z" />
    <glyph glyph-name="ycircumflex" unicode="&#x177;" horiz-adv-x="397" 
d="M156 -170l-4.5 -10.5t-10.5 -3.5h-21q-13 0 -13 8q0 4 1 6l66 177l-167 440q-2 4 -2 8q0 9 13 9h25q8 0 10 -3t5 -11l141 -382l141 382q2 7 4.5 10.5t10.5 3.5h24q13 0 13 -9q0 -4 -2 -8l-234 -617v0zM55 559q0 5 11 14l112 103q6 5 10 7.5t10 2.5t10.5 -2.5t9.5 -7.5
l112 -103q11 -9 11 -14q0 -3 -3 -7l-4 -6q-1 -2 -2 -3q-2 -2 -5 -2t-7 2.5t-10 6.5l-112 73l-112 -73q-6 -4 -10 -6.5t-7 -2.5q-4 0 -7 5l-4 6q-3 4 -3 7z" />
    <glyph glyph-name="Ydieresis" unicode="&#x178;" horiz-adv-x="483" 
d="M10 692q0 8 10 8h33q7 0 12 -10l177 -343l178 345q5 8 11 8h33q9 0 9 -8q0 -4 -3 -11l-203 -383v-285q0 -7 -3 -10t-12 -3h-20q-9 0 -12 3t-3 10v285l-203 383q-4 7 -4 11zM337 830q0 -16 -10.5 -26.5t-25.5 -10.5q-17 0 -27.5 10.5t-10.5 26.5q0 17 10.5 26.5t27.5 9.5
q14 0 25 -10t11 -26zM219 830q0 -16 -10.5 -26.5t-25.5 -10.5q-17 0 -27 10.5t-10 26.5q0 17 10 26.5t27 9.5q14 0 25 -10t11 -26z" />
    <glyph glyph-name="Zacute" unicode="&#x179;" horiz-adv-x="516" 
d="M59 656q-7 0 -10 2.5t-3 12.5v14q0 9 3 12t10 3h421q11 0 11 -9q0 -4 -4 -11l-389 -636h373q7 0 10 -3t3 -13v-13q0 -9 -3 -12t-10 -3h-435q-6 0 -8.5 3.5t-2.5 5.5t0.5 4t2.5 6l387 637h-356v0zM240 784q-13 -8 -15 -8q-3 0 -8 5l-6 7q-3 4 -3 7q0 5 11 14l137 118
q10 9 20 9q6 0 9 -2t7 -7l11 -15q5 -6 5 -13q0 -11 -15 -20z" />
    <glyph glyph-name="zacute" unicode="&#x17a;" horiz-adv-x="375" 
d="M332 464q13 0 13 -10q0 -3 -2 -7l-238 -403h224q8 0 11 -3t3 -13v-13q0 -9 -3 -12t-11 -3h-288q-11 0 -11 7q0 2 1 4l2 4l239 405h-221q-7 0 -10 3t-3 12v13q0 10 3 13t10 3h281v0zM175 548q-13 -8 -15 -8q-3 0 -8 5l-6 7q-3 4 -3 7q0 5 11 14l137 118q10 9 20 9
q6 0 9 -2t7 -7l11 -15q5 -6 5 -13q0 -11 -15 -20z" />
    <glyph glyph-name="Zdotaccent" unicode="&#x17b;" horiz-adv-x="516" 
d="M59 656q-7 0 -10 2.5t-3 12.5v14q0 9 3 12t10 3h421q11 0 11 -9q0 -4 -4 -11l-389 -636h373q7 0 10 -3t3 -13v-13q0 -9 -3 -12t-10 -3h-435q-6 0 -8.5 3.5t-2.5 5.5t0.5 4t2.5 6l387 637h-356v0zM305 831q0 -20 -14 -33t-32 -13q-21 0 -34.5 13t-13.5 33q0 21 13.5 33
t34.5 12q17 0 31.5 -12.5t14.5 -32.5z" />
    <glyph glyph-name="zdotaccent" unicode="&#x17c;" horiz-adv-x="375" 
d="M332 464q13 0 13 -10q0 -3 -2 -7l-238 -403h224q8 0 11 -3t3 -13v-13q0 -9 -3 -12t-11 -3h-288q-11 0 -11 7q0 2 1 4l2 4l239 405h-221q-7 0 -10 3t-3 12v13q0 10 3 13t10 3h281v0zM234 595q0 -20 -14 -33t-32 -13q-21 0 -34.5 13t-13.5 33q0 21 13.5 33t34.5 12
q17 0 31.5 -12.5t14.5 -32.5z" />
    <glyph glyph-name="Zcaron" unicode="&#x17d;" horiz-adv-x="516" 
d="M59 656q-7 0 -10 2.5t-3 12.5v14q0 9 3 12t10 3h421q11 0 11 -9q0 -4 -4 -11l-389 -636h373q7 0 10 -3t3 -13v-13q0 -9 -3 -12t-10 -3h-435q-6 0 -8.5 3.5t-2.5 5.5t0.5 4t2.5 6l387 637h-356v0zM421 904q0 -5 -11 -14l-112 -103q-6 -5 -10 -7.5t-10 -2.5t-10.5 2.5
t-9.5 7.5l-112 103q-11 9 -11 14q0 2 3 7l4 6l2 2q3 3 5 3q3 0 7 -2.5t10 -6.5l112 -73l112 73q6 4 10 6.5t7 2.5q4 0 7 -5l4 -6q3 -5 3 -7z" />
    <glyph glyph-name="zcaron" unicode="&#x17e;" horiz-adv-x="375" 
d="M332 464q13 0 13 -10q0 -3 -2 -7l-238 -403h224q8 0 11 -3t3 -13v-13q0 -9 -3 -12t-11 -3h-288q-11 0 -11 7q0 2 1 4l2 4l239 405h-221q-7 0 -10 3t-3 12v13q0 10 3 13t10 3h281v0zM345 668q0 -5 -11 -14l-112 -103q-6 -5 -10 -7.5t-10 -2.5t-10.5 2.5t-9.5 7.5l-112 103
q-11 9 -11 14q0 2 3 7l4 6l2 2q3 3 5 3q3 0 7 -2.5t10 -6.5l112 -73l112 73q6 4 10 6.5t7 2.5q4 0 7 -5l4 -6q3 -5 3 -7z" />
    <glyph glyph-name="Acaron" unicode="&#x1cd;" horiz-adv-x="550" 
d="M407 258l-132 399l-132 -399h264zM538 13q2 -6 2 -7q0 -6 -11 -6h-26q-8 0 -10 2.5t-5 10.5l-67 201h-293l-66 -201q-2 -7 -4.5 -10t-10.5 -3h-26q-11 0 -11 6q0 1 2 7l221 674q2 7 5 10t11 3h53q7 0 10 -2t6 -11zM418 904q0 -5 -11 -14l-112 -103q-6 -5 -10 -7.5
t-10 -2.5t-10.5 2.5t-9.5 7.5l-112 103q-11 9 -11 14q0 2 3 7l4 6l2 2q3 3 5 3q3 0 7 -2.5t10 -6.5l112 -73l112 73q6 4 10 6.5t7 2.5q4 0 7 -5l4 -6q3 -5 3 -7z" />
    <glyph glyph-name="acaron" unicode="&#x1ce;" horiz-adv-x="506" 
d="M489 35q8 0 9 -12q1 -5 2 -12.5t1 -9.5q0 -3 -11 -6.5t-32 -3.5q-31 0 -49.5 13.5t-27.5 39.5q-4 -5 -16 -14t-30.5 -17.5t-42.5 -15t-53 -6.5q-44 0 -79.5 13t-61 41.5t-39.5 74.5t-14 112q0 70 15 116.5t42 74t65.5 39t85.5 11.5q61 0 106 -15.5t65 -28.5v-334
q0 -28 9 -45t36 -17q8 0 13 1t7 1zM374 401q-17 8 -36 14q-17 5 -38.5 9.5t-45.5 4.5q-36 0 -65 -9t-50 -31.5t-32.5 -60.5t-11.5 -96q0 -55 11 -92.5t30.5 -61t47 -33.5t60.5 -10q32 0 56 9t41 20q19 13 33 30v307zM396 668q0 -5 -11 -14l-112 -103q-6 -5 -10 -7.5
t-10 -2.5t-10.5 2.5t-9.5 7.5l-112 103q-11 9 -11 14q0 2 3 7l4 6l2 2q3 3 5 3q3 0 7 -2.5t10 -6.5l112 -73l112 73q6 4 10 6.5t7 2.5q4 0 7 -5l4 -6q3 -5 3 -7z" />
    <glyph glyph-name="AEacute" unicode="&#x1fc;" horiz-adv-x="848" 
d="M421 650l-219 -392h219v392zM785 700q9 0 11 -4t2 -12v-13q0 -8 -2 -11.5t-11 -3.5h-314v-274h295q9 0 11 -4t2 -12v-13q0 -7 -2 -11t-11 -4h-295v-294h314q9 0 11 -4t2 -12v-13q0 -6 -1.5 -10.5t-11.5 -4.5h-337q-27 0 -27 28v186h-244l-107 -191q-7 -12 -11.5 -17.5
t-12.5 -5.5h-22q-14 0 -14 10q0 6 7 18l359 644q8 14 15 21t21 7h373zM566 784q-13 -8 -15 -8q-3 0 -8 5l-6 7q-3 4 -3 7q0 5 11 14l137 118q10 9 20 9q6 0 9 -2t7 -7l11 -15q5 -6 5 -13q0 -11 -15 -20z" />
    <glyph glyph-name="aeacute" unicode="&#x1fd;" horiz-adv-x="790" 
d="M590 -9q-76 0 -118 20.5t-65 56.5q-8 -11 -22 -24t-34.5 -25t-48 -20t-63.5 -8q-44 0 -79.5 13t-61 41.5t-39.5 74.5t-14 112q0 70 15 116.5t42 74t65.5 39t85.5 11.5q61 0 103 -18.5t68 -38.5q23 25 55.5 41t86.5 16q91 0 135 -55.5t44 -170.5q0 -21 -6.5 -28t-23.5 -7
h-291q0 -69 22.5 -112t80.5 -58q27 -7 67 -7q50 0 79.5 11t36.5 11q8 0 12.5 -13t4.5 -20q0 -6 -12.5 -11.5t-32 -10.5t-44 -8t-48.5 -3zM374 392q-19 10 -38 18q-17 7 -38 13t-44 6q-36 0 -65 -9t-50 -31.5t-32.5 -60.5t-11.5 -96q0 -55 11 -92.5t30.5 -61t47 -33.5
t60.5 -10q32 0 56 9.5t41 21.5q19 13 33 31v295zM695 269q0 33 -6.5 62t-22 50.5t-40 34.5t-60.5 13q-40 0 -67 -13.5t-43.5 -36.5t-24 -55t-7.5 -68h271v13zM407 548q-13 -8 -15 -8q-3 0 -8 5l-6 7q-3 4 -3 7q0 5 11 14l137 118q10 9 20 9q6 0 9 -2t7 -7l11 -15q5 -6 5 -13
q0 -11 -15 -20z" />
    <glyph glyph-name="Oslashacute" unicode="&#x1fe;" horiz-adv-x="613" 
d="M563 350q0 -97 -14 -165.5t-44.5 -111.5t-79.5 -62.5t-119 -19.5q-35 0 -64 5t-53 14l-12 -26q-7 -15 -10.5 -18.5t-12.5 -3.5h-22q-11 0 -11 13q0 2 2.5 8.5t3.5 8.5l19 42q-42 29 -66 95t-29 162q-1 14 -1 28.5v30.5q0 97 14 165.5t44.5 111.5t79 62.5t118.5 19.5
q80 0 131 -26l14 32q6 14 10.5 18.5t12.5 4.5h20q5 0 9.5 -2.5t4.5 -10.5q0 -2 -2 -7.5t-3 -7.5l-24 -55q43 -44 63.5 -116t20.5 -189zM306 665q-62 0 -101.5 -19t-63 -58t-32.5 -98t-9 -140q0 -97 13 -164.5t53 -105.5q29 64 58.5 129t60 133.5t64 142t69.5 155.5
q-44 25 -112 25zM513 350q0 89 -11.5 153.5t-44.5 104.5l-249 -555q39 -18 98 -18q63 0 103.5 20t63.5 60t31.5 98.5t8.5 136.5zM288 784q-13 -8 -15 -8q-3 0 -8 5l-6 7q-3 4 -3 7q0 5 11 14l137 118q10 9 20 9q6 0 9 -2t7 -7l11 -15q5 -6 5 -13q0 -11 -15 -20z" />
    <glyph glyph-name="oslashacute" unicode="&#x1ff;" horiz-adv-x="496" 
d="M130 18q-43 26 -64 77.5t-21 136.5q0 130 50.5 185.5t152.5 55.5q22 0 41.5 -2.5t36.5 -7.5l9 20q6 14 10 21t12 7h23q14 0 14 -13q0 -5 -8.5 -23.5t-14.5 -31.5q80 -51 80 -211q0 -65 -12.5 -111t-38 -75t-63.5 -42t-89 -13q-39 0 -73 8q-11 -26 -16 -35.5t-13 -9.5h-23
q-7 0 -10.5 2.5t-3.5 10.5q0 2 2 7.5t3 7.5zM308 422q-7 1 -17 3q-8 2 -19 3t-24 1q-47 0 -76.5 -13.5t-46.5 -39t-23.5 -62t-6.5 -82.5q0 -70 14.5 -111.5t39.5 -58.5zM401 232q0 65 -12 105.5t-37 61.5l-158 -358q6 -2 14 -3q13 -3 40 -3q38 0 66.5 9.5t48 32t29 60.5
t9.5 95zM230 548q-13 -8 -15 -8q-3 0 -8 5l-6 7q-3 4 -3 7q0 5 11 14l137 118q10 9 20 9q6 0 9 -2t7 -7l11 -15q5 -6 5 -13q0 -11 -15 -20z" />
    <glyph glyph-name="Scommaaccent" unicode="&#x218;" horiz-adv-x="459" 
d="M54 73q4 0 16 -6t30.5 -13t42.5 -13t52 -6q52 0 86.5 12t55 31.5t29 43.5t8.5 48q0 19 -7 38.5t-26.5 41t-53.5 47t-88 57.5q-71 42 -114 88t-43 108q0 73 50 116t152 43q36 0 62.5 -5t44 -11.5t26.5 -12t9 -6.5q0 -2 -2.5 -8t-6 -12t-7 -11t-5.5 -5q-3 0 -11.5 4
t-23.5 9.5t-36.5 9.5t-50.5 4q-43 0 -72 -8.5t-46.5 -24t-25 -36.5t-7.5 -46q0 -41 33.5 -80t114.5 -88q40 -25 74 -48.5t58.5 -48t38 -52.5t13.5 -63q0 -41 -16 -74.5t-46 -56.5t-72.5 -35.5t-94.5 -12.5q-37 0 -66.5 6.5t-50.5 15t-32 16t-11 9.5t2 8t5 12t6.5 10.5
t5.5 4.5zM179 -91q0 18 12.5 30t29.5 12q19 0 30.5 -12t11.5 -30q0 -26 -14 -61.5t-46 -62.5q-12 -11 -22 -15.5t-14 -4.5q-6 0 -10 11q9 6 18.5 16.5t16.5 23t11.5 26t4.5 24.5q0 1 -4.5 4t-10 7.5t-10 12t-4.5 19.5z" />
    <glyph glyph-name="scommaaccent" unicode="&#x219;" horiz-adv-x="338" 
d="M142 -9q-17 0 -36 2.5t-34.5 6.5t-26 9t-10.5 10q0 7 5 20t10 13q9 0 32.5 -8.5t59.5 -8.5q49 0 80 17.5t31 61.5q0 18 -6 32t-19.5 26.5t-37 26.5t-57.5 32q-16 8 -33 19t-30.5 26t-22 34.5t-8.5 45.5q0 50 34.5 83.5t112.5 33.5q16 0 34.5 -1.5t34.5 -4.5t26 -7.5
t10 -10.5q0 -2 -1 -7t-3 -10.5t-5 -10t-7 -4.5q-8 0 -31.5 6t-56.5 6q-29 0 -48 -6t-30 -16t-15.5 -22.5t-4.5 -25.5q0 -18 4.5 -31t17 -25.5t34.5 -26t56 -31.5q48 -26 75 -54t27 -70q0 -24 -7 -47.5t-25 -41.5t-49.5 -29.5t-79.5 -11.5zM138 -91q0 18 12.5 30t29.5 12
q19 0 30.5 -12t11.5 -30q0 -26 -14 -61.5t-46 -62.5q-12 -11 -22 -15.5t-14 -4.5q-6 0 -10 11q9 6 18.5 16.5t16.5 23t11.5 26t4.5 24.5q0 1 -4.5 4t-10 7.5t-10 12t-4.5 19.5z" />
    <glyph glyph-name="dotlessj" unicode="&#x237;" horiz-adv-x="231" 
d="M43 -174q47 0 64 30.5t17 105.5v458h-105q-8 0 -11 3t-3 12v13q0 10 3 13t11 3h140q9 0 12 -3t3 -11v-490q0 -37 -4.5 -69.5t-18 -56.5t-39 -38t-66.5 -14q-28 0 -34.5 3.5t-6.5 12.5v14q0 7 2 11t10 4q5 0 13 -0.5t13 -0.5z" />
    <glyph glyph-name="circumflex" unicode="&#x2c6;" horiz-adv-x="386" 
d="M50 559q0 5 11 14l112 103q6 5 10 7.5t10 2.5t10.5 -2.5t9.5 -7.5l112 -103q11 -9 11 -14q0 -3 -3 -7l-4 -6q-1 -2 -2 -3q-2 -2 -5 -2t-7 2.5t-10 6.5l-112 73l-112 -73q-6 -4 -10 -6.5t-7 -2.5q-4 0 -7 5l-4 6q-3 4 -3 7z" />
    <glyph glyph-name="caron" unicode="&#x2c7;" horiz-adv-x="386" 
d="M336 668q0 -5 -11 -14l-112 -103q-6 -5 -10 -7.5t-10 -2.5t-10.5 2.5t-9.5 7.5l-112 103q-11 9 -11 14q0 2 3 7l4 6l2 2q3 3 5 3q3 0 7 -2.5t10 -6.5l112 -73l112 73q6 4 10 6.5t7 2.5q4 0 7 -5l4 -6q3 -5 3 -7z" />
    <glyph glyph-name="breve" unicode="&#x2d8;" horiz-adv-x="292" 
d="M242 648q0 -23 -8.5 -39t-22 -27t-30.5 -16t-34 -5q-39 0 -68 21t-29 66h30q7 -20 21 -33t45 -13q29 0 44.5 13t22.5 33h29z" />
    <glyph glyph-name="dotaccent" unicode="&#x2d9;" horiz-adv-x="194" 
d="M144 595q0 -20 -14 -33t-32 -13q-21 0 -34.5 13t-13.5 33q0 21 13.5 33t34.5 12q17 0 31.5 -12.5t14.5 -32.5z" />
    <glyph glyph-name="ring" unicode="&#x2da;" horiz-adv-x="272" 
d="M222 624q0 -35 -25.5 -60t-60.5 -25q-38 0 -62 25t-24 60q0 38 24 61.5t62 23.5q16 0 31.5 -6.5t27.5 -18t19.5 -27t7.5 -33.5zM186 624q0 21 -15.5 36.5t-35.5 15.5q-22 0 -35.5 -14.5t-13.5 -37.5q0 -20 13.5 -36t35.5 -16q21 0 36 16t15 36z" />
    <glyph glyph-name="ogonek" unicode="&#x2db;" horiz-adv-x="249" 
d="M199 -160q0 -8 -20.5 -14t-42.5 -6q-46 0 -66 22t-20 51q0 19 7.5 35t19 29t25.5 23.5t28 19.5h35q-65 -57 -65 -104q0 -20 14.5 -32t36.5 -12q17 0 25.5 3t12.5 3t7 -3.5t3 -14.5z" />
    <glyph glyph-name="tilde" unicode="&#x2dc;" horiz-adv-x="420" 
d="M134 576q-21 0 -37 -7t-31 -7q-10 0 -12 6q-1 2 -2 5q-2 6 -2 8q0 5 9.5 12t24 13.5t32.5 11t35 4.5q23 0 39.5 -4.5t31 -10t30 -10t36.5 -4.5q25 0 38.5 7t27.5 7q9 0 12 -6q1 -2 2 -5q2 -6 2 -8q0 -5 -9 -12t-23.5 -13t-32 -10.5t-33.5 -4.5q-24 0 -41 4.5t-31.5 9.5
t-29.5 9.5t-36 4.5z" />
    <glyph glyph-name="hungarumlaut" unicode="&#x2dd;" horiz-adv-x="395" 
d="M89 526q-4 -4 -6.5 -8t-7.5 -4q-6 0 -10 2l-10 6q-5 4 -5 9q0 3 5 13l85 159q4 7 8.5 12t12.5 5q6 0 13 -5l19 -12q4 -2 7 -6t3 -10q0 -10 -8 -19zM231 526q-4 -4 -7 -8t-7 -4q-6 0 -10 2l-10 6q-5 4 -5 9q0 3 5 13l85 159q4 7 8.5 12t12.5 5q5 0 13 -5l19 -12q4 -2 7 -6
t3 -10q0 -10 -8 -19z" />
    <glyph glyph-name="Delta" unicode="&#x394;" horiz-adv-x="3511" 
d="M1230 408q20 18 46 32q23 12 56 22.5t75 10.5q50 0 65 -6t15 -16l-9 -58q-2 -13 -7.5 -16.5t-13.5 -3.5q-2 0 -11.5 0.5t-14.5 0.5q-22 0 -38 -4t-27 -9q-13 -5 -22 -12v-321q0 -28 -29 -28h-55q-30 0 -30 28v380zM288 28q0 -28 -25 -28h-60q-28 0 -28 28v343h-47
q-28 0 -28 29v37q0 12 6.5 19.5t21.5 7.5h47q0 73 8 114.5t27 67.5q26 35 65.5 49t78.5 14q49 0 73 -5t24 -22l-4 -47q-1 -12 -6 -15.5t-13 -3.5q-3 0 -9 0.5t-13.5 0.5t-15 0.5t-12.5 0.5q-48 0 -69 -27t-21 -88v-39h111q28 0 28 -27v-40q0 -26 -28 -26h-111v-343zM930 408
q20 18 46 32q23 12 56 22.5t75 10.5q50 0 65 -6t15 -16l-9 -58q-2 -13 -7.5 -16.5t-13.5 -3.5q-2 0 -11.5 0.5t-14.5 0.5q-22 0 -38 -4t-27 -9q-13 -5 -22 -12v-321q0 -28 -28 -28h-56q-30 0 -30 28v380zM738 279q0 102 -86 102q-44 0 -69.5 -24.5t-25.5 -89.5h181v12z
M557 186q0 -25 5 -44.5t19 -33t38.5 -20.5t62.5 -7q29 0 49.5 3t34.5 7t23 7t15 3q12 0 16 -11l12 -38l2 -6t1 -5q0 -12 -15.5 -21t-39 -15.5t-50.5 -10t-51 -3.5q-68 0 -114 15t-74 45t-40 75t-12 106q0 62 15.5 107.5t43.5 75t66.5 44t85.5 14.5q105 0 153 -58t48 -165
q0 -35 -8.5 -49.5t-31.5 -14.5h-254zM2960 365q-10 4 -23 8q-11 3 -26.5 5.5t-35.5 2.5q-34 0 -53.5 -9.5t-30 -28.5t-13.5 -48t-3 -68q0 -31 3 -57.5t12.5 -46t27.5 -31t47 -11.5q32 0 50.5 7.5t28.5 17.5q11 11 16 25v234zM3072 123q0 -21 8 -32t28 -11q5 0 10 0.5t8 0.5
q18 0 21 -18l5 -35t1 -9q0 -9 -13.5 -18.5t-56.5 -9.5q-29 0 -46.5 9.5t-27.5 21.5q-11 14 -16 32q-11 -18 -29 -32q-16 -12 -42 -21.5t-67 -9.5q-105 0 -151.5 60t-46.5 176q0 125 53 185.5t163 60.5q49 0 85.5 -8t62.5 -17q29 -11 51 -25v-300zM3385 81q26 0 26 -62
q0 -15 -19.5 -21.5t-54.5 -6.5q-48 0 -76.5 14.5t-43.5 39t-19.5 58t-4.5 72.5v482q0 25 23 32q25 7 39.5 11.5t22 6l10 2t4.5 0.5q8 0 10.5 -4.5t2.5 -17.5v-512q0 -46 9.5 -70.5t47.5 -24.5q14 0 17 0.5t6 0.5zM1619 232q0 -44 5 -73t17 -46.5t31.5 -24.5t48.5 -7t48.5 7
t31 24.5t16.5 46.5t5 73q0 43 -5 71.5t-16.5 46t-31 24.5t-48.5 7t-48.5 -7t-31.5 -24.5t-17 -46t-5 -71.5zM1502 232q0 66 14 111.5t42 74.5t68.5 42t94.5 13q108 0 163 -55t55 -186q0 -66 -13.5 -111.5t-40.5 -74.5t-68 -42t-96 -13q-109 0 -164 55t-55 186zM2567 28
q0 -28 -28 -28h-56q-30 0 -30 28v407q0 29 30 29h56q28 0 28 -29v-407zM2578 595q0 -28 -20 -47.5t-47 -19.5q-31 0 -49.5 19.5t-18.5 47.5q0 31 18.5 49t49.5 18q26 0 46.5 -19t20.5 -48zM2288 446q4 12 13.5 15t15.5 3h65q8 0 13.5 -4.5t5.5 -12.5q0 -1 -0.5 -4t-1.5 -8
l-162 -412q-6 -16 -12.5 -19.5t-21.5 -3.5h-45q-12 0 -20.5 3.5t-14.5 19.5l-161 412q-1 5 -1 7v4q0 18 21 18h69q27 0 35 -23l99 -297z" />
    <glyph glyph-name="Delta" unicode="&#x2206;" horiz-adv-x="3511" 
d="M1230 408q20 18 46 32q23 12 56 22.5t75 10.5q50 0 65 -6t15 -16l-9 -58q-2 -13 -7.5 -16.5t-13.5 -3.5q-2 0 -11.5 0.5t-14.5 0.5q-22 0 -38 -4t-27 -9q-13 -5 -22 -12v-321q0 -28 -29 -28h-55q-30 0 -30 28v380zM288 28q0 -28 -25 -28h-60q-28 0 -28 28v343h-47
q-28 0 -28 29v37q0 12 6.5 19.5t21.5 7.5h47q0 73 8 114.5t27 67.5q26 35 65.5 49t78.5 14q49 0 73 -5t24 -22l-4 -47q-1 -12 -6 -15.5t-13 -3.5q-3 0 -9 0.5t-13.5 0.5t-15 0.5t-12.5 0.5q-48 0 -69 -27t-21 -88v-39h111q28 0 28 -27v-40q0 -26 -28 -26h-111v-343zM930 408
q20 18 46 32q23 12 56 22.5t75 10.5q50 0 65 -6t15 -16l-9 -58q-2 -13 -7.5 -16.5t-13.5 -3.5q-2 0 -11.5 0.5t-14.5 0.5q-22 0 -38 -4t-27 -9q-13 -5 -22 -12v-321q0 -28 -28 -28h-56q-30 0 -30 28v380zM738 279q0 102 -86 102q-44 0 -69.5 -24.5t-25.5 -89.5h181v12z
M557 186q0 -25 5 -44.5t19 -33t38.5 -20.5t62.5 -7q29 0 49.5 3t34.5 7t23 7t15 3q12 0 16 -11l12 -38l2 -6t1 -5q0 -12 -15.5 -21t-39 -15.5t-50.5 -10t-51 -3.5q-68 0 -114 15t-74 45t-40 75t-12 106q0 62 15.5 107.5t43.5 75t66.5 44t85.5 14.5q105 0 153 -58t48 -165
q0 -35 -8.5 -49.5t-31.5 -14.5h-254zM2960 365q-10 4 -23 8q-11 3 -26.5 5.5t-35.5 2.5q-34 0 -53.5 -9.5t-30 -28.5t-13.5 -48t-3 -68q0 -31 3 -57.5t12.5 -46t27.5 -31t47 -11.5q32 0 50.5 7.5t28.5 17.5q11 11 16 25v234zM3072 123q0 -21 8 -32t28 -11q5 0 10 0.5t8 0.5
q18 0 21 -18l5 -35t1 -9q0 -9 -13.5 -18.5t-56.5 -9.5q-29 0 -46.5 9.5t-27.5 21.5q-11 14 -16 32q-11 -18 -29 -32q-16 -12 -42 -21.5t-67 -9.5q-105 0 -151.5 60t-46.5 176q0 125 53 185.5t163 60.5q49 0 85.5 -8t62.5 -17q29 -11 51 -25v-300zM3385 81q26 0 26 -62
q0 -15 -19.5 -21.5t-54.5 -6.5q-48 0 -76.5 14.5t-43.5 39t-19.5 58t-4.5 72.5v482q0 25 23 32q25 7 39.5 11.5t22 6l10 2t4.5 0.5q8 0 10.5 -4.5t2.5 -17.5v-512q0 -46 9.5 -70.5t47.5 -24.5q14 0 17 0.5t6 0.5zM1619 232q0 -44 5 -73t17 -46.5t31.5 -24.5t48.5 -7t48.5 7
t31 24.5t16.5 46.5t5 73q0 43 -5 71.5t-16.5 46t-31 24.5t-48.5 7t-48.5 -7t-31.5 -24.5t-17 -46t-5 -71.5zM1502 232q0 66 14 111.5t42 74.5t68.5 42t94.5 13q108 0 163 -55t55 -186q0 -66 -13.5 -111.5t-40.5 -74.5t-68 -42t-96 -13q-109 0 -164 55t-55 186zM2567 28
q0 -28 -28 -28h-56q-30 0 -30 28v407q0 29 30 29h56q28 0 28 -29v-407zM2578 595q0 -28 -20 -47.5t-47 -19.5q-31 0 -49.5 19.5t-18.5 47.5q0 31 18.5 49t49.5 18q26 0 46.5 -19t20.5 -48zM2288 446q4 12 13.5 15t15.5 3h65q8 0 13.5 -4.5t5.5 -12.5q0 -1 -0.5 -4t-1.5 -8
l-162 -412q-6 -16 -12.5 -19.5t-21.5 -3.5h-45q-12 0 -20.5 3.5t-14.5 19.5l-161 412q-1 5 -1 7v4q0 18 21 18h69q27 0 35 -23l99 -297z" />
    <glyph glyph-name="pi" unicode="&#x3c0;" horiz-adv-x="3511" 
d="M1230 408q20 18 46 32q23 12 56 22.5t75 10.5q50 0 65 -6t15 -16l-9 -58q-2 -13 -7.5 -16.5t-13.5 -3.5q-2 0 -11.5 0.5t-14.5 0.5q-22 0 -38 -4t-27 -9q-13 -5 -22 -12v-321q0 -28 -29 -28h-55q-30 0 -30 28v380zM288 28q0 -28 -25 -28h-60q-28 0 -28 28v343h-47
q-28 0 -28 29v37q0 12 6.5 19.5t21.5 7.5h47q0 73 8 114.5t27 67.5q26 35 65.5 49t78.5 14q49 0 73 -5t24 -22l-4 -47q-1 -12 -6 -15.5t-13 -3.5q-3 0 -9 0.5t-13.5 0.5t-15 0.5t-12.5 0.5q-48 0 -69 -27t-21 -88v-39h111q28 0 28 -27v-40q0 -26 -28 -26h-111v-343zM930 408
q20 18 46 32q23 12 56 22.5t75 10.5q50 0 65 -6t15 -16l-9 -58q-2 -13 -7.5 -16.5t-13.5 -3.5q-2 0 -11.5 0.5t-14.5 0.5q-22 0 -38 -4t-27 -9q-13 -5 -22 -12v-321q0 -28 -28 -28h-56q-30 0 -30 28v380zM738 279q0 102 -86 102q-44 0 -69.5 -24.5t-25.5 -89.5h181v12z
M557 186q0 -25 5 -44.5t19 -33t38.5 -20.5t62.5 -7q29 0 49.5 3t34.5 7t23 7t15 3q12 0 16 -11l12 -38l2 -6t1 -5q0 -12 -15.5 -21t-39 -15.5t-50.5 -10t-51 -3.5q-68 0 -114 15t-74 45t-40 75t-12 106q0 62 15.5 107.5t43.5 75t66.5 44t85.5 14.5q105 0 153 -58t48 -165
q0 -35 -8.5 -49.5t-31.5 -14.5h-254zM2960 365q-10 4 -23 8q-11 3 -26.5 5.5t-35.5 2.5q-34 0 -53.5 -9.5t-30 -28.5t-13.5 -48t-3 -68q0 -31 3 -57.5t12.5 -46t27.5 -31t47 -11.5q32 0 50.5 7.5t28.5 17.5q11 11 16 25v234zM3072 123q0 -21 8 -32t28 -11q5 0 10 0.5t8 0.5
q18 0 21 -18l5 -35t1 -9q0 -9 -13.5 -18.5t-56.5 -9.5q-29 0 -46.5 9.5t-27.5 21.5q-11 14 -16 32q-11 -18 -29 -32q-16 -12 -42 -21.5t-67 -9.5q-105 0 -151.5 60t-46.5 176q0 125 53 185.5t163 60.5q49 0 85.5 -8t62.5 -17q29 -11 51 -25v-300zM3385 81q26 0 26 -62
q0 -15 -19.5 -21.5t-54.5 -6.5q-48 0 -76.5 14.5t-43.5 39t-19.5 58t-4.5 72.5v482q0 25 23 32q25 7 39.5 11.5t22 6l10 2t4.5 0.5q8 0 10.5 -4.5t2.5 -17.5v-512q0 -46 9.5 -70.5t47.5 -24.5q14 0 17 0.5t6 0.5zM1619 232q0 -44 5 -73t17 -46.5t31.5 -24.5t48.5 -7t48.5 7
t31 24.5t16.5 46.5t5 73q0 43 -5 71.5t-16.5 46t-31 24.5t-48.5 7t-48.5 -7t-31.5 -24.5t-17 -46t-5 -71.5zM1502 232q0 66 14 111.5t42 74.5t68.5 42t94.5 13q108 0 163 -55t55 -186q0 -66 -13.5 -111.5t-40.5 -74.5t-68 -42t-96 -13q-109 0 -164 55t-55 186zM2567 28
q0 -28 -28 -28h-56q-30 0 -30 28v407q0 29 30 29h56q28 0 28 -29v-407zM2578 595q0 -28 -20 -47.5t-47 -19.5q-31 0 -49.5 19.5t-18.5 47.5q0 31 18.5 49t49.5 18q26 0 46.5 -19t20.5 -48zM2288 446q4 12 13.5 15t15.5 3h65q8 0 13.5 -4.5t5.5 -12.5q0 -1 -0.5 -4t-1.5 -8
l-162 -412q-6 -16 -12.5 -19.5t-21.5 -3.5h-45q-12 0 -20.5 3.5t-14.5 19.5l-161 412q-1 5 -1 7v4q0 18 21 18h69q27 0 35 -23l99 -297z" />
    <glyph glyph-name="Wgrave" unicode="&#x1e80;" horiz-adv-x="836" 
d="M607 41q30 121 53.5 213t40.5 160.5t28.5 115.5t19.5 77l20 81q2 5 3 8.5t8 3.5h32q9 0 9 -5l-2 -8l-170 -674q-2 -7 -4.5 -10t-10.5 -3h-53q-8 0 -10.5 3t-4.5 10l-148 595l-148 -595q-2 -7 -4.5 -10t-10.5 -3h-52q-8 0 -10.5 3t-4.5 10l-171 674l-2 8q0 5 9 5h32
q8 0 9 -4t3 -9l161 -646l162 646q2 6 3.5 9.5t8.5 3.5h31q8 0 11 -13l162 -646v0zM283 879q-15 9 -15 20q0 7 5 13l11 15q4 5 7 7t9 2t10.5 -2t9.5 -7l137 -118q11 -9 11 -14q0 -3 -3 -7l-6 -7q-5 -5 -7 -5q-3 0 -16 8z" />
    <glyph glyph-name="wgrave" unicode="&#x1e81;" horiz-adv-x="622" 
d="M205 13q-2 -6 -4 -9.5t-12 -3.5h-33q-9 0 -11 3.5t-4 9.5l-129 434q-2 6 -2 9q0 8 13 8h25q9 0 11 -3.5t4 -10.5l110 -395l115 404q2 5 8 5h28q9 0 10 -5l116 -404l110 395q2 7 4 10.5t11 3.5h25q12 0 12 -8q0 -3 -2 -9l-128 -434q-2 -6 -4 -9.5t-11 -3.5h-35
q-9 0 -11 3.5t-4 9.5l-106 364l-106 -364v0zM176 643q-15 9 -15 20q0 7 5 13l11 15q4 5 7 7t9 2t10.5 -2t9.5 -7l137 -118q11 -9 11 -14q0 -3 -3 -7l-6 -7q-5 -5 -7 -5q-3 0 -16 8z" />
    <glyph glyph-name="Wacute" unicode="&#x1e82;" horiz-adv-x="836" 
d="M607 41q30 121 53.5 213t40.5 160.5t28.5 115.5t19.5 77l20 81q2 5 3 8.5t8 3.5h32q9 0 9 -5l-2 -8l-170 -674q-2 -7 -4.5 -10t-10.5 -3h-53q-8 0 -10.5 3t-4.5 10l-148 595l-148 -595q-2 -7 -4.5 -10t-10.5 -3h-52q-8 0 -10.5 3t-4.5 10l-171 674l-2 8q0 5 9 5h32
q8 0 9 -4t3 -9l161 -646l162 646q2 6 3.5 9.5t8.5 3.5h31q8 0 11 -13l162 -646v0zM390 784q-13 -8 -15 -8q-3 0 -8 5l-6 7q-3 4 -3 7q0 5 11 14l137 118q10 9 20 9q6 0 9 -2t7 -7l11 -15q5 -6 5 -13q0 -11 -15 -20z" />
    <glyph glyph-name="wacute" unicode="&#x1e83;" horiz-adv-x="622" 
d="M205 13q-2 -6 -4 -9.5t-12 -3.5h-33q-9 0 -11 3.5t-4 9.5l-129 434q-2 6 -2 9q0 8 13 8h25q9 0 11 -3.5t4 -10.5l110 -395l115 404q2 5 8 5h28q9 0 10 -5l116 -404l110 395q2 7 4 10.5t11 3.5h25q12 0 12 -8q0 -3 -2 -9l-128 -434q-2 -6 -4 -9.5t-11 -3.5h-35
q-9 0 -11 3.5t-4 9.5l-106 364l-106 -364v0zM283 548q-13 -8 -15 -8q-3 0 -8 5l-6 7q-3 4 -3 7q0 5 11 14l137 118q10 9 20 9q6 0 9 -2t7 -7l11 -15q5 -6 5 -13q0 -11 -15 -20z" />
    <glyph glyph-name="Wdieresis" unicode="&#x1e84;" horiz-adv-x="836" 
d="M607 41q30 121 53.5 213t40.5 160.5t28.5 115.5t19.5 77l20 81q2 5 3 8.5t8 3.5h32q9 0 9 -5l-2 -8l-170 -674q-2 -7 -4.5 -10t-10.5 -3h-53q-8 0 -10.5 3t-4.5 10l-148 595l-148 -595q-2 -7 -4.5 -10t-10.5 -3h-52q-8 0 -10.5 3t-4.5 10l-171 674l-2 8q0 5 9 5h32
q8 0 9 -4t3 -9l161 -646l162 646q2 6 3.5 9.5t8.5 3.5h31q8 0 11 -13l162 -646v0zM513 830q0 -16 -10.5 -26.5t-25.5 -10.5q-17 0 -27.5 10.5t-10.5 26.5q0 17 10.5 26.5t27.5 9.5q14 0 25 -10t11 -26zM395 830q0 -16 -10.5 -26.5t-25.5 -10.5q-17 0 -27 10.5t-10 26.5
q0 17 10 26.5t27 9.5q14 0 25 -10t11 -26z" />
    <glyph glyph-name="wdieresis" unicode="&#x1e85;" horiz-adv-x="622" 
d="M205 13q-2 -6 -4 -9.5t-12 -3.5h-33q-9 0 -11 3.5t-4 9.5l-129 434q-2 6 -2 9q0 8 13 8h25q9 0 11 -3.5t4 -10.5l110 -395l115 404q2 5 8 5h28q9 0 10 -5l116 -404l110 395q2 7 4 10.5t11 3.5h25q12 0 12 -8q0 -3 -2 -9l-128 -434q-2 -6 -4 -9.5t-11 -3.5h-35
q-9 0 -11 3.5t-4 9.5l-106 364l-106 -364v0zM406 594q0 -16 -10.5 -26.5t-25.5 -10.5q-17 0 -27.5 10.5t-10.5 26.5q0 17 10.5 26.5t27.5 9.5q14 0 25 -10t11 -26zM288 594q0 -16 -10.5 -26.5t-25.5 -10.5q-17 0 -27 10.5t-10 26.5q0 17 10 26.5t27 9.5q14 0 25 -10t11 -26z
" />
    <glyph glyph-name="Ygrave" unicode="&#x1ef2;" horiz-adv-x="483" 
d="M10 692q0 8 10 8h33q7 0 12 -10l177 -343l178 345q5 8 11 8h33q9 0 9 -8q0 -4 -3 -11l-203 -383v-285q0 -7 -3 -10t-12 -3h-20q-9 0 -12 3t-3 10v285l-203 383q-4 7 -4 11zM86 879q-15 9 -15 20q0 7 5 13l11 15q4 5 7 7t9 2t10.5 -2t9.5 -7l137 -118q11 -9 11 -14
q0 -3 -3 -7l-6 -7q-5 -5 -7 -5q-3 0 -16 8z" />
    <glyph glyph-name="ygrave" unicode="&#x1ef3;" horiz-adv-x="397" 
d="M156 -170l-4.5 -10.5t-10.5 -3.5h-21q-13 0 -13 8q0 4 1 6l66 177l-167 440q-2 4 -2 8q0 9 13 9h25q8 0 10 -3t5 -11l141 -382l141 382q2 7 4.5 10.5t10.5 3.5h24q13 0 13 -9q0 -4 -2 -8l-234 -617v0zM43 643q-15 9 -15 20q0 7 5 13l11 15q4 5 7 7t9 2t10.5 -2t9.5 -7
l137 -118q11 -9 11 -14q0 -3 -3 -7l-6 -7q-5 -5 -7 -5q-3 0 -16 8z" />
    <glyph glyph-name="endash" unicode="&#x2013;" horiz-adv-x="540" 
d="M456 300q9 0 11.5 -3t2.5 -11v-16q0 -8 -2.5 -11t-11.5 -3h-372q-9 0 -11.5 3t-2.5 11v16q0 8 2.5 11t11.5 3h372z" />
    <glyph glyph-name="emdash" unicode="&#x2014;" horiz-adv-x="730" 
d="M646 300q9 0 11.5 -3t2.5 -11v-16q0 -8 -2.5 -11t-11.5 -3h-562q-9 0 -11.5 3t-2.5 11v16q0 8 2.5 11t11.5 3h562z" />
    <glyph glyph-name="quoteleft" unicode="&#x2018;" horiz-adv-x="243" 
d="M170 536q0 -22 -16 -37.5t-39 -15.5t-39 16t-16 43q0 35 15.5 65.5t34.5 53t36.5 35.5t22.5 13q3 0 7.5 -4.5t6.5 -9.5q-23 -14 -37.5 -43t-14.5 -58q0 -2 6 -6t13.5 -10.5t13.5 -16.5t6 -25z" />
    <glyph glyph-name="quoteright" unicode="&#x2019;" horiz-adv-x="243" 
d="M73 656q0 22 16 37.5t39 15.5t39 -16t16 -43q0 -35 -15.5 -65.5t-34.5 -53t-37 -35.5t-22 -13q-3 0 -7.5 4.5t-6.5 9.5q23 14 37.5 43t14.5 58q0 2 -6 6t-13.5 10.5t-13.5 16.5t-6 25z" />
    <glyph glyph-name="quotesinglbase" unicode="&#x201a;" horiz-adv-x="228" 
d="M58 54q0 23 16 39t39 16t39 -16t16 -39q0 -42 -20 -83t-60 -75q-13 -11 -26 -19.5t-18 -8.5q-3 0 -7.5 6t-6.5 11q12 7 23.5 20t21 28.5t15.5 32t6 31.5q0 2 -6 5.5t-13 10t-13 16.5t-6 25z" />
    <glyph glyph-name="quotedblleft" unicode="&#x201c;" horiz-adv-x="393" 
d="M170 536q0 -22 -16 -37.5t-39 -15.5t-39 16t-16 43q0 35 15.5 65.5t34.5 53t36.5 35.5t22.5 13q3 0 7.5 -4.5t6.5 -9.5q-23 -14 -37.5 -43t-14.5 -58q0 -2 6 -6t13.5 -10.5t13.5 -16.5t6 -25zM320 536q0 -22 -16 -37.5t-39 -15.5t-39 16t-16 43q0 35 15.5 65.5t34.5 53
t36.5 35.5t22.5 13q3 0 7.5 -4.5t6.5 -9.5q-23 -14 -37.5 -43t-14.5 -58q0 -2 6 -6t13.5 -10.5t13.5 -16.5t6 -25z" />
    <glyph glyph-name="quotedblright" unicode="&#x201d;" horiz-adv-x="393" 
d="M223 656q0 22 16 37.5t39 15.5t39 -16t16 -43q0 -35 -15.5 -65.5t-34.5 -53t-37 -35.5t-22 -13q-3 0 -7.5 4.5t-6.5 9.5q23 14 37.5 43t14.5 58q0 2 -6 6t-13.5 10.5t-13.5 16.5t-6 25zM73 656q0 22 16 37.5t39 15.5t39 -16t16 -43q0 -35 -15.5 -65.5t-34.5 -53
t-37 -35.5t-22 -13q-3 0 -7.5 4.5t-6.5 9.5q23 14 37.5 43t14.5 58q0 2 -6 6t-13.5 10.5t-13.5 16.5t-6 25z" />
    <glyph glyph-name="quotedblbase" unicode="&#x201e;" horiz-adv-x="388" 
d="M58 54q0 23 16 39t39 16t39 -16t16 -39q0 -42 -20 -83t-60 -75q-13 -11 -26 -19.5t-18 -8.5q-3 0 -7.5 6t-6.5 11q12 7 23.5 20t21 28.5t15.5 32t6 31.5q0 2 -6 5.5t-13 10t-13 16.5t-6 25zM218 54q0 23 16 39t39 16t39 -16t16 -39q0 -42 -20 -83t-60 -75
q-13 -11 -26 -19.5t-18 -8.5q-3 0 -7.5 6t-6.5 11q12 7 23.5 20t21 28.5t15.5 32t6 31.5q0 2 -6 5.5t-13 10t-13 16.5t-6 25z" />
    <glyph glyph-name="dagger" unicode="&#x2020;" horiz-adv-x="368" 
d="M159 429h-87q-15 0 -18.5 3t-3.5 12v15q0 9 3.5 11.5t18.5 2.5h87v167q0 5 2 9t13 4h20q11 0 13 -4t2 -9v-167h87q15 0 18.5 -2.5t3.5 -11.5v-15q0 -10 -3.5 -12.5t-18.5 -2.5h-87v-467l-7 -146q-1 -14 -3 -19t-10 -5h-10q-8 0 -10 5t-3 19l-7 146v467z" />
    <glyph glyph-name="daggerdbl" unicode="&#x2021;" horiz-adv-x="368" 
d="M159 318v111h-87q-15 0 -18.5 3t-3.5 12v15q0 9 3.5 11.5t18.5 2.5h87v167q0 5 2 9t13 4h20q11 0 13 -4t2 -9v-167h87q15 0 18.5 -2.5t3.5 -11.5v-15q0 -10 -3.5 -12.5t-18.5 -2.5h-87v-111l-13 -97l13 -96v-109h87q15 0 18.5 -2.5t3.5 -12.5v-15q0 -9 -3.5 -11.5
t-18.5 -2.5h-87v-167q0 -5 -2 -9t-13 -4h-20q-11 0 -13 4t-2 9v167h-87q-15 0 -18.5 2.5t-3.5 11.5v15q0 9 3.5 12t18.5 3h87v109l13 96z" />
    <glyph glyph-name="bullet" unicode="&#x2022;" horiz-adv-x="326" 
d="M80 293q0 34 24.5 58.5t58.5 24.5t58.5 -24.5t24.5 -58.5t-24.5 -58t-58.5 -24t-58.5 24t-24.5 58z" />
    <glyph glyph-name="ellipsis" unicode="&#x2026;" horiz-adv-x="684" 
d="M60 45q0 23 15.5 38.5t38.5 15.5t38.5 -15.5t15.5 -38.5t-15.5 -38.5t-38.5 -15.5t-38.5 15.5t-15.5 38.5zM516 45q0 23 15.5 38.5t38.5 15.5t38.5 -15.5t15.5 -38.5t-15.5 -38.5t-38.5 -15.5t-38.5 15.5t-15.5 38.5zM288 45q0 23 15.5 38.5t38.5 15.5t38.5 -15.5
t15.5 -38.5t-15.5 -38.5t-38.5 -15.5t-38.5 15.5t-15.5 38.5z" />
    <glyph glyph-name="perthousand" unicode="&#x2030;" horiz-adv-x="1267" 
d="M322 517q0 43 -6 71.5t-19 46t-34 24.5t-52 7t-52.5 -7t-35 -24.5t-19.5 -46t-6 -71.5q0 -44 6 -73t19.5 -46.5t35 -24.5t52.5 -7t52 7t34 24.5t19 46.5t6 73zM370 517q0 -106 -37 -150t-122 -44q-43 0 -73.5 10.5t-50 33.5t-28.5 60t-9 90q0 105 37.5 148.5t123.5 43.5
q85 0 122 -43.5t37 -148.5zM556 672q6 14 10 21t12 7h23q14 0 14 -13q0 -2 -2 -7.5t-3 -7.5l-284 -644q-6 -14 -10 -21t-12 -7h-23q-5 0 -9.5 2.5t-4.5 10.5q0 2 2 7.5t3 7.5zM784 185q0 43 -6 71.5t-19 46t-34 24.5t-52 7t-52.5 -7t-35 -24.5t-19.5 -46t-6 -71.5
q0 -44 6 -73t19.5 -46.5t35 -24.5t52.5 -7t52 7t34 24.5t19 46.5t6 73zM832 185q0 -106 -37 -150t-122 -44q-43 0 -73.5 10.5t-50 33.5t-28.5 60t-9 90q0 105 37.5 148.5t123.5 43.5q85 0 122 -43.5t37 -148.5zM1169 185q0 43 -6 71.5t-19 46t-34 24.5t-52 7t-52.5 -7
t-35 -24.5t-19.5 -46t-6 -71.5q0 -44 6 -73t19.5 -46.5t35 -24.5t52.5 -7t52 7t34 24.5t19 46.5t6 73zM1217 185q0 -106 -37 -150t-122 -44q-43 0 -73.5 10.5t-50 33.5t-28.5 60t-9 90q0 105 37.5 148.5t123.5 43.5q85 0 122 -43.5t37 -148.5z" />
    <glyph glyph-name="guilsinglleft" unicode="&#x2039;" horiz-adv-x="215" 
d="M35 234q-5 6 -5 14q0 7 5 13l96 136q8 12 12.5 15.5t12.5 3.5l13 -2q6 -1 6 -7q0 -2 -2 -5.5t-5 -9.5l-83 -144l83 -145q2 -4 4.5 -8.5t2.5 -6.5q0 -6 -6 -7l-13 -2q-8 0 -12.5 3.5t-12.5 15.5l-96 136v0z" />
    <glyph glyph-name="guilsinglright" unicode="&#x203a;" horiz-adv-x="215" 
d="M84 98q-8 -12 -12.5 -15.5t-12.5 -3.5l-13 2q-6 1 -6 7q0 2 2.5 6.5t4.5 8.5l83 145l-83 144q-3 6 -5 9.5t-2 5.5q0 6 6 7l13 2q8 0 12.5 -3.5t12.5 -15.5l96 -136q5 -6 5 -13q0 -8 -5 -14z" />
    <glyph glyph-name="fraction" unicode="&#x2044;" horiz-adv-x="368" 
d="M299 672q6 14 10 21t12 7h23q14 0 14 -13q0 -2 -2 -7.5t-3 -7.5l-284 -644q-6 -14 -10 -21t-12 -7h-23q-5 0 -9.5 2.5t-4.5 10.5q0 2 2 7.5t3 7.5z" />
    <glyph glyph-name="Euro" unicode="&#x20ac;" horiz-adv-x="600" 
d="M193 256q5 -60 19 -102.5t39 -68.5t62 -38t88 -12q27 0 48 4t36 9.5t24 9.5t12 4q4 0 11 -13q8 -15 8 -22q0 -2 -10 -8t-28 -12t-44 -11t-57 -5q-62 0 -108 14.5t-77 46.5t-48.5 82t-23.5 122h-70q-9 0 -11.5 3t-2.5 11v16q0 8 2.5 11t11.5 3h67q-1 12 -1 24v26v30t1 29
h-67q-9 0 -11.5 3t-2.5 11v16q0 8 2.5 11t11.5 3h70q7 69 25 117.5t49 79.5t76 45t107 14q32 0 55 -4t38 -8.5t22.5 -8.5t7.5 -5q0 -5 -8 -20q-5 -9 -8 -12t-5 -3q-6 0 -30 8.5t-72 8.5q-51 0 -87.5 -11.5t-61 -37t-38.5 -65.5t-20 -98h237q9 0 11.5 -3t2.5 -11v-16
q0 -8 -2.5 -11t-11.5 -3h-240q-1 -14 -1 -28.5v-30.5v-26t1 -24h240q9 0 11.5 -3t2.5 -11v-16q0 -8 -2.5 -11t-11.5 -3h-238z" />
    <glyph glyph-name="trademark" unicode="&#x2122;" horiz-adv-x="691" 
d="M541 687q9 13 19 13h32q19 0 19 -20v-308q0 -7 -3 -8.5t-7 -1.5h-24q-10 0 -10 10v270l-67 -152q-2 -3 -5 -7t-11 -4h-16q-12 0 -16 11l-65 152v-270q0 -10 -10 -10h-24q-10 0 -10 10v308q0 20 19 20h31q13 0 18 -13l65 -152zM66 660q-11 0 -13.5 2t-2.5 10v17q0 7 2.5 9
t13.5 2h214q10 0 13 -2t3 -9v-17q0 -8 -2 -10t-14 -2h-85v-288q0 -10 -10 -10h-24q-10 0 -10 10v288h-85z" />
    <glyph glyph-name="minus" unicode="&#x2212;" horiz-adv-x="495" 
d="M411 300q9 0 11.5 -3t2.5 -11v-16q0 -8 -2.5 -11t-11.5 -3h-327q-9 0 -11.5 3t-2.5 11v16q0 8 2.5 11t11.5 3h327z" />
    <glyph glyph-name="notequal" unicode="&#x2260;" horiz-adv-x="523" 
d="M273 385l53 121q6 14 10 21t12 7h23q14 0 14 -13q0 -2 -2 -7.5t-3 -7.5l-53 -121h112q9 0 11.5 -3t2.5 -11v-16q0 -8 -2.5 -11t-11.5 -3h-132l-54 -124h186q9 0 11.5 -3t2.5 -11v-16q0 -8 -2.5 -11t-11.5 -3h-206l-53 -122q-6 -14 -10 -21t-12 -7h-23q-5 0 -9.5 2.5
t-4.5 10.5q0 2 2 7.5t3 7.5l53 122h-95q-9 0 -11.5 3t-2.5 11v16q0 8 2.5 11t11.5 3h115l54 124h-169q-9 0 -11.5 3t-2.5 11v16q0 8 2.5 11t11.5 3h189z" />
    <glyph glyph-name="lessequal" unicode="&#x2264;" horiz-adv-x="493" 
d="M78 406q-8 5 -8 10v13q0 5 8 10l254 176q5 4 10 4t10 -8l7 -11q5 -7 5 -9q0 -5 -8 -10l-229 -158l229 -159q8 -5 8 -10q0 -3 -5 -10l-7 -10q-5 -8 -9 -8q-6 0 -11 4zM409 125q9 0 11.5 -3t2.5 -11v-16q0 -8 -2.5 -11t-11.5 -3h-325q-9 0 -11.5 3t-2.5 11v16q0 8 2.5 11
t11.5 3h325z" />
    <glyph glyph-name="greaterequal" unicode="&#x2265;" horiz-adv-x="493" 
d="M161 230q-5 -4 -11 -4q-4 0 -9 8l-7 10q-5 7 -5 10q0 5 8 10l229 159l-229 158q-8 5 -8 10q0 2 5 9l7 11q5 8 10 8t10 -4l254 -176q8 -5 8 -10v-13q0 -5 -8 -10zM409 125q9 0 11.5 -3t2.5 -11v-16q0 -8 -2.5 -11t-11.5 -3h-325q-9 0 -11.5 3t-2.5 11v16q0 8 2.5 11
t11.5 3h325z" />
    <glyph glyph-name="commaaccent" horiz-adv-x="206" 
d="M72 -91q0 18 12.5 30t29.5 12q19 0 30.5 -12t11.5 -30q0 -26 -14 -61.5t-46 -62.5q-12 -11 -22 -15.5t-14 -4.5q-6 0 -10 11q9 6 18.5 16.5t16.5 23t11.5 26t4.5 24.5q0 1 -4.5 4t-10 7.5t-10 12t-4.5 19.5z" />
    <glyph glyph-name="Asmall" horiz-adv-x="444" 
d="M305 191l-84 250l-82 -250h166zM412 17q2 -3 2 -7q0 -10 -15 -10h-19q-8 0 -11 2t-6 11l-45 136h-193l-45 -136q-2 -7 -4.5 -10t-12.5 -3h-18q-7 0 -11 2t-4 10q0 1 0.5 2.5t0.5 2.5l154 470q2 7 5.5 10t13.5 3h37q8 0 11.5 -2t6.5 -11z" />
    <glyph glyph-name="Aacutesmall" horiz-adv-x="444" 
d="M305 191l-84 250l-82 -250h166zM412 17q2 -3 2 -7q0 -10 -15 -10h-19q-8 0 -11 2t-6 11l-45 136h-193l-45 -136q-2 -7 -4.5 -10t-12.5 -3h-18q-7 0 -11 2t-4 10q0 1 0.5 2.5t0.5 2.5l154 470q2 7 5.5 10t13.5 3h37q8 0 11.5 -2t6.5 -11zM177 588q-13 -8 -15 -8q-3 0 -8 5
l-6 7q-3 4 -3 7q0 5 11 14l137 118q10 9 20 9q6 0 9 -2t7 -7l11 -15q5 -6 5 -13q0 -11 -15 -20z" />
    <glyph glyph-name="Abreve.small" horiz-adv-x="444" 
d="M305 191l-84 250l-82 -250h166zM412 17q2 -3 2 -7q0 -10 -15 -10h-19q-8 0 -11 2t-6 11l-45 136h-193l-45 -136q-2 -7 -4.5 -10t-12.5 -3h-18q-7 0 -11 2t-4 10q0 1 0.5 2.5t0.5 2.5l154 470q2 7 5.5 10t13.5 3h37q8 0 11.5 -2t6.5 -11zM318 678q0 -23 -8.5 -39t-22 -27
t-30.5 -16t-34 -5q-39 0 -68 21t-29 66h30q7 -20 21 -33t45 -13q29 0 44.5 13t22.5 33h29z" />
    <glyph glyph-name="Acaron.small" horiz-adv-x="444" 
d="M305 191l-84 250l-82 -250h166zM412 17q2 -3 2 -7q0 -10 -15 -10h-19q-8 0 -11 2t-6 11l-45 136h-193l-45 -136q-2 -7 -4.5 -10t-12.5 -3h-18q-7 0 -11 2t-4 10q0 1 0.5 2.5t0.5 2.5l154 470q2 7 5.5 10t13.5 3h37q8 0 11.5 -2t6.5 -11zM365 698q0 -5 -11 -14l-112 -103
q-6 -5 -10 -7.5t-10 -2.5t-10.5 2.5t-9.5 7.5l-112 103q-11 9 -11 14q0 2 3 7l4 6l2 2q3 3 5 3q3 0 7 -2.5t10 -6.5l112 -73l112 73q6 4 10 6.5t7 2.5q4 0 7 -5l4 -6q3 -5 3 -7z" />
    <glyph glyph-name="Acircumflexsmall" horiz-adv-x="444" 
d="M305 191l-84 250l-82 -250h166zM412 17q2 -3 2 -7q0 -10 -15 -10h-19q-8 0 -11 2t-6 11l-45 136h-193l-45 -136q-2 -7 -4.5 -10t-12.5 -3h-18q-7 0 -11 2t-4 10q0 1 0.5 2.5t0.5 2.5l154 470q2 7 5.5 10t13.5 3h37q8 0 11.5 -2t6.5 -11zM79 589q0 5 11 14l112 103
q6 5 10 7.5t10 2.5t10.5 -2.5t9.5 -7.5l112 -103q11 -9 11 -14q0 -3 -3 -7l-4 -6q-1 -2 -2 -3q-2 -2 -5 -2t-7 2.5t-10 6.5l-112 73l-112 -73q-6 -4 -10 -6.5t-7 -2.5q-4 0 -7 5l-4 6q-3 4 -3 7z" />
    <glyph glyph-name="Adieresissmall" horiz-adv-x="444" 
d="M305 191l-84 250l-82 -250h166zM412 17q2 -3 2 -7q0 -10 -15 -10h-19q-8 0 -11 2t-6 11l-45 136h-193l-45 -136q-2 -7 -4.5 -10t-12.5 -3h-18q-7 0 -11 2t-4 10q0 1 0.5 2.5t0.5 2.5l154 470q2 7 5.5 10t13.5 3h37q8 0 11.5 -2t6.5 -11zM318 624q0 -16 -10.5 -26.5
t-25.5 -10.5q-17 0 -27.5 10.5t-10.5 26.5q0 17 10.5 26.5t27.5 9.5q14 0 25 -10t11 -26zM200 624q0 -16 -10.5 -26.5t-25.5 -10.5q-17 0 -27 10.5t-10 26.5q0 17 10 26.5t27 9.5q14 0 25 -10t11 -26z" />
    <glyph glyph-name="Agravesmall" horiz-adv-x="444" 
d="M305 191l-84 250l-82 -250h166zM412 17q2 -3 2 -7q0 -10 -15 -10h-19q-8 0 -11 2t-6 11l-45 136h-193l-45 -136q-2 -7 -4.5 -10t-12.5 -3h-18q-7 0 -11 2t-4 10q0 1 0.5 2.5t0.5 2.5l154 470q2 7 5.5 10t13.5 3h37q8 0 11.5 -2t6.5 -11zM110 683q-15 9 -15 20q0 7 5 13
l11 15q4 5 7 7t9 2t10.5 -2t9.5 -7l137 -118q11 -9 11 -14q0 -3 -3 -7l-6 -7q-5 -5 -7 -5q-3 0 -16 8z" />
    <glyph glyph-name="Amacron.small" horiz-adv-x="444" 
d="M305 191l-84 250l-82 -250h166zM412 17q2 -3 2 -7q0 -10 -15 -10h-19q-8 0 -11 2t-6 11l-45 136h-193l-45 -136q-2 -7 -4.5 -10t-12.5 -3h-18q-7 0 -11 2t-4 10q0 1 0.5 2.5t0.5 2.5l154 470q2 7 5.5 10t13.5 3h37q8 0 11.5 -2t6.5 -11zM122 610q-15 0 -19.5 2t-4.5 15
v10q0 12 4.5 14.5t19.5 2.5h200q15 0 19.5 -2t4.5 -15v-10q0 -13 -4.5 -15t-19.5 -2h-200v0z" />
    <glyph glyph-name="Aogonek.small" horiz-adv-x="444" 
d="M414 -159q0 -8 -18.5 -14.5t-37.5 -6.5q-46 0 -65 22t-19 51q0 19 7.5 35t19 29t25.5 23.5t28 19.5l11 7l-47 142h-193l-45 -136q-2 -7 -4.5 -10t-12.5 -3h-18q-7 0 -11 2t-4 10q0 1 0.5 2.5t0.5 2.5l154 470q2 7 5.5 10t13.5 3h37q8 0 11.5 -2t6.5 -11l153 -470
q2 -6 2 -7q0 -10 -15 -10h-10q-65 -57 -65 -104q0 -20 13.5 -32t35.5 -12q12 0 19 3.5t11 3.5t7.5 -3.5t3.5 -14.5zM305 191l-84 250l-82 -250h166z" />
    <glyph glyph-name="Aringsmall" horiz-adv-x="444" 
d="M305 191l-84 250l-82 -250h166zM412 17q2 -3 2 -7q0 -10 -15 -10h-19q-8 0 -11 2t-6 11l-45 136h-193l-45 -136q-2 -7 -4.5 -10t-12.5 -3h-18q-7 0 -11 2t-4 10q0 1 0.5 2.5t0.5 2.5l154 470q2 7 5.5 10t13.5 3h37q8 0 11.5 -2t6.5 -11zM307 664q0 -35 -25.5 -60
t-60.5 -25q-38 0 -62 25t-24 60q0 38 24 61.5t62 23.5q16 0 31.5 -6.5t27.5 -18t19.5 -27t7.5 -33.5zM271 664q0 21 -15.5 36.5t-35.5 15.5q-22 0 -35.5 -14.5t-13.5 -37.5q0 -20 13.5 -36t35.5 -16q21 0 36 16t15 36z" />
    <glyph glyph-name="Atildesmall" horiz-adv-x="444" 
d="M305 191l-84 250l-82 -250h166zM412 17q2 -3 2 -7q0 -10 -15 -10h-19q-8 0 -11 2t-6 11l-45 136h-193l-45 -136q-2 -7 -4.5 -10t-12.5 -3h-18q-7 0 -11 2t-4 10q0 1 0.5 2.5t0.5 2.5l154 470q2 7 5.5 10t13.5 3h37q8 0 11.5 -2t6.5 -11zM145 626q-21 0 -37 -7t-31 -7
q-10 0 -12 6q-1 2 -2 5q-2 6 -2 8q0 5 9.5 12t24 13.5t32.5 11t35 4.5q23 0 39.5 -4.5t31 -10t30 -10t36.5 -4.5q25 0 38.5 7t27.5 7q9 0 12 -6q1 -2 2 -5q2 -6 2 -8q0 -5 -9 -12t-23.5 -13t-32 -10.5t-33.5 -4.5q-24 0 -41 4.5t-31.5 9.5t-29.5 9.5t-36 4.5z" />
    <glyph glyph-name="AEsmall" horiz-adv-x="621" 
d="M305 435l-134 -244h134v244zM565 500q11 0 13.5 -3t2.5 -11v-13q0 -9 -2.5 -12t-13.5 -3h-211v-181h198q11 0 13.5 -3t2.5 -12v-13q0 -8 -2.5 -11t-13.5 -3h-198v-193h211q11 0 13.5 -3.5t2.5 -11.5v-12q0 -7 -2 -11t-14 -4h-236q-14 0 -19 6t-5 19v124h-159l-73 -132
q-5 -8 -9 -12.5t-12 -4.5h-19q-13 0 -13 14q0 6 5 14l250 450q5 9 11.5 15.5t19.5 6.5h259z" />
    <glyph glyph-name="AEacute.small" horiz-adv-x="621" 
d="M305 435l-134 -244h134v244zM565 500q11 0 13.5 -3t2.5 -11v-13q0 -9 -2.5 -12t-13.5 -3h-211v-181h198q11 0 13.5 -3t2.5 -12v-13q0 -8 -2.5 -11t-13.5 -3h-198v-193h211q11 0 13.5 -3.5t2.5 -11.5v-12q0 -7 -2 -11t-14 -4h-236q-14 0 -19 6t-5 19v124h-159l-73 -132
q-5 -8 -9 -12.5t-12 -4.5h-19q-13 0 -13 14q0 6 5 14l250 450q5 9 11.5 15.5t19.5 6.5h259zM371 588q-13 -8 -15 -8q-3 0 -8 5l-6 7q-3 4 -3 7q0 5 11 14l137 118q10 9 20 9q6 0 9 -2t7 -7l11 -15q5 -6 5 -13q0 -11 -15 -20z" />
    <glyph glyph-name="Bsmall" horiz-adv-x="426" 
d="M60 485q0 8 3.5 11.5t14.5 3.5h157q46 0 73.5 -12t42.5 -31.5t20 -43t5 -45.5q0 -38 -14 -64t-35 -42q27 -14 45.5 -43.5t18.5 -80.5q0 -61 -35 -99.5t-103 -38.5h-175q-11 0 -14.5 3.5t-3.5 11.5v470zM342 138q0 50 -23.5 75t-74.5 25h-136v-196h142q19 0 35.5 5
t29 16.5t20 29.5t7.5 45zM328 368q0 19 -4.5 35.5t-15.5 28.5t-30 19t-47 7h-123v-178h123q29 0 47.5 7t29.5 19t15.5 28t4.5 34z" />
    <glyph glyph-name="Csmall" horiz-adv-x="399" 
d="M242 -9q-52 0 -88.5 14t-59.5 45t-33.5 80t-10.5 120q0 70 10.5 119.5t33.5 80.5t59.5 45t88.5 14q27 0 48 -4.5t35 -10t21.5 -10.5l7.5 -5q0 -2 -1 -6.5t-5 -11.5q-8 -14 -15 -14q-2 0 -12 4q-9 4 -30 10t-49 6q-41 0 -68.5 -11.5t-44.5 -37.5t-24 -67.5t-7 -100.5
q0 -60 7 -101t24 -67t44.5 -37.5t68.5 -11.5q32 0 55.5 8.5t32.5 13.5q5 2 8.5 4.5t6.5 2.5q4 0 7.5 -4.5t6.5 -9.5q4 -8 4.5 -12t0.5 -6t-8.5 -8.5t-24.5 -13t-38.5 -12t-50.5 -5.5z" />
    <glyph glyph-name="Cacute.small" horiz-adv-x="399" 
d="M242 -9q-52 0 -88.5 14t-59.5 45t-33.5 80t-10.5 120q0 70 10.5 119.5t33.5 80.5t59.5 45t88.5 14q27 0 48 -4.5t35 -10t21.5 -10.5l7.5 -5q0 -2 -1 -6.5t-5 -11.5q-8 -14 -15 -14q-2 0 -12 4q-9 4 -30 10t-49 6q-41 0 -68.5 -11.5t-44.5 -37.5t-24 -67.5t-7 -100.5
q0 -60 7 -101t24 -67t44.5 -37.5t68.5 -11.5q32 0 55.5 8.5t32.5 13.5q5 2 8.5 4.5t6.5 2.5q4 0 7.5 -4.5t6.5 -9.5q4 -8 4.5 -12t0.5 -6t-8.5 -8.5t-24.5 -13t-38.5 -12t-50.5 -5.5zM167 588q-13 -8 -15 -8q-3 0 -8 5l-6 7q-3 4 -3 7q0 5 11 14l137 118q10 9 20 9q6 0 9 -2
t7 -7l11 -15q5 -6 5 -13q0 -11 -15 -20z" />
    <glyph glyph-name="Ccaron.small" horiz-adv-x="399" 
d="M242 -9q-52 0 -88.5 14t-59.5 45t-33.5 80t-10.5 120q0 70 10.5 119.5t33.5 80.5t59.5 45t88.5 14q27 0 48 -4.5t35 -10t21.5 -10.5l7.5 -5q0 -2 -1 -6.5t-5 -11.5q-8 -14 -15 -14q-2 0 -12 4q-9 4 -30 10t-49 6q-41 0 -68.5 -11.5t-44.5 -37.5t-24 -67.5t-7 -100.5
q0 -60 7 -101t24 -67t44.5 -37.5t68.5 -11.5q32 0 55.5 8.5t32.5 13.5q5 2 8.5 4.5t6.5 2.5q4 0 7.5 -4.5t6.5 -9.5q4 -8 4.5 -12t0.5 -6t-8.5 -8.5t-24.5 -13t-38.5 -12t-50.5 -5.5zM364 698q0 -5 -11 -14l-112 -103q-6 -5 -10 -7.5t-10 -2.5t-10.5 2.5t-9.5 7.5l-112 103
q-11 9 -11 14q0 2 3 7l4 6l2 2q3 3 5 3q3 0 7 -2.5t10 -6.5l112 -73l112 73q6 4 10 6.5t7 2.5q4 0 7 -5l4 -6q3 -5 3 -7z" />
    <glyph glyph-name="Ccedillasmall" horiz-adv-x="399" 
d="M136 -158q0 4 1 7t2 5q3 9 11 9q5 0 19.5 -5t42.5 -5q30 0 47.5 11.5t17.5 31.5t-13 27.5t-35 7.5q-16 0 -30.5 -3.5t-21.5 -6.5l-21 26l37 48q-77 12 -110 72t-33 183q0 70 10.5 119.5t33.5 80.5t59.5 45t88.5 14q27 0 48 -4.5t35 -10t21.5 -10.5l7.5 -5q0 -2 -1 -6.5
t-5 -11.5q-8 -14 -15 -14q-2 0 -12 4q-9 4 -30 10t-49 6q-41 0 -68.5 -11.5t-44.5 -37.5t-24 -67.5t-7 -100.5q0 -60 7 -101t24 -67t44.5 -37.5t68.5 -11.5q32 0 55.5 8.5t32.5 13.5q5 2 8.5 4.5t6.5 2.5q4 0 7.5 -4.5t6.5 -9.5q4 -8 4.5 -12t0.5 -6t-8.5 -8.5t-24.5 -13
t-38.5 -12t-50.5 -5.5h-12l-21 -31l10 2t11 2t14 1q37 0 56.5 -18.5t19.5 -47.5q0 -34 -26.5 -56.5t-87.5 -22.5q-11 0 -23 1.5t-22.5 4.5t-17.5 7t-7 9z" />
    <glyph glyph-name="Ccircumflex.small" horiz-adv-x="399" 
d="M242 -9q-52 0 -88.5 14t-59.5 45t-33.5 80t-10.5 120q0 70 10.5 119.5t33.5 80.5t59.5 45t88.5 14q27 0 48 -4.5t35 -10t21.5 -10.5l7.5 -5q0 -2 -1 -6.5t-5 -11.5q-8 -14 -15 -14q-2 0 -12 4q-9 4 -30 10t-49 6q-41 0 -68.5 -11.5t-44.5 -37.5t-24 -67.5t-7 -100.5
q0 -60 7 -101t24 -67t44.5 -37.5t68.5 -11.5q32 0 55.5 8.5t32.5 13.5q5 2 8.5 4.5t6.5 2.5q4 0 7.5 -4.5t6.5 -9.5q4 -8 4.5 -12t0.5 -6t-8.5 -8.5t-24.5 -13t-38.5 -12t-50.5 -5.5zM78 589q0 5 11 14l112 103q6 5 10 7.5t10 2.5t10.5 -2.5t9.5 -7.5l112 -103q11 -9 11 -14
q0 -3 -3 -7l-4 -6q-1 -2 -2 -3q-2 -2 -5 -2t-7 2.5t-10 6.5l-112 73l-112 -73q-6 -4 -10 -6.5t-7 -2.5q-4 0 -7 5l-4 6q-3 4 -3 7z" />
    <glyph glyph-name="Cdotaccent.small" horiz-adv-x="399" 
d="M242 -9q-52 0 -88.5 14t-59.5 45t-33.5 80t-10.5 120q0 70 10.5 119.5t33.5 80.5t59.5 45t88.5 14q27 0 48 -4.5t35 -10t21.5 -10.5l7.5 -5q0 -2 -1 -6.5t-5 -11.5q-8 -14 -15 -14q-2 0 -12 4q-9 4 -30 10t-49 6q-41 0 -68.5 -11.5t-44.5 -37.5t-24 -67.5t-7 -100.5
q0 -60 7 -101t24 -67t44.5 -37.5t68.5 -11.5q32 0 55.5 8.5t32.5 13.5q5 2 8.5 4.5t6.5 2.5q4 0 7.5 -4.5t6.5 -9.5q4 -8 4.5 -12t0.5 -6t-8.5 -8.5t-24.5 -13t-38.5 -12t-50.5 -5.5zM273 625q0 -20 -14 -33t-32 -13q-21 0 -34.5 13t-13.5 33q0 21 13.5 33t34.5 12
q17 0 31.5 -12.5t14.5 -32.5z" />
    <glyph glyph-name="Dsmall" horiz-adv-x="456" 
d="M60 485q0 8 3 11.5t14 3.5h131q52 0 89.5 -12.5t61.5 -42t35.5 -77t11.5 -116.5q0 -71 -11.5 -119t-35.5 -77.5t-61.5 -42.5t-89.5 -13h-131q-11 0 -14 3.5t-3 11.5v470zM208 42q42 0 71 11t46.5 36t25 65t7.5 98t-7.5 97.5t-25 63.5t-46.5 34.5t-71 10.5h-100v-416h100z
" />
    <glyph glyph-name="Dcaron.small" horiz-adv-x="456" 
d="M60 485q0 8 3 11.5t14 3.5h131q52 0 89.5 -12.5t61.5 -42t35.5 -77t11.5 -116.5q0 -71 -11.5 -119t-35.5 -77.5t-61.5 -42.5t-89.5 -13h-131q-11 0 -14 3.5t-3 11.5v470zM208 42q42 0 71 11t46.5 36t25 65t7.5 98t-7.5 97.5t-25 63.5t-46.5 34.5t-71 10.5h-100v-416h100z
M346 698q0 -5 -11 -14l-112 -103q-6 -5 -10 -7.5t-10 -2.5t-10.5 2.5t-9.5 7.5l-112 103q-11 9 -11 14q0 2 3 7l4 6l2 2q3 3 5 3q3 0 7 -2.5t10 -6.5l112 -73l112 73q6 4 10 6.5t7 2.5q4 0 7 -5l4 -6q3 -5 3 -7z" />
    <glyph glyph-name="Dcroat.small" horiz-adv-x="461" 
d="M65 290v195q0 8 3 11.5t14 3.5h131q52 0 89.5 -12.5t61.5 -42t35.5 -77t11.5 -116.5q0 -71 -11.5 -119t-35.5 -77.5t-61.5 -42.5t-89.5 -13h-131q-11 0 -14 3.5t-3 11.5v231h-36q-9 0 -11.5 3t-2.5 11v16q0 8 2.5 11t11.5 3h36zM213 42q42 0 71 11t46.5 36t25 65t7.5 98
t-7.5 97.5t-25 63.5t-46.5 34.5t-71 10.5h-100v-168h111q9 0 11.5 -3t2.5 -11v-16q0 -8 -2.5 -11t-11.5 -3h-111v-204h100z" />
    <glyph glyph-name="Esmall" horiz-adv-x="377" 
d="M60 484q0 8 3.5 12t14.5 4h242q11 0 14 -3t3 -13v-9q0 -11 -3 -14t-14 -3h-212v-179h200q8 0 11.5 -3t3.5 -13v-10q0 -10 -3.5 -13t-11.5 -3h-200v-195h212q11 0 14 -3t3 -14v-8q0 -11 -3 -14t-14 -3h-242q-11 0 -14.5 3.5t-3.5 11.5v469v0z" />
    <glyph glyph-name="Eacutesmall" horiz-adv-x="377" 
d="M60 484q0 8 3.5 12t14.5 4h242q11 0 14 -3t3 -13v-9q0 -11 -3 -14t-14 -3h-212v-179h200q8 0 11.5 -3t3.5 -13v-10q0 -10 -3.5 -13t-11.5 -3h-200v-195h212q11 0 14 -3t3 -14v-8q0 -11 -3 -14t-14 -3h-242q-11 0 -14.5 3.5t-3.5 11.5v469v0zM147 588q-13 -8 -15 -8
q-3 0 -8 5l-6 7q-3 4 -3 7q0 5 11 14l137 118q10 9 20 9q6 0 9 -2t7 -7l11 -15q5 -6 5 -13q0 -11 -15 -20z" />
    <glyph glyph-name="Ebreve.small" horiz-adv-x="377" 
d="M60 484q0 8 3.5 12t14.5 4h242q11 0 14 -3t3 -13v-9q0 -11 -3 -14t-14 -3h-212v-179h200q8 0 11.5 -3t3.5 -13v-10q0 -10 -3.5 -13t-11.5 -3h-200v-195h212q11 0 14 -3t3 -14v-8q0 -11 -3 -14t-14 -3h-242q-11 0 -14.5 3.5t-3.5 11.5v469v0zM294 678q0 -23 -8.5 -39
t-22 -27t-30.5 -16t-34 -5q-39 0 -68 21t-29 66h30q7 -20 21 -33t45 -13q29 0 44.5 13t22.5 33h29z" />
    <glyph glyph-name="Ecaron.small" horiz-adv-x="377" 
d="M60 484q0 8 3.5 12t14.5 4h242q11 0 14 -3t3 -13v-9q0 -11 -3 -14t-14 -3h-212v-179h200q8 0 11.5 -3t3.5 -13v-10q0 -10 -3.5 -13t-11.5 -3h-200v-195h212q11 0 14 -3t3 -14v-8q0 -11 -3 -14t-14 -3h-242q-11 0 -14.5 3.5t-3.5 11.5v469v0zM347 698q0 -5 -11 -14
l-112 -103q-6 -5 -10 -7.5t-10 -2.5t-10.5 2.5t-9.5 7.5l-112 103q-11 9 -11 14q0 2 3 7l4 6l2 2q3 3 5 3q3 0 7 -2.5t10 -6.5l112 -73l112 73q6 4 10 6.5t7 2.5q4 0 7 -5l4 -6q3 -5 3 -7z" />
    <glyph glyph-name="Ecircumflexsmall" horiz-adv-x="377" 
d="M60 484q0 8 3.5 12t14.5 4h242q11 0 14 -3t3 -13v-9q0 -11 -3 -14t-14 -3h-212v-179h200q8 0 11.5 -3t3.5 -13v-10q0 -10 -3.5 -13t-11.5 -3h-200v-195h212q11 0 14 -3t3 -14v-8q0 -11 -3 -14t-14 -3h-242q-11 0 -14.5 3.5t-3.5 11.5v469v0zM58 589q0 5 11 14l112 103
q6 5 10 7.5t10 2.5t10.5 -2.5t9.5 -7.5l112 -103q11 -9 11 -14q0 -3 -3 -7l-4 -6q-1 -2 -2 -3q-2 -2 -5 -2t-7 2.5t-10 6.5l-112 73l-112 -73q-6 -4 -10 -6.5t-7 -2.5q-4 0 -7 5l-4 6q-3 4 -3 7z" />
    <glyph glyph-name="Edieresissmall" horiz-adv-x="377" 
d="M60 484q0 8 3.5 12t14.5 4h242q11 0 14 -3t3 -13v-9q0 -11 -3 -14t-14 -3h-212v-179h200q8 0 11.5 -3t3.5 -13v-10q0 -10 -3.5 -13t-11.5 -3h-200v-195h212q11 0 14 -3t3 -14v-8q0 -11 -3 -14t-14 -3h-242q-11 0 -14.5 3.5t-3.5 11.5v469v0zM292 624q0 -16 -10.5 -26.5
t-25.5 -10.5q-17 0 -27.5 10.5t-10.5 26.5q0 17 10.5 26.5t27.5 9.5q14 0 25 -10t11 -26zM174 624q0 -16 -10.5 -26.5t-25.5 -10.5q-17 0 -27 10.5t-10 26.5q0 17 10 26.5t27 9.5q14 0 25 -10t11 -26z" />
    <glyph glyph-name="Edotaccent.small" horiz-adv-x="377" 
d="M60 484q0 8 3.5 12t14.5 4h242q11 0 14 -3t3 -13v-9q0 -11 -3 -14t-14 -3h-212v-179h200q8 0 11.5 -3t3.5 -13v-10q0 -10 -3.5 -13t-11.5 -3h-200v-195h212q11 0 14 -3t3 -14v-8q0 -11 -3 -14t-14 -3h-242q-11 0 -14.5 3.5t-3.5 11.5v469v0zM253 625q0 -20 -14 -33
t-32 -13q-21 0 -34.5 13t-13.5 33q0 21 13.5 33t34.5 12q17 0 31.5 -12.5t14.5 -32.5z" />
    <glyph glyph-name="Egravesmall" horiz-adv-x="377" 
d="M60 484q0 8 3.5 12t14.5 4h242q11 0 14 -3t3 -13v-9q0 -11 -3 -14t-14 -3h-212v-179h200q8 0 11.5 -3t3.5 -13v-10q0 -10 -3.5 -13t-11.5 -3h-200v-195h212q11 0 14 -3t3 -14v-8q0 -11 -3 -14t-14 -3h-242q-11 0 -14.5 3.5t-3.5 11.5v469v0zM90 683q-15 9 -15 20
q0 7 5 13l11 15q4 5 7 7t9 2t10.5 -2t9.5 -7l137 -118q11 -9 11 -14q0 -3 -3 -7l-6 -7q-5 -5 -7 -5q-3 0 -16 8z" />
    <glyph glyph-name="Emacron.small" horiz-adv-x="377" 
d="M60 484q0 8 3.5 12t14.5 4h242q11 0 14 -3t3 -13v-9q0 -11 -3 -14t-14 -3h-212v-179h200q8 0 11.5 -3t3.5 -13v-10q0 -10 -3.5 -13t-11.5 -3h-200v-195h212q11 0 14 -3t3 -14v-8q0 -11 -3 -14t-14 -3h-242q-11 0 -14.5 3.5t-3.5 11.5v469v0zM100 610q-15 0 -19.5 2
t-4.5 15v10q0 12 4.5 14.5t19.5 2.5h200q15 0 19.5 -2t4.5 -15v-10q0 -13 -4.5 -15t-19.5 -2h-200v0z" />
    <glyph glyph-name="Eogonek.small" horiz-adv-x="377" 
d="M337 -160q0 -8 -20.5 -14t-42.5 -6q-46 0 -66 22t-20 51q0 19 7.5 35t19 29t25.5 23.5t28 19.5h-190q-11 0 -14.5 3.5t-3.5 11.5v469q0 8 3.5 12t14.5 4h242q11 0 14 -3t3 -13v-9q0 -11 -3 -14t-14 -3h-212v-179h200q8 0 11.5 -3t3.5 -13v-10q0 -10 -3.5 -13t-11.5 -3
h-200v-195h212q11 0 14 -3t3 -14v-8q0 -11 -3 -14t-14 -3h-17q-65 -57 -65 -104q0 -20 14.5 -32t36.5 -12q17 0 25.5 3t12.5 3t7 -3.5t3 -14.5z" />
    <glyph glyph-name="Fsmall" horiz-adv-x="365" 
d="M60 485q0 8 3.5 11.5t14.5 3.5h236q8 0 12 -3t4 -13v-10q0 -11 -4 -13.5t-12 -2.5h-206v-179h193q8 0 11.5 -3t3.5 -14v-9q0 -16 -15 -16h-193v-222q0 -8 -3.5 -11.5t-14.5 -3.5h-12q-11 0 -14.5 3.5t-3.5 11.5v470v0z" />
    <glyph glyph-name="Gsmall" horiz-adv-x="443" 
d="M340 211q0 9 3.5 12t14.5 3h12q11 0 14.5 -3t3.5 -12v-179q0 -6 -3 -10.5t-11 -8.5q-10 -4 -45.5 -13t-86.5 -9q-52 0 -88.5 14t-59.5 45t-33.5 80t-10.5 120q0 70 10.5 119.5t33.5 80.5t59.5 45t88.5 14q24 0 43.5 -4t34 -8.5t22 -8.5t7.5 -5q0 -2 -1 -7.5t-5 -12.5
q-7 -13 -15 -13q-2 0 -5 1t-5 2q-8 3 -29 8.5t-47 5.5q-41 0 -68.5 -11.5t-44.5 -37.5t-24 -67.5t-7 -100.5q0 -60 7 -101t24 -67t44.5 -37.5t68.5 -11.5q28 0 54.5 4.5t43.5 10.5v163v0z" />
    <glyph glyph-name="Gbreve.small" horiz-adv-x="443" 
d="M340 211q0 9 3.5 12t14.5 3h12q11 0 14.5 -3t3.5 -12v-179q0 -6 -3 -10.5t-11 -8.5q-10 -4 -45.5 -13t-86.5 -9q-52 0 -88.5 14t-59.5 45t-33.5 80t-10.5 120q0 70 10.5 119.5t33.5 80.5t59.5 45t88.5 14q24 0 43.5 -4t34 -8.5t22 -8.5t7.5 -5q0 -2 -1 -7.5t-5 -12.5
q-7 -13 -15 -13q-2 0 -5 1t-5 2q-8 3 -29 8.5t-47 5.5q-41 0 -68.5 -11.5t-44.5 -37.5t-24 -67.5t-7 -100.5q0 -60 7 -101t24 -67t44.5 -37.5t68.5 -11.5q28 0 54.5 4.5t43.5 10.5v163v0zM318 678q0 -23 -8.5 -39t-22 -27t-30.5 -16t-34 -5q-39 0 -68 21t-29 66h30
q7 -20 21 -33t45 -13q29 0 44.5 13t22.5 33h29z" />
    <glyph glyph-name="Gcircumflex.small" horiz-adv-x="443" 
d="M340 211q0 9 3.5 12t14.5 3h12q11 0 14.5 -3t3.5 -12v-179q0 -6 -3 -10.5t-11 -8.5q-10 -4 -45.5 -13t-86.5 -9q-52 0 -88.5 14t-59.5 45t-33.5 80t-10.5 120q0 70 10.5 119.5t33.5 80.5t59.5 45t88.5 14q24 0 43.5 -4t34 -8.5t22 -8.5t7.5 -5q0 -2 -1 -7.5t-5 -12.5
q-7 -13 -15 -13q-2 0 -5 1t-5 2q-8 3 -29 8.5t-47 5.5q-41 0 -68.5 -11.5t-44.5 -37.5t-24 -67.5t-7 -100.5q0 -60 7 -101t24 -67t44.5 -37.5t68.5 -11.5q28 0 54.5 4.5t43.5 10.5v163v0zM84 589q0 5 11 14l112 103q6 5 10 7.5t10 2.5t10.5 -2.5t9.5 -7.5l112 -103
q11 -9 11 -14q0 -3 -3 -7l-4 -6q-1 -2 -2 -3q-2 -2 -5 -2t-7 2.5t-10 6.5l-112 73l-112 -73q-6 -4 -10 -6.5t-7 -2.5q-4 0 -7 5l-4 6q-3 4 -3 7z" />
    <glyph glyph-name="Gcommaaccent.small" horiz-adv-x="443" 
d="M340 211q0 9 3.5 12t14.5 3h12q11 0 14.5 -3t3.5 -12v-179q0 -6 -3 -10.5t-11 -8.5q-10 -4 -45.5 -13t-86.5 -9q-52 0 -88.5 14t-59.5 45t-33.5 80t-10.5 120q0 70 10.5 119.5t33.5 80.5t59.5 45t88.5 14q24 0 43.5 -4t34 -8.5t22 -8.5t7.5 -5q0 -2 -1 -7.5t-5 -12.5
q-7 -13 -15 -13q-2 0 -5 1t-5 2q-8 3 -29 8.5t-47 5.5q-41 0 -68.5 -11.5t-44.5 -37.5t-24 -67.5t-7 -100.5q0 -60 7 -101t24 -67t44.5 -37.5t68.5 -11.5q28 0 54.5 4.5t43.5 10.5v163v0zM205 -91q0 18 12.5 30t29.5 12q19 0 30.5 -12t11.5 -30q0 -26 -14 -61.5t-46 -62.5
q-12 -11 -22 -15.5t-14 -4.5q-6 0 -10 11q9 6 18.5 16.5t16.5 23t11.5 26t4.5 24.5q0 1 -4.5 4t-10 7.5t-10 12t-4.5 19.5z" />
    <glyph glyph-name="Gdotaccent.small" horiz-adv-x="443" 
d="M340 211q0 9 3.5 12t14.5 3h12q11 0 14.5 -3t3.5 -12v-179q0 -6 -3 -10.5t-11 -8.5q-10 -4 -45.5 -13t-86.5 -9q-52 0 -88.5 14t-59.5 45t-33.5 80t-10.5 120q0 70 10.5 119.5t33.5 80.5t59.5 45t88.5 14q24 0 43.5 -4t34 -8.5t22 -8.5t7.5 -5q0 -2 -1 -7.5t-5 -12.5
q-7 -13 -15 -13q-2 0 -5 1t-5 2q-8 3 -29 8.5t-47 5.5q-41 0 -68.5 -11.5t-44.5 -37.5t-24 -67.5t-7 -100.5q0 -60 7 -101t24 -67t44.5 -37.5t68.5 -11.5q28 0 54.5 4.5t43.5 10.5v163v0zM273 625q0 -20 -14 -33t-32 -13q-21 0 -34.5 13t-13.5 33q0 21 13.5 33t34.5 12
q17 0 31.5 -12.5t14.5 -32.5z" />
    <glyph glyph-name="Hsmall" horiz-adv-x="450" 
d="M342 485q0 8 3 11.5t14 3.5h15q11 0 13.5 -3.5t2.5 -11.5v-470q0 -8 -2.5 -11.5t-13.5 -3.5h-15q-11 0 -14 3.5t-3 11.5v222h-234v-222q0 -8 -3 -11.5t-14 -3.5h-13q-11 0 -14.5 3.5t-3.5 11.5v470q0 8 3.5 11.5t14.5 3.5h13q11 0 14 -3.5t3 -11.5v-206h234v206v0z" />
    <glyph glyph-name="Hbar.small" horiz-adv-x="460" 
d="M65 394v91q0 8 3.5 11.5t14.5 3.5h13q11 0 14 -3.5t3 -11.5v-91h234v91q0 8 3 11.5t14 3.5h15q11 0 13.5 -3.5t2.5 -11.5v-91h36q9 0 11.5 -3t2.5 -11v-16q0 -8 -2.5 -11t-11.5 -3h-36v-335q0 -8 -2.5 -11.5t-13.5 -3.5h-15q-11 0 -14 3.5t-3 11.5v222h-234v-222
q0 -8 -3 -11.5t-14 -3.5h-13q-11 0 -14.5 3.5t-3.5 11.5v335h-36q-9 0 -11.5 3t-2.5 11v16q0 8 2.5 11t11.5 3h36zM347 279v71h-234v-71h234z" />
    <glyph glyph-name="Hcircumflex.small" horiz-adv-x="450" 
d="M342 485q0 8 3 11.5t14 3.5h15q11 0 13.5 -3.5t2.5 -11.5v-470q0 -8 -2.5 -11.5t-13.5 -3.5h-15q-11 0 -14 3.5t-3 11.5v222h-234v-222q0 -8 -3 -11.5t-14 -3.5h-13q-11 0 -14.5 3.5t-3.5 11.5v470q0 8 3.5 11.5t14.5 3.5h13q11 0 14 -3.5t3 -11.5v-206h234v206v0z
M84 589q0 5 11 14l112 103q6 5 10 7.5t10 2.5t10.5 -2.5t9.5 -7.5l112 -103q11 -9 11 -14q0 -3 -3 -7l-4 -6q-1 -2 -2 -3q-2 -2 -5 -2t-7 2.5t-10 6.5l-112 73l-112 -73q-6 -4 -10 -6.5t-7 -2.5q-4 0 -7 5l-4 6q-3 4 -3 7z" />
    <glyph glyph-name="Ismall" horiz-adv-x="168" 
d="M60 487q0 7 3 10t12 3h18q15 0 15 -13v-474q0 -7 -3 -10t-12 -3h-18q-10 0 -12.5 3.5t-2.5 9.5v474v0z" />
    <glyph glyph-name="Iacutesmall" horiz-adv-x="178" 
d="M65 487q0 7 3 10t12 3h18q15 0 15 -13v-474q0 -7 -3 -10t-12 -3h-18q-10 0 -12.5 3.5t-2.5 9.5v474v0zM46 588q-13 -8 -15 -8q-3 0 -8 5l-6 7q-3 4 -3 7q0 5 11 14l137 118q10 9 20 9q6 0 9 -2t7 -7l11 -15q5 -6 5 -13q0 -11 -15 -20z" />
    <glyph glyph-name="Ibreve.small" horiz-adv-x="178" 
d="M65 487q0 7 3 10t12 3h18q15 0 15 -13v-474q0 -7 -3 -10t-12 -3h-18q-10 0 -12.5 3.5t-2.5 9.5v474v0zM185 678q0 -23 -8.5 -39t-22 -27t-30.5 -16t-34 -5q-39 0 -68 21t-29 66h30q7 -20 21 -33t45 -13q29 0 44.5 13t22.5 33h29z" />
    <glyph glyph-name="Icircumflexsmall" horiz-adv-x="178" 
d="M65 487q0 7 3 10t12 3h18q15 0 15 -13v-474q0 -7 -3 -10t-12 -3h-18q-10 0 -12.5 3.5t-2.5 9.5v474v0zM-54 589q0 5 11 14l112 103q6 5 10 7.5t10 2.5t10.5 -2.5t9.5 -7.5l112 -103q11 -9 11 -14q0 -3 -3 -7l-4 -6q-1 -2 -2 -3q-2 -2 -5 -2t-7 2.5t-10 6.5l-112 73
l-112 -73q-6 -4 -10 -6.5t-7 -2.5q-4 0 -7 5l-4 6q-3 4 -3 7z" />
    <glyph glyph-name="Idieresissmall" horiz-adv-x="178" 
d="M65 487q0 7 3 10t12 3h18q15 0 15 -13v-474q0 -7 -3 -10t-12 -3h-18q-10 0 -12.5 3.5t-2.5 9.5v474v0zM185 624q0 -16 -10.5 -26.5t-25.5 -10.5q-17 0 -27.5 10.5t-10.5 26.5q0 17 10.5 26.5t27.5 9.5q14 0 25 -10t11 -26zM67 624q0 -16 -10.5 -26.5t-25.5 -10.5
q-17 0 -27 10.5t-10 26.5q0 17 10 26.5t27 9.5q14 0 25 -10t11 -26z" />
    <glyph glyph-name="Idotaccent.small" horiz-adv-x="178" 
d="M65 487q0 7 3 10t12 3h18q15 0 15 -13v-474q0 -7 -3 -10t-12 -3h-18q-10 0 -12.5 3.5t-2.5 9.5v474v0zM136 625q0 -20 -14 -33t-32 -13q-21 0 -34.5 13t-13.5 33q0 21 13.5 33t34.5 12q17 0 31.5 -12.5t14.5 -32.5z" />
    <glyph glyph-name="Igravesmall" horiz-adv-x="178" 
d="M65 487q0 7 3 10t12 3h18q15 0 15 -13v-474q0 -7 -3 -10t-12 -3h-18q-10 0 -12.5 3.5t-2.5 9.5v474v0zM-20 683q-15 9 -15 20q0 7 5 13l11 15q4 5 7 7t9 2t10.5 -2t9.5 -7l137 -118q11 -9 11 -14q0 -3 -3 -7l-6 -7q-5 -5 -7 -5q-3 0 -16 8z" />
    <glyph glyph-name="Imacron.small" horiz-adv-x="178" 
d="M65 487q0 7 3 10t12 3h18q15 0 15 -13v-474q0 -7 -3 -10t-12 -3h-18q-10 0 -12.5 3.5t-2.5 9.5v474v0zM-11 610q-15 0 -19.5 2t-4.5 15v10q0 12 4.5 14.5t19.5 2.5h200q15 0 19.5 -2t4.5 -15v-10q0 -13 -4.5 -15t-19.5 -2h-200v0z" />
    <glyph glyph-name="Iogonek.small" horiz-adv-x="178" 
d="M65 487q0 7 3 10t12 3h18q15 0 15 -13v-474q0 -7 -3 -10t-12 -3q-65 -57 -65 -104q0 -20 14.5 -32t36.5 -12q17 0 25.5 3t12.5 3t7 -3.5t3 -14.5q0 -8 -20.5 -14t-42.5 -6q-46 0 -66 22t-20 51q0 19 7.5 35t19 29t25.5 23.5t28 19.5l5 3q-3 3 -3 10v474v0z" />
    <glyph glyph-name="Itilde.small" horiz-adv-x="178" 
d="M65 487q0 7 3 10t12 3h18q15 0 15 -13v-474q0 -7 -3 -10t-12 -3h-18q-10 0 -12.5 3.5t-2.5 9.5v474v0zM13 626q-21 0 -37 -7t-31 -7q-10 0 -12 6q-1 2 -2 5q-2 6 -2 8q0 5 9.5 12t24 13.5t32.5 11t35 4.5q23 0 39.5 -4.5t31 -10t30 -10t36.5 -4.5q25 0 38.5 7t27.5 7
q9 0 12 -6q1 -2 2 -5q2 -6 2 -8q0 -5 -9 -12t-23.5 -13t-32 -10.5t-33.5 -4.5q-24 0 -41 4.5t-31.5 9.5t-29.5 9.5t-36 4.5z" />
    <glyph glyph-name="Jsmall" horiz-adv-x="339" 
d="M25 20q0 1 2 6t5.5 10.5t7 9.5t6.5 4q2 0 11 -3q8 -3 27.5 -8.5t43.5 -5.5t43 6t33 23t21.5 49t7.5 83v264h-120q-8 0 -12 3t-4 14v9q0 10 4 13t12 3h151q11 0 14 -3.5t3 -11.5v-284q0 -54 -6.5 -93.5t-24 -65.5t-47 -38.5t-75.5 -12.5q-48 0 -75.5 11.5t-27.5 17.5z" />
    <glyph glyph-name="Jcircumflex.small" horiz-adv-x="341" 
d="M25 20q0 1 2 6t5.5 10.5t7 9.5t6.5 4q2 0 11 -3q8 -3 27.5 -8.5t43.5 -5.5t43 6t33 23t21.5 49t7.5 83v264h-120q-8 0 -12 3t-4 14v9q0 10 4 13t12 3h151q11 0 14 -3.5t3 -11.5v-284q0 -54 -6.5 -93.5t-24 -65.5t-47 -38.5t-75.5 -12.5q-48 0 -75.5 11.5t-27.5 17.5z
M54 589q0 5 11 14l112 103q6 5 10 7.5t10 2.5t10.5 -2.5t9.5 -7.5l112 -103q11 -9 11 -14q0 -3 -3 -7l-4 -6q-1 -2 -2 -3q-2 -2 -5 -2t-7 2.5t-10 6.5l-112 73l-112 -73q-6 -4 -10 -6.5t-7 -2.5q-4 0 -7 5l-4 6q-3 4 -3 7z" />
    <glyph glyph-name="Ksmall" horiz-adv-x="377" 
d="M274 492l5 5t7 3h24q13 0 13 -12q0 -7 -2 -9l-180 -225l214 -228q2 -3 4.5 -6t2.5 -8q0 -12 -12 -12h-25q-5 0 -13 8l-204 214v-207q0 -8 -3.5 -11.5t-14.5 -3.5h-12q-11 0 -14.5 3.5t-3.5 11.5v470q0 8 3.5 11.5t14.5 3.5h12q11 0 14.5 -3.5t3.5 -11.5v-201l166 208v0z
" />
    <glyph glyph-name="Kcommaaccent.small" horiz-adv-x="377" 
d="M274 492l5 5t7 3h24q13 0 13 -12q0 -7 -2 -9l-180 -225l214 -228q2 -3 4.5 -6t2.5 -8q0 -12 -12 -12h-25q-5 0 -13 8l-204 214v-207q0 -8 -3.5 -11.5t-14.5 -3.5h-12q-11 0 -14.5 3.5t-3.5 11.5v470q0 8 3.5 11.5t14.5 3.5h12q11 0 14.5 -3.5t3.5 -11.5v-201l166 208v0z
M155 -91q0 18 12.5 30t29.5 12q19 0 30.5 -12t11.5 -30q0 -26 -14 -61.5t-46 -62.5q-12 -11 -22 -15.5t-14 -4.5q-6 0 -10 11q9 6 18.5 16.5t16.5 23t11.5 26t4.5 24.5q0 1 -4.5 4t-10 7.5t-10 12t-4.5 19.5z" />
    <glyph glyph-name="Lsmall" horiz-adv-x="360" 
d="M78 0q-11 0 -14.5 3.5t-3.5 11.5v469q0 8 3.5 12t14.5 4h12q11 0 14.5 -4t3.5 -12v-442h206q8 0 12 -3t4 -14v-8q0 -11 -4 -14t-12 -3h-236v0z" />
    <glyph glyph-name="Lacute.small" horiz-adv-x="360" 
d="M78 0q-11 0 -14.5 3.5t-3.5 11.5v469q0 8 3.5 12t14.5 4h12q11 0 14.5 -4t3.5 -12v-442h206q8 0 12 -3t4 -14v-8q0 -11 -4 -14t-12 -3h-236v0zM107 588q-13 -8 -15 -8q-3 0 -8 5l-6 7q-3 4 -3 7q0 5 11 14l137 118q10 9 20 9q6 0 9 -2t7 -7l11 -15q5 -6 5 -13
q0 -11 -15 -20z" />
    <glyph glyph-name="Lcaron.small" horiz-adv-x="360" 
d="M78 0q-11 0 -14.5 3.5t-3.5 11.5v469q0 8 3.5 12t14.5 4h12q11 0 14.5 -4t3.5 -12v-442h206q8 0 12 -3t4 -14v-8q0 -11 -4 -14t-12 -3h-236v0zM229 468q0 18 12.5 30t29.5 12q19 0 30.5 -12t11.5 -30q0 -26 -14 -61.5t-46 -62.5q-12 -11 -22 -15.5t-14 -4.5q-6 0 -10 11
q9 6 18.5 16.5t16.5 23t11.5 26t4.5 24.5q0 1 -4.5 4t-10 7.5t-10 12t-4.5 19.5z" />
    <glyph glyph-name="Lcommaaccent.small" horiz-adv-x="360" 
d="M78 0q-11 0 -14.5 3.5t-3.5 11.5v469q0 8 3.5 12t14.5 4h12q11 0 14.5 -4t3.5 -12v-442h206q8 0 12 -3t4 -14v-8q0 -11 -4 -14t-12 -3h-236v0zM145 -91q0 18 12.5 30t29.5 12q19 0 30.5 -12t11.5 -30q0 -26 -14 -61.5t-46 -62.5q-12 -11 -22 -15.5t-14 -4.5q-6 0 -10 11
q9 6 18.5 16.5t16.5 23t11.5 26t4.5 24.5q0 1 -4.5 4t-10 7.5t-10 12t-4.5 19.5z" />
    </font>
</defs>
</svg>
