<?xml version="1.0" standalone="no"?>
<!DOCTYPE svg PUBLIC "-//W3C//DTD SVG 1.1//EN" "http://www.w3.org/Graphics/SVG/1.1/DTD/svg11.dtd" >
<svg xmlns="http://www.w3.org/2000/svg" xmlns:xlink="http://www.w3.org/1999/xlink" version="1.1">
<metadata>
Created by FontForge 20170731 at Thu Dec  3 13:42:37 2015
 By Aleksey,,,
Copyright (c) 2009. Designed by Andreu Balius. All rights reserved.
</metadata>
<defs>
<font id="FerrovialNew-Regular" horiz-adv-x="497" >
  <font-face 
    font-family="Ferrovial New Regular"
    font-weight="400"
    font-stretch="normal"
    units-per-em="1000"
    panose-1="2 0 5 6 4 0 0 2 0 3"
    ascent="750"
    descent="-250"
    x-height="464"
    cap-height="700"
    bbox="-70 -246 3411 961"
    underline-thickness="50"
    underline-position="-150"
    unicode-range="U+000D-FB04"
  />
<missing-glyph horiz-adv-x="190" 
 />
    <glyph glyph-name="ff" unicode="ff" horiz-adv-x="564" 
d="M162 404v-386q0 -18 -19 -18h-33q-11 0 -14.5 4.5t-3.5 13.5v386h-54q-18 0 -18 20v20q0 20 18 20h54v37q0 53 5 92.5t20.5 65t43 38t72.5 12.5q25 0 48 -4.5t25 -11.5q2 -2 1.5 -6.5t-1.5 -7.5q-3 -20 -5.5 -27t-11.5 -7q-3 0 -18 2.5t-32 2.5q-25 0 -40 -8t-23.5 -24.5
t-11 -40.5t-2.5 -57v-56h193v37q0 53 5 92.5t20.5 65t43.5 38t73 12.5q28 0 51 -4t25 -12q2 -6 0 -14q-3 -20 -5.5 -27t-11.5 -7q-3 0 -18.5 2.5t-34.5 2.5q-25 0 -40 -8t-23.5 -24.5t-11 -40.5t-2.5 -57v-56h105q18 0 18 -20v-20q0 -20 -18 -20h-105v-386q0 -18 -19 -18
h-33q-11 0 -15 4.5t-4 13.5v386h-193z" />
    <glyph glyph-name="fi" unicode="fi" 
d="M38 404q-18 0 -18 20v20q0 20 18 20h54v48q0 46 9 82.5t28.5 62t50.5 39t76 13.5q36 0 67 -9t53 -20.5t34.5 -22.5t12.5 -14q0 -6 -3 -13t-7.5 -13t-9.5 -10t-9 -4q-3 0 -15 7t-30 15.5t-40 15.5t-46 7q-50 0 -75.5 -29t-25.5 -100v-55h256q19 0 19 -19v-427
q0 -9 -4 -13.5t-15 -4.5h-32q-12 0 -16 4.5t-4 13.5v386h-204v-386q0 -18 -19 -18h-33q-11 0 -14.5 4.5t-3.5 13.5v386h-54z" />
    <glyph glyph-name="fl" unicode="fl" horiz-adv-x="560" 
d="M439 172q0 -66 15 -94.5t59 -28.5q6 0 14 0.5t12 0.5q14 0 14 -14l2 -27q0 -10 -10.5 -14t-40.5 -4q-44 0 -71 14t-41 38t-18.5 56.5t-4.5 70.5v461q-20 5 -49 11.5t-57 6.5q-50 0 -75.5 -29.5t-25.5 -100.5v-55h119q18 0 18 -20v-20q0 -20 -18 -20h-119v-386
q0 -18 -19 -18h-33q-11 0 -14.5 4.5t-3.5 13.5v386h-54q-18 0 -18 20v20q0 20 18 20h54v29q0 49 7.5 89t26 68t50.5 43.5t80 15.5q41 0 74 -8t46 -13q3 1 10.5 4.5t16 7.5t16 6.5t11.5 2.5q5 0 7 -3t2 -13v-521v0z" />
    <glyph glyph-name="ffi" unicode="ffi" horiz-adv-x="781" 
d="M38 404q-18 0 -18 20v20q0 20 18 20h54v37q0 53 5 92.5t20.5 65t43 38t72.5 12.5q30 0 50.5 -4t22.5 -12q2 -6 0 -14q-3 -20 -5.5 -27t-11.5 -7q-5 0 -17.5 2.5t-32.5 2.5q-25 0 -40 -8t-23.5 -24.5t-11 -40.5t-2.5 -57v-56h193v29q0 49 7.5 89t26 68t50.5 43.5t81 15.5
q36 0 67 -9t53 -20.5t34.5 -22.5t12.5 -14q0 -6 -3 -13t-7.5 -13t-9.5 -10t-9 -4q-3 0 -15.5 7t-30.5 15.5t-40 15.5t-45 7q-51 0 -76 -29t-25 -100v-55h255q20 0 20 -19v-427q0 -18 -20 -18h-31q-12 0 -16 4.5t-4 13.5v386h-204v-386q0 -18 -19 -18h-33q-11 0 -15 4.5
t-4 13.5v386h-193v-386q0 -18 -19 -18h-33q-11 0 -14.5 4.5t-3.5 13.5v386h-54z" />
    <glyph glyph-name="ffl" unicode="ffl" horiz-adv-x="823" 
d="M38 404q-18 0 -18 20v20q0 20 18 20h54v37q0 60 7.5 100t24 64t43.5 34t67 10q10 0 22 -1t23 -2.5t18.5 -5t8.5 -7.5q2 -6 0 -14q-2 -21 -5 -27.5t-12 -6.5q-3 0 -17 2.5t-33 2.5q-25 0 -40 -8t-23.5 -24.5t-11 -40.5t-2.5 -57v-56h193v29q0 49 7.5 89t26.5 68t51 43.5
t80 15.5q41 0 74 -8t46 -13q15 12 33 16.5t20 4.5q7 0 8.5 -3.5t1.5 -12.5v-521q0 -66 14.5 -94.5t58.5 -28.5q6 0 14 0.5t12 0.5q14 0 14 -14l2 -27q0 -10 -10.5 -14t-40.5 -4q-44 0 -71 14t-41 38t-18.5 56.5t-4.5 70.5v461q-20 5 -49 11.5t-56 6.5q-51 0 -76 -29.5
t-25 -100.5v-55h118q19 0 19 -20v-20q0 -20 -19 -20h-118v-386q0 -18 -19 -18h-33q-11 0 -15 4.5t-4 13.5v386h-193v-386q0 -18 -19 -18h-33q-11 0 -14.5 4.5t-3.5 13.5v386h-54z" />
    <glyph glyph-name=".notdef" horiz-adv-x="190" 
 />
    <glyph glyph-name=".null" horiz-adv-x="0" 
 />
    <glyph glyph-name="nonmarkingreturn" unicode="&#xd;" horiz-adv-x="190" 
 />
    <glyph glyph-name="NULL" horiz-adv-x="0" 
 />
    <glyph glyph-name="NULL" horiz-adv-x="0" 
 />
    <glyph glyph-name="space" unicode=" " horiz-adv-x="190" 
 />
    <glyph glyph-name="exclam" unicode="!" horiz-adv-x="252" 
d="M162 364l-9 -153q-2 -17 -16 -17h-22q-16 0 -16 17l-9 153v318q0 18 19 18h33q20 0 20 -18v-318zM65 52q0 26 17.5 43.5t43.5 17.5q25 0 43 -17.5t18 -43.5t-18 -43.5t-43 -17.5q-26 0 -43.5 17.5t-17.5 43.5z" />
    <glyph glyph-name="quotedbl" unicode="&#x22;" horiz-adv-x="275" 
d="M99 452q-1 -17 -15 -17h-16q-13 0 -14 17l-14 228q0 10 4 15t16 5h33q12 0 16 -5t4 -15zM221 452q-1 -10 -3.5 -13.5t-10.5 -3.5h-16q-14 0 -15 17l-14 228q0 10 4 15t16 5h34q11 0 15 -5t4 -15z" />
    <glyph glyph-name="numbersign" unicode="#" horiz-adv-x="738" 
d="M237 484l42 188q3 13 8.5 20.5t19.5 7.5h25q20 0 20 -15q0 -1 -0.5 -5.5t-1.5 -7.5l-42 -188h170l42 188q3 13 8.5 20.5t19.5 7.5h25q20 0 20 -15q0 -1 -0.5 -5.5t-1.5 -7.5l-42 -188h100q11 0 15 -3t4 -14v-23q0 -11 -4 -14.5t-15 -3.5h-112l-32 -141h104q11 0 15 -3.5
t4 -14.5v-23q0 -10 -4 -13.5t-15 -3.5h-116l-44 -199q-3 -14 -8.5 -21t-19.5 -7h-25q-20 0 -20 15q0 5 2 13l44 199h-170l-44 -199q-3 -14 -8.5 -21t-19.5 -7h-25q-20 0 -20 15q0 5 2 13l44 199h-93q-11 0 -14.5 3.5t-3.5 13.5v23q0 10 3.5 14t14.5 4h105l32 141h-97
q-11 0 -14.5 4t-3.5 14v23q0 10 3.5 13.5t14.5 3.5h109zM264 285h170l32 141h-170z" />
    <glyph glyph-name="dollar" unicode="$" horiz-adv-x="526" 
d="M280 -86q0 -18 -19 -18h-24q-19 0 -19 18v78q-36 1 -65.5 8.5t-50 16.5t-31.5 17t-11 11t3 10.5t7 15.5t9 14.5t8 6.5q4 0 16 -6t30.5 -13.5t42 -13.5t52.5 -6q46 0 77.5 10.5t50.5 28t27 39t8 43.5q0 19 -7 37t-25.5 38t-50.5 43.5t-82 52.5q-75 45 -116.5 91t-41.5 108
q0 69 44 113t135 50v79q0 18 19 18h24q19 0 19 -18v-79q29 -2 52 -8t38.5 -12.5t23.5 -12t8 -8.5q0 -2 -3 -9.5t-7.5 -15.5t-9.5 -14.5t-8 -6.5q-4 0 -14 4t-26 9.5t-37.5 9.5t-49.5 4q-38 0 -64 -8t-41.5 -21.5t-22 -32.5t-6.5 -41q0 -39 34 -74.5t106 -80.5
q38 -23 71.5 -46t58.5 -47.5t39.5 -53.5t14.5 -64q0 -78 -50 -125t-136 -58v-81v0z" />
    <glyph glyph-name="percent" unicode="%" horiz-adv-x="901" 
d="M308 517q0 39 -4.5 65.5t-16 42.5t-29.5 22.5t-45 6.5q-28 0 -46.5 -6.5t-30 -22.5t-16.5 -42.5t-5 -65.5q0 -40 5 -67t16.5 -43t30 -22.5t46.5 -6.5q27 0 45 6.5t29.5 22.5t16 43t4.5 67zM373 517q0 -106 -37.5 -150t-122.5 -44q-43 0 -74 10.5t-50.5 33.5t-29 60
t-9.5 90q0 105 38.5 148.5t124.5 43.5q85 0 122.5 -43.5t37.5 -148.5zM555 672q6 14 11 21t16 7h36q17 0 17 -14q0 -2 -2 -7t-3 -7l-284 -644q-6 -14 -11 -21t-16 -7h-35q-17 0 -17 14q0 2 1.5 7t2.5 7zM786 185q0 39 -4.5 65.5t-16 42.5t-29.5 22.5t-45 6.5
q-28 0 -46.5 -6.5t-30 -22.5t-16.5 -42.5t-5 -65.5q0 -40 5 -67t16.5 -43t30 -22.5t46.5 -6.5q27 0 45 6.5t29.5 22.5t16 43t4.5 67zM851 185q0 -106 -37.5 -150t-122.5 -44q-43 0 -74 10.5t-50.5 33.5t-29 60t-9.5 90q0 105 38.5 148.5t124.5 43.5q85 0 122.5 -43.5
t37.5 -148.5z" />
    <glyph glyph-name="ampersand" unicode="&#x26;" horiz-adv-x="641" 
d="M577 363q0 -22 -3 -52.5t-9 -63t-16 -63t-25 -52.5l94 -93q5 -5 9 -10.5t4 -10.5q0 -11 -3 -14.5t-13 -3.5h-47q-6 0 -10 3t-7 6l-70 69q-17 -18 -35.5 -33.5t-43.5 -27.5t-58 -19t-78 -7q-64 0 -107.5 14.5t-69.5 40.5t-37.5 63.5t-11.5 82.5q0 40 13.5 69.5t34.5 51.5
t45.5 37t46.5 26q-12 14 -28 32t-30.5 40t-25 47t-10.5 53q0 36 8 65.5t30 50.5t60 33t97 12q92 0 136 -38t44 -116q0 -37 -15 -65.5t-39 -51.5t-55 -40.5t-63 -32.5l185 -184q14 29 23 74.5t9 107.5q0 14 4.5 21.5t16.5 7.5h30q13 0 16.5 -7.5t3.5 -21.5zM266 53
q59 0 98 18t70 53l-209 208q-50 -23 -80 -53.5t-30 -85.5q0 -74 36.5 -107t114.5 -33zM158 550q0 -35 26 -70.5t61 -71.5q65 28 105 60.5t40 82.5q0 97 -108 97q-72 0 -98 -23.5t-26 -74.5z" />
    <glyph glyph-name="quotesingle" unicode="'" horiz-adv-x="153" 
d="M99 452q-1 -17 -15 -17h-16q-13 0 -14 17l-14 228q0 10 4 15t16 5h33q12 0 16 -5t4 -15l-14 -228v0z" />
    <glyph glyph-name="parenleft" unicode="(" horiz-adv-x="246" 
d="M50 345q0 102 31.5 198.5t89.5 180.5q6 7 11 7q2 0 8 -2l16 -6q5 -3 5 -8q0 -3 -8 -23q-10 -24 -23.5 -60.5t-26 -81.5t-21 -97.5t-8.5 -107.5q0 -53 7.5 -101.5t19 -92.5t25.5 -82.5t27 -69.5q2 -7 5 -14t3 -9t-0.5 -4t-4.5 -4l-16 -6q-4 -2 -8 -2q-5 0 -11 7
q-58 85 -89.5 181t-31.5 197z" />
    <glyph glyph-name="parenright" unicode=")" horiz-adv-x="246" 
d="M196 345q0 -101 -31.5 -197t-89.5 -181q-4 -7 -10 -7q-5 0 -9 2l-15 6q-6 4 -6 8q0 2 3 9t5 14q13 31 27 69.5t25.5 82.5t19 92.5t7.5 101.5q0 55 -8.5 107.5t-21 97.5t-26 81.5t-23.5 60.5q-4 11 -6 16t-2 7q0 6 6 8l15 6q6 2 9 2q6 0 10 -7q58 -84 89.5 -180.5
t31.5 -198.5z" />
    <glyph glyph-name="asterisk" unicode="*" horiz-adv-x="430" 
d="M232 489l19 -120q0 -28 -27 -28h-19q-27 0 -27 28l19 120l-95 -76q-7 -6 -17 -6q-11 0 -20 15l-10 17q-5 7 -5 16q0 6 3.5 12t11.5 9l114 44l-114 44q-8 3 -11.5 9t-3.5 12q0 9 5 17l10 17q8 14 20 14q7 0 17 -5l95 -76l-19 120q0 28 27 28h19q27 0 27 -28l-19 -121
l96 77q4 3 8.5 4t8.5 1q12 0 20 -14l10 -17q5 -8 5 -17q0 -6 -3.5 -12t-11.5 -9l-115 -44l115 -44q8 -3 11.5 -9t3.5 -12q0 -9 -5 -16l-10 -17q-9 -15 -20 -15q-8 0 -17 6z" />
    <glyph glyph-name="plus" unicode="+" horiz-adv-x="495" 
d="M88 249q-11 0 -14.5 3.5t-3.5 14.5v22q0 11 3.5 14.5t14.5 3.5h130v131q0 11 3.5 14.5t14.5 3.5h22q11 0 14.5 -3.5t3.5 -14.5v-131h131q11 0 14.5 -3.5t3.5 -14.5v-22q0 -11 -3.5 -14.5t-14.5 -3.5h-131v-131q0 -11 -3.5 -14.5t-14.5 -3.5h-22q-11 0 -14.5 3.5
t-3.5 14.5v131h-130v0z" />
    <glyph glyph-name="comma" unicode="," horiz-adv-x="241" 
d="M58 51q0 26 18 44t44 18t43.5 -18t17.5 -44q0 -53 -26.5 -99t-64.5 -76q-11 -8 -21 -14.5t-15 -6.5q-8 0 -15 8.5t-9 14.5q14 9 26 22.5t21 28.5t14.5 30t5.5 27q0 3 -6 7.5t-13.5 12t-13.5 18.5t-6 27z" />
    <glyph glyph-name="hyphen" unicode="-" horiz-adv-x="448" 
d="M360 307q11 0 14.5 -3.5t3.5 -14.5v-22q0 -11 -3.5 -14.5t-14.5 -3.5h-272q-11 0 -14.5 3.5t-3.5 14.5v22q0 11 3.5 14.5t14.5 3.5h272z" />
    <glyph glyph-name="period" unicode="." horiz-adv-x="242" 
d="M60 52q0 26 17.5 43.5t43.5 17.5t43.5 -17.5t17.5 -43.5t-17.5 -43.5t-43.5 -17.5t-43.5 17.5t-17.5 43.5z" />
    <glyph glyph-name="slash" unicode="/" horiz-adv-x="388" 
d="M298 672q6 14 11 21t15 7h37q17 0 17 -14q0 -2 -1.5 -7t-2.5 -7l-284 -644q-6 -14 -11 -21t-15 -7h-37q-17 0 -17 14q0 2 1.5 7t2.5 7z" />
    <glyph glyph-name="zero" unicode="0" horiz-adv-x="604" 
d="M50 350q0 102 12.5 170.5t41.5 110.5t77.5 60t120.5 18t120.5 -18t77.5 -60t41.5 -110.5t12.5 -170.5t-12.5 -170.5t-41.5 -110.5t-77.5 -60t-120.5 -18t-120.5 18t-77.5 60t-41.5 110.5t-12.5 170.5zM480 350q0 90 -7.5 148t-27.5 91.5t-54.5 47t-88.5 13.5t-88.5 -13.5
t-54.5 -47t-27.5 -91.5t-7.5 -148t7.5 -148t27.5 -91.5t54.5 -47t88.5 -13.5t88.5 13.5t54.5 47t27.5 91.5t7.5 148z" />
    <glyph glyph-name="one" unicode="1" horiz-adv-x="395" 
d="M69 0q-18 0 -18 19v23q0 19 18 19h114v559l-114 -34q-2 -1 -5.5 -2t-5.5 -1q-13 0 -13 19v28q0 14 16 20q37 14 67 25q26 9 47.5 17t25.5 8h35q11 0 15 -4.5t4 -13.5v-621h102q10 0 14 -4t4 -15v-23q0 -19 -18 -19h-288v0z" />
    <glyph glyph-name="two" unicode="2" horiz-adv-x="476" 
d="M199 648q-30 0 -53.5 -5.5t-40 -12.5t-26 -12.5t-13.5 -5.5t-9 5.5t-9.5 13t-7.5 15t-3 12.5q0 3 12 11.5t33.5 17.5t51 15.5t65.5 6.5q108 0 164 -45t56 -130q0 -28 -6.5 -53.5t-16.5 -47t-22 -39.5t-23 -31l-251 -302h328q10 0 14 -4t4 -15v-23q0 -19 -18 -19h-394
q-12 0 -15.5 5.5t-3.5 21.5v13q0 21 9 31l253 308q28 34 48 69.5t20 83.5q0 24 -7.5 45t-25 36.5t-45.5 25t-68 9.5z" />
    <glyph glyph-name="three" unicode="3" horiz-adv-x="453" 
d="M168 -9q-36 0 -64 4.5t-48 10.5t-30.5 12.5t-10.5 10.5q0 3 2.5 11t5.5 16t7 14.5t7 6.5q5 0 15.5 -4t27 -8.5t39 -8t49.5 -3.5q167 0 167 141q0 29 -10 54t-30 43t-51 28t-74 10h-57q-17 0 -17 19v22q0 20 17 20h50q80 0 121 36.5t41 100.5q0 26 -7 48t-24 38.5
t-45 25.5t-69 9q-30 0 -53 -5.5t-39 -11.5t-25.5 -11.5t-13.5 -5.5q-3 0 -8 6t-10 14t-8.5 15t-3.5 10t11.5 11t32.5 17t51 15.5t68 6.5q61 0 102.5 -15t67 -40t36 -57.5t10.5 -68.5q0 -62 -29 -103.5t-75 -60.5q22 -9 42.5 -22.5t36.5 -34t25.5 -48.5t9.5 -66
q0 -53 -17 -91.5t-48.5 -63t-75.5 -36t-99 -11.5z" />
    <glyph glyph-name="four" unicode="4" horiz-adv-x="525" 
d="M221 686q3 7 6 10.5t10 3.5h47q13 0 13 -11q0 -2 -1 -4.5t-3 -6.5l-190 -413h246v180q0 19 19 19h33q20 0 20 -19v-180h65q19 0 19 -20v-22q0 -19 -19 -19h-65v-186q0 -18 -20 -18h-33q-19 0 -19 18v186h-321q-8 0 -13 3t-5 9q0 7 4 13l207 457v0z" />
    <glyph glyph-name="five" unicode="5" horiz-adv-x="477" 
d="M183 53q40 0 73 10.5t57 30.5t37 50.5t13 71.5q0 34 -8.5 63t-31 50t-60.5 33t-97 12h-71q-18 0 -25.5 8.5t-7.5 29.5v270q0 18 20 18h307q18 0 18 -19v-23q0 -11 -4 -15t-14 -4h-255v-204h75q49 0 90.5 -13.5t72 -40.5t48 -68.5t17.5 -97.5q0 -42 -14 -82t-44 -71.5
t-78.5 -51t-117.5 -19.5q-36 0 -64.5 4.5t-48 10.5t-30 12.5t-10.5 10.5q0 3 2 11t5 16t7 14.5t7 6.5q5 0 16 -4t27.5 -8.5t38.5 -8t50 -3.5z" />
    <glyph glyph-name="six" unicode="6" horiz-adv-x="533" 
d="M350 673q-20 -24 -42.5 -54t-45.5 -62.5t-45 -67t-41 -68.5q11 6 26 10q13 4 32 7t45 3q48 0 88 -15t69 -43.5t45.5 -70t16.5 -94.5q0 -44 -13.5 -85t-42 -72.5t-73 -50.5t-105.5 -19q-59 0 -102 16t-71.5 46t-42 71.5t-13.5 92.5q0 86 62 203.5t179 265.5q12 14 22 14
h46q14 0 14 -9q0 -3 -1.5 -7t-6.5 -11zM108 218q0 -36 9 -66.5t28 -52.5t48.5 -34t70.5 -12q72 0 116.5 43.5t44.5 122.5q0 33 -9 62.5t-29 51.5t-53.5 35t-81.5 13q-23 0 -43 -4.5t-34 -9.5q-17 -6 -30 -13q-16 -29 -26.5 -66.5t-10.5 -69.5z" />
    <glyph glyph-name="seven" unicode="7" horiz-adv-x="444" 
d="M38 639q-10 0 -14 4t-4 16v22q0 19 18 19h379q12 0 12 -11q0 -3 -1.5 -8t-3.5 -8l-271 -659q-6 -14 -14 -14h-47q-13 0 -13 10q0 4 3 12l254 617h-298v0z" />
    <glyph glyph-name="eight" unicode="8" horiz-adv-x="568" 
d="M284 -9q-128 0 -186 49t-58 156q0 71 35 112t86 56q-19 6 -36.5 18.5t-31 32t-22 47t-8.5 64.5q0 43 11.5 77t38 57.5t68.5 36t103 12.5q60 0 102.5 -12t68.5 -35t38 -57t12 -79q0 -37 -9 -64t-23 -45.5t-31.5 -30t-33.5 -17.5q60 -24 90 -64t30 -109q0 -107 -57.5 -156
t-186.5 -49zM296 390q62 2 100 37.5t38 98.5q0 68 -37 94.5t-113 26.5t-113 -26.5t-37 -94.5q0 -31 8 -55t26.5 -41.5t49.5 -27.5t78 -12zM284 53q90 0 130 34.5t40 109.5q0 70 -49.5 101.5t-142.5 31.5q-69 0 -108.5 -34t-39.5 -99q0 -75 40 -109.5t130 -34.5z" />
    <glyph glyph-name="nine" unicode="9" horiz-adv-x="532" 
d="M181 27q37 48 83 109.5t93 142.5q-10 -5 -25 -9q-13 -4 -31.5 -6.5t-43.5 -2.5q-50 0 -90.5 16t-70 45t-45.5 69.5t-16 89.5q0 47 14.5 88.5t43.5 72.5t72.5 49t102.5 18q61 0 104.5 -17t71.5 -47t40.5 -72t12.5 -93q0 -81 -62.5 -199t-178.5 -267q-11 -14 -21 -14h-48
q-14 0 -14 11q0 5 8 16zM424 479q0 75 -37.5 121.5t-119.5 46.5q-72 0 -115.5 -44t-43.5 -123q0 -32 9 -61t29 -51t53.5 -35t81.5 -13q23 0 43 4t34 9q17 5 31 13q15 30 25 65.5t10 67.5z" />
    <glyph glyph-name="colon" unicode=":" horiz-adv-x="242" 
d="M60 52q0 26 17.5 43.5t43.5 17.5t43.5 -17.5t17.5 -43.5t-17.5 -43.5t-43.5 -17.5t-43.5 17.5t-17.5 43.5zM60 343q0 26 17.5 43.5t43.5 17.5t43.5 -17.5t17.5 -43.5t-17.5 -43.5t-43.5 -17.5t-43.5 17.5t-17.5 43.5z" />
    <glyph glyph-name="semicolon" unicode=";" horiz-adv-x="242" 
d="M58 51q0 26 18 44t44 18t43.5 -18t17.5 -44q0 -53 -26.5 -99t-64.5 -76q-11 -8 -21 -14.5t-15 -6.5q-8 0 -15 8.5t-9 14.5q14 9 26 22.5t21 28.5t14.5 30t5.5 27q0 3 -6 7.5t-13.5 12t-13.5 18.5t-6 27zM60 343q0 26 17.5 43.5t43.5 17.5t43.5 -17.5t17.5 -43.5
t-17.5 -43.5t-43.5 -17.5t-43.5 17.5t-17.5 43.5z" />
    <glyph glyph-name="less" unicode="&#x3c;" horiz-adv-x="439" 
d="M80 258q-10 6 -10 13v16q0 6 10 13l247 171q7 6 13 6t13 -10l10 -16q6 -8 6 -11q0 -7 -10 -14l-212 -147l212 -148q10 -7 10 -13q0 -4 -6 -12l-10 -15q-6 -10 -13 -10q-5 0 -13 5z" />
    <glyph glyph-name="equal" unicode="=" horiz-adv-x="523" 
d="M435 391q11 0 14.5 -3.5t3.5 -14.5v-22q0 -11 -3.5 -14.5t-14.5 -3.5h-347q-11 0 -14.5 3.5t-3.5 14.5v22q0 11 3.5 14.5t14.5 3.5h347zM435 225q11 0 14.5 -3.5t3.5 -14.5v-22q0 -11 -3.5 -14.5t-14.5 -3.5h-347q-11 0 -14.5 3.5t-3.5 14.5v22q0 11 3.5 14.5t14.5 3.5
h347z" />
    <glyph glyph-name="greater" unicode="&#x3e;" horiz-adv-x="439" 
d="M112 86q-8 -5 -14 -5t-12 10l-10 15q-6 6 -6 12t10 13l212 148l-212 147q-10 7 -10 14q0 5 6 11l10 16q7 10 13 10q5 0 13 -6l247 -171q10 -7 10 -13v-16q0 -7 -10 -13z" />
    <glyph glyph-name="question" unicode="?" horiz-adv-x="474" 
d="M145 194q-11 0 -14.5 5.5t-3.5 19.5v32q0 28 3.5 49t13.5 38t29 32t49 32q39 22 64 39.5t39 34.5t19 34.5t5 40.5q0 44 -30.5 70.5t-104.5 26.5q-27 0 -50.5 -5.5t-42.5 -11.5t-31 -11.5t-15 -5.5q-5 0 -10 6.5t-9.5 14.5t-7.5 15.5t-3 9.5q0 3 14 11t37.5 16.5t54.5 15
t66 6.5q55 0 94.5 -11t64.5 -31.5t36.5 -49.5t11.5 -66q0 -32 -8 -57t-25.5 -47.5t-44.5 -43t-65 -42.5q-27 -17 -43.5 -27.5t-25.5 -22t-11.5 -26t-2.5 -39.5v-27q0 -14 -3 -19.5t-14 -5.5h-36zM102 52q0 26 17.5 43.5t43.5 17.5t43.5 -17.5t17.5 -43.5t-17.5 -43.5
t-43.5 -17.5t-43.5 17.5t-17.5 43.5z" />
    <glyph glyph-name="at" unicode="@" horiz-adv-x="922" 
d="M555 360q-12 7 -27 12q-13 5 -30.5 9t-37.5 4q-75 0 -103 -47.5t-28 -133.5q0 -34 8.5 -59t22.5 -41t32 -23.5t37 -7.5q43 0 71 19t42 39zM602 -123q2 -4 2.5 -8.5t0.5 -5.5q0 -6 -15.5 -12t-40 -11t-54.5 -8t-59 -3q-85 0 -153 25.5t-115 73t-72.5 116t-25.5 155.5
q0 85 24.5 161.5t74 134t125.5 91t178 33.5q93 0 164 -27.5t119 -73.5t72.5 -106.5t24.5 -126.5q0 -70 -18 -120.5t-46.5 -83.5t-65 -48.5t-73.5 -15.5q-27 0 -44.5 9t-28.5 20q-12 12 -19 29q-16 -17 -36 -29q-18 -11 -43.5 -20t-59.5 -9q-69 0 -112.5 49t-43.5 137
q0 111 47 174.5t154 63.5q28 0 53.5 -5.5t46.5 -13t36.5 -16t24.5 -14.5l-17 -262q0 -23 12.5 -39.5t41.5 -16.5q22 0 44.5 12t40.5 37.5t29.5 65t11.5 94.5q0 58 -21.5 108.5t-62 88t-99 59t-131.5 21.5q-95 0 -159.5 -32t-104 -83t-56.5 -115.5t-17 -130.5q0 -77 22 -135
t61.5 -97t94.5 -59t122 -20q45 0 80 7t58 14q5 1 8 2t5 1q5 0 6.5 -3.5t3.5 -9.5z" />
    <glyph glyph-name="A" unicode="A" horiz-adv-x="565" 
d="M401 266l-119 366l-118 -366h237zM553 18q2 -6 2 -8q0 -10 -14 -10h-40q-10 0 -13 3.5t-7 14.5l-61 187h-276l-60 -187q-3 -9 -6 -13.5t-14 -4.5h-39q-15 0 -15 10q0 2 2 8l214 664q3 10 6.5 14t12.5 4h75q9 0 12.5 -3.5t7.5 -14.5z" />
    <glyph glyph-name="B" unicode="B" horiz-adv-x="567" 
d="M60 682q0 18 19 18h237q60 0 98 -17t59.5 -43.5t29.5 -59t8 -64.5q0 -52 -18.5 -89t-48.5 -60q42 -23 65 -64t23 -108q0 -42 -12 -77.5t-36 -61.5t-60 -41t-84 -15h-261q-19 0 -19 18v664zM458 195q0 68 -32 102.5t-104 34.5h-190v-271h196q58 0 94 31t36 103zM438 516
q0 27 -6.5 49.5t-21.5 39t-40.5 25.5t-64.5 9h-173v-246h174q39 0 64.5 9.5t40.5 26t21 39t6 48.5z" />
    <glyph glyph-name="C" unicode="C" horiz-adv-x="523" 
d="M317 -9q-73 0 -124 19.5t-82.5 62t-46 111t-14.5 166.5t14.5 166.5t46 111t82.5 62t124 19.5q37 0 65.5 -5.5t48 -13t29.5 -14.5t10 -10q0 -6 -12 -27q-7 -11 -10.5 -15t-6.5 -4q-4 0 -12.5 4t-23.5 9.5t-36.5 9.5t-51.5 4q-56 0 -92.5 -15.5t-59 -51t-31.5 -92
t-9 -138.5t9 -138.5t31.5 -92t59 -51t92.5 -15.5q30 0 54.5 5.5t42.5 12t29 12t15 5.5q7 0 14 -13q4 -9 7.5 -19.5t3.5 -13.5q0 -4 -12 -12.5t-34 -17t-52.5 -15t-67.5 -6.5z" />
    <glyph glyph-name="D" unicode="D" horiz-adv-x="597" 
d="M60 682q0 18 19 18h194q73 0 125 -18t85 -59t48.5 -108t15.5 -165t-15.5 -165t-48.5 -108t-85 -59t-125 -18h-194q-19 0 -19 18v664zM273 61q58 0 96.5 15t61.5 48.5t32.5 89t9.5 136.5t-9.5 136.5t-32.5 89t-61.5 48.5t-96.5 15h-141v-578h141z" />
    <glyph glyph-name="E" unicode="E" 
d="M60 682q0 18 19 18h349q18 0 18 -19v-23q0 -11 -4 -15t-14 -4h-296v-250h277q18 0 18 -19v-23q0 -19 -18 -19h-277v-267h297q10 0 14 -4t4 -15v-23q0 -19 -18 -19h-350q-19 0 -19 18v664v0z" />
    <glyph glyph-name="F" unicode="F" horiz-adv-x="476" 
d="M60 682q0 18 19 18h340q17 0 17 -19v-23q0 -11 -4 -15t-13 -4h-287v-250h268q17 0 17 -19v-23q0 -19 -17 -19h-268v-310q0 -18 -19 -18h-34q-19 0 -19 18v664v0z" />
    <glyph glyph-name="G" unicode="G" horiz-adv-x="575" 
d="M446 300q0 10 3.5 14.5t14.5 4.5h34q11 0 15 -4.5t4 -14.5v-253q0 -6 -1.5 -11t-8.5 -8q-8 -5 -25.5 -11t-42.5 -12t-56.5 -10t-65.5 -4q-73 0 -124 19.5t-82.5 62t-46 111t-14.5 166.5t14.5 166.5t46 111t82.5 62t124 19.5q33 0 60 -5t45.5 -11.5t29 -13.5t10.5 -10
q0 -7 -11 -26q-11 -21 -18 -21q-3 0 -11.5 4t-23 8.5t-34.5 8.5t-47 4q-56 0 -92.5 -15.5t-59 -51t-31.5 -92t-9 -138.5t9 -138.5t31.5 -92t59 -51t92.5 -15.5q41 0 75 6t54 13v228v0z" />
    <glyph glyph-name="H" unicode="H" horiz-adv-x="581" 
d="M449 682q0 18 19 18h34q11 0 15 -4.5t4 -13.5v-664q0 -9 -4 -13.5t-15 -4.5h-34q-19 0 -19 18v311h-317v-311q0 -18 -19 -18h-34q-19 0 -19 18v664q0 18 19 18h34q19 0 19 -18v-292h317v292v0z" />
    <glyph glyph-name="I" unicode="I" horiz-adv-x="192" 
d="M60 682q0 18 19 18h34q19 0 19 -18v-664q0 -18 -19 -18h-34q-11 0 -15 4.5t-4 13.5v664v0z" />
    <glyph glyph-name="J" unicode="J" horiz-adv-x="438" 
d="M20 32q0 3 3 10.5t7 15.5t8.5 14t8.5 6q3 0 7 -1.5l12 -4.5q7 -2 33.5 -10.5t66.5 -8.5q37 0 64.5 9.5t45.5 34t27 67.5t9 111v364h-172q-10 0 -14 4t-4 16v22q0 19 18 19h225q11 0 14.5 -4.5t3.5 -13.5v-398q0 -70 -8.5 -124.5t-32.5 -92t-66.5 -57t-109.5 -19.5
q-34 0 -61 4.5t-46 11.5t-29 13.5t-10 11.5z" />
    <glyph glyph-name="K" unicode="K" horiz-adv-x="507" 
d="M369 686q4 6 8 10t12 4h47q13 0 13 -11q0 -6 -5 -14l-246 -319l293 -331q6 -6 6 -13q0 -12 -13 -12h-49q-8 0 -12 4l-10 10l-281 317v-313q0 -18 -19 -18h-34q-19 0 -19 18v664q0 18 19 18h34q19 0 19 -18v-308l237 312v0z" />
    <glyph glyph-name="L" unicode="L" horiz-adv-x="465" 
d="M79 0q-19 0 -19 18v664q0 18 19 18h34q19 0 19 -18v-621h285q9 0 13.5 -4t4.5 -15v-23q0 -19 -18 -19h-338v0z" />
    <glyph glyph-name="M" unicode="M" horiz-adv-x="621" 
d="M60 682q0 18 18 18h36q10 0 16 -9l181 -304l180 304q6 9 16 9h36q18 0 18 -18v-664q0 -18 -19 -18h-34q-19 0 -19 18v537l-147 -238q-7 -13 -17 -13h-29q-10 0 -18 13l-146 238v-537q0 -18 -19 -18h-34q-19 0 -19 18v664z" />
    <glyph glyph-name="N" unicode="N" horiz-adv-x="578" 
d="M447 682q0 9 3.5 13.5t14.5 4.5h34q19 0 19 -18v-664q0 -18 -19 -18h-36q-9 0 -12.5 3t-7.5 11l-311 536v-532q0 -18 -19 -18h-34q-19 0 -19 18v664q0 18 17 18h37q8 0 11.5 -3.5t8.5 -10.5l313 -542v538v0z" />
    <glyph glyph-name="O" unicode="O" horiz-adv-x="628" 
d="M125 350q0 -76 7.5 -132t28.5 -92.5t58 -54.5t95 -18t95 18t58 54.5t28.5 92.5t7.5 132t-7.5 131.5t-28.5 92.5t-58 55t-95 18t-95 -18t-58 -55t-28.5 -92.5t-7.5 -131.5zM50 350q0 97 14 165.5t45.5 111.5t82 62.5t122.5 19.5t122.5 -19.5t82 -62.5t45.5 -111.5
t14 -165.5t-14 -165.5t-45.5 -111.5t-82 -62.5t-122.5 -19.5t-122.5 19.5t-82 62.5t-45.5 111.5t-14 165.5z" />
    <glyph glyph-name="P" unicode="P" horiz-adv-x="554" 
d="M60 682q0 18 19 18h246q59 0 97.5 -17t61 -44.5t31.5 -63t9 -71.5t-9 -71t-31.5 -63t-61 -45t-97.5 -17h-193v-290q0 -18 -19 -18h-34q-19 0 -19 18v664zM451 504q0 31 -7 56t-22.5 42.5t-41.5 27t-65 9.5h-183v-270h183q77 0 106.5 36.5t29.5 98.5z" />
    <glyph glyph-name="Q" unicode="Q" horiz-adv-x="629" 
d="M579 350q0 -156 -38.5 -239t-126.5 -108l34 -124q1 -3 1.5 -5t0.5 -4q0 -9 -15 -14l-26 -7q-4 -2 -10 -2q-8 0 -13 14l-36 132q-5 -1 -10 -1q-5 -1 -11.5 -1h-13.5q-72 0 -122.5 19.5t-82 62.5t-46 111t-14.5 166q0 97 14.5 165.5t46 111.5t82 62.5t122.5 19.5t122 -19.5
t81.5 -62.5t46 -111.5t14.5 -165.5zM125 350q0 -78 8.5 -134t30 -92t58.5 -53.5t94 -17.5h8.5t8.5 1l-28 102q-2 8 -2 13q0 9 12 12l30 8q3 1 5.5 1h4.5q5 0 7.5 -3.5t4.5 -11.5l29 -108q33 12 54 35.5t33 59.5t16.5 83t4.5 105q0 75 -7.5 130.5t-28 92.5t-57.5 55.5
t-96 18.5t-96 -18.5t-58 -55.5t-28.5 -92.5t-7.5 -130.5z" />
    <glyph glyph-name="R" unicode="R" horiz-adv-x="570" 
d="M295 294h-163v-276q0 -18 -19 -18h-34q-19 0 -19 18v664q0 18 19 18h246q59 0 97.5 -18.5t61 -47.5t31.5 -66t9 -73q0 -33 -7 -65t-24.5 -59.5t-47 -47.5t-74.5 -27l160 -274q4 -8 4 -11q0 -11 -14 -11h-47q-7 0 -10.5 3.5t-6.5 8.5zM450 496q0 31 -7 57.5t-22.5 45.5
t-41.5 29.5t-65 10.5h-182v-284h182q77 0 106.5 38.5t29.5 102.5z" />
    <glyph glyph-name="S" unicode="S" horiz-adv-x="476" 
d="M62 92q4 0 16 -6t30.5 -13.5t42 -13.5t52.5 -6q46 0 77.5 10.5t50.5 28t27 39t8 43.5q0 19 -7 37t-25.5 38t-50.5 43.5t-82 52.5q-75 45 -116.5 91t-41.5 108q0 75 52 120t158 45q36 0 64.5 -5.5t48 -13t30 -14.5t10.5 -10q0 -2 -3 -9.5t-7.5 -15.5t-9.5 -14.5t-8 -6.5
q-4 0 -14 4t-26 9.5t-37.5 9.5t-49.5 4q-38 0 -64 -8t-41.5 -21.5t-22 -32.5t-6.5 -41q0 -39 34 -74.5t106 -80.5q38 -23 71.5 -46t58.5 -47.5t39.5 -53.5t14.5 -64q0 -45 -17 -79.5t-47.5 -58.5t-74 -36.5t-97.5 -12.5q-39 0 -70.5 7.5t-53.5 16.5t-34 18t-12 12t3 10.5
t7 15.5t9 14.5t8 6.5z" />
    <glyph glyph-name="T" unicode="T" horiz-adv-x="513" 
d="M34 640q-10 0 -14.5 4t-4.5 15v22q0 19 19 19h446q18 0 18 -19v-23q0 -11 -4 -14.5t-14 -3.5h-187v-622q0 -9 -4 -13.5t-15 -4.5h-34q-19 0 -19 18v622h-187v0z" />
    <glyph glyph-name="U" unicode="U" horiz-adv-x="592" 
d="M296 53q51 0 84 12t51.5 39t26 70.5t7.5 107.5v400q0 18 19 18h33q20 0 20 -18v-397q0 -79 -11.5 -134.5t-39 -91t-74 -52t-116.5 -16.5t-116.5 16.5t-74 52t-39 91t-11.5 134.5v397q0 18 19 18h34q19 0 19 -18v-400q0 -64 7 -107.5t26 -70.5t52 -39t84 -12z" />
    <glyph glyph-name="V" unicode="V" horiz-adv-x="539" 
d="M12 682q-2 6 -2 8q0 10 15 10h41q10 0 13 -4.5t6 -13.5l184 -611l185 611q3 9 6 13.5t14 4.5h40q15 0 15 -10q0 -2 -2 -8l-201 -664q-3 -10 -6 -14t-13 -4h-75q-10 0 -13.5 4t-6.5 14z" />
    <glyph glyph-name="W" unicode="W" horiz-adv-x="845" 
d="M606 71q28 114 49.5 201t37 151.5t26.5 109t18 73.5l19 77q2 8 5 12.5t12 4.5h43q14 0 14 -8q0 -2 -2 -10l-166 -664q-2 -9 -5.5 -13.5t-13.5 -4.5h-74q-10 0 -14 4.5t-6 13.5l-127 537l-126 -537q-3 -10 -6.5 -14t-13.5 -4h-73q-11 0 -14.5 4.5t-5.5 13.5l-166 664
l-2 10q0 8 13 8h45q10 0 12 -5t4 -13l150 -611l146 611q2 9 5 13.5t12 4.5h42q8 0 11 -4.5t5 -13.5l146 -611v0z" />
    <glyph glyph-name="X" unicode="X" horiz-adv-x="526" 
d="M513 22q3 -4 3 -10q0 -5 -3 -8.5t-11 -3.5h-47q-7 0 -10 3.5t-7 10.5l-175 292l-174 -292q-5 -7 -8.5 -10.5t-9.5 -3.5h-46q-8 0 -11.5 3.5t-3.5 8.5q0 6 3 10l211 348l-187 308q-3 6 -3 11q0 11 13 11h49q8 0 10.5 -4t7.5 -10l149 -252l150 252q4 7 7 10.5t10 3.5h50
q13 0 13 -11q0 -6 -4 -11l-187 -308l211 -348v0z" />
    <glyph glyph-name="Y" unicode="Y" horiz-adv-x="502" 
d="M10 689q0 11 14 11h48q8 0 11 -4t7 -12l161 -317l162 319q4 6 7.5 10t10.5 4h47q14 0 14 -11q0 -5 -3 -11l-202 -381v-279q0 -9 -4 -13.5t-15 -4.5h-34q-19 0 -19 18v279l-202 381q-3 6 -3 11z" />
    <glyph glyph-name="Z" unicode="Z" horiz-adv-x="533" 
d="M64 639q-9 0 -13.5 4t-4.5 16v22q0 19 18 19h429q15 0 15 -11q0 -5 -5 -13l-371 -615h351q9 0 13.5 -4t4.5 -15v-23q0 -19 -18 -19h-443q-8 0 -11.5 4t-3.5 8q0 5 5 12l369 615h-335v0z" />
    <glyph glyph-name="bracketleft" unicode="[" horiz-adv-x="302" 
d="M78 -216q-11 0 -14.5 4t-3.5 13v906q0 11 3.5 14.5t14.5 3.5h176q11 0 14.5 -3.5t3.5 -14.5v-22q0 -11 -3.5 -14.5t-14.5 -3.5h-123v-825h123q11 0 14.5 -3.5t3.5 -14.5v-23q0 -10 -3.5 -13.5t-14.5 -3.5h-176v0z" />
    <glyph glyph-name="backslash" unicode="\" horiz-adv-x="388" 
d="M374 28q1 -2 2.5 -7t1.5 -7q0 -14 -17 -14h-37q-10 0 -15 7t-11 21l-284 644q-1 2 -2.5 7t-1.5 7q0 14 17 14h37q10 0 15 -7t11 -21z" />
    <glyph glyph-name="bracketright" unicode="]" horiz-adv-x="302" 
d="M48 -216q-11 0 -14.5 3.5t-3.5 13.5v23q0 11 3.5 14.5t14.5 3.5h123v825h-123q-11 0 -14.5 3.5t-3.5 14.5v22q0 11 3.5 14.5t14.5 3.5h176q11 0 14.5 -3.5t3.5 -14.5v-906q0 -9 -3.5 -13t-14.5 -4h-176z" />
    <glyph glyph-name="underscore" unicode="_" horiz-adv-x="518" 
d="M490 -64q11 0 14.5 -3.5t3.5 -13.5v-23q0 -10 -3.5 -14t-14.5 -4h-462q-11 0 -14.5 3.5t-3.5 14.5v23q0 10 3.5 13.5t14.5 3.5h462z" />
    <glyph glyph-name="grave" unicode="`" horiz-adv-x="305" 
d="M64 637q-14 9 -14 19q0 8 6 15l17 22q7 10 17 10t19 -9l136 -121q4 -4 7 -7.5t3 -7.5t-4 -9l-8 -10l-4.5 -4.5t-4.5 -1.5q-4 0 -17 8z" />
    <glyph glyph-name="a" unicode="a" horiz-adv-x="520" 
d="M500 50q8 0 11 -15q1 -6 2.5 -16t1.5 -12q0 -5 -11.5 -10.5t-40.5 -5.5q-20 0 -34 5.5t-23.5 14t-15 18t-8.5 18.5q-3 -3 -14 -12.5t-29.5 -19t-44 -17t-57.5 -7.5q-89 0 -140.5 56t-51.5 183q0 68 14.5 114.5t41.5 75t66.5 41t89.5 12.5q36 0 66 -5.5t53 -13t38.5 -15.5
t22.5 -12v-323q0 -26 8.5 -41t33.5 -15q7 0 12.5 1t8.5 1zM366 389q-15 7 -32 12q-15 5 -34 9t-42 4q-35 0 -61.5 -9t-44.5 -30.5t-27 -57t-9 -87.5q0 -95 33 -137.5t98 -42.5q27 0 48.5 7.5t36.5 17t23.5 19t10.5 12.5v283z" />
    <glyph glyph-name="b" unicode="b" 
d="M60 677q0 9 3 13.5t14 7.5q17 5 28.5 8t15.5 3q6 0 7.5 -3t1.5 -13v-259q13 10 31 19q15 8 38 14t52 6q44 0 81 -13t63.5 -41.5t41.5 -74.5t15 -112q0 -70 -14.5 -116.5t-42.5 -74t-68 -39t-91 -11.5q-42 0 -89 9t-87 22v655zM380 232q0 52 -9.5 87t-27 56t-43 30
t-58.5 9q-26 0 -46 -6t-35 -14q-18 -9 -31 -19v-309q14 -4 32 -8q15 -3 34.5 -5.5t40.5 -2.5q32 0 58.5 7t45 27t29 55.5t10.5 92.5z" />
    <glyph glyph-name="c" unicode="c" horiz-adv-x="403" 
d="M254 50q47 0 71 10t32 10q5 0 9 -5t6.5 -11.5t4 -13.5t1.5 -11q0 -7 -11 -14t-28 -12t-38 -8.5t-41 -3.5q-55 0 -95.5 13t-67 41.5t-39.5 74.5t-13 112q0 67 14 113.5t40.5 74.5t65.5 40.5t90 12.5q19 0 38.5 -3t35.5 -8t26 -11.5t10 -12.5q0 -2 -2.5 -9t-6 -14
t-7.5 -12.5t-8 -5.5q-8 0 -28.5 8.5t-55.5 8.5t-61.5 -8t-44 -28t-26.5 -55.5t-9 -90.5q0 -47 6.5 -81t22.5 -56.5t42.5 -33.5t66.5 -11z" />
    <glyph glyph-name="d" unicode="d" 
d="M437 22q-42 -13 -89 -22t-89 -9q-50 0 -90 11t-67.5 38.5t-42 74t-14.5 117.5q0 66 15.5 112t43.5 74.5t65.5 41.5t81.5 13q27 0 48.5 -5.5t36.5 -11.5q18 -7 30 -16v248q0 11 3 14.5t11 3.5q2 0 8.5 -0.5t12.5 -1.5q7 -1 15 -2q11 -2 16 -6t5 -14v-660zM366 380
q-13 9 -29 17q-14 6 -33.5 11.5t-43.5 5.5q-32 0 -58.5 -9t-45.5 -30t-29.5 -56t-10.5 -87q0 -57 10 -93t29 -55.5t45.5 -26.5t58.5 -7q20 0 39.5 2.5t34.5 5.5q18 4 33 8v314z" />
    <glyph glyph-name="e" unicode="e" horiz-adv-x="474" 
d="M360 272q0 61 -27 101.5t-89 40.5q-68 0 -97.5 -42t-29.5 -112h243v12zM269 -9q-63 0 -106 14.5t-69.5 44.5t-37.5 75.5t-11 106.5q0 118 49.5 179.5t149.5 61.5q96 0 140.5 -56t44.5 -169q0 -26 -6.5 -35t-26.5 -9h-279q0 -38 7.5 -66.5t25.5 -48t48 -29.5t75 -10
q52 0 81 10.5t37 10.5q4 0 8 -5t7 -12t4.5 -14t1.5 -11q0 -8 -13.5 -14.5t-34 -12t-46 -8.5t-49.5 -3z" />
    <glyph glyph-name="f" unicode="f" horiz-adv-x="300" 
d="M38 404q-18 0 -18 20v20q0 20 18 20h54v37q0 53 5 92.5t20.5 65t43 38t72.5 12.5q29 0 51 -4.5t25 -11.5q1 -2 1 -6q0 -1 -1 -5q-2 -6 -3 -18q-2 -8 -3.5 -13.5t-9.5 -5.5q-4 0 -19.5 2.5t-34.5 2.5q-25 0 -40 -8t-23.5 -24.5t-11 -40.5t-2.5 -57v-56h105q18 0 18 -20
v-20q0 -20 -18 -20h-105v-386q0 -18 -19 -18h-33q-11 0 -14.5 4.5t-3.5 13.5v386h-54z" />
    <glyph glyph-name="g" unicode="g" horiz-adv-x="499" 
d="M439 -38q0 -48 -13.5 -82.5t-38 -56t-58.5 -31.5t-75 -10q-25 0 -52.5 3.5t-50 8.5t-37.5 11t-15 11q0 6 2 14t5 15t6.5 12t6.5 5t14.5 -3.5t28.5 -7.5t38.5 -7.5t44.5 -3.5q60 0 91.5 28.5t31.5 95.5v67q-15 -11 -48 -25.5t-79 -14.5q-93 0 -144.5 56t-51.5 183
q0 68 14.5 114.5t41.5 75t66.5 41t89.5 12.5q36 0 66.5 -5.5t53.5 -13t39 -15.5t23 -12v-465zM368 389q-14 7 -32 12q-15 5 -35 8.5t-43 3.5q-36 0 -62.5 -9t-44.5 -30t-26.5 -56.5t-8.5 -87.5q0 -96 33 -138t99 -42q31 0 53.5 8.5t37.5 19t22 19t7 9.5v283z" />
    <glyph glyph-name="h" unicode="h" horiz-adv-x="503" 
d="M60 677q0 9 3 13t14 8q17 5 28.5 8t15.5 3q6 0 7.5 -3t1.5 -13v-252q21 11 51.5 21.5t77.5 10.5q55 0 91 -13t58 -34.5t31 -49t9 -56.5v-302q0 -18 -19 -18h-32q-19 0 -19 18v284q0 112 -127 112q-46 0 -76.5 -13.5t-44.5 -21.5v-361q0 -9 -4 -13.5t-15 -4.5h-32
q-11 0 -15 4.5t-4 13.5v659v0z" />
    <glyph glyph-name="i" unicode="i" horiz-adv-x="197" 
d="M63 445q0 10 4 14.5t15 4.5h32q20 0 20 -19v-427q0 -18 -20 -18h-32q-11 0 -15 4.5t-4 13.5v427zM147 595q0 -20 -14.5 -34t-33.5 -14q-23 0 -36 14t-13 34q0 22 13 35t36 13q17 0 32.5 -14t15.5 -34z" />
    <glyph glyph-name="j" unicode="j" horiz-adv-x="254" 
d="M204 595q0 -20 -14 -34t-34 -14q-22 0 -35.5 14t-13.5 34q0 22 13.5 35t35.5 13q18 0 33 -14t15 -34zM51 -159q45 0 59 28.5t14 94.5v440h-94q-19 0 -19 19v21q0 20 19 20h146q19 0 19 -18v-484q0 -38 -4.5 -70.5t-19 -57t-41 -38.5t-69.5 -14q-30 0 -40.5 4.5
t-10.5 15.5v12q0 4 1 11q1 8 3.5 12.5t11.5 4.5q5 0 11 -0.5t14 -0.5z" />
    <glyph glyph-name="k" unicode="k" horiz-adv-x="416" 
d="M130 279l26 2l125 164q9 12 13 15.5t15 3.5h38q14 0 14 -13q0 -8 -6 -15l-142 -174l192 -235q5 -5 5.5 -9t0.5 -6q0 -12 -14 -12h-43q-9 0 -13.5 3.5t-12.5 13.5l-174 220l-24 2v-221q0 -9 -4 -13.5t-15 -4.5h-32q-19 0 -19 18v659q0 9 3 13t14 8q17 5 28.5 8t15.5 3
q6 0 7.5 -3t1.5 -13v-414z" />
    <glyph glyph-name="l" unicode="l" horiz-adv-x="246" 
d="M125 172q0 -66 15 -94.5t59 -28.5q6 0 13.5 0.5t11.5 0.5q14 0 15 -14q0 -7 1 -13v-10q0 -3 1 -4q0 -10 -10.5 -14t-41.5 -4q-44 0 -70.5 14t-40.5 38t-18.5 56.5t-4.5 70.5v507q0 8 3.5 12t14.5 8q16 5 28 8.5t15 3.5q7 0 8 -3t1 -13v-521z" />
    <glyph glyph-name="m" unicode="m" horiz-adv-x="776" 
d="M355 303q-1 54 -27 82.5t-87 28.5q-36 0 -66 -12t-45 -20v-364q0 -9 -4 -13.5t-15 -4.5h-32q-11 0 -15 4.5t-4 13.5v400q32 22 81 38.5t104 16.5q53 0 87 -12.5t55 -32.5q28 17 65 31t88 14q58 0 94 -14t55 -36t25.5 -49t6.5 -54v-302q0 -9 -4 -13.5t-15 -4.5h-33
q-19 0 -19 18v284q0 57 -26 84.5t-87 27.5q-42 0 -70.5 -11t-51.5 -25q10 -23 10 -64v-296q0 -18 -19 -18h-32q-11 0 -15 4.5t-4 13.5v285v0z" />
    <glyph glyph-name="n" unicode="n" horiz-adv-x="503" 
d="M378 302q0 112 -130 112q-18 0 -36 -4t-34 -9t-28.5 -11t-19.5 -10v-362q0 -9 -4 -13.5t-15 -4.5h-32q-11 0 -15 4.5t-4 13.5v397q32 23 82.5 40.5t109.5 17.5q60 0 98.5 -14t60 -36t29.5 -49t8 -54v-302q0 -18 -19 -18h-32q-19 0 -19 18v284z" />
    <glyph glyph-name="o" unicode="o" horiz-adv-x="506" 
d="M389 232q0 53 -8 88t-25 56t-42.5 29.5t-60.5 8.5t-61 -8.5t-43 -29.5t-25 -56t-8 -88t8 -88t25 -56t43 -29.5t61 -8.5t60.5 8.5t42.5 29.5t25 56t8 88zM45 232q0 130 52 185.5t156 55.5q52 0 91 -13t65 -42t39 -75t13 -111t-13 -111t-39 -75t-65 -42t-91 -13t-91 13
t-65 42t-39 75t-13 111z" />
    <glyph glyph-name="p" unicode="p" 
d="M60 415q12 9 29.5 19t40 18.5t50 14.5t58.5 6q48 0 87.5 -11.5t67.5 -39t43.5 -74t15.5 -116.5q0 -66 -15 -112t-41.5 -74.5t-63.5 -41.5t-81 -13q-47 0 -76.5 13.5t-44.5 24.5v-219q0 -10 -4 -14t-15 -4h-32q-11 0 -15 4t-4 14v605zM380 232q0 57 -10.5 92.5t-29 55.5
t-45 27t-57.5 7q-23 0 -42 -5.5t-34 -11.5q-18 -7 -32 -16v-284q0 -3 8 -10.5t22.5 -15.5t35 -14.5t46.5 -6.5q33 0 58.5 9t43 30t27 56t9.5 87z" />
    <glyph glyph-name="q" unicode="q" 
d="M437 -190q0 -18 -19 -18h-33q-19 0 -19 18v219q-14 -11 -44 -24.5t-76 -13.5q-44 0 -81 13t-63.5 41.5t-41.5 74.5t-15 112q0 70 15.5 116.5t43 74t67 39t87.5 11.5q31 0 58.5 -6t50 -14.5t40.5 -18.5t30 -19v-605zM366 381q-13 9 -30 16q-14 6 -34 11.5t-43 5.5
q-32 0 -58.5 -7t-45 -27t-29 -55.5t-10.5 -92.5q0 -52 9.5 -87t27.5 -56t43.5 -30t57.5 -9q25 0 46 6.5t35.5 14.5t22.5 15.5t8 10.5v284z" />
    <glyph glyph-name="r" unicode="r" horiz-adv-x="308" 
d="M130 18q0 -9 -4 -13.5t-15 -4.5h-32q-11 0 -15 4.5t-4 13.5v397q7 6 23.5 15.5t39.5 19t52 16.5t62 7q25 0 45.5 -3.5t20.5 -10.5q0 -2 -1.5 -13.5t-3.5 -19.5q-3 -15 -13 -15q-5 0 -15.5 1.5t-30.5 1.5q-36 0 -65.5 -12t-43.5 -21v-363v0z" />
    <glyph glyph-name="s" unicode="s" horiz-adv-x="351" 
d="M150 -9q-19 0 -39 3t-37 7.5t-28 11t-11 13.5q0 3 1.5 10t4.5 14t6.5 12t6.5 5q10 0 33 -9.5t61 -9.5q43 0 71 16.5t28 54.5q0 16 -5.5 28t-18 23.5t-34 23.5t-52.5 29q-17 9 -34 20t-31 26t-23 35t-9 47q0 51 36 86.5t117 35.5q19 0 39 -2.5t36.5 -7t27 -9.5t10.5 -11
q0 -2 -2 -8.5t-5 -13.5t-7 -13t-8 -6q-9 0 -32.5 7t-57.5 7q-24 0 -40.5 -5.5t-26 -14.5t-13.5 -20t-4 -22q0 -16 5 -28t17 -23.5t32 -23t49 -27.5q48 -26 75.5 -55t27.5 -72q0 -24 -7 -48t-26 -43t-51 -31t-82 -12z" />
    <glyph glyph-name="t" unicode="t" horiz-adv-x="307" 
d="M161 172q0 -65 15 -94t59 -29q8 0 14.5 0.5t11.5 0.5q8 0 10.5 -4.5t3.5 -9.5q0 -3 1 -14t1 -13q0 -10 -11.5 -14t-40.5 -4q-41 0 -67 12.5t-41 35.5t-20.5 56.5t-5.5 74.5v234h-53q-18 0 -18 20v20q0 20 18 20h53v110q0 8 3 12.5t14 8.5q17 5 28.5 8t15.5 3q6 0 7.5 -3
t1.5 -13v-126h108q18 0 18 -20v-21q0 -19 -18 -19h-108v-232v0z" />
    <glyph glyph-name="u" unicode="u" horiz-adv-x="518" 
d="M125 177q0 -27 5.5 -50t19.5 -40.5t37 -27t58 -9.5q24 0 44 6t35 14.5t25 18.5t16 18v338q0 19 19 19h32q20 0 20 -19v-340q0 -24 9.5 -40t32.5 -16q6 0 11 0.5t8 0.5q11 0 12 -14l2 -14q0 -3 0.5 -5.5t0.5 -4.5q0 -3 1 -5q0 -5 -11.5 -10.5t-37.5 -5.5q-32 0 -53.5 14
t-29.5 43q-6 -7 -19 -16.5t-31 -18.5t-42 -15.5t-52 -6.5q-91 0 -136.5 43t-45.5 127v284q0 19 19 19h32q11 0 15 -4.5t4 -14.5v-268z" />
    <glyph glyph-name="v" unicode="v" horiz-adv-x="412" 
d="M186 0q-14 0 -20 16l-163 424q-1 2 -2 6t-1 6q0 12 16 12h39q11 0 15 -5t7 -14l130 -362l131 362q4 10 7.5 14.5t14.5 4.5h37q15 0 15 -8q0 -2 -1 -6t-3 -9l-163 -425q-3 -8 -6.5 -12t-12.5 -4h-40z" />
    <glyph glyph-name="w" unicode="w" horiz-adv-x="638" 
d="M222 16q-2 -9 -6 -12.5t-15 -3.5h-37q-11 0 -15 3.5t-7 12.5l-130 427q-2 8 -2 10q0 11 16 11h39q11 0 15 -4t6 -13l98 -364l101 372q2 4 4.5 6.5t8.5 2.5h41q8 0 10 -2t4 -7l102 -372l97 364q3 9 6 13t14 4h41q15 0 15 -11q0 -2 -2 -10l-129 -427q-4 -9 -7.5 -12.5
t-14.5 -3.5h-38q-11 0 -14.5 3.5t-6.5 12.5l-97 330l-97 -330v0z" />
    <glyph glyph-name="x" unicode="x" horiz-adv-x="387" 
d="M27 440q-2 2 -3.5 5.5t-1.5 7.5q0 11 14 11h39q9 0 13 -3t9 -11l97 -152l97 152q5 8 9 11t14 3h39q13 0 13 -10q0 -3 -4 -11l-131 -200l146 -223q2 -4 3.5 -6t1.5 -6q0 -8 -12 -8h-43q-8 0 -12 3t-9 11l-113 172l-111 -172q-5 -8 -9 -11t-12 -3h-43q-13 0 -13 9q0 3 3 9
l148 225z" />
    <glyph glyph-name="y" unicode="y" horiz-adv-x="414" 
d="M176 -168q-4 -9 -7 -12.5t-12 -3.5h-39q-14 0 -14 10q0 3 2 9l67 174l-166 434q-2 6 -2 9q0 12 15 12h40q10 0 14 -3.5t7 -13.5l128 -355l129 356q3 9 6 12.5t12 3.5h38q15 0 15 -12q0 -4 -2 -10l-231 -610v0z" />
    <glyph glyph-name="z" unicode="z" horiz-adv-x="388" 
d="M343 464q14 0 14 -12q0 -5 -3 -9l-222 -383h207q19 0 19 -20v-21q0 -19 -19 -19h-296q-13 0 -13 9q0 4 4 10l222 385h-200q-18 0 -18 20v20q0 20 18 20h287v0z" />
    <glyph glyph-name="braceleft" unicode="{" horiz-adv-x="292" 
d="M104 575q0 40 4 71t18.5 51.5t41.5 31t74 10.5h19q11 0 16 -4t5 -17v-18q0 -11 -5 -15t-16 -4h-25q-38 0 -50 -18.5t-12 -68.5v-164q0 -24 -2 -40.5t-7.5 -28.5t-14.5 -20.5t-23 -16.5q28 -14 37.5 -36t9.5 -69v-169q0 -47 12 -67t50 -20h25q11 0 16 -4t5 -15v-19
q0 -13 -5 -16.5t-16 -3.5h-19q-47 0 -74 10.5t-41.5 31t-18.5 51t-4 71.5v179q0 15 -1.5 24t-6.5 13.5t-14 6t-25 1.5q-17 0 -22 4t-5 18v18q0 14 6 18.5t21 4.5q16 0 25 1.5t14 6t6.5 13.5t1.5 24v174v0z" />
    <glyph glyph-name="bar" unicode="|" horiz-adv-x="227" 
d="M147 -190q0 -18 -19 -18h-29q-19 0 -19 18v872q0 18 19 18h29q19 0 19 -18v-872v0z" />
    <glyph glyph-name="braceright" unicode="}" horiz-adv-x="292" 
d="M188 401q0 -15 1.5 -24t6.5 -13.5t14 -6t25 -1.5q15 0 21 -4.5t6 -18.5v-18q0 -14 -5 -18t-22 -4q-16 0 -25 -1.5t-14 -6t-6.5 -13.5t-1.5 -24v-179q0 -41 -4.5 -71.5t-18.5 -51t-42 -31t-74 -10.5h-18q-11 0 -16 3.5t-5 16.5v19q0 11 5 15t16 4h24q39 0 50.5 20t11.5 67
v169q0 47 10 69t37 36q-14 8 -23.5 16.5t-14.5 20.5t-7 28.5t-2 40.5v164q0 50 -11.5 68.5t-50.5 18.5h-24q-11 0 -16 4t-5 15v18q0 13 5 17t16 4h18q46 0 74 -10.5t42 -31t18.5 -51.5t4.5 -71v-174z" />
    <glyph glyph-name="exclamdown" unicode="&#xa1;" horiz-adv-x="252" 
d="M162 18q0 -18 -20 -18h-33q-19 0 -19 18v318l10 153q1 8 4.5 12.5t12.5 4.5h18q16 0 16 -17l11 -153v-318zM65 648q0 26 17.5 43.5t43.5 17.5q25 0 43 -17.5t18 -43.5t-18 -43.5t-43 -17.5q-26 0 -43.5 17.5t-17.5 43.5z" />
    <glyph glyph-name="cent" unicode="&#xa2;" horiz-adv-x="453" 
d="M288 472q16 -2 32.5 -5t30 -7.5t21.5 -10t8 -11.5q0 -4 -2.5 -11t-6 -13.5t-7.5 -11.5t-8 -5q-6 0 -28 8.5t-57 8.5q-33 0 -59 -8t-44 -28t-27.5 -55.5t-9.5 -90.5q0 -47 6.5 -81t22.5 -56.5t42.5 -33.5t66.5 -11q47 0 71 10t32 10t14.5 -15t6.5 -26q0 -6 -9 -12.5
t-24 -11.5t-34 -8.5t-38 -4.5v-71q0 -18 -19 -18h-30q-10 0 -14 3.5t-4 14.5v74q-83 11 -122 66.5t-39 170.5q0 117 41.5 172t119.5 66v73q0 9 3.5 13.5t14.5 4.5h30q19 0 19 -18v-71v0z" />
    <glyph glyph-name="sterling" unicode="&#xa3;" horiz-adv-x="571" 
d="M78 0q-11 0 -14.5 4t-3.5 15v24q0 9 3.5 13.5t14.5 4.5h65v234h-65q-11 0 -14.5 4t-3.5 15v21q0 9 3.5 13.5t14.5 4.5h65v79q0 52 5.5 102t26.5 89t61.5 62.5t110.5 23.5q40 0 71 -6t51.5 -14.5t31 -16.5t10.5 -11q0 -5 -3.5 -12.5t-8 -14.5t-9.5 -12.5t-8 -5.5
q-6 0 -17 5t-28 10.5t-39.5 10.5t-50.5 5q-42 0 -67.5 -13t-40 -39t-19.5 -66t-5 -94v-82h161q11 0 15 -3.5t4 -14.5v-22q0 -10 -4 -14t-15 -4h-161v-234h267q11 0 15 -3.5t4 -14.5v-25q0 -10 -4 -14t-15 -4h-404v0z" />
    <glyph glyph-name="yen" unicode="&#xa5;" horiz-adv-x="542" 
d="M205 353l-172 325q-3 6 -3 11q0 11 14 11h48q8 0 11 -4t7 -12l161 -317l162 319q4 6 7.5 10t10.5 4h47q14 0 14 -11q0 -5 -3 -11l-173 -325h108q11 0 14.5 -3.5t3.5 -14.5v-22q0 -11 -3.5 -14.5t-14.5 -3.5h-137v-75h137q11 0 14.5 -3.5t3.5 -14.5v-22q0 -11 -3.5 -14.5
t-14.5 -3.5h-137v-144q0 -9 -4 -13.5t-15 -4.5h-34q-19 0 -19 18v144h-137q-11 0 -15 4t-4 14v22q0 11 4 14.5t15 3.5h137v75h-137q-11 0 -15 3.5t-4 14.5v22q0 11 4 14.5t15 3.5h107z" />
    <glyph glyph-name="brokenbar" unicode="&#xa6;" horiz-adv-x="207" 
d="M137 302q0 -18 -19 -18h-29q-19 0 -19 18v380q0 18 19 18h29q19 0 19 -18v-380zM137 -190q0 -18 -19 -18h-29q-19 0 -19 18v380q0 18 19 18h29q19 0 19 -18v-380z" />
    <glyph glyph-name="section" unicode="&#xa7;" horiz-adv-x="434" 
d="M304 331q0 16 -11 30t-28 26.5t-37.5 24t-39.5 22.5q-20 -6 -32 -22t-12 -40q0 -19 14.5 -36t34.5 -31t41 -25t34 -19q22 11 29 28.5t7 41.5zM78 577q0 27 9.5 51t29.5 42t51 28.5t74 10.5q58 0 93.5 -13t35.5 -24q0 -2 -2 -8.5t-5 -13.5t-6.5 -12.5t-7.5 -5.5
q-9 0 -36.5 10t-72.5 10t-69 -21t-24 -58q0 -26 16.5 -44.5t42 -34t54.5 -30.5t54.5 -33t42 -42t16.5 -57q0 -32 -10.5 -58.5t-37.5 -49.5q20 -18 32.5 -39.5t12.5 -50.5q0 -26 -8 -51.5t-28.5 -46t-55.5 -33t-88 -12.5q-24 0 -47.5 4t-42 10t-30 13.5t-11.5 15.5
q0 2 1.5 8.5t4.5 13.5t6.5 12.5t6.5 5.5q4 0 12.5 -4t22 -9t31.5 -9t41 -4q61 0 88 24t27 57q0 24 -17 42t-42 33t-54.5 30t-54.5 34t-42 43.5t-17 59.5q0 24 10.5 52t44.5 48q-21 17 -36 40t-15 66z" />
    <glyph glyph-name="dieresis" unicode="&#xa8;" horiz-adv-x="318" 
d="M268 593q0 -17 -12.5 -29.5t-29.5 -12.5q-20 0 -31.5 12.5t-11.5 29.5q0 20 11.5 31t31.5 11q16 0 29 -12t13 -30zM135 593q0 -17 -12.5 -29.5t-29.5 -12.5q-20 0 -31.5 12.5t-11.5 29.5q0 20 11.5 31t31.5 11q16 0 29 -12t13 -30z" />
    <glyph glyph-name="copyright" unicode="&#xa9;" horiz-adv-x="839" 
d="M434 159q-83 0 -118 44.5t-35 148.5q0 105 35 149.5t118 44.5q19 0 35.5 -3.5t29 -9t19.5 -11t7 -9.5q0 -3 -3 -7.5t-8 -13.5q-6 -10 -13 -10q-5 0 -21.5 7t-45.5 7q-27 0 -45 -7t-29 -23.5t-15.5 -44.5t-4.5 -69q0 -38 4 -65.5t14.5 -44.5t29 -25t46.5 -8q32 0 49.5 8
t23.5 8q5 0 8.5 -5.5t7.5 -10.5q7 -11 7 -16q0 -8 -24 -21t-72 -13zM60 350q0 75 28 140t77 114t114.5 77t139.5 28q75 0 140.5 -28t114 -77t77 -114t28.5 -140t-28.5 -140t-77 -114t-114 -77t-140.5 -28q-74 0 -139.5 28t-114.5 77t-77 114t-28 140zM123 350
q0 -62 23 -117.5t63.5 -97.5t94 -66.5t115.5 -24.5t116 24.5t94.5 66.5t63.5 97.5t23 117.5q0 61 -23 116.5t-63.5 97.5t-94.5 66.5t-116 24.5t-115.5 -24.5t-94 -66.5t-63.5 -97.5t-23 -116.5z" />
    <glyph glyph-name="ordfeminine" unicode="&#xaa;" horiz-adv-x="457" 
d="M294 640q-5 2 -29 9.5t-55 7.5q-30 0 -49 -9.5t-30 -26.5t-15 -40.5t-4 -52.5q0 -59 21.5 -90t69.5 -31q42 0 62.5 14t28.5 28v191zM355 433q0 -25 22 -25q6 0 11 0.5t7 0.5q4 0 6 -4.5t3.5 -10t2 -10.5t0.5 -7q0 -8 -12 -15t-38 -7q-17 0 -27.5 6t-16.5 14q-7 9 -11 20
q-10 -11 -35.5 -25t-71.5 -14q-76 0 -110.5 46.5t-34.5 125.5q0 94 39 137.5t121 43.5q36 0 63 -6t45 -13q21 -8 37 -18v-239z" />
    <glyph glyph-name="guillemotleft" unicode="&#xab;" horiz-adv-x="359" 
d="M35 234q-5 6 -5 14q0 7 5 13l96 136q8 12 13 15.5t13 3.5l24 -3q9 -1 9 -9q0 -4 -6 -16l-83 -140l83 -141q2 -5 4 -9.5t2 -6.5q0 -8 -9 -9l-24 -3q-8 0 -13 3.5t-13 15.5zM169 234q-5 6 -5 14q0 7 5 13l90 136q8 12 13 15.5t13 3.5l25 -3q9 -1 9 -9q0 -2 -7 -16l-77 -140
l77 -141q2 -5 4.5 -9.5t2.5 -6.5q0 -8 -9 -9l-25 -3q-8 0 -13 3.5t-13 15.5z" />
    <glyph glyph-name="registered" unicode="&#xae;" horiz-adv-x="839" 
d="M453 538q51 0 79.5 -29.5t28.5 -81.5q0 -41 -20.5 -69t-58.5 -38l72 -133q3 -5 3 -8q0 -12 -16 -12h-25q-8 0 -13 5.5t-10 14.5l-71 129h-75v-131q0 -18 -16 -18h-23q-11 0 -14 4t-3 14v334q0 11 3.5 15t14.5 4h144zM504 428q0 25 -13.5 43t-41.5 18h-102v-124h102
q28 0 41.5 18t13.5 45zM60 350q0 75 28 140t77 114t114.5 77t139.5 28q75 0 140.5 -28t114 -77t77 -114t28.5 -140t-28.5 -140t-77 -114t-114 -77t-140.5 -28q-74 0 -139.5 28t-114.5 77t-77 114t-28 140zM123 350q0 -62 23 -117.5t63.5 -97.5t94 -66.5t115.5 -24.5
t116 24.5t94.5 66.5t63.5 97.5t23 117.5q0 61 -23 116.5t-63.5 97.5t-94.5 66.5t-116 24.5t-115.5 -24.5t-94 -66.5t-63.5 -97.5t-23 -116.5z" />
    <glyph glyph-name="macron" unicode="&#xaf;" horiz-adv-x="368" 
d="M76 570q-15 0 -20.5 3t-5.5 17v17q0 12 5.5 15.5t20.5 3.5h216q15 0 20.5 -3t5.5 -16v-17q0 -13 -5.5 -16.5t-20.5 -3.5h-216v0z" />
    <glyph glyph-name="degree" unicode="&#xb0;" horiz-adv-x="346" 
d="M50 587q0 25 9.5 47.5t26.5 39t39 26t48 9.5q25 0 47.5 -9.5t39.5 -26t26.5 -39t9.5 -47.5q0 -26 -9.5 -48.5t-26.5 -39t-39.5 -26t-47.5 -9.5q-26 0 -48 9.5t-39 26t-26.5 39t-9.5 48.5zM98 588q0 -32 22 -54t53 -22q32 0 53.5 22t21.5 54q0 31 -21.5 52t-53.5 21
q-31 0 -53 -21t-22 -52z" />
    <glyph glyph-name="plusminus" unicode="&#xb1;" horiz-adv-x="495" 
d="M218 426v131q0 11 3.5 14.5t14.5 3.5h22q11 0 14.5 -3.5t3.5 -14.5v-131h131q11 0 14.5 -3.5t3.5 -14.5v-22q0 -11 -3.5 -14.5t-14.5 -3.5h-131v-131q0 -11 -3.5 -14.5t-14.5 -3.5h-22q-11 0 -14.5 3.5t-3.5 14.5v131h-130q-11 0 -14.5 3.5t-3.5 14.5v22q0 11 3.5 14.5
t14.5 3.5h130zM407 140q11 0 14.5 -3.5t3.5 -14.5v-22q0 -11 -3.5 -14.5t-14.5 -3.5h-319q-11 0 -14.5 3.5t-3.5 14.5v22q0 11 3.5 14.5t14.5 3.5h319z" />
    <glyph glyph-name="acute" unicode="&#xb4;" horiz-adv-x="305" 
d="M88 541q-6 -4 -9.5 -6t-6.5 -2t-4.5 1.5l-4.5 4.5l-9 10q-4 5 -4 9t3 7.5t7 7.5l136 121q9 9 19 9t17 -10l17 -22q6 -7 6 -15q0 -10 -14 -19z" />
    <glyph glyph-name="paragraph" unicode="&#xb6;" horiz-adv-x="614" 
d="M475 639h-119v-621q0 -8 -4 -13t-15 -5h-31q-19 0 -19 18v286h-50q-54 0 -93 15t-64.5 42t-37.5 63t-12 78t12.5 78.5t38.5 63t64.5 41.5t91.5 15h279q28 0 28 -27v-655q0 -8 -4 -13t-15 -5h-31q-10 0 -14.5 3.5t-4.5 14.5v621zM103 502q0 -62 32.5 -99.5t106.5 -37.5h45
v274h-45q-62 0 -100.5 -31t-38.5 -106z" />
    <glyph glyph-name="periodcentered" unicode="&#xb7;" horiz-adv-x="221" 
d="M50 322q0 25 17.5 42.5t43.5 17.5q25 0 42.5 -17.5t17.5 -42.5q0 -26 -17.5 -43.5t-42.5 -17.5q-26 0 -43.5 17.5t-17.5 43.5z" />
    <glyph glyph-name="cedilla" unicode="&#xb8;" horiz-adv-x="283" 
d="M50 -156v3.5t1 4.5q1 3 2 5q4 9 12 9q5 0 20 -4.5t41 -4.5q28 0 43.5 10.5t15.5 28.5q0 17 -11.5 24.5t-30.5 7.5q-16 0 -29.5 -3.5t-20.5 -6.5l-24 30l41 52h45l-26 -39l8 2q10 2 21 2q36 0 55.5 -18.5t19.5 -47.5q0 -37 -28.5 -58t-82.5 -21q-12 0 -24.5 2t-23 5
t-17.5 7.5t-7 9.5z" />
    <glyph glyph-name="ordmasculine" unicode="&#xba;" horiz-adv-x="416" 
d="M366 531q0 -96 -39.5 -136t-118.5 -40t-118.5 40t-39.5 136q0 97 39.5 137.5t118.5 40.5t118.5 -40.5t39.5 -137.5zM304 531q0 30 -3.5 53.5t-14 39.5t-29.5 24.5t-49 8.5t-49 -8.5t-29.5 -24.5t-14 -39.5t-3.5 -53.5q0 -29 3.5 -52t14 -39t29.5 -24.5t49 -8.5t48.5 8.5
t29 24.5t14.5 39t4 52z" />
    <glyph glyph-name="guillemotright" unicode="&#xbb;" horiz-adv-x="359" 
d="M228 98q-8 -12 -13 -15.5t-13 -3.5l-24 3q-10 1 -10 9q0 2 2.5 6.5t4.5 9.5l83 141l-83 140q-7 14 -7 16q0 8 10 9l24 3q8 0 13 -3.5t13 -15.5l96 -136q5 -6 5 -13q0 -8 -5 -14zM99 98q-8 -12 -13 -15.5t-13 -3.5l-24 3q-9 1 -9 9q0 5 7 16l76 141l-76 140q-7 14 -7 16
q0 8 9 9l24 3q8 0 13 -3.5t13 -15.5l90 -136q5 -6 5 -13q0 -8 -5 -14z" />
    <glyph glyph-name="questiondown" unicode="&#xbf;" horiz-adv-x="474" 
d="M328 506q12 0 15.5 -5.5t3.5 -19.5v-32q0 -28 -3.5 -49t-13.5 -38t-29 -32t-49 -32q-39 -22 -64 -39.5t-39 -34.5t-19 -35t-5 -40q0 -44 30.5 -70.5t104.5 -26.5q26 0 50 5.5t42.5 11.5t30.5 11.5t15 5.5q5 0 10.5 -6.5t10 -14.5t7.5 -15.5t3 -9.5q0 -3 -14 -11
t-37.5 -16.5t-54.5 -15t-66 -6.5q-111 0 -159 42t-48 116q0 31 8 56.5t25.5 48t44.5 43t65 42.5q27 16 43.5 27t25 22t11 26t2.5 40v27q0 14 3.5 19.5t14.5 5.5h35zM371 648q0 -26 -17.5 -43.5t-42.5 -17.5q-26 0 -43.5 17.5t-17.5 43.5t17.5 43.5t43.5 17.5
q25 0 42.5 -17.5t17.5 -43.5z" />
    <glyph glyph-name="Agrave" unicode="&#xc0;" horiz-adv-x="565" 
d="M401 266l-119 366l-118 -366h237zM553 18q2 -6 2 -8q0 -10 -14 -10h-40q-10 0 -13 3.5t-7 14.5l-61 187h-276l-60 -187q-3 -9 -6 -13.5t-14 -4.5h-39q-15 0 -15 10q0 2 2 8l214 664q3 10 6.5 14t12.5 4h75q9 0 12.5 -3.5t7.5 -14.5zM154 873q-14 9 -14 19q0 8 6 15l17 22
q7 10 17 10t19 -9l136 -121q4 -4 7 -7.5t3 -7.5t-4 -9l-8 -10l-4.5 -4.5t-4.5 -1.5q-4 0 -17 8z" />
    <glyph glyph-name="Aacute" unicode="&#xc1;" horiz-adv-x="565" 
d="M401 266l-119 366l-118 -366h237zM553 18q2 -6 2 -8q0 -10 -14 -10h-40q-10 0 -13 3.5t-7 14.5l-61 187h-276l-60 -187q-3 -9 -6 -13.5t-14 -4.5h-39q-15 0 -15 10q0 2 2 8l214 664q3 10 6.5 14t12.5 4h75q9 0 12.5 -3.5t7.5 -14.5zM258 777q-6 -4 -9.5 -6t-6.5 -2
t-4.5 1.5l-4.5 4.5l-9 10q-4 5 -4 9t3 7.5t7 7.5l136 121q9 9 19 9t17 -10l17 -22q6 -7 6 -15q0 -10 -14 -19z" />
    <glyph glyph-name="Acircumflex" unicode="&#xc2;" horiz-adv-x="565" 
d="M401 266l-119 366l-118 -366h237zM553 18q2 -6 2 -8q0 -10 -14 -10h-40q-10 0 -13 3.5t-7 14.5l-61 187h-276l-60 -187q-3 -9 -6 -13.5t-14 -4.5h-39q-15 0 -15 10q0 2 2 8l214 664q3 10 6.5 14t12.5 4h75q9 0 12.5 -3.5t7.5 -14.5zM179 785q-8 -5 -11.5 -7t-7.5 -2
q-5 0 -10 7l-6 8q-5 7 -5 10q0 6 11 15l112 104q10 9 21 9q9 0 20 -9l112 -104q11 -9 11 -15q0 -3 -5 -10l-6 -8q-5 -7 -10 -7q-4 0 -7.5 2t-11.5 7l-104 68z" />
    <glyph glyph-name="Atilde" unicode="&#xc3;" horiz-adv-x="565" 
d="M401 266l-119 366l-118 -366h237zM553 18q2 -6 2 -8q0 -10 -14 -10h-40q-10 0 -13 3.5t-7 14.5l-61 187h-276l-60 -187q-3 -9 -6 -13.5t-14 -4.5h-39q-15 0 -15 10q0 2 2 8l214 664q3 10 6.5 14t12.5 4h75q9 0 12.5 -3.5t7.5 -14.5zM207 812q-21 0 -37 -7t-31 -7
q-9 0 -13 8l-4 12q-2 5 -3 8.5t-1 4.5q0 5 9.5 12t24 13.5t32.5 11t35 4.5q23 0 40 -4.5t32.5 -10t31.5 -10t37 -4.5q24 0 37.5 7t28.5 7q8 0 13 -8q2 -6 4 -11t3 -9t1 -5q0 -5 -9 -12t-23.5 -13t-32 -10.5t-33.5 -4.5q-24 0 -41.5 4.5t-33 9.5t-31 9.5t-36.5 4.5z" />
    <glyph glyph-name="Adieresis" unicode="&#xc4;" horiz-adv-x="565" 
d="M401 266l-119 366l-118 -366h237zM553 18q2 -6 2 -8q0 -10 -14 -10h-40q-10 0 -13 3.5t-7 14.5l-61 187h-276l-60 -187q-3 -9 -6 -13.5t-14 -4.5h-39q-15 0 -15 10q0 2 2 8l214 664q3 10 6.5 14t12.5 4h75q9 0 12.5 -3.5t7.5 -14.5zM391 829q0 -17 -12.5 -29.5
t-29.5 -12.5q-20 0 -31.5 12.5t-11.5 29.5q0 20 11.5 31t31.5 11q16 0 29 -12t13 -30zM258 829q0 -17 -12.5 -29.5t-29.5 -12.5q-20 0 -31.5 12.5t-11.5 29.5q0 20 11.5 31t31.5 11q16 0 29 -12t13 -30z" />
    <glyph glyph-name="Aring" unicode="&#xc5;" horiz-adv-x="565" 
d="M401 266l-119 366l-118 -366h237zM553 18q2 -6 2 -8q0 -10 -14 -10h-40q-10 0 -13 3.5t-7 14.5l-61 187h-276l-60 -187q-3 -9 -6 -13.5t-14 -4.5h-39q-15 0 -15 10q0 2 2 8l214 664q3 10 6.5 14t12.5 4h75q9 0 12.5 -3.5t7.5 -14.5zM368 860q0 -35 -25.5 -60t-60.5 -25
q-38 0 -62 25t-24 60q0 38 24 61.5t62 23.5q16 0 31.5 -6.5t27.5 -18t19.5 -27t7.5 -33.5zM328 860q0 19 -14.5 33.5t-32.5 14.5q-20 0 -32.5 -14t-12.5 -34q0 -19 12.5 -33t32.5 -14q19 0 33 14t14 33z" />
    <glyph glyph-name="AE" unicode="&#xc6;" horiz-adv-x="860" 
d="M424 636l-201 -370h201v370zM791 700q11 0 14.5 -5t3.5 -14v-23q0 -10 -3.5 -14.5t-14.5 -4.5h-296v-250h277q11 0 14.5 -4.5t3.5 -14.5v-23q0 -9 -3.5 -14t-14.5 -5h-277v-267h298q11 0 14 -4.5t3 -14.5v-23q0 -8 -3 -13.5t-14 -5.5h-342q-27 0 -27 28v177h-234
l-100 -184q-5 -10 -9.5 -15.5t-14.5 -5.5h-39q-17 0 -17 12q0 6 5 16l348 644q7 14 13.5 21t20.5 7h394z" />
    <glyph glyph-name="Ccedilla" unicode="&#xc7;" horiz-adv-x="523" 
d="M211 -156q0 13 5 17.5t9 4.5q6 0 20.5 -4.5t40.5 -4.5q27 0 43.5 10t16.5 29q0 17 -11.5 24.5t-31.5 7.5q-15 0 -29 -3.5t-21 -6.5l-24 30l37 46q-59 6 -100 29t-67 66t-37.5 107.5t-11.5 153.5q0 98 14.5 166.5t46 111t82.5 62t124 19.5q37 0 65.5 -5.5t48 -13
t29.5 -14.5t10 -10q0 -2 -3.5 -9.5t-8 -15.5t-9.5 -14.5t-8 -6.5q-4 0 -12.5 4t-23.5 9.5t-36.5 9.5t-51.5 4q-56 0 -92.5 -15.5t-59 -51t-31.5 -92t-9 -138.5t9 -138.5t31.5 -92t59 -51t92.5 -15.5q30 0 54.5 5.5t42.5 12t29 12t15 5.5t8.5 -6.5t8.5 -14.5t6 -15.5t2 -9.5
q0 -6 -14.5 -14.5t-38 -17t-53.5 -14t-62 -5.5h-5l-20 -30l8 2q10 2 21 2q35 0 55 -18.5t20 -47.5q0 -37 -28.5 -58t-83.5 -21q-11 0 -23.5 2t-23 5t-17.5 7.5t-7 9.5z" />
    <glyph glyph-name="Egrave" unicode="&#xc8;" 
d="M60 682q0 18 19 18h349q18 0 18 -19v-23q0 -11 -4 -15t-14 -4h-296v-250h277q18 0 18 -19v-23q0 -19 -18 -19h-277v-267h297q10 0 14 -4t4 -15v-23q0 -19 -18 -19h-350q-19 0 -19 18v664v0zM143 873q-14 9 -14 19q0 8 6 15l17 22q7 10 17 10t19 -9l136 -121q4 -4 7 -7.5
t3 -7.5t-4 -9l-8 -10l-4.5 -4.5t-4.5 -1.5q-4 0 -17 8z" />
    <glyph glyph-name="Eacute" unicode="&#xc9;" 
d="M60 682q0 18 19 18h349q18 0 18 -19v-23q0 -11 -4 -15t-14 -4h-296v-250h277q18 0 18 -19v-23q0 -19 -18 -19h-277v-267h297q10 0 14 -4t4 -15v-23q0 -19 -18 -19h-350q-19 0 -19 18v664v0zM220 777q-6 -4 -9.5 -6t-6.5 -2t-4.5 1.5l-4.5 4.5l-9 10q-4 5 -4 9t3 7.5
t7 7.5l136 121q9 9 19 9t17 -10l17 -22q6 -7 6 -15q0 -10 -14 -19z" />
    <glyph glyph-name="Ecircumflex" unicode="&#xca;" 
d="M60 682q0 18 19 18h349q18 0 18 -19v-23q0 -11 -4 -15t-14 -4h-296v-250h277q18 0 18 -19v-23q0 -19 -18 -19h-277v-267h297q10 0 14 -4t4 -15v-23q0 -19 -18 -19h-350q-19 0 -19 18v664v0zM148 785q-8 -5 -11.5 -7t-7.5 -2q-5 0 -10 7l-6 8q-5 7 -5 10q0 6 11 15
l112 104q10 9 21 9q9 0 20 -9l112 -104q11 -9 11 -15q0 -3 -5 -10l-6 -8q-5 -7 -10 -7q-4 0 -7.5 2t-11.5 7l-104 68z" />
    <glyph glyph-name="Edieresis" unicode="&#xcb;" 
d="M60 682q0 18 19 18h349q18 0 18 -19v-23q0 -11 -4 -15t-14 -4h-296v-250h277q18 0 18 -19v-23q0 -19 -18 -19h-277v-267h297q10 0 14 -4t4 -15v-23q0 -19 -18 -19h-350q-19 0 -19 18v664v0zM368 829q0 -17 -12.5 -29.5t-29.5 -12.5q-20 0 -31.5 12.5t-11.5 29.5
q0 20 11.5 31t31.5 11q16 0 29 -12t13 -30zM235 829q0 -17 -12.5 -29.5t-29.5 -12.5q-20 0 -31.5 12.5t-11.5 29.5q0 20 11.5 31t31.5 11q16 0 29 -12t13 -30z" />
    <glyph glyph-name="Igrave" unicode="&#xcc;" horiz-adv-x="192" 
d="M60 682q0 18 19 18h34q19 0 19 -18v-664q0 -18 -19 -18h-34q-11 0 -15 4.5t-4 13.5v664v0zM-29 873q-14 9 -14 19q0 8 6 15l17 22q7 10 17 10t19 -9l136 -121q4 -4 7 -7.5t3 -7.5t-4 -9l-8 -10l-4.5 -4.5t-4.5 -1.5q-4 0 -17 8z" />
    <glyph glyph-name="Iacute" unicode="&#xcd;" horiz-adv-x="192" 
d="M60 682q0 18 19 18h34q19 0 19 -18v-664q0 -18 -19 -18h-34q-11 0 -15 4.5t-4 13.5v664v0zM68 777q-6 -4 -9.5 -6t-6.5 -2t-4.5 1.5l-4.5 4.5l-9 10q-4 5 -4 9t3 7.5t7 7.5l136 121q9 9 19 9t17 -10l17 -22q6 -7 6 -15q0 -10 -14 -19z" />
    <glyph glyph-name="Icircumflex" unicode="&#xce;" horiz-adv-x="192" 
d="M60 682q0 18 19 18h34q19 0 19 -18v-664q0 -18 -19 -18h-34q-11 0 -15 4.5t-4 13.5v664v0zM-8 785q-8 -5 -11.5 -7t-7.5 -2q-5 0 -10 7l-6 8q-5 7 -5 10q0 6 11 15l112 104q10 9 21 9q9 0 20 -9l112 -104q11 -9 11 -15q0 -3 -5 -10l-6 -8q-5 -7 -10 -7q-4 0 -7.5 2
t-11.5 7l-104 68z" />
    <glyph glyph-name="Idieresis" unicode="&#xcf;" horiz-adv-x="192" 
d="M60 682q0 18 19 18h34q19 0 19 -18v-664q0 -18 -19 -18h-34q-11 0 -15 4.5t-4 13.5v664v0zM205 829q0 -17 -12.5 -29.5t-29.5 -12.5q-20 0 -31.5 12.5t-11.5 29.5q0 20 11.5 31t31.5 11q16 0 29 -12t13 -30zM72 829q0 -17 -12.5 -29.5t-29.5 -12.5q-20 0 -31.5 12.5
t-11.5 29.5q0 20 11.5 31t31.5 11q16 0 29 -12t13 -30z" />
    <glyph glyph-name="Eth" unicode="&#xd0;" horiz-adv-x="612" 
d="M288 61q58 0 96.5 15t61.5 48.5t32.5 89t9.5 136.5t-9.5 136.5t-32.5 89t-61.5 48.5t-96.5 15h-141v-233h131q10 0 14 -3.5t4 -14.5v-21q0 -11 -4.5 -15t-13.5 -4h-131v-287h141zM75 682q0 18 19 18h194q73 0 125 -18t85 -59t48.5 -108t15.5 -165t-15.5 -165t-48.5 -108
t-85 -59t-125 -18h-194q-19 0 -19 18v330h-42q-18 0 -18 20v20q0 18 18 18h42v276z" />
    <glyph glyph-name="Ntilde" unicode="&#xd1;" horiz-adv-x="578" 
d="M447 682q0 9 3.5 13.5t14.5 4.5h34q19 0 19 -18v-664q0 -18 -19 -18h-36q-9 0 -12.5 3t-7.5 11l-311 536v-532q0 -18 -19 -18h-34q-19 0 -19 18v664q0 18 17 18h37q8 0 11.5 -3.5t8.5 -10.5l313 -542v538v0zM207 812q-21 0 -37 -7t-31 -7q-9 0 -13 8l-4 12q-2 5 -3 8.5
t-1 4.5q0 5 9.5 12t24 13.5t32.5 11t35 4.5q23 0 40 -4.5t32.5 -10t31.5 -10t37 -4.5q24 0 37.5 7t28.5 7q8 0 13 -8q2 -6 4 -11t3 -9t1 -5q0 -5 -9 -12t-23.5 -13t-32 -10.5t-33.5 -4.5q-24 0 -41.5 4.5t-33 9.5t-31 9.5t-36.5 4.5z" />
    <glyph glyph-name="Ograve" unicode="&#xd2;" horiz-adv-x="628" 
d="M125 350q0 -76 7.5 -132t28.5 -92.5t58 -54.5t95 -18t95 18t58 54.5t28.5 92.5t7.5 132t-7.5 131.5t-28.5 92.5t-58 55t-95 18t-95 -18t-58 -55t-28.5 -92.5t-7.5 -131.5zM50 350q0 97 14 165.5t45.5 111.5t82 62.5t122.5 19.5t122.5 -19.5t82 -62.5t45.5 -111.5
t14 -165.5t-14 -165.5t-45.5 -111.5t-82 -62.5t-122.5 -19.5t-122.5 19.5t-82 62.5t-45.5 111.5t-14 165.5zM185 873q-14 9 -14 19q0 8 6 15l17 22q7 10 17 10t19 -9l136 -121q4 -4 7 -7.5t3 -7.5t-4 -9l-8 -10l-4.5 -4.5t-4.5 -1.5q-4 0 -17 8z" />
    <glyph glyph-name="Oacute" unicode="&#xd3;" horiz-adv-x="628" 
d="M125 350q0 -76 7.5 -132t28.5 -92.5t58 -54.5t95 -18t95 18t58 54.5t28.5 92.5t7.5 132t-7.5 131.5t-28.5 92.5t-58 55t-95 18t-95 -18t-58 -55t-28.5 -92.5t-7.5 -131.5zM50 350q0 97 14 165.5t45.5 111.5t82 62.5t122.5 19.5t122.5 -19.5t82 -62.5t45.5 -111.5
t14 -165.5t-14 -165.5t-45.5 -111.5t-82 -62.5t-122.5 -19.5t-122.5 19.5t-82 62.5t-45.5 111.5t-14 165.5zM289 777q-6 -4 -9.5 -6t-6.5 -2t-4.5 1.5l-4.5 4.5l-9 10q-4 5 -4 9t3 7.5t7 7.5l136 121q9 9 19 9t17 -10l17 -22q6 -7 6 -15q0 -10 -14 -19z" />
    <glyph glyph-name="Ocircumflex" unicode="&#xd4;" horiz-adv-x="628" 
d="M125 350q0 -76 7.5 -132t28.5 -92.5t58 -54.5t95 -18t95 18t58 54.5t28.5 92.5t7.5 132t-7.5 131.5t-28.5 92.5t-58 55t-95 18t-95 -18t-58 -55t-28.5 -92.5t-7.5 -131.5zM50 350q0 97 14 165.5t45.5 111.5t82 62.5t122.5 19.5t122.5 -19.5t82 -62.5t45.5 -111.5
t14 -165.5t-14 -165.5t-45.5 -111.5t-82 -62.5t-122.5 -19.5t-122.5 19.5t-82 62.5t-45.5 111.5t-14 165.5zM210 785q-8 -5 -11.5 -7t-7.5 -2q-5 0 -10 7l-6 8q-5 7 -5 10q0 6 11 15l112 104q10 9 21 9q9 0 20 -9l112 -104q11 -9 11 -15q0 -3 -5 -10l-6 -8q-5 -7 -10 -7
q-4 0 -7.5 2t-11.5 7l-104 68z" />
    <glyph glyph-name="Otilde" unicode="&#xd5;" horiz-adv-x="628" 
d="M125 350q0 -76 7.5 -132t28.5 -92.5t58 -54.5t95 -18t95 18t58 54.5t28.5 92.5t7.5 132t-7.5 131.5t-28.5 92.5t-58 55t-95 18t-95 -18t-58 -55t-28.5 -92.5t-7.5 -131.5zM50 350q0 97 14 165.5t45.5 111.5t82 62.5t122.5 19.5t122.5 -19.5t82 -62.5t45.5 -111.5
t14 -165.5t-14 -165.5t-45.5 -111.5t-82 -62.5t-122.5 -19.5t-122.5 19.5t-82 62.5t-45.5 111.5t-14 165.5zM238 812q-21 0 -37 -7t-31 -7q-9 0 -13 8l-4 12q-2 5 -3 8.5t-1 4.5q0 5 9.5 12t24 13.5t32.5 11t35 4.5q23 0 40 -4.5t32.5 -10t31.5 -10t37 -4.5q24 0 37.5 7
t28.5 7q8 0 13 -8q2 -6 4 -11t3 -9t1 -5q0 -5 -9 -12t-23.5 -13t-32 -10.5t-33.5 -4.5q-24 0 -41.5 4.5t-33 9.5t-31 9.5t-36.5 4.5z" />
    <glyph glyph-name="Odieresis" unicode="&#xd6;" horiz-adv-x="628" 
d="M125 350q0 -76 7.5 -132t28.5 -92.5t58 -54.5t95 -18t95 18t58 54.5t28.5 92.5t7.5 132t-7.5 131.5t-28.5 92.5t-58 55t-95 18t-95 -18t-58 -55t-28.5 -92.5t-7.5 -131.5zM50 350q0 97 14 165.5t45.5 111.5t82 62.5t122.5 19.5t122.5 -19.5t82 -62.5t45.5 -111.5
t14 -165.5t-14 -165.5t-45.5 -111.5t-82 -62.5t-122.5 -19.5t-122.5 19.5t-82 62.5t-45.5 111.5t-14 165.5zM424 829q0 -17 -12.5 -29.5t-29.5 -12.5q-20 0 -31.5 12.5t-11.5 29.5q0 20 11.5 31t31.5 11q16 0 29 -12t13 -30zM291 829q0 -17 -12.5 -29.5t-29.5 -12.5
q-20 0 -31.5 12.5t-11.5 29.5q0 20 11.5 31t31.5 11q16 0 29 -12t13 -30z" />
    <glyph glyph-name="multiply" unicode="&#xd7;" horiz-adv-x="438" 
d="M79 377q-8 8 -8 13q0 4 7 13l16 15q8 8 13 8t13 -8l99 -99l99 100q8 8 13 8q6 0 12 -8l17 -16q3 -4 5.5 -7t2.5 -6q0 -4 -9 -13l-100 -99l100 -99q8 -8 8 -13q0 -4 -7 -13l-17 -16q-6 -8 -12 -8q-5 0 -13 8l-99 100l-99 -100q-10 -8 -14 -8q-3 0 -6 2.5t-6 5.5l-17 16
q-7 7 -7 13q0 5 8 13l100 99l-99 99v0z" />
    <glyph glyph-name="Oslash" unicode="&#xd8;" horiz-adv-x="628" 
d="M578 350q0 -98 -14 -166t-45.5 -111t-82 -62.5t-122.5 -19.5q-66 0 -115 17l-10 -22q-7 -17 -12 -20.5t-17 -3.5h-27q-15 0 -15 14q0 2 2 7.5t3 7.5l21 47q-34 24 -53 64.5t-28 85t-11 88t-2 74.5q0 88 11.5 155t41.5 112.5t81 68.5t130 23q37 0 67 -5t56 -16l12 28
q6 14 11.5 18t13.5 4h29q17 0 17 -14q0 -2 -1.5 -7t-2.5 -7l-24 -54q46 -44 66 -116t20 -190zM314 647q-56 0 -92.5 -17t-58 -53t-30 -92.5t-8.5 -134.5q0 -85 9.5 -146t40.5 -96q27 59 54 119t56 123.5t60 132t65 145.5q-19 9 -42.5 14t-53.5 5zM503 350q0 81 -9 139
t-35 95l-232 -516q34 -15 87 -15q58 0 94.5 18t57.5 54.5t29 92.5t8 132z" />
    <glyph glyph-name="Ugrave" unicode="&#xd9;" horiz-adv-x="592" 
d="M296 53q51 0 84 12t51.5 39t26 70.5t7.5 107.5v400q0 18 19 18h33q20 0 20 -18v-397q0 -79 -11.5 -134.5t-39 -91t-74 -52t-116.5 -16.5t-116.5 16.5t-74 52t-39 91t-11.5 134.5v397q0 18 19 18h34q19 0 19 -18v-400q0 -64 7 -107.5t26 -70.5t52 -39t84 -12zM154 873
q-14 9 -14 19q0 8 6 15l17 22q7 10 17 10t19 -9l136 -121q4 -4 7 -7.5t3 -7.5t-4 -9l-8 -10l-4.5 -4.5t-4.5 -1.5q-4 0 -17 8z" />
    <glyph glyph-name="Uacute" unicode="&#xda;" horiz-adv-x="592" 
d="M296 53q51 0 84 12t51.5 39t26 70.5t7.5 107.5v400q0 18 19 18h33q20 0 20 -18v-397q0 -79 -11.5 -134.5t-39 -91t-74 -52t-116.5 -16.5t-116.5 16.5t-74 52t-39 91t-11.5 134.5v397q0 18 19 18h34q19 0 19 -18v-400q0 -64 7 -107.5t26 -70.5t52 -39t84 -12zM281 777
q-6 -4 -9.5 -6t-6.5 -2t-4.5 1.5l-4.5 4.5l-9 10q-4 5 -4 9t3 7.5t7 7.5l136 121q9 9 19 9t17 -10l17 -22q6 -7 6 -15q0 -10 -14 -19z" />
    <glyph glyph-name="Ucircumflex" unicode="&#xdb;" horiz-adv-x="592" 
d="M296 53q51 0 84 12t51.5 39t26 70.5t7.5 107.5v400q0 18 19 18h33q20 0 20 -18v-397q0 -79 -11.5 -134.5t-39 -91t-74 -52t-116.5 -16.5t-116.5 16.5t-74 52t-39 91t-11.5 134.5v397q0 18 19 18h34q19 0 19 -18v-400q0 -64 7 -107.5t26 -70.5t52 -39t84 -12zM192 785
q-8 -5 -11.5 -7t-7.5 -2q-5 0 -10 7l-6 8q-5 7 -5 10q0 6 11 15l112 104q10 9 21 9q9 0 20 -9l112 -104q11 -9 11 -15q0 -3 -5 -10l-6 -8q-5 -7 -10 -7q-4 0 -7.5 2t-11.5 7l-104 68z" />
    <glyph glyph-name="Udieresis" unicode="&#xdc;" horiz-adv-x="592" 
d="M296 53q51 0 84 12t51.5 39t26 70.5t7.5 107.5v400q0 18 19 18h33q20 0 20 -18v-397q0 -79 -11.5 -134.5t-39 -91t-74 -52t-116.5 -16.5t-116.5 16.5t-74 52t-39 91t-11.5 134.5v397q0 18 19 18h34q19 0 19 -18v-400q0 -64 7 -107.5t26 -70.5t52 -39t84 -12zM405 829
q0 -17 -12.5 -29.5t-29.5 -12.5q-20 0 -31.5 12.5t-11.5 29.5q0 20 11.5 31t31.5 11q16 0 29 -12t13 -30zM272 829q0 -17 -12.5 -29.5t-29.5 -12.5q-20 0 -31.5 12.5t-11.5 29.5q0 20 11.5 31t31.5 11q16 0 29 -12t13 -30z" />
    <glyph glyph-name="Yacute" unicode="&#xdd;" horiz-adv-x="502" 
d="M10 689q0 11 14 11h48q8 0 11 -4t7 -12l161 -317l162 319q4 6 7.5 10t10.5 4h47q14 0 14 -11q0 -5 -3 -11l-202 -381v-279q0 -9 -4 -13.5t-15 -4.5h-34q-19 0 -19 18v279l-202 381q-3 6 -3 11zM246 777q-6 -4 -9.5 -6t-6.5 -2t-4.5 1.5l-4.5 4.5l-9 10q-4 5 -4 9t3 7.5
t7 7.5l136 121q9 9 19 9t17 -10l17 -22q6 -7 6 -15q0 -10 -14 -19z" />
    <glyph glyph-name="Thorn" unicode="&#xde;" horiz-adv-x="551" 
d="M60 682q0 18 19 18h34q19 0 19 -18v-95h191q59 0 97.5 -17t61 -45t31.5 -63t9 -71q0 -38 -9.5 -73t-32.5 -62t-61 -43.5t-96 -16.5h-191v-178q0 -18 -19 -18h-34q-19 0 -19 18v664zM449 392q0 30 -6.5 54.5t-22.5 42.5t-42 27.5t-65 9.5h-181v-270h181q39 0 65 9.5
t41.5 27.5t22.5 43t7 56z" />
    <glyph glyph-name="germandbls" unicode="&#xdf;" horiz-adv-x="541" 
d="M491 129q0 -20 -6.5 -44t-24.5 -45t-50 -35t-83 -14q-23 0 -45.5 4t-40 10t-28.5 14t-11 16q0 3 2.5 9t6 12t8 11t8.5 5t12 -4t20.5 -8.5t29 -8t36.5 -3.5q40 0 68 19t28 59q0 31 -24 55.5t-69 60.5q-24 20 -43.5 37t-33 34.5t-20.5 37.5t-7 46q0 48 33 82t89 52
q-7 25 -19 46.5t-27.5 37.5t-34 25.5t-38.5 9.5q-50 0 -68.5 -41t-18.5 -129v-462q0 -18 -19 -18h-33q-10 0 -14.5 3.5t-4.5 14.5v455q0 50 5.5 93t22 75t46 50t78.5 18q34 0 61 -11t47.5 -28.5t35 -39.5t24.5 -43t16 -39.5t8 -29.5l3 -23q-58 -12 -90 -36.5t-32 -61.5
q0 -19 8 -35t20.5 -30t28.5 -27t33 -26q23 -18 42.5 -35.5t34 -35.5t22.5 -37.5t8 -41.5z" />
    <glyph glyph-name="agrave" unicode="&#xe0;" horiz-adv-x="520" 
d="M500 50q8 0 11 -15q1 -6 2.5 -16t1.5 -12q0 -5 -11.5 -10.5t-40.5 -5.5q-20 0 -34 5.5t-23.5 14t-15 18t-8.5 18.5q-3 -3 -14 -12.5t-29.5 -19t-44 -17t-57.5 -7.5q-89 0 -140.5 56t-51.5 183q0 68 14.5 114.5t41.5 75t66.5 41t89.5 12.5q36 0 66 -5.5t53 -13t38.5 -15.5
t22.5 -12v-323q0 -26 8.5 -41t33.5 -15q7 0 12.5 1t8.5 1zM366 389q-15 7 -32 12q-15 5 -34 9t-42 4q-35 0 -61.5 -9t-44.5 -30.5t-27 -57t-9 -87.5q0 -95 33 -137.5t98 -42.5q27 0 48.5 7.5t36.5 17t23.5 19t10.5 12.5v283zM131 637q-14 9 -14 19q0 8 6 15l17 22
q7 10 17 10t19 -9l136 -121q4 -4 7 -7.5t3 -7.5t-4 -9l-8 -10l-4.5 -4.5t-4.5 -1.5q-4 0 -17 8z" />
    <glyph glyph-name="aacute" unicode="&#xe1;" horiz-adv-x="520" 
d="M500 50q8 0 11 -15q1 -6 2.5 -16t1.5 -12q0 -5 -11.5 -10.5t-40.5 -5.5q-20 0 -34 5.5t-23.5 14t-15 18t-8.5 18.5q-3 -3 -14 -12.5t-29.5 -19t-44 -17t-57.5 -7.5q-89 0 -140.5 56t-51.5 183q0 68 14.5 114.5t41.5 75t66.5 41t89.5 12.5q36 0 66 -5.5t53 -13t38.5 -15.5
t22.5 -12v-323q0 -26 8.5 -41t33.5 -15q7 0 12.5 1t8.5 1zM366 389q-15 7 -32 12q-15 5 -34 9t-42 4q-35 0 -61.5 -9t-44.5 -30.5t-27 -57t-9 -87.5q0 -95 33 -137.5t98 -42.5q27 0 48.5 7.5t36.5 17t23.5 19t10.5 12.5v283zM235 541q-6 -4 -9.5 -6t-6.5 -2t-4.5 1.5
l-4.5 4.5l-9 10q-4 5 -4 9t3 7.5t7 7.5l136 121q9 9 19 9t17 -10l17 -22q6 -7 6 -15q0 -10 -14 -19z" />
    <glyph glyph-name="acircumflex" unicode="&#xe2;" horiz-adv-x="520" 
d="M500 50q8 0 11 -15q1 -6 2.5 -16t1.5 -12q0 -5 -11.5 -10.5t-40.5 -5.5q-20 0 -34 5.5t-23.5 14t-15 18t-8.5 18.5q-3 -3 -14 -12.5t-29.5 -19t-44 -17t-57.5 -7.5q-89 0 -140.5 56t-51.5 183q0 68 14.5 114.5t41.5 75t66.5 41t89.5 12.5q36 0 66 -5.5t53 -13t38.5 -15.5
t22.5 -12v-323q0 -26 8.5 -41t33.5 -15q7 0 12.5 1t8.5 1zM366 389q-15 7 -32 12q-15 5 -34 9t-42 4q-35 0 -61.5 -9t-44.5 -30.5t-27 -57t-9 -87.5q0 -95 33 -137.5t98 -42.5q27 0 48.5 7.5t36.5 17t23.5 19t10.5 12.5v283zM156 549q-8 -5 -11.5 -7t-7.5 -2q-5 0 -10 7
l-6 8q-5 7 -5 10q0 6 11 15l112 104q10 9 21 9q9 0 20 -9l112 -104q11 -9 11 -15q0 -3 -5 -10l-6 -8q-5 -7 -10 -7q-4 0 -7.5 2t-11.5 7l-104 68z" />
    <glyph glyph-name="atilde" unicode="&#xe3;" horiz-adv-x="520" 
d="M500 50q8 0 11 -15q1 -6 2.5 -16t1.5 -12q0 -5 -11.5 -10.5t-40.5 -5.5q-20 0 -34 5.5t-23.5 14t-15 18t-8.5 18.5q-3 -3 -14 -12.5t-29.5 -19t-44 -17t-57.5 -7.5q-89 0 -140.5 56t-51.5 183q0 68 14.5 114.5t41.5 75t66.5 41t89.5 12.5q36 0 66 -5.5t53 -13t38.5 -15.5
t22.5 -12v-323q0 -26 8.5 -41t33.5 -15q7 0 12.5 1t8.5 1zM366 389q-15 7 -32 12q-15 5 -34 9t-42 4q-35 0 -61.5 -9t-44.5 -30.5t-27 -57t-9 -87.5q0 -95 33 -137.5t98 -42.5q27 0 48.5 7.5t36.5 17t23.5 19t10.5 12.5v283zM184 576q-21 0 -37 -7t-31 -7q-9 0 -13 8l-4 12
q-2 5 -3 8.5t-1 4.5q0 5 9.5 12t24 13.5t32.5 11t35 4.5q23 0 40 -4.5t32.5 -10t31.5 -10t37 -4.5q24 0 37.5 7t28.5 7q8 0 13 -8q2 -6 4 -11t3 -9t1 -5q0 -5 -9 -12t-23.5 -13t-32 -10.5t-33.5 -4.5q-24 0 -41.5 4.5t-33 9.5t-31 9.5t-36.5 4.5z" />
    <glyph glyph-name="adieresis" unicode="&#xe4;" horiz-adv-x="520" 
d="M500 50q8 0 11 -15q1 -6 2.5 -16t1.5 -12q0 -5 -11.5 -10.5t-40.5 -5.5q-20 0 -34 5.5t-23.5 14t-15 18t-8.5 18.5q-3 -3 -14 -12.5t-29.5 -19t-44 -17t-57.5 -7.5q-89 0 -140.5 56t-51.5 183q0 68 14.5 114.5t41.5 75t66.5 41t89.5 12.5q36 0 66 -5.5t53 -13t38.5 -15.5
t22.5 -12v-323q0 -26 8.5 -41t33.5 -15q7 0 12.5 1t8.5 1zM366 389q-15 7 -32 12q-15 5 -34 9t-42 4q-35 0 -61.5 -9t-44.5 -30.5t-27 -57t-9 -87.5q0 -95 33 -137.5t98 -42.5q27 0 48.5 7.5t36.5 17t23.5 19t10.5 12.5v283zM369 593q0 -17 -12.5 -29.5t-29.5 -12.5
q-20 0 -31.5 12.5t-11.5 29.5q0 20 11.5 31t31.5 11q16 0 29 -12t13 -30zM236 593q0 -17 -12.5 -29.5t-29.5 -12.5q-20 0 -31.5 12.5t-11.5 29.5q0 20 11.5 31t31.5 11q16 0 29 -12t13 -30z" />
    <glyph glyph-name="aring" unicode="&#xe5;" horiz-adv-x="520" 
d="M500 50q8 0 11 -15q1 -6 2.5 -16t1.5 -12q0 -5 -11.5 -10.5t-40.5 -5.5q-20 0 -34 5.5t-23.5 14t-15 18t-8.5 18.5q-3 -3 -14 -12.5t-29.5 -19t-44 -17t-57.5 -7.5q-89 0 -140.5 56t-51.5 183q0 68 14.5 114.5t41.5 75t66.5 41t89.5 12.5q36 0 66 -5.5t53 -13t38.5 -15.5
t22.5 -12v-323q0 -26 8.5 -41t33.5 -15q7 0 12.5 1t8.5 1zM366 389q-15 7 -32 12q-15 5 -34 9t-42 4q-35 0 -61.5 -9t-44.5 -30.5t-27 -57t-9 -87.5q0 -95 33 -137.5t98 -42.5q27 0 48.5 7.5t36.5 17t23.5 19t10.5 12.5v283zM346 624q0 -35 -25.5 -60t-60.5 -25
q-38 0 -62 25t-24 60q0 38 24 61.5t62 23.5q16 0 31.5 -6.5t27.5 -18t19.5 -27t7.5 -33.5zM306 624q0 19 -14.5 33.5t-32.5 14.5q-20 0 -32.5 -14t-12.5 -34q0 -19 12.5 -33t32.5 -14q19 0 33 14t14 33z" />
    <glyph glyph-name="ae" unicode="&#xe6;" horiz-adv-x="795" 
d="M590 -9q-76 0 -120 19.5t-68 55.5q-8 -10 -21 -23t-33 -24.5t-47.5 -19.5t-63.5 -8q-89 0 -140.5 56t-51.5 183q0 68 14.5 114.5t41.5 75t66.5 41t89.5 12.5q61 0 103 -16.5t68 -33.5q23 23 55 36.5t82 13.5q96 0 140.5 -56t44.5 -169q0 -26 -6.5 -35t-26.5 -9h-279
q0 -78 34.5 -116t117.5 -38q25 0 46.5 3.5t37.5 7t26 7t12 3.5q4 0 8 -5t7 -12t4.5 -14t1.5 -11q0 -8 -13.5 -14.5t-34 -12t-46 -8.5t-49.5 -3zM366 383q-16 8 -34 15q-15 6 -34.5 11t-39.5 5q-35 0 -61.5 -9t-44.5 -30.5t-27 -57t-9 -87.5q0 -95 33 -137.5t98 -42.5
q27 0 48.5 8t36.5 18t23.5 19.5t10.5 12.5v275zM681 272q0 61 -27 101.5t-89 40.5q-68 0 -97.5 -42t-29.5 -112h243v12z" />
    <glyph glyph-name="ccedilla" unicode="&#xe7;" horiz-adv-x="403" 
d="M141 -156q0 13 5 17.5t10 4.5t20 -4.5t41 -4.5q29 0 44 10.5t15 28.5q0 17 -11 24.5t-31 7.5q-16 0 -29.5 -3.5t-20.5 -6.5l-24 30l37 48q-78 13 -115 68.5t-37 167.5q0 67 14 113.5t40.5 74.5t65.5 40.5t90 12.5q19 0 38.5 -3t35.5 -8t26 -11.5t10 -12.5q0 -2 -2.5 -8.5
t-6 -14t-7.5 -13t-7 -5.5q-5 0 -12 2.5t-17 6t-24.5 6t-33.5 2.5q-39 0 -66 -10.5t-43 -32.5t-23 -56.5t-7 -82.5q0 -47 6.5 -81t22.5 -56.5t42.5 -33.5t66.5 -11q47 0 71 10t32 10t14.5 -13.5t6.5 -27.5q0 -7 -11 -14t-28 -12t-38 -8.5t-41 -3.5h-13q-4 0 -7 1l-20 -31
q4 1 9 2t10 1.5t11 0.5q37 0 55.5 -19t18.5 -47q0 -37 -28.5 -58t-82.5 -21q-12 0 -24.5 2t-23 5t-17.5 7.5t-7 9.5z" />
    <glyph glyph-name="egrave" unicode="&#xe8;" horiz-adv-x="474" 
d="M360 272q0 61 -27 101.5t-89 40.5q-68 0 -97.5 -42t-29.5 -112h243v12zM269 -9q-63 0 -106 14.5t-69.5 44.5t-37.5 75.5t-11 106.5q0 118 49.5 179.5t149.5 61.5q96 0 140.5 -56t44.5 -169q0 -26 -6.5 -35t-26.5 -9h-279q0 -38 7.5 -66.5t25.5 -48t48 -29.5t75 -10
q52 0 81 10.5t37 10.5q4 0 8 -5t7 -12t4.5 -14t1.5 -11q0 -8 -13.5 -14.5t-34 -12t-46 -8.5t-49.5 -3zM123 637q-14 9 -14 19q0 8 6 15l17 22q7 10 17 10t19 -9l136 -121q4 -4 7 -7.5t3 -7.5t-4 -9l-8 -10l-4.5 -4.5t-4.5 -1.5q-4 0 -17 8z" />
    <glyph glyph-name="eacute" unicode="&#xe9;" horiz-adv-x="474" 
d="M360 272q0 61 -27 101.5t-89 40.5q-68 0 -97.5 -42t-29.5 -112h243v12zM269 -9q-63 0 -106 14.5t-69.5 44.5t-37.5 75.5t-11 106.5q0 118 49.5 179.5t149.5 61.5q96 0 140.5 -56t44.5 -169q0 -26 -6.5 -35t-26.5 -9h-279q0 -38 7.5 -66.5t25.5 -48t48 -29.5t75 -10
q52 0 81 10.5t37 10.5q4 0 8 -5t7 -12t4.5 -14t1.5 -11q0 -8 -13.5 -14.5t-34 -12t-46 -8.5t-49.5 -3zM230 541q-6 -4 -9.5 -6t-6.5 -2t-4.5 1.5l-4.5 4.5l-9 10q-4 5 -4 9t3 7.5t7 7.5l136 121q9 9 19 9t17 -10l17 -22q6 -7 6 -15q0 -10 -14 -19z" />
    <glyph glyph-name="ecircumflex" unicode="&#xea;" horiz-adv-x="474" 
d="M360 272q0 61 -27 101.5t-89 40.5q-68 0 -97.5 -42t-29.5 -112h243v12zM269 -9q-63 0 -106 14.5t-69.5 44.5t-37.5 75.5t-11 106.5q0 118 49.5 179.5t149.5 61.5q96 0 140.5 -56t44.5 -169q0 -26 -6.5 -35t-26.5 -9h-279q0 -38 7.5 -66.5t25.5 -48t48 -29.5t75 -10
q52 0 81 10.5t37 10.5q4 0 8 -5t7 -12t4.5 -14t1.5 -11q0 -8 -13.5 -14.5t-34 -12t-46 -8.5t-49.5 -3zM138 549q-8 -5 -11.5 -7t-7.5 -2q-5 0 -10 7l-6 8q-5 7 -5 10q0 6 11 15l112 104q10 9 21 9q9 0 20 -9l112 -104q11 -9 11 -15q0 -3 -5 -10l-6 -8q-5 -7 -10 -7
q-4 0 -7.5 2t-11.5 7l-104 68z" />
    <glyph glyph-name="edieresis" unicode="&#xeb;" horiz-adv-x="474" 
d="M360 272q0 61 -27 101.5t-89 40.5q-68 0 -97.5 -42t-29.5 -112h243v12zM269 -9q-63 0 -106 14.5t-69.5 44.5t-37.5 75.5t-11 106.5q0 118 49.5 179.5t149.5 61.5q96 0 140.5 -56t44.5 -169q0 -26 -6.5 -35t-26.5 -9h-279q0 -38 7.5 -66.5t25.5 -48t48 -29.5t75 -10
q52 0 81 10.5t37 10.5q4 0 8 -5t7 -12t4.5 -14t1.5 -11q0 -8 -13.5 -14.5t-34 -12t-46 -8.5t-49.5 -3zM350 593q0 -17 -12.5 -29.5t-29.5 -12.5q-20 0 -31.5 12.5t-11.5 29.5q0 20 11.5 31t31.5 11q16 0 29 -12t13 -30zM217 593q0 -17 -12.5 -29.5t-29.5 -12.5
q-20 0 -31.5 12.5t-11.5 29.5q0 20 11.5 31t31.5 11q16 0 29 -12t13 -30z" />
    <glyph glyph-name="igrave" unicode="&#xec;" horiz-adv-x="194" 
d="M62 445q0 10 4 14.5t15 4.5h32q20 0 20 -19v-427q0 -18 -20 -18h-32q-11 0 -15 4.5t-4 13.5v427v0zM-1 637q-14 9 -14 19q0 8 6 15l17 22q7 10 17 10t19 -9l136 -121q4 -4 7 -7.5t3 -7.5t-4 -9l-8 -10l-4.5 -4.5t-4.5 -1.5q-4 0 -17 8z" />
    <glyph glyph-name="iacute" unicode="&#xed;" horiz-adv-x="194" 
d="M62 445q0 10 4 14.5t15 4.5h32q20 0 20 -19v-427q0 -18 -20 -18h-32q-11 0 -15 4.5t-4 13.5v427v0zM50 541q-6 -4 -9.5 -6t-6.5 -2t-4.5 1.5l-4.5 4.5l-9 10q-4 5 -4 9t3 7.5t7 7.5l136 121q9 9 19 9t17 -10l17 -22q6 -7 6 -15q0 -10 -14 -19z" />
    <glyph glyph-name="icircumflex" unicode="&#xee;" horiz-adv-x="194" 
d="M62 445q0 10 4 14.5t15 4.5h32q20 0 20 -19v-427q0 -18 -20 -18h-32q-11 0 -15 4.5t-4 13.5v427v0zM-6 549q-8 -5 -11.5 -7t-7.5 -2q-5 0 -10 7l-6 8q-5 7 -5 10q0 6 11 15l112 104q10 9 21 9q9 0 20 -9l112 -104q11 -9 11 -15q0 -3 -5 -10l-6 -8q-5 -7 -10 -7
q-4 0 -7.5 2t-11.5 7l-104 68z" />
    <glyph glyph-name="idieresis" unicode="&#xef;" horiz-adv-x="194" 
d="M62 445q0 10 4 14.5t15 4.5h32q20 0 20 -19v-427q0 -18 -20 -18h-32q-11 0 -15 4.5t-4 13.5v427v0zM206 593q0 -17 -12.5 -29.5t-29.5 -12.5q-20 0 -31.5 12.5t-11.5 29.5q0 20 11.5 31t31.5 11q16 0 29 -12t13 -30zM73 593q0 -17 -12.5 -29.5t-29.5 -12.5
q-20 0 -31.5 12.5t-11.5 29.5q0 20 11.5 31t31.5 11q16 0 29 -12t13 -30z" />
    <glyph glyph-name="eth" unicode="&#xf0;" horiz-adv-x="507" 
d="M242 700q10 0 14.5 -5.5t9.5 -13.5l22 -34l72 31q10 4 14 4q7 0 12 -13l9 -19q3 -8 3 -12q0 -9 -12 -12l-65 -29q69 -107 105 -198t36 -166q0 -51 -8.5 -95.5t-31.5 -77t-63 -51t-103 -18.5q-60 0 -100 16t-65 46.5t-35.5 74t-10.5 98.5q0 50 11.5 92t35.5 72t61 47
t88 17q22 0 39.5 -2.5t29.5 -5.5q14 -4 25 -8q-20 35 -39 68t-39 65l-121 -53q-3 -1 -5.5 -1.5t-5.5 -0.5q-8 1 -14 13l-8 18q-2 4 -2 12q0 9 11 13l112 49q-6 9 -12.5 17.5t-12.5 18.5q-14 21 -14 28q0 9 5.5 12t13.5 3h38zM390 227q0 43 -8 77t-25 64q-11 7 -27 13
q-14 5 -33 9.5t-45 4.5q-73 0 -104.5 -43.5t-31.5 -124.5q0 -51 8.5 -85t25.5 -54.5t43 -29t62 -8.5q72 0 103.5 41t31.5 136z" />
    <glyph glyph-name="ntilde" unicode="&#xf1;" horiz-adv-x="503" 
d="M378 302q0 112 -130 112q-18 0 -36 -4t-34 -9t-28.5 -11t-19.5 -10v-362q0 -9 -4 -13.5t-15 -4.5h-32q-11 0 -15 4.5t-4 13.5v397q32 23 82.5 40.5t109.5 17.5q60 0 98.5 -14t60 -36t29.5 -49t8 -54v-302q0 -18 -19 -18h-32q-19 0 -19 18v284zM179 576q-21 0 -37 -7
t-31 -7q-9 0 -13 8l-4 12q-2 5 -3 8.5t-1 4.5q0 5 9.5 12t24 13.5t32.5 11t35 4.5q23 0 40 -4.5t32.5 -10t31.5 -10t37 -4.5q24 0 37.5 7t28.5 7q8 0 13 -8q2 -6 4 -11t3 -9t1 -5q0 -5 -9 -12t-23.5 -13t-32 -10.5t-33.5 -4.5q-24 0 -41.5 4.5t-33 9.5t-31 9.5t-36.5 4.5z
" />
    <glyph glyph-name="ograve" unicode="&#xf2;" horiz-adv-x="506" 
d="M389 232q0 53 -8 88t-25 56t-42.5 29.5t-60.5 8.5t-61 -8.5t-43 -29.5t-25 -56t-8 -88t8 -88t25 -56t43 -29.5t61 -8.5t60.5 8.5t42.5 29.5t25 56t8 88zM45 232q0 130 52 185.5t156 55.5q52 0 91 -13t65 -42t39 -75t13 -111t-13 -111t-39 -75t-65 -42t-91 -13t-91 13
t-65 42t-39 75t-13 111zM124 637q-14 9 -14 19q0 8 6 15l17 22q7 10 17 10t19 -9l136 -121q4 -4 7 -7.5t3 -7.5t-4 -9l-8 -10l-4.5 -4.5t-4.5 -1.5q-4 0 -17 8z" />
    <glyph glyph-name="oacute" unicode="&#xf3;" horiz-adv-x="506" 
d="M389 232q0 53 -8 88t-25 56t-42.5 29.5t-60.5 8.5t-61 -8.5t-43 -29.5t-25 -56t-8 -88t8 -88t25 -56t43 -29.5t61 -8.5t60.5 8.5t42.5 29.5t25 56t8 88zM45 232q0 130 52 185.5t156 55.5q52 0 91 -13t65 -42t39 -75t13 -111t-13 -111t-39 -75t-65 -42t-91 -13t-91 13
t-65 42t-39 75t-13 111zM235 541q-6 -4 -9.5 -6t-6.5 -2t-4.5 1.5l-4.5 4.5l-9 10q-4 5 -4 9t3 7.5t7 7.5l136 121q9 9 19 9t17 -10l17 -22q6 -7 6 -15q0 -10 -14 -19z" />
    <glyph glyph-name="ocircumflex" unicode="&#xf4;" horiz-adv-x="506" 
d="M389 232q0 53 -8 88t-25 56t-42.5 29.5t-60.5 8.5t-61 -8.5t-43 -29.5t-25 -56t-8 -88t8 -88t25 -56t43 -29.5t61 -8.5t60.5 8.5t42.5 29.5t25 56t8 88zM45 232q0 130 52 185.5t156 55.5q52 0 91 -13t65 -42t39 -75t13 -111t-13 -111t-39 -75t-65 -42t-91 -13t-91 13
t-65 42t-39 75t-13 111zM149 549q-8 -5 -11.5 -7t-7.5 -2q-5 0 -10 7l-6 8q-5 7 -5 10q0 6 11 15l112 104q10 9 21 9q9 0 20 -9l112 -104q11 -9 11 -15q0 -3 -5 -10l-6 -8q-5 -7 -10 -7q-4 0 -7.5 2t-11.5 7l-104 68z" />
    <glyph glyph-name="otilde" unicode="&#xf5;" horiz-adv-x="506" 
d="M389 232q0 53 -8 88t-25 56t-42.5 29.5t-60.5 8.5t-61 -8.5t-43 -29.5t-25 -56t-8 -88t8 -88t25 -56t43 -29.5t61 -8.5t60.5 8.5t42.5 29.5t25 56t8 88zM45 232q0 130 52 185.5t156 55.5q52 0 91 -13t65 -42t39 -75t13 -111t-13 -111t-39 -75t-65 -42t-91 -13t-91 13
t-65 42t-39 75t-13 111zM177 576q-21 0 -37 -7t-31 -7q-9 0 -13 8l-4 12q-2 5 -3 8.5t-1 4.5q0 5 9.5 12t24 13.5t32.5 11t35 4.5q23 0 40 -4.5t32.5 -10t31.5 -10t37 -4.5q24 0 37.5 7t28.5 7q8 0 13 -8q2 -6 4 -11t3 -9t1 -5q0 -5 -9 -12t-23.5 -13t-32 -10.5t-33.5 -4.5
q-24 0 -41.5 4.5t-33 9.5t-31 9.5t-36.5 4.5z" />
    <glyph glyph-name="odieresis" unicode="&#xf6;" horiz-adv-x="506" 
d="M389 232q0 53 -8 88t-25 56t-42.5 29.5t-60.5 8.5t-61 -8.5t-43 -29.5t-25 -56t-8 -88t8 -88t25 -56t43 -29.5t61 -8.5t60.5 8.5t42.5 29.5t25 56t8 88zM45 232q0 130 52 185.5t156 55.5q52 0 91 -13t65 -42t39 -75t13 -111t-13 -111t-39 -75t-65 -42t-91 -13t-91 13
t-65 42t-39 75t-13 111zM361 593q0 -17 -12.5 -29.5t-29.5 -12.5q-20 0 -31.5 12.5t-11.5 29.5q0 20 11.5 31t31.5 11q16 0 29 -12t13 -30zM228 593q0 -17 -12.5 -29.5t-29.5 -12.5q-20 0 -31.5 12.5t-11.5 29.5q0 20 11.5 31t31.5 11q16 0 29 -12t13 -30z" />
    <glyph glyph-name="divide" unicode="&#xf7;" horiz-adv-x="493" 
d="M185 449q0 25 18 42.5t43 17.5t42.5 -17.5t17.5 -42.5t-17.5 -43t-42.5 -18t-43 18t-18 43zM405 307q11 0 14.5 -3.5t3.5 -14.5v-22q0 -11 -3.5 -14.5t-14.5 -3.5h-317q-11 0 -14.5 3.5t-3.5 14.5v22q0 11 3.5 14.5t14.5 3.5h317zM185 108q0 25 18 42.5t43 17.5
t42.5 -17.5t17.5 -42.5q0 -26 -17.5 -43.5t-42.5 -17.5t-43 17.5t-18 43.5z" />
    <glyph glyph-name="oslash" unicode="&#xf8;" horiz-adv-x="506" 
d="M128 21q-42 26 -62.5 77t-20.5 134q0 130 52 185.5t156 55.5q19 0 36.5 -1.5t33.5 -5.5l9 20q5 12 9.5 18.5t14.5 6.5h31q17 0 17 -14q0 -6 -8.5 -24.5t-13.5 -31.5q40 -27 59.5 -78t19.5 -131q0 -65 -13 -111t-39 -75t-65 -42t-91 -13q-39 0 -66 7q-11 -24 -16 -34
t-16 -10h-33q-16 0 -16 13q0 5 4 15zM298 409q-6 1 -13 2q-6 1 -14.5 2t-17.5 1q-42 0 -68.5 -12t-42 -35t-21 -57t-5.5 -78q0 -60 10.5 -95.5t28.5 -52.5zM389 232q0 58 -9 91t-26 55l-142 -324q5 -1 11 -2q5 -1 12.5 -1.5t17.5 -0.5q35 0 60.5 8.5t42.5 29.5t25 56t8 88z
" />
    <glyph glyph-name="ugrave" unicode="&#xf9;" horiz-adv-x="518" 
d="M125 177q0 -27 5.5 -50t19.5 -40.5t37 -27t58 -9.5q24 0 44 6t35 14.5t25 18.5t16 18v338q0 19 19 19h32q20 0 20 -19v-340q0 -24 9.5 -40t32.5 -16q6 0 11 0.5t8 0.5q11 0 12 -14l2 -14q0 -3 0.5 -5.5t0.5 -4.5q0 -3 1 -5q0 -5 -11.5 -10.5t-37.5 -5.5q-32 0 -53.5 14
t-29.5 43q-6 -7 -19 -16.5t-31 -18.5t-42 -15.5t-52 -6.5q-91 0 -136.5 43t-45.5 127v284q0 19 19 19h32q11 0 15 -4.5t4 -14.5v-268zM94 637q-14 9 -14 19q0 8 6 15l17 22q7 10 17 10t19 -9l136 -121q4 -4 7 -7.5t3 -7.5t-4 -9l-8 -10l-4.5 -4.5t-4.5 -1.5q-4 0 -17 8z" />
    <glyph glyph-name="uacute" unicode="&#xfa;" horiz-adv-x="518" 
d="M125 177q0 -27 5.5 -50t19.5 -40.5t37 -27t58 -9.5q24 0 44 6t35 14.5t25 18.5t16 18v338q0 19 19 19h32q20 0 20 -19v-340q0 -24 9.5 -40t32.5 -16q6 0 11 0.5t8 0.5q11 0 12 -14l2 -14q0 -3 0.5 -5.5t0.5 -4.5q0 -3 1 -5q0 -5 -11.5 -10.5t-37.5 -5.5q-32 0 -53.5 14
t-29.5 43q-6 -7 -19 -16.5t-31 -18.5t-42 -15.5t-52 -6.5q-91 0 -136.5 43t-45.5 127v284q0 19 19 19h32q11 0 15 -4.5t4 -14.5v-268zM238 541q-6 -4 -9.5 -6t-6.5 -2t-4.5 1.5l-4.5 4.5l-9 10q-4 5 -4 9t3 7.5t7 7.5l136 121q9 9 19 9t17 -10l17 -22q6 -7 6 -15
q0 -10 -14 -19z" />
    <glyph glyph-name="ucircumflex" unicode="&#xfb;" horiz-adv-x="518" 
d="M125 177q0 -27 5.5 -50t19.5 -40.5t37 -27t58 -9.5q24 0 44 6t35 14.5t25 18.5t16 18v338q0 19 19 19h32q20 0 20 -19v-340q0 -24 9.5 -40t32.5 -16q6 0 11 0.5t8 0.5q11 0 12 -14l2 -14q0 -3 0.5 -5.5t0.5 -4.5q0 -3 1 -5q0 -5 -11.5 -10.5t-37.5 -5.5q-32 0 -53.5 14
t-29.5 43q-6 -7 -19 -16.5t-31 -18.5t-42 -15.5t-52 -6.5q-91 0 -136.5 43t-45.5 127v284q0 19 19 19h32q11 0 15 -4.5t4 -14.5v-268zM149 549q-8 -5 -11.5 -7t-7.5 -2q-5 0 -10 7l-6 8q-5 7 -5 10q0 6 11 15l112 104q10 9 21 9q9 0 20 -9l112 -104q11 -9 11 -15
q0 -3 -5 -10l-6 -8q-5 -7 -10 -7q-4 0 -7.5 2t-11.5 7l-104 68z" />
    <glyph glyph-name="udieresis" unicode="&#xfc;" horiz-adv-x="518" 
d="M125 177q0 -27 5.5 -50t19.5 -40.5t37 -27t58 -9.5q24 0 44 6t35 14.5t25 18.5t16 18v338q0 19 19 19h32q20 0 20 -19v-340q0 -24 9.5 -40t32.5 -16q6 0 11 0.5t8 0.5q11 0 12 -14l2 -14q0 -3 0.5 -5.5t0.5 -4.5q0 -3 1 -5q0 -5 -11.5 -10.5t-37.5 -5.5q-32 0 -53.5 14
t-29.5 43q-6 -7 -19 -16.5t-31 -18.5t-42 -15.5t-52 -6.5q-91 0 -136.5 43t-45.5 127v284q0 19 19 19h32q11 0 15 -4.5t4 -14.5v-268zM361 593q0 -17 -12.5 -29.5t-29.5 -12.5q-20 0 -31.5 12.5t-11.5 29.5q0 20 11.5 31t31.5 11q16 0 29 -12t13 -30zM228 593
q0 -17 -12.5 -29.5t-29.5 -12.5q-20 0 -31.5 12.5t-11.5 29.5q0 20 11.5 31t31.5 11q16 0 29 -12t13 -30z" />
    <glyph glyph-name="yacute" unicode="&#xfd;" horiz-adv-x="414" 
d="M176 -168q-4 -9 -7 -12.5t-12 -3.5h-39q-14 0 -14 10q0 3 2 9l67 174l-166 434q-2 6 -2 9q0 12 15 12h40q10 0 14 -3.5t7 -13.5l128 -355l129 356q3 9 6 12.5t12 3.5h38q15 0 15 -12q0 -4 -2 -10l-231 -610v0zM202 541q-6 -4 -9.5 -6t-6.5 -2t-4.5 1.5l-4.5 4.5l-9 10
q-4 5 -4 9t3 7.5t7 7.5l136 121q9 9 19 9t17 -10l17 -22q6 -7 6 -15q0 -10 -14 -19z" />
    <glyph glyph-name="thorn" unicode="&#xfe;" 
d="M60 677q0 9 3 13t14 8q17 5 28.5 8t15.5 3q6 0 7.5 -3t1.5 -13v-241q22 8 49 14.5t59 6.5q48 0 87.5 -11.5t67.5 -39t43.5 -74t15.5 -116.5q0 -66 -15 -112t-41.5 -74.5t-63.5 -41.5t-81 -13q-47 0 -76.5 13.5t-44.5 24.5v-219q0 -10 -4 -14t-15 -4h-32q-11 0 -15 4
t-4 14v867zM130 97q0 -3 8.5 -11t23.5 -16t35.5 -14t44.5 -6q33 0 58.5 9t43 30t27 56t9.5 87q0 57 -10.5 92.5t-29 55.5t-45 27t-57.5 7q-23 0 -42 -5.5t-34 -11.5q-18 -7 -32 -16v-284z" />
    <glyph glyph-name="ydieresis" unicode="&#xff;" horiz-adv-x="414" 
d="M176 -168q-4 -9 -7 -12.5t-12 -3.5h-39q-14 0 -14 10q0 3 2 9l67 174l-166 434q-2 6 -2 9q0 12 15 12h40q10 0 14 -3.5t7 -13.5l128 -355l129 356q3 9 6 12.5t12 3.5h38q15 0 15 -12q0 -4 -2 -10l-231 -610v0zM316 593q0 -17 -12.5 -29.5t-29.5 -12.5q-20 0 -31.5 12.5
t-11.5 29.5q0 20 11.5 31t31.5 11q16 0 29 -12t13 -30zM183 593q0 -17 -12.5 -29.5t-29.5 -12.5q-20 0 -31.5 12.5t-11.5 29.5q0 20 11.5 31t31.5 11q16 0 29 -12t13 -30z" />
    <glyph glyph-name="Amacron" unicode="&#x100;" horiz-adv-x="565" 
d="M401 266l-119 366l-118 -366h237zM553 18q2 -6 2 -8q0 -10 -14 -10h-40q-10 0 -13 3.5t-7 14.5l-61 187h-276l-60 -187q-3 -9 -6 -13.5t-14 -4.5h-39q-15 0 -15 10q0 2 2 8l214 664q3 10 6.5 14t12.5 4h75q9 0 12.5 -3.5t7.5 -14.5zM174 806q-15 0 -20.5 3t-5.5 17v17
q0 12 5.5 15.5t20.5 3.5h216q15 0 20.5 -3t5.5 -16v-17q0 -13 -5.5 -16.5t-20.5 -3.5h-216v0z" />
    <glyph glyph-name="amacron" unicode="&#x101;" horiz-adv-x="520" 
d="M500 50q8 0 11 -15q1 -6 2.5 -16t1.5 -12q0 -5 -11.5 -10.5t-40.5 -5.5q-20 0 -34 5.5t-23.5 14t-15 18t-8.5 18.5q-3 -3 -14 -12.5t-29.5 -19t-44 -17t-57.5 -7.5q-89 0 -140.5 56t-51.5 183q0 68 14.5 114.5t41.5 75t66.5 41t89.5 12.5q36 0 66 -5.5t53 -13t38.5 -15.5
t22.5 -12v-323q0 -26 8.5 -41t33.5 -15q7 0 12.5 1t8.5 1zM366 389q-15 7 -32 12q-15 5 -34 9t-42 4q-35 0 -61.5 -9t-44.5 -30.5t-27 -57t-9 -87.5q0 -95 33 -137.5t98 -42.5q27 0 48.5 7.5t36.5 17t23.5 19t10.5 12.5v283zM152 570q-15 0 -20.5 3t-5.5 17v17
q0 12 5.5 15.5t20.5 3.5h216q15 0 20.5 -3t5.5 -16v-17q0 -13 -5.5 -16.5t-20.5 -3.5h-216v0z" />
    <glyph glyph-name="Abreve" unicode="&#x102;" horiz-adv-x="565" 
d="M401 266l-119 366l-118 -366h237zM553 18q2 -6 2 -8q0 -10 -14 -10h-40q-10 0 -13 3.5t-7 14.5l-61 187h-276l-60 -187q-3 -9 -6 -13.5t-14 -4.5h-39q-15 0 -15 10q0 2 2 8l214 664q3 10 6.5 14t12.5 4h75q9 0 12.5 -3.5t7.5 -14.5zM387 891q0 -23 -9 -40.5t-24 -29.5
t-33.5 -18t-37.5 -6q-44 0 -75 24.5t-31 69.5h39q7 -20 21 -33t45 -13q29 0 44.5 13t22.5 33h38z" />
    <glyph glyph-name="abreve" unicode="&#x103;" horiz-adv-x="520" 
d="M500 50q8 0 11 -15q1 -6 2.5 -16t1.5 -12q0 -5 -11.5 -10.5t-40.5 -5.5q-20 0 -34 5.5t-23.5 14t-15 18t-8.5 18.5q-3 -3 -14 -12.5t-29.5 -19t-44 -17t-57.5 -7.5q-89 0 -140.5 56t-51.5 183q0 68 14.5 114.5t41.5 75t66.5 41t89.5 12.5q36 0 66 -5.5t53 -13t38.5 -15.5
t22.5 -12v-323q0 -26 8.5 -41t33.5 -15q7 0 12.5 1t8.5 1zM366 389q-15 7 -32 12q-15 5 -34 9t-42 4q-35 0 -61.5 -9t-44.5 -30.5t-27 -57t-9 -87.5q0 -95 33 -137.5t98 -42.5q27 0 48.5 7.5t36.5 17t23.5 19t10.5 12.5v283zM365 655q0 -23 -9 -40.5t-24 -29.5t-33.5 -18
t-37.5 -6q-44 0 -75 24.5t-31 69.5h39q7 -20 21 -33t45 -13q29 0 44.5 13t22.5 33h38z" />
    <glyph glyph-name="Aogonek" unicode="&#x104;" horiz-adv-x="565" 
d="M555 -158q0 -4 -6.5 -8t-17 -7t-23 -5t-24.5 -2q-45 0 -66 22t-21 52q0 23 12.5 41.5t29 32t33 21.5t24.5 11q-7 1 -9.5 5t-5.5 13l-61 187h-276l-60 -187q-3 -9 -6 -13.5t-14 -4.5h-39q-15 0 -15 10q0 2 2 8l214 664q3 10 6.5 14t12.5 4h75q9 0 12.5 -3.5t7.5 -14.5
l213 -664q2 -6 2 -8q0 -10 -17 -10q-12 -6 -26 -15.5t-26.5 -22t-21 -28.5t-8.5 -34q0 -20 14.5 -32t35.5 -12q16 0 25 3t13 3q2 0 6.5 -4t4.5 -16zM401 266l-119 366l-118 -366h237z" />
    <glyph glyph-name="aogonek" unicode="&#x105;" horiz-adv-x="520" 
d="M515 -158q0 -4 -6.5 -8t-17 -7t-23 -5t-24.5 -2q-45 0 -66 22t-21 52q0 36 23 61t48 42q-21 8 -31 22.5t-15 27.5q-3 -3 -14 -12.5t-29.5 -19t-44 -17t-57.5 -7.5q-89 0 -140.5 56t-51.5 183q0 68 14.5 114.5t41.5 75t66.5 41t89.5 12.5q36 0 66 -5.5t53 -13t38.5 -15.5
t22.5 -12v-323q0 -26 8.5 -41t33.5 -15q7 0 12.5 1t8.5 1q8 0 11 -15q1 -6 2.5 -16t1.5 -12q0 -5 -11.5 -10t-37.5 -6q-50 -47 -50 -91q0 -20 14.5 -32t35.5 -12q16 0 25 3t13 3q2 0 6.5 -4t4.5 -16zM366 389q-15 7 -32 12q-15 5 -34 9t-42 4q-35 0 -61.5 -9t-44.5 -30.5
t-27 -57t-9 -87.5q0 -95 33 -137.5t98 -42.5q27 0 48.5 7.5t36.5 17t23.5 19t10.5 12.5v283z" />
    <glyph glyph-name="Cacute" unicode="&#x106;" horiz-adv-x="523" 
d="M317 -9q-73 0 -124 19.5t-82.5 62t-46 111t-14.5 166.5t14.5 166.5t46 111t82.5 62t124 19.5q37 0 65.5 -5.5t48 -13t29.5 -14.5t10 -10q0 -6 -12 -27q-7 -11 -10.5 -15t-6.5 -4q-4 0 -12.5 4t-23.5 9.5t-36.5 9.5t-51.5 4q-56 0 -92.5 -15.5t-59 -51t-31.5 -92
t-9 -138.5t9 -138.5t31.5 -92t59 -51t92.5 -15.5q30 0 54.5 5.5t42.5 12t29 12t15 5.5q7 0 14 -13q4 -9 7.5 -19.5t3.5 -13.5q0 -4 -12 -12.5t-34 -17t-52.5 -15t-67.5 -6.5zM265 777q-6 -4 -9.5 -6t-6.5 -2t-4.5 1.5l-4.5 4.5l-9 10q-4 5 -4 9t3 7.5t7 7.5l136 121
q9 9 19 9t17 -10l17 -22q6 -7 6 -15q0 -10 -14 -19z" />
    <glyph glyph-name="cacute" unicode="&#x107;" horiz-adv-x="403" 
d="M254 50q47 0 71 10t32 10q5 0 9 -5t6.5 -11.5t4 -13.5t1.5 -11q0 -7 -11 -14t-28 -12t-38 -8.5t-41 -3.5q-55 0 -95.5 13t-67 41.5t-39.5 74.5t-13 112q0 67 14 113.5t40.5 74.5t65.5 40.5t90 12.5q19 0 38.5 -3t35.5 -8t26 -11.5t10 -12.5q0 -2 -2.5 -9t-6 -14
t-7.5 -12.5t-8 -5.5q-8 0 -28.5 8.5t-55.5 8.5t-61.5 -8t-44 -28t-26.5 -55.5t-9 -90.5q0 -47 6.5 -81t22.5 -56.5t42.5 -33.5t66.5 -11zM189 541q-6 -4 -9.5 -6t-6.5 -2t-4.5 1.5l-4.5 4.5l-9 10q-4 5 -4 9t3 7.5t7 7.5l136 121q9 9 19 9t17 -10l17 -22q6 -7 6 -15
q0 -10 -14 -19z" />
    <glyph glyph-name="Ccircumflex" unicode="&#x108;" horiz-adv-x="523" 
d="M317 -9q-73 0 -124 19.5t-82.5 62t-46 111t-14.5 166.5t14.5 166.5t46 111t82.5 62t124 19.5q37 0 65.5 -5.5t48 -13t29.5 -14.5t10 -10q0 -6 -12 -27q-7 -11 -10.5 -15t-6.5 -4q-4 0 -12.5 4t-23.5 9.5t-36.5 9.5t-51.5 4q-56 0 -92.5 -15.5t-59 -51t-31.5 -92
t-9 -138.5t9 -138.5t31.5 -92t59 -51t92.5 -15.5q30 0 54.5 5.5t42.5 12t29 12t15 5.5q7 0 14 -13q4 -9 7.5 -19.5t3.5 -13.5q0 -4 -12 -12.5t-34 -17t-52.5 -15t-67.5 -6.5zM198 785q-8 -5 -11.5 -7t-7.5 -2q-5 0 -10 7l-6 8q-5 7 -5 10q0 6 11 15l112 104q10 9 21 9
q9 0 20 -9l112 -104q11 -9 11 -15q0 -3 -5 -10l-6 -8q-5 -7 -10 -7q-4 0 -7.5 2t-11.5 7l-104 68z" />
    <glyph glyph-name="ccircumflex" unicode="&#x109;" horiz-adv-x="403" 
d="M254 50q47 0 71 10t32 10q5 0 9 -5t6.5 -11.5t4 -13.5t1.5 -11q0 -7 -11 -14t-28 -12t-38 -8.5t-41 -3.5q-55 0 -95.5 13t-67 41.5t-39.5 74.5t-13 112q0 67 14 113.5t40.5 74.5t65.5 40.5t90 12.5q19 0 38.5 -3t35.5 -8t26 -11.5t10 -12.5q0 -2 -2.5 -9t-6 -14
t-7.5 -12.5t-8 -5.5q-8 0 -28.5 8.5t-55.5 8.5t-61.5 -8t-44 -28t-26.5 -55.5t-9 -90.5q0 -47 6.5 -81t22.5 -56.5t42.5 -33.5t66.5 -11zM131 549q-8 -5 -11.5 -7t-7.5 -2q-5 0 -10 7l-6 8q-5 7 -5 10q0 6 11 15l112 104q10 9 21 9q9 0 20 -9l112 -104q11 -9 11 -15
q0 -3 -5 -10l-6 -8q-5 -7 -10 -7q-4 0 -7.5 2t-11.5 7l-104 68z" />
    <glyph glyph-name="Cdotaccent" unicode="&#x10a;" horiz-adv-x="523" 
d="M317 -9q-73 0 -124 19.5t-82.5 62t-46 111t-14.5 166.5t14.5 166.5t46 111t82.5 62t124 19.5q37 0 65.5 -5.5t48 -13t29.5 -14.5t10 -10q0 -6 -12 -27q-7 -11 -10.5 -15t-6.5 -4q-4 0 -12.5 4t-23.5 9.5t-36.5 9.5t-51.5 4q-56 0 -92.5 -15.5t-59 -51t-31.5 -92
t-9 -138.5t9 -138.5t31.5 -92t59 -51t92.5 -15.5q30 0 54.5 5.5t42.5 12t29 12t15 5.5q7 0 14 -13q4 -9 7.5 -19.5t3.5 -13.5q0 -4 -12 -12.5t-34 -17t-52.5 -15t-67.5 -6.5zM365 831q0 -23 -16 -38t-37 -15q-23 0 -38.5 15t-15.5 38q0 24 15.5 38t38.5 14q20 0 36.5 -14.5
t16.5 -37.5z" />
    <glyph glyph-name="cdotaccent" unicode="&#x10b;" horiz-adv-x="403" 
d="M254 50q47 0 71 10t32 10q5 0 9 -5t6.5 -11.5t4 -13.5t1.5 -11q0 -7 -11 -14t-28 -12t-38 -8.5t-41 -3.5q-55 0 -95.5 13t-67 41.5t-39.5 74.5t-13 112q0 67 14 113.5t40.5 74.5t65.5 40.5t90 12.5q19 0 38.5 -3t35.5 -8t26 -11.5t10 -12.5q0 -2 -2.5 -9t-6 -14
t-7.5 -12.5t-8 -5.5q-8 0 -28.5 8.5t-55.5 8.5t-61.5 -8t-44 -28t-26.5 -55.5t-9 -90.5q0 -47 6.5 -81t22.5 -56.5t42.5 -33.5t66.5 -11zM299 595q0 -23 -16 -38t-37 -15q-23 0 -38.5 15t-15.5 38q0 24 15.5 38t38.5 14q20 0 36.5 -14.5t16.5 -37.5z" />
    <glyph glyph-name="Ccaron" unicode="&#x10c;" horiz-adv-x="523" 
d="M317 -9q-73 0 -124 19.5t-82.5 62t-46 111t-14.5 166.5t14.5 166.5t46 111t82.5 62t124 19.5q37 0 65.5 -5.5t48 -13t29.5 -14.5t10 -10q0 -6 -12 -27q-7 -11 -10.5 -15t-6.5 -4q-4 0 -12.5 4t-23.5 9.5t-36.5 9.5t-51.5 4q-56 0 -92.5 -15.5t-59 -51t-31.5 -92
t-9 -138.5t9 -138.5t31.5 -92t59 -51t92.5 -15.5q30 0 54.5 5.5t42.5 12t29 12t15 5.5q7 0 14 -13q4 -9 7.5 -19.5t3.5 -13.5q0 -4 -12 -12.5t-34 -17t-52.5 -15t-67.5 -6.5zM311 852l104 68q8 5 11.5 7t7.5 2q5 0 10 -7l6 -8q5 -7 5 -10q0 -6 -11 -15l-112 -104
q-11 -9 -20 -9q-11 0 -21 9l-112 104q-11 9 -11 15q0 3 5 10l6 8q5 7 10 7q4 0 7.5 -2t11.5 -7z" />
    <glyph glyph-name="ccaron" unicode="&#x10d;" horiz-adv-x="403" 
d="M254 50q47 0 71 10t32 10q5 0 9 -5t6.5 -11.5t4 -13.5t1.5 -11q0 -7 -11 -14t-28 -12t-38 -8.5t-41 -3.5q-55 0 -95.5 13t-67 41.5t-39.5 74.5t-13 112q0 67 14 113.5t40.5 74.5t65.5 40.5t90 12.5q19 0 38.5 -3t35.5 -8t26 -11.5t10 -12.5q0 -2 -2.5 -9t-6 -14
t-7.5 -12.5t-8 -5.5q-8 0 -28.5 8.5t-55.5 8.5t-61.5 -8t-44 -28t-26.5 -55.5t-9 -90.5q0 -47 6.5 -81t22.5 -56.5t42.5 -33.5t66.5 -11zM233 616l104 68q8 5 11.5 7t7.5 2q5 0 10 -7l6 -8q5 -7 5 -10q0 -6 -11 -15l-112 -104q-11 -9 -20 -9q-11 0 -21 9l-112 104
q-11 9 -11 15q0 3 5 10l6 8q5 7 10 7q4 0 7.5 -2t11.5 -7z" />
    <glyph glyph-name="Dcaron" unicode="&#x10e;" horiz-adv-x="597" 
d="M60 682q0 18 19 18h194q73 0 125 -18t85 -59t48.5 -108t15.5 -165t-15.5 -165t-48.5 -108t-85 -59t-125 -18h-194q-19 0 -19 18v664zM273 61q58 0 96.5 15t61.5 48.5t32.5 89t9.5 136.5t-9.5 136.5t-32.5 89t-61.5 48.5t-96.5 15h-141v-578h141zM268 852l104 68
q8 5 11.5 7t7.5 2q5 0 10 -7l6 -8q5 -7 5 -10q0 -6 -11 -15l-112 -104q-11 -9 -20 -9q-11 0 -21 9l-112 104q-11 9 -11 15q0 3 5 10l6 8q5 7 10 7q4 0 7.5 -2t11.5 -7z" />
    <glyph glyph-name="dcaron" unicode="&#x10f;" horiz-adv-x="618" 
d="M437 22q-42 -13 -89 -22t-89 -9q-50 0 -90 11t-67.5 38.5t-42 74t-14.5 117.5q0 66 15.5 112t43.5 74.5t65.5 41.5t81.5 13q27 0 48.5 -5.5t36.5 -11.5q18 -7 30 -16v248q0 11 3 14.5t11 3.5q2 0 8.5 -0.5t12.5 -1.5q7 -1 15 -2q11 -2 16 -6t5 -14v-660zM366 380
q-13 9 -29 17q-14 6 -33.5 11.5t-43.5 5.5q-32 0 -58.5 -9t-45.5 -30t-29.5 -56t-10.5 -87q0 -57 10 -93t29 -55.5t45.5 -26.5t58.5 -7q20 0 39.5 2.5t34.5 5.5q18 4 33 8v314zM523 663q0 20 14 33t34 13q21 0 34 -13.5t13 -32.5q0 -17 -5.5 -35.5t-15 -37t-22.5 -34.5
t-28 -28q-10 -9 -18 -12.5t-12 -3.5q-5 0 -9.5 5.5t-6.5 10.5q11 7 20.5 18t16.5 23.5t11 24.5t4 21q0 2 -4.5 5.5t-10.5 8.5t-10.5 13.5t-4.5 20.5z" />
    <glyph glyph-name="Dcroat" unicode="&#x110;" horiz-adv-x="612" 
d="M288 61q58 0 96.5 15t61.5 48.5t32.5 89t9.5 136.5t-9.5 136.5t-32.5 89t-61.5 48.5t-96.5 15h-141v-233h131q10 0 14 -3.5t4 -14.5v-21q0 -11 -4.5 -15t-13.5 -4h-131v-287h141zM75 682q0 18 19 18h194q73 0 125 -18t85 -59t48.5 -108t15.5 -165t-15.5 -165t-48.5 -108
t-85 -59t-125 -18h-194q-19 0 -19 18v330h-42q-18 0 -18 20v20q0 18 18 18h42v276z" />
    <glyph glyph-name="dcroat" unicode="&#x111;" 
d="M366 630v58q0 11 3 14.5t11 3.5l36 -4q11 -2 16 -6t5 -14v-52h51q11 0 15 -3.5t4 -14.5v-22q0 -11 -4 -14.5t-15 -3.5h-51v-550q-42 -13 -89 -22t-89 -9q-50 0 -90 11t-67.5 38.5t-42 74t-14.5 117.5q0 66 15.5 112t43.5 74.5t65.5 41.5t81.5 13q27 0 48.5 -5.5
t36.5 -11.5q18 -7 30 -16v132h-112q-11 0 -14.5 3.5t-3.5 14.5v22q0 11 3.5 14.5t14.5 3.5h112zM366 380q-13 9 -29 17q-14 6 -33.5 11.5t-43.5 5.5q-32 0 -58.5 -9t-45.5 -30t-29.5 -56t-10.5 -87q0 -57 10 -93t29 -55.5t45.5 -26.5t58.5 -7q20 0 39.5 2.5t34.5 5.5
q18 4 33 8v314z" />
    <glyph glyph-name="Emacron" unicode="&#x112;" 
d="M60 682q0 18 19 18h349q18 0 18 -19v-23q0 -11 -4 -15t-14 -4h-296v-250h277q18 0 18 -19v-23q0 -19 -18 -19h-277v-267h297q10 0 14 -4t4 -15v-23q0 -19 -18 -19h-350q-19 0 -19 18v664v0zM150 806q-15 0 -20.5 3t-5.5 17v17q0 12 5.5 15.5t20.5 3.5h216q15 0 20.5 -3
t5.5 -16v-17q0 -13 -5.5 -16.5t-20.5 -3.5h-216v0z" />
    <glyph glyph-name="emacron" unicode="&#x113;" horiz-adv-x="474" 
d="M360 272q0 61 -27 101.5t-89 40.5q-68 0 -97.5 -42t-29.5 -112h243v12zM269 -9q-63 0 -106 14.5t-69.5 44.5t-37.5 75.5t-11 106.5q0 118 49.5 179.5t149.5 61.5q96 0 140.5 -56t44.5 -169q0 -26 -6.5 -35t-26.5 -9h-279q0 -38 7.5 -66.5t25.5 -48t48 -29.5t75 -10
q52 0 81 10.5t37 10.5q4 0 8 -5t7 -12t4.5 -14t1.5 -11q0 -8 -13.5 -14.5t-34 -12t-46 -8.5t-49.5 -3zM129 570q-15 0 -20.5 3t-5.5 17v17q0 12 5.5 15.5t20.5 3.5h216q15 0 20.5 -3t5.5 -16v-17q0 -13 -5.5 -16.5t-20.5 -3.5h-216v0z" />
    <glyph glyph-name="Ebreve" unicode="&#x114;" 
d="M60 682q0 18 19 18h349q18 0 18 -19v-23q0 -11 -4 -15t-14 -4h-296v-250h277q18 0 18 -19v-23q0 -19 -18 -19h-277v-267h297q10 0 14 -4t4 -15v-23q0 -19 -18 -19h-350q-19 0 -19 18v664v0zM367 891q0 -23 -9 -40.5t-24 -29.5t-33.5 -18t-37.5 -6q-44 0 -75 24.5
t-31 69.5h39q7 -20 21 -33t45 -13q29 0 44.5 13t22.5 33h38z" />
    <glyph glyph-name="ebreve" unicode="&#x115;" horiz-adv-x="474" 
d="M360 272q0 61 -27 101.5t-89 40.5q-68 0 -97.5 -42t-29.5 -112h243v12zM269 -9q-63 0 -106 14.5t-69.5 44.5t-37.5 75.5t-11 106.5q0 118 49.5 179.5t149.5 61.5q96 0 140.5 -56t44.5 -169q0 -26 -6.5 -35t-26.5 -9h-279q0 -38 7.5 -66.5t25.5 -48t48 -29.5t75 -10
q52 0 81 10.5t37 10.5q4 0 8 -5t7 -12t4.5 -14t1.5 -11q0 -8 -13.5 -14.5t-34 -12t-46 -8.5t-49.5 -3zM352 655q0 -23 -9 -40.5t-24 -29.5t-33.5 -18t-37.5 -6q-44 0 -75 24.5t-31 69.5h39q7 -20 21 -33t45 -13q29 0 44.5 13t22.5 33h38z" />
    <glyph glyph-name="Edotaccent" unicode="&#x116;" 
d="M60 682q0 18 19 18h349q18 0 18 -19v-23q0 -11 -4 -15t-14 -4h-296v-250h277q18 0 18 -19v-23q0 -19 -18 -19h-277v-267h297q10 0 14 -4t4 -15v-23q0 -19 -18 -19h-350q-19 0 -19 18v664v0zM312 831q0 -23 -16 -38t-37 -15q-23 0 -38.5 15t-15.5 38q0 24 15.5 38t38.5 14
q20 0 36.5 -14.5t16.5 -37.5z" />
    <glyph glyph-name="edotaccent" unicode="&#x117;" horiz-adv-x="474" 
d="M360 272q0 61 -27 101.5t-89 40.5q-68 0 -97.5 -42t-29.5 -112h243v12zM269 -9q-63 0 -106 14.5t-69.5 44.5t-37.5 75.5t-11 106.5q0 118 49.5 179.5t149.5 61.5q96 0 140.5 -56t44.5 -169q0 -26 -6.5 -35t-26.5 -9h-279q0 -38 7.5 -66.5t25.5 -48t48 -29.5t75 -10
q52 0 81 10.5t37 10.5q4 0 8 -5t7 -12t4.5 -14t1.5 -11q0 -8 -13.5 -14.5t-34 -12t-46 -8.5t-49.5 -3zM290 595q0 -23 -16 -38t-37 -15q-23 0 -38.5 15t-15.5 38q0 24 15.5 38t38.5 14q20 0 36.5 -14.5t16.5 -37.5z" />
    <glyph glyph-name="Eogonek" unicode="&#x118;" 
d="M447 -158q0 -4 -6.5 -8t-17 -7t-23 -5t-24.5 -2q-45 0 -66 22t-21 52q0 19 7 34.5t18.5 29t25 24t26.5 18.5h-287q-19 0 -19 18v664q0 18 19 18h349q18 0 18 -19v-23q0 -11 -4 -15t-14 -4h-296v-250h277q18 0 18 -19v-23q0 -19 -18 -19h-277v-267h297q10 0 14 -4t4 -15
v-23q0 -19 -18 -19h-21q-29 -26 -44.5 -50.5t-15.5 -49.5q0 -20 14.5 -32t35.5 -12q16 0 25 3t13 3q2 0 6.5 -4t4.5 -16z" />
    <glyph glyph-name="eogonek" unicode="&#x119;" horiz-adv-x="474" 
d="M387 -158q0 -4 -6.5 -8t-17 -7t-23 -5t-24.5 -2q-45 0 -66 22t-21 52q0 33 20.5 57t43.5 41q-6 -1 -12 -1h-12q-63 0 -106 14.5t-69.5 44.5t-37.5 75.5t-11 106.5q0 118 49.5 179.5t149.5 61.5q96 0 140.5 -56t44.5 -169q0 -26 -6.5 -35t-26.5 -9h-279q0 -38 7.5 -66.5
t25.5 -48t48 -29.5t75 -10q52 0 81 10.5t37 10.5q4 0 8 -5t7 -12t4.5 -14t1.5 -11q0 -9 -19 -17t-47 -13q-29 -26 -43.5 -50t-14.5 -49q0 -20 14.5 -32t35.5 -12q16 0 25 3t13 3q2 0 6.5 -4t4.5 -16zM360 272q0 61 -27 101.5t-89 40.5q-68 0 -97.5 -42t-29.5 -112h243v12z
" />
    <glyph glyph-name="Ecaron" unicode="&#x11a;" 
d="M60 682q0 18 19 18h349q18 0 18 -19v-23q0 -11 -4 -15t-14 -4h-296v-250h277q18 0 18 -19v-23q0 -19 -18 -19h-277v-267h297q10 0 14 -4t4 -15v-23q0 -19 -18 -19h-350q-19 0 -19 18v664v0zM268 852l104 68q8 5 11.5 7t7.5 2q5 0 10 -7l6 -8q5 -7 5 -10q0 -6 -11 -15
l-112 -104q-11 -9 -20 -9q-11 0 -21 9l-112 104q-11 9 -11 15q0 3 5 10l6 8q5 7 10 7q4 0 7.5 -2t11.5 -7z" />
    <glyph glyph-name="ecaron" unicode="&#x11b;" horiz-adv-x="474" 
d="M360 272q0 61 -27 101.5t-89 40.5q-68 0 -97.5 -42t-29.5 -112h243v12zM269 -9q-63 0 -106 14.5t-69.5 44.5t-37.5 75.5t-11 106.5q0 118 49.5 179.5t149.5 61.5q96 0 140.5 -56t44.5 -169q0 -26 -6.5 -35t-26.5 -9h-279q0 -38 7.5 -66.5t25.5 -48t48 -29.5t75 -10
q52 0 81 10.5t37 10.5q4 0 8 -5t7 -12t4.5 -14t1.5 -11q0 -8 -13.5 -14.5t-34 -12t-46 -8.5t-49.5 -3zM236 616l104 68q8 5 11.5 7t7.5 2q5 0 10 -7l6 -8q5 -7 5 -10q0 -6 -11 -15l-112 -104q-11 -9 -20 -9q-11 0 -21 9l-112 104q-11 9 -11 15q0 3 5 10l6 8q5 7 10 7
q4 0 7.5 -2t11.5 -7z" />
    <glyph glyph-name="Gcircumflex" unicode="&#x11c;" horiz-adv-x="575" 
d="M446 300q0 10 3.5 14.5t14.5 4.5h34q11 0 15 -4.5t4 -14.5v-253q0 -6 -1.5 -11t-8.5 -8q-8 -5 -25.5 -11t-42.5 -12t-56.5 -10t-65.5 -4q-73 0 -124 19.5t-82.5 62t-46 111t-14.5 166.5t14.5 166.5t46 111t82.5 62t124 19.5q33 0 60 -5t45.5 -11.5t29 -13.5t10.5 -10
q0 -7 -11 -26q-11 -21 -18 -21q-3 0 -11.5 4t-23 8.5t-34.5 8.5t-47 4q-56 0 -92.5 -15.5t-59 -51t-31.5 -92t-9 -138.5t9 -138.5t31.5 -92t59 -51t92.5 -15.5q41 0 75 6t54 13v228v0zM203 785q-8 -5 -11.5 -7t-7.5 -2q-5 0 -10 7l-6 8q-5 7 -5 10q0 6 11 15l112 104
q10 9 21 9q9 0 20 -9l112 -104q11 -9 11 -15q0 -3 -5 -10l-6 -8q-5 -7 -10 -7q-4 0 -7.5 2t-11.5 7l-104 68z" />
    <glyph glyph-name="gcircumflex" unicode="&#x11d;" horiz-adv-x="499" 
d="M439 -38q0 -48 -13.5 -82.5t-38 -56t-58.5 -31.5t-75 -10q-25 0 -52.5 3.5t-50 8.5t-37.5 11t-15 11q0 6 2 14t5 15t6.5 12t6.5 5t14.5 -3.5t28.5 -7.5t38.5 -7.5t44.5 -3.5q60 0 91.5 28.5t31.5 95.5v67q-15 -11 -48 -25.5t-79 -14.5q-93 0 -144.5 56t-51.5 183
q0 68 14.5 114.5t41.5 75t66.5 41t89.5 12.5q36 0 66.5 -5.5t53.5 -13t39 -15.5t23 -12v-465zM368 389q-14 7 -32 12q-15 5 -35 8.5t-43 3.5q-36 0 -62.5 -9t-44.5 -30t-26.5 -56.5t-8.5 -87.5q0 -96 33 -138t99 -42q31 0 53.5 8.5t37.5 19t22 19t7 9.5v283zM146 549
q-8 -5 -11.5 -7t-7.5 -2q-5 0 -10 7l-6 8q-5 7 -5 10q0 6 11 15l112 104q10 9 21 9q9 0 20 -9l112 -104q11 -9 11 -15q0 -3 -5 -10l-6 -8q-5 -7 -10 -7q-4 0 -7.5 2t-11.5 7l-104 68z" />
    <glyph glyph-name="Gbreve" unicode="&#x11e;" horiz-adv-x="575" 
d="M446 300q0 10 3.5 14.5t14.5 4.5h34q11 0 15 -4.5t4 -14.5v-253q0 -6 -1.5 -11t-8.5 -8q-8 -5 -25.5 -11t-42.5 -12t-56.5 -10t-65.5 -4q-73 0 -124 19.5t-82.5 62t-46 111t-14.5 166.5t14.5 166.5t46 111t82.5 62t124 19.5q33 0 60 -5t45.5 -11.5t29 -13.5t10.5 -10
q0 -7 -11 -26q-11 -21 -18 -21q-3 0 -11.5 4t-23 8.5t-34.5 8.5t-47 4q-56 0 -92.5 -15.5t-59 -51t-31.5 -92t-9 -138.5t9 -138.5t31.5 -92t59 -51t92.5 -15.5q41 0 75 6t54 13v228v0zM410 891q0 -23 -9 -40.5t-24 -29.5t-33.5 -18t-37.5 -6q-44 0 -75 24.5t-31 69.5h39
q7 -20 21 -33t45 -13q29 0 44.5 13t22.5 33h38z" />
    <glyph glyph-name="gbreve" unicode="&#x11f;" horiz-adv-x="499" 
d="M439 -38q0 -48 -13.5 -82.5t-38 -56t-58.5 -31.5t-75 -10q-25 0 -52.5 3.5t-50 8.5t-37.5 11t-15 11q0 6 2 14t5 15t6.5 12t6.5 5t14.5 -3.5t28.5 -7.5t38.5 -7.5t44.5 -3.5q60 0 91.5 28.5t31.5 95.5v67q-15 -11 -48 -25.5t-79 -14.5q-93 0 -144.5 56t-51.5 183
q0 68 14.5 114.5t41.5 75t66.5 41t89.5 12.5q36 0 66.5 -5.5t53.5 -13t39 -15.5t23 -12v-465zM368 389q-14 7 -32 12q-15 5 -35 8.5t-43 3.5q-36 0 -62.5 -9t-44.5 -30t-26.5 -56.5t-8.5 -87.5q0 -96 33 -138t99 -42q31 0 53.5 8.5t37.5 19t22 19t7 9.5v283zM360 655
q0 -23 -9 -40.5t-24 -29.5t-33.5 -18t-37.5 -6q-44 0 -75 24.5t-31 69.5h39q7 -20 21 -33t45 -13q29 0 44.5 13t22.5 33h38z" />
    <glyph glyph-name="Gdotaccent" unicode="&#x120;" horiz-adv-x="575" 
d="M446 300q0 10 3.5 14.5t14.5 4.5h34q11 0 15 -4.5t4 -14.5v-253q0 -6 -1.5 -11t-8.5 -8q-8 -5 -25.5 -11t-42.5 -12t-56.5 -10t-65.5 -4q-73 0 -124 19.5t-82.5 62t-46 111t-14.5 166.5t14.5 166.5t46 111t82.5 62t124 19.5q33 0 60 -5t45.5 -11.5t29 -13.5t10.5 -10
q0 -7 -11 -26q-11 -21 -18 -21q-3 0 -11.5 4t-23 8.5t-34.5 8.5t-47 4q-56 0 -92.5 -15.5t-59 -51t-31.5 -92t-9 -138.5t9 -138.5t31.5 -92t59 -51t92.5 -15.5q41 0 75 6t54 13v228v0zM360 831q0 -23 -16 -38t-37 -15q-23 0 -38.5 15t-15.5 38q0 24 15.5 38t38.5 14
q20 0 36.5 -14.5t16.5 -37.5z" />
    <glyph glyph-name="gdotaccent" unicode="&#x121;" horiz-adv-x="499" 
d="M439 -38q0 -48 -13.5 -82.5t-38 -56t-58.5 -31.5t-75 -10q-25 0 -52.5 3.5t-50 8.5t-37.5 11t-15 11q0 6 2 14t5 15t6.5 12t6.5 5t14.5 -3.5t28.5 -7.5t38.5 -7.5t44.5 -3.5q60 0 91.5 28.5t31.5 95.5v67q-15 -11 -48 -25.5t-79 -14.5q-93 0 -144.5 56t-51.5 183
q0 68 14.5 114.5t41.5 75t66.5 41t89.5 12.5q36 0 66.5 -5.5t53.5 -13t39 -15.5t23 -12v-465zM368 389q-14 7 -32 12q-15 5 -35 8.5t-43 3.5q-36 0 -62.5 -9t-44.5 -30t-26.5 -56.5t-8.5 -87.5q0 -96 33 -138t99 -42q31 0 53.5 8.5t37.5 19t22 19t7 9.5v283zM303 595
q0 -23 -16 -38t-37 -15q-23 0 -38.5 15t-15.5 38q0 24 15.5 38t38.5 14q20 0 36.5 -14.5t16.5 -37.5z" />
    <glyph glyph-name="Gcommaaccent" unicode="&#x122;" horiz-adv-x="575" 
d="M446 300q0 10 3.5 14.5t14.5 4.5h34q11 0 15 -4.5t4 -14.5v-253q0 -6 -1.5 -11t-8.5 -8q-8 -5 -25.5 -11t-42.5 -12t-56.5 -10t-65.5 -4q-73 0 -124 19.5t-82.5 62t-46 111t-14.5 166.5t14.5 166.5t46 111t82.5 62t124 19.5q33 0 60 -5t45.5 -11.5t29 -13.5t10.5 -10
q0 -7 -11 -26q-11 -21 -18 -21q-3 0 -11.5 4t-23 8.5t-34.5 8.5t-47 4q-56 0 -92.5 -15.5t-59 -51t-31.5 -92t-9 -138.5t9 -138.5t31.5 -92t59 -51t92.5 -15.5q41 0 75 6t54 13v228v0zM274 -95q0 20 14 33t34 13q21 0 34 -13.5t13 -32.5q0 -17 -5.5 -35.5t-15 -37
t-22.5 -34.5t-28 -28q-10 -9 -18 -12.5t-12 -3.5q-5 0 -9.5 5.5t-6.5 10.5q11 7 20.5 18t16.5 23.5t11 24.5t4 21q0 2 -4.5 5.5t-10.5 8.5t-10.5 13.5t-4.5 20.5z" />
    <glyph glyph-name="gcommaaccent" unicode="&#x123;" horiz-adv-x="499" 
d="M439 -38q0 -48 -13.5 -82.5t-38 -56t-58.5 -31.5t-75 -10q-25 0 -52.5 3.5t-50 8.5t-37.5 11t-15 11q0 6 2 14t5 15t6.5 12t6.5 5t14.5 -3.5t28.5 -7.5t38.5 -7.5t44.5 -3.5q60 0 91.5 28.5t31.5 95.5v67q-15 -11 -48 -25.5t-79 -14.5q-93 0 -144.5 56t-51.5 183
q0 68 14.5 114.5t41.5 75t66.5 41t89.5 12.5q36 0 66.5 -5.5t53.5 -13t39 -15.5t23 -12v-465zM368 389q-14 7 -32 12q-15 5 -35 8.5t-43 3.5q-36 0 -62.5 -9t-44.5 -30t-26.5 -56.5t-8.5 -87.5q0 -96 33 -138t99 -42q31 0 53.5 8.5t37.5 19t22 19t7 9.5v283z
M301.004 590.994q0 -19.999 -13.999 -32.998t-33.9971 -12.999q-20.999 0 -33.998 13.499q-13 13.499 -13 32.498q0 16.999 5.5 35.498t14.999 36.998q9.5 18.498 22.499 34.4971t27.998 27.999q9.99902 8.99902 17.999 12.499q7.99902 3.5 11.999 3.5q5 0 9.5 -5.5
q4.49902 -5.5 6.49902 -10.499q-10.999 -7 -20.499 -17.999q-9.49902 -11 -16.499 -23.499q-6.99902 -12.499 -10.999 -24.498q-4 -12 -4 -20.999q0 -2 4.5 -5.5q4.5 -3.49902 10.499 -8.49902q6 -5 10.5 -13.499q4.49902 -8.5 4.49902 -20.499z" />
    <glyph glyph-name="Hcircumflex" unicode="&#x124;" horiz-adv-x="581" 
d="M449 682q0 18 19 18h34q11 0 15 -4.5t4 -13.5v-664q0 -9 -4 -13.5t-15 -4.5h-34q-19 0 -19 18v311h-317v-311q0 -18 -19 -18h-34q-19 0 -19 18v664q0 18 19 18h34q19 0 19 -18v-292h317v292v0zM187 785q-8 -5 -11.5 -7t-7.5 -2q-5 0 -10 7l-6 8q-5 7 -5 10q0 6 11 15
l112 104q10 9 21 9q9 0 20 -9l112 -104q11 -9 11 -15q0 -3 -5 -10l-6 -8q-5 -7 -10 -7q-4 0 -7.5 2t-11.5 7l-104 68z" />
    <glyph glyph-name="hcircumflex" unicode="&#x125;" horiz-adv-x="503" 
d="M60 677q0 9 3 13t14 8q17 5 28.5 8t15.5 3q6 0 7.5 -3t1.5 -13v-252q21 11 51.5 21.5t77.5 10.5q55 0 91 -13t58 -34.5t31 -49t9 -56.5v-302q0 -18 -19 -18h-32q-19 0 -19 18v284q0 112 -127 112q-46 0 -76.5 -13.5t-44.5 -21.5v-361q0 -9 -4 -13.5t-15 -4.5h-32
q-11 0 -15 4.5t-4 13.5v659v0zM147 759q-8 -5 -11.5 -7t-7.5 -2q-5 0 -10 7l-6 8q-5 7 -5 10q0 6 11 15l112 104q10 9 21 9q9 0 20 -9l112 -104q11 -9 11 -15q0 -3 -5 -10l-6 -8q-5 -7 -10 -7q-4 0 -7.5 2t-11.5 7l-104 68z" />
    <glyph glyph-name="Hbar" unicode="&#x126;" horiz-adv-x="581" 
d="M26 500q-15 0 -20.5 3t-5.5 17v19q0 12 5.5 15.5t20.5 3.5h34v124q0 18 19 18h34q19 0 19 -18v-124h317v124q0 18 19 18h34q11 0 15 -4.5t4 -13.5v-124h34q15 0 20.5 -3t5.5 -16v-19q0 -13 -5.5 -16.5t-20.5 -3.5h-34v-482q0 -9 -4 -13.5t-15 -4.5h-34q-19 0 -19 18v311
h-317v-311q0 -18 -19 -18h-34q-19 0 -19 18v482h-34zM449 390v110h-317v-110h317z" />
    <glyph glyph-name="hbar" unicode="&#x127;" horiz-adv-x="503" 
d="M16 572q-15 0 -20.5 3t-5.5 17v18q0 13 5.5 16.5t20.5 3.5h44v47q0 9 3 13t14 8q17 5 28.5 8t15.5 3q6 0 7.5 -3t1.5 -13v-63h122q15 0 20.5 -3t5.5 -17v-18q0 -13 -5.5 -16.5t-20.5 -3.5h-122v-131q21 11 51.5 21.5t77.5 10.5q55 0 91 -13t58 -34.5t31 -49t9 -56.5v-302
q0 -18 -19 -18h-32q-19 0 -19 18v284q0 112 -127 112q-46 0 -76.5 -13.5t-44.5 -21.5v-361q0 -9 -4 -13.5t-15 -4.5h-32q-11 0 -15 4.5t-4 13.5v554h-44v0z" />
    <glyph glyph-name="Itilde" unicode="&#x128;" horiz-adv-x="192" 
d="M60 682q0 18 19 18h34q19 0 19 -18v-664q0 -18 -19 -18h-34q-11 0 -15 4.5t-4 13.5v664v0zM20 812q-21 0 -37 -7t-31 -7q-9 0 -13 8l-4 12q-2 5 -3 8.5t-1 4.5q0 5 9.5 12t24 13.5t32.5 11t35 4.5q23 0 40 -4.5t32.5 -10t31.5 -10t37 -4.5q24 0 37.5 7t28.5 7q8 0 13 -8
q2 -6 4 -11t3 -9t1 -5q0 -5 -9 -12t-23.5 -13t-32 -10.5t-33.5 -4.5q-24 0 -41.5 4.5t-33 9.5t-31 9.5t-36.5 4.5z" />
    <glyph glyph-name="itilde" unicode="&#x129;" horiz-adv-x="194" 
d="M62 445q0 10 4 14.5t15 4.5h32q20 0 20 -19v-427q0 -18 -20 -18h-32q-11 0 -15 4.5t-4 13.5v427v0zM22 576q-21 0 -37 -7t-31 -7q-9 0 -13 8l-4 12q-2 5 -3 8.5t-1 4.5q0 5 9.5 12t24 13.5t32.5 11t35 4.5q23 0 40 -4.5t32.5 -10t31.5 -10t37 -4.5q24 0 37.5 7t28.5 7
q8 0 13 -8q2 -6 4 -11t3 -9t1 -5q0 -5 -9 -12t-23.5 -13t-32 -10.5t-33.5 -4.5q-24 0 -41.5 4.5t-33 9.5t-31 9.5t-36.5 4.5z" />
    <glyph glyph-name="Imacron" unicode="&#x12a;" horiz-adv-x="192" 
d="M60 682q0 18 19 18h34q19 0 19 -18v-664q0 -18 -19 -18h-34q-11 0 -15 4.5t-4 13.5v664v0zM-12 806q-15 0 -20.5 3t-5.5 17v17q0 12 5.5 15.5t20.5 3.5h216q15 0 20.5 -3t5.5 -16v-17q0 -13 -5.5 -16.5t-20.5 -3.5h-216v0z" />
    <glyph glyph-name="imacron" unicode="&#x12b;" horiz-adv-x="194" 
d="M62 445q0 10 4 14.5t15 4.5h32q20 0 20 -19v-427q0 -18 -20 -18h-32q-11 0 -15 4.5t-4 13.5v427v0zM-10 570q-15 0 -20.5 3t-5.5 17v17q0 12 5.5 15.5t20.5 3.5h216q15 0 20.5 -3t5.5 -16v-17q0 -13 -5.5 -16.5t-20.5 -3.5h-216v0z" />
    <glyph glyph-name="Ibreve" unicode="&#x12c;" horiz-adv-x="192" 
d="M60 682q0 18 19 18h34q19 0 19 -18v-664q0 -18 -19 -18h-34q-11 0 -15 4.5t-4 13.5v664v0zM201 921q0 -23 -9 -40.5t-24 -29.5t-33.5 -18t-37.5 -6q-44 0 -75 24.5t-31 69.5h39q7 -20 21 -33t45 -13q29 0 44.5 13t22.5 33h38z" />
    <glyph glyph-name="ibreve" unicode="&#x12d;" horiz-adv-x="194" 
d="M62 445q0 10 4 14.5t15 4.5h32q20 0 20 -19v-427q0 -18 -20 -18h-32q-11 0 -15 4.5t-4 13.5v427v0zM202 685q0 -23 -9 -40.5t-24 -29.5t-33.5 -18t-37.5 -6q-44 0 -75 24.5t-31 69.5h39q7 -20 21 -33t45 -13q29 0 44.5 13t22.5 33h38z" />
    <glyph glyph-name="Iogonek" unicode="&#x12e;" horiz-adv-x="192" 
d="M162 -158q0 -4 -6.5 -8t-17 -7t-23 -5t-24.5 -2q-45 0 -66 22t-21 52q0 19 7.5 34.5t18.5 29t24.5 24t25.5 18.5q-20 0 -20 18v664q0 18 19 18h34q19 0 19 -18v-664q0 -16 -9 -18q-29 -26 -44.5 -50.5t-15.5 -49.5q0 -20 14.5 -32t35.5 -12q16 0 25 3t13 3q2 0 6.5 -4
t4.5 -16z" />
    <glyph glyph-name="iogonek" unicode="&#x12f;" horiz-adv-x="195" 
d="M155 -158q0 -4 -6.5 -8t-16.5 -7t-22.5 -5t-24.5 -2q-45 0 -66 22t-21 52q0 18 7 34t18.5 29.5t25.5 24t29 18.5q-16 0 -16 18v427q0 10 4 14.5t15 4.5h32q20 0 20 -19v-427q0 -18 -16 -18q-29 -26 -44.5 -50.5t-15.5 -49.5q0 -20 14 -32t36 -12q15 0 24.5 3t12.5 3t7 -4
t4 -16zM146 595q0 -20 -14.5 -34t-33.5 -14q-23 0 -36 14t-13 34q0 22 13 35t36 13q17 0 32.5 -14t15.5 -34z" />
    <glyph glyph-name="Idotaccent" unicode="&#x130;" horiz-adv-x="192" 
d="M60 682q0 18 19 18h34q19 0 19 -18v-664q0 -18 -19 -18h-34q-11 0 -15 4.5t-4 13.5v664v0zM149 831q0 -23 -16 -38t-37 -15q-23 0 -38.5 15t-15.5 38q0 24 15.5 38t38.5 14q20 0 36.5 -14.5t16.5 -37.5z" />
    <glyph glyph-name="dotlessi" unicode="&#x131;" horiz-adv-x="195" 
d="M62 445q0 10 4 14.5t15 4.5h32q20 0 20 -19v-427q0 -18 -20 -18h-32q-11 0 -15 4.5t-4 13.5v427v0z" />
    <glyph glyph-name="IJ" unicode="&#x132;" horiz-adv-x="580" 
d="M60 682q0 18 19 18h34q19 0 19 -18v-664q0 -18 -19 -18h-34q-11 0 -15 4.5t-4 13.5v664zM162 -177q0 3 3 10.5t7 15.5t8.5 14t8.5 6q3 0 7 -1.5l12 -4.5q7 -2 33.5 -10.5t66.5 -8.5q37 0 64.5 9.5t45.5 34t27 67.5t9 111v573h-172q-10 0 -14 4t-4 16v22q0 19 18 19h225
q11 0 14.5 -4.5t3.5 -13.5v-607q0 -70 -8.5 -124.5t-32.5 -92t-66.5 -57t-109.5 -19.5q-34 0 -61 4.5t-46 11.5t-29 13.5t-10 11.5z" />
    <glyph glyph-name="ij" unicode="&#x133;" horiz-adv-x="451" 
d="M63 445q0 10 4 14.5t15 4.5h32q20 0 20 -19v-427q0 -18 -20 -18h-32q-11 0 -15 4.5t-4 13.5v427zM147 595q0 -20 -14.5 -34t-33.5 -14q-23 0 -36 14t-13 34q0 22 13 35t36 13q17 0 32.5 -14t15.5 -34zM401 595q0 -20 -14 -34t-34 -14q-22 0 -35.5 14t-13.5 34
q0 22 13.5 35t35.5 13q18 0 33 -14t15 -34zM248 -159q45 0 59 28.5t14 94.5v440h-94q-19 0 -19 19v21q0 20 19 20h146q19 0 19 -18v-484q0 -38 -4.5 -70.5t-19 -57t-41 -38.5t-69.5 -14q-30 0 -40.5 4.5t-10.5 15.5v12q0 4 1 11q1 8 3.5 12.5t11.5 4.5q5 0 11 -0.5t14 -0.5z
" />
    <glyph glyph-name="Jcircumflex" unicode="&#x134;" horiz-adv-x="438" 
d="M20 32q0 3 3 10.5t7 15.5t8.5 14t8.5 6q3 0 7 -1.5l12 -4.5q7 -2 33.5 -10.5t66.5 -8.5q37 0 64.5 9.5t45.5 34t27 67.5t9 111v364h-172q-10 0 -14 4t-4 16v22q0 19 18 19h225q11 0 14.5 -4.5t3.5 -13.5v-398q0 -70 -8.5 -124.5t-32.5 -92t-66.5 -57t-109.5 -19.5
q-34 0 -61 4.5t-46 11.5t-29 13.5t-10 11.5zM127 785q-8 -5 -11.5 -7t-7.5 -2q-5 0 -10 7l-6 8q-5 7 -5 10q0 6 11 15l112 104q10 9 21 9q9 0 20 -9l112 -104q11 -9 11 -15q0 -3 -5 -10l-6 -8q-5 -7 -10 -7q-4 0 -7.5 2t-11.5 7l-104 68z" />
    <glyph glyph-name="jcircumflex" unicode="&#x135;" horiz-adv-x="254" 
d="M51 -159q45 0 59 28.5t14 94.5v440h-94q-19 0 -19 19v21q0 20 19 20h146q19 0 19 -18v-484q0 -38 -4.5 -70.5t-19 -57t-41 -38.5t-69.5 -14q-30 0 -40.5 4.5t-10.5 15.5v12q0 4 1 11q1 8 3.5 12.5t11.5 4.5q5 0 11 -0.5t14 -0.5zM24 549q-8 -5 -11.5 -7t-7.5 -2
q-5 0 -10 7l-6 8q-5 7 -5 10q0 6 11 15l112 104q10 9 21 9q9 0 20 -9l112 -104q11 -9 11 -15q0 -3 -5 -10l-6 -8q-5 -7 -10 -7q-4 0 -7.5 2t-11.5 7l-104 68z" />
    <glyph glyph-name="Kcommaaccent" unicode="&#x136;" horiz-adv-x="507" 
d="M369 686q4 6 8 10t12 4h47q13 0 13 -11q0 -6 -5 -14l-246 -319l293 -331q6 -6 6 -13q0 -12 -13 -12h-49q-8 0 -12 4l-10 10l-281 317v-313q0 -18 -19 -18h-34q-19 0 -19 18v664q0 18 19 18h34q19 0 19 -18v-308l237 312v0zM191 -95q0 20 14 33t34 13q21 0 34 -13.5
t13 -32.5q0 -17 -5.5 -35.5t-15 -37t-22.5 -34.5t-28 -28q-10 -9 -18 -12.5t-12 -3.5q-5 0 -9.5 5.5t-6.5 10.5q11 7 20.5 18t16.5 23.5t11 24.5t4 21q0 2 -4.5 5.5t-10.5 8.5t-10.5 13.5t-4.5 20.5z" />
    <glyph glyph-name="kcommaaccent" unicode="&#x137;" horiz-adv-x="416" 
d="M130 279l26 2l125 164q9 12 13 15.5t15 3.5h38q14 0 14 -13q0 -8 -6 -15l-142 -174l192 -235q5 -5 5.5 -9t0.5 -6q0 -12 -14 -12h-43q-9 0 -13.5 3.5t-12.5 13.5l-174 220l-24 2v-221q0 -9 -4 -13.5t-15 -4.5h-32q-19 0 -19 18v659q0 9 3 13t14 8q17 5 28.5 8t15.5 3
q6 0 7.5 -3t1.5 -13v-414zM167 -95q0 20 14 33t34 13q21 0 34 -13.5t13 -32.5q0 -17 -5.5 -35.5t-15 -37t-22.5 -34.5t-28 -28q-10 -9 -18 -12.5t-12 -3.5q-5 0 -9.5 5.5t-6.5 10.5q11 7 20.5 18t16.5 23.5t11 24.5t4 21q0 2 -4.5 5.5t-10.5 8.5t-10.5 13.5t-4.5 20.5z" />
    <glyph glyph-name="Lacute" unicode="&#x139;" horiz-adv-x="465" 
d="M79 0q-19 0 -19 18v664q0 18 19 18h34q19 0 19 -18v-621h285q9 0 13.5 -4t4.5 -15v-23q0 -19 -18 -19h-338v0zM168 777q-6 -4 -9.5 -6t-6.5 -2t-4.5 1.5l-4.5 4.5l-9 10q-4 5 -4 9t3 7.5t7 7.5l136 121q9 9 19 9t17 -10l17 -22q6 -7 6 -15q0 -10 -14 -19z" />
    <glyph glyph-name="lacute" unicode="&#x13a;" horiz-adv-x="248" 
d="M125 172q0 -66 15 -94.5t59 -28.5q6 0 13.5 0.5t11.5 0.5q14 0 15 -14q0 -7 1 -13v-10q0 -3 1 -4q0 -10 -10.5 -14t-41.5 -4q-44 0 -70.5 14t-40.5 38t-18.5 56.5t-4.5 70.5v507q0 8 3.5 12t14.5 8q16 5 28 8.5t15 3.5q7 0 8 -3t1 -13v-521zM100 777q-6 -4 -9.5 -6
t-6.5 -2t-4.5 1.5l-4.5 4.5l-9 10q-4 5 -4 9t3 7.5t7 7.5l136 121q9 9 19 9t17 -10l17 -22q6 -7 6 -15q0 -10 -14 -19z" />
    <glyph glyph-name="Lcommaaccent" unicode="&#x13b;" horiz-adv-x="465" 
d="M79 0q-19 0 -19 18v664q0 18 19 18h34q19 0 19 -18v-621h285q9 0 13.5 -4t4.5 -15v-23q0 -19 -18 -19h-338v0zM201 -95q0 20 14 33t34 13q21 0 34 -13.5t13 -32.5q0 -17 -5.5 -35.5t-15 -37t-22.5 -34.5t-28 -28q-10 -9 -18 -12.5t-12 -3.5q-5 0 -9.5 5.5t-6.5 10.5
q11 7 20.5 18t16.5 23.5t11 24.5t4 21q0 2 -4.5 5.5t-10.5 8.5t-10.5 13.5t-4.5 20.5z" />
    <glyph glyph-name="lcommaaccent" unicode="&#x13c;" horiz-adv-x="246" 
d="M125 172q0 -66 15 -94.5t59 -28.5q6 0 13.5 0.5t11.5 0.5q14 0 15 -14q0 -7 1 -13v-10q0 -3 1 -4q0 -10 -10.5 -14t-41.5 -4q-44 0 -70.5 14t-40.5 38t-18.5 56.5t-4.5 70.5v507q0 8 3.5 12t14.5 8q16 5 28 8.5t15 3.5q7 0 8 -3t1 -13v-521zM120 -95q0 20 14 33t34 13
q21 0 34 -13.5t13 -32.5q0 -17 -5.5 -35.5t-15 -37t-22.5 -34.5t-28 -28q-10 -9 -18 -12.5t-12 -3.5q-5 0 -9.5 5.5t-6.5 10.5q11 7 20.5 18t16.5 23.5t11 24.5t4 21q0 2 -4.5 5.5t-10.5 8.5t-10.5 13.5t-4.5 20.5z" />
    <glyph glyph-name="Lcaron" unicode="&#x13d;" horiz-adv-x="465" 
d="M79 0q-19 0 -19 18v664q0 18 19 18h34q19 0 19 -18v-621h285q9 0 13.5 -4t4.5 -15v-23q0 -19 -18 -19h-338v0zM298 663q0 20 14 33t34 13q21 0 34 -13.5t13 -32.5q0 -17 -5.5 -35.5t-15 -37t-22.5 -34.5t-28 -28q-10 -9 -18 -12.5t-12 -3.5q-5 0 -9.5 5.5t-6.5 10.5
q11 7 20.5 18t16.5 23.5t11 24.5t4 21q0 2 -4.5 5.5t-10.5 8.5t-10.5 13.5t-4.5 20.5z" />
    <glyph glyph-name="lcaron" unicode="&#x13e;" horiz-adv-x="337" 
d="M125 172q0 -66 15 -94.5t59 -28.5q6 0 13.5 0.5t11.5 0.5q14 0 15 -14q0 -7 1 -13v-10q0 -3 1 -4q0 -10 -10.5 -14t-41.5 -4q-44 0 -70.5 14t-40.5 38t-18.5 56.5t-4.5 70.5v507q0 8 3.5 12t14.5 8q16 5 28 8.5t15 3.5q7 0 8 -3t1 -13v-521zM242 663q0 20 14 33t34 13
q21 0 34 -13.5t13 -32.5q0 -17 -5.5 -35.5t-15 -37t-22.5 -34.5t-28 -28q-10 -9 -18 -12.5t-12 -3.5q-5 0 -9.5 5.5t-6.5 10.5q11 7 20.5 18t16.5 23.5t11 24.5t4 21q0 2 -4.5 5.5t-10.5 8.5t-10.5 13.5t-4.5 20.5z" />
    <glyph glyph-name="Ldot" unicode="&#x13f;" horiz-adv-x="509" 
d="M328 322q0 25 17.5 42.5t43.5 17.5q25 0 42.5 -17.5t17.5 -42.5q0 -26 -17.5 -43.5t-42.5 -17.5q-26 0 -43.5 17.5t-17.5 43.5zM79 0q-19 0 -19 18v664q0 18 19 18h34q19 0 19 -18v-621h285q9 0 13.5 -4t4.5 -15v-23q0 -19 -18 -19h-338z" />
    <glyph glyph-name="ldot" unicode="&#x140;" horiz-adv-x="379" 
d="M125 172q0 -66 15 -94.5t59 -28.5q6 0 13.5 0.5t11.5 0.5q14 0 15 -14q0 -7 1 -13v-10q0 -3 1 -4q0 -10 -10.5 -14t-41.5 -4q-44 0 -70.5 14t-40.5 38t-18.5 56.5t-4.5 70.5v507q0 8 3.5 12t14.5 8q16 5 28 8.5t15 3.5q7 0 8 -3t1 -13v-521zM218 322q0 25 17.5 42.5
t43.5 17.5q25 0 42.5 -17.5t17.5 -42.5q0 -26 -17.5 -43.5t-42.5 -17.5q-26 0 -43.5 17.5t-17.5 43.5z" />
    <glyph glyph-name="Lslash" unicode="&#x141;" horiz-adv-x="485" 
d="M99 0q-19 0 -19 18v251l-39 -23q-8 -3 -12 -3q-9 0 -15 10l-11 20q-3 7 -3 12q0 8 9 13l71 41v343q0 18 19 18h34q19 0 19 -18v-302l111 65q7 4 13 4q8 0 13 -10l11 -20q5 -8 5 -12q0 -8 -13 -15l-140 -82v-249h285q9 0 13.5 -4t4.5 -15v-23q0 -19 -18 -19h-338v0z" />
    <glyph glyph-name="lslash" unicode="&#x142;" horiz-adv-x="295" 
d="M146 172q0 -66 15 -94.5t59 -28.5q8 0 15.5 0.5t10.5 0.5q13 0 14 -12q0 -1 0.5 -5.5t0.5 -10t0.5 -9.5t0.5 -5q0 -11 -14.5 -14t-37.5 -3q-48 0 -74.5 16t-40 43t-16.5 62t-3 73v88l-37 -21q-5 -4 -11 -4q-10 0 -15 12l-10 17q-3 6 -3 12q0 7 10 13l66 38v337q0 9 3 13
t14 8q17 5 28.5 8t15.5 3q6 0 7.5 -3t1.5 -13v-312l84 48q7 4 13 4q7 0 13 -10l10 -18q4 -10 4 -12q0 -8 -11 -14l-113 -65v-142v0z" />
    <glyph glyph-name="Nacute" unicode="&#x143;" horiz-adv-x="578" 
d="M447 682q0 9 3.5 13.5t14.5 4.5h34q19 0 19 -18v-664q0 -18 -19 -18h-36q-9 0 -12.5 3t-7.5 11l-311 536v-532q0 -18 -19 -18h-34q-19 0 -19 18v664q0 18 17 18h37q8 0 11.5 -3.5t8.5 -10.5l313 -542v538v0zM259 777q-6 -4 -9.5 -6t-6.5 -2t-4.5 1.5l-4.5 4.5l-9 10
q-4 5 -4 9t3 7.5t7 7.5l136 121q9 9 19 9t17 -10l17 -22q6 -7 6 -15q0 -10 -14 -19z" />
    <glyph glyph-name="nacute" unicode="&#x144;" horiz-adv-x="503" 
d="M378 302q0 112 -130 112q-18 0 -36 -4t-34 -9t-28.5 -11t-19.5 -10v-362q0 -9 -4 -13.5t-15 -4.5h-32q-11 0 -15 4.5t-4 13.5v397q32 23 82.5 40.5t109.5 17.5q60 0 98.5 -14t60 -36t29.5 -49t8 -54v-302q0 -18 -19 -18h-32q-19 0 -19 18v284zM215 541q-6 -4 -9.5 -6
t-6.5 -2t-4.5 1.5l-4.5 4.5l-9 10q-4 5 -4 9t3 7.5t7 7.5l136 121q9 9 19 9t17 -10l17 -22q6 -7 6 -15q0 -10 -14 -19z" />
    <glyph glyph-name="Ncommaaccent" unicode="&#x145;" horiz-adv-x="578" 
d="M447 682q0 9 3.5 13.5t14.5 4.5h34q19 0 19 -18v-664q0 -18 -19 -18h-36q-9 0 -12.5 3t-7.5 11l-311 536v-532q0 -18 -19 -18h-34q-19 0 -19 18v664q0 18 17 18h37q8 0 11.5 -3.5t8.5 -10.5l313 -542v538v0zM239 -95q0 20 14 33t34 13q21 0 34 -13.5t13 -32.5
q0 -17 -5.5 -35.5t-15 -37t-22.5 -34.5t-28 -28q-10 -9 -18 -12.5t-12 -3.5q-5 0 -9.5 5.5t-6.5 10.5q11 7 20.5 18t16.5 23.5t11 24.5t4 21q0 2 -4.5 5.5t-10.5 8.5t-10.5 13.5t-4.5 20.5z" />
    <glyph glyph-name="ncommaaccent" unicode="&#x146;" horiz-adv-x="503" 
d="M378 302q0 112 -130 112q-18 0 -36 -4t-34 -9t-28.5 -11t-19.5 -10v-362q0 -9 -4 -13.5t-15 -4.5h-32q-11 0 -15 4.5t-4 13.5v397q32 23 82.5 40.5t109.5 17.5q60 0 98.5 -14t60 -36t29.5 -49t8 -54v-302q0 -18 -19 -18h-32q-19 0 -19 18v284zM215 -95q0 20 14 33t34 13
q21 0 34 -13.5t13 -32.5q0 -17 -5.5 -35.5t-15 -37t-22.5 -34.5t-28 -28q-10 -9 -18 -12.5t-12 -3.5q-5 0 -9.5 5.5t-6.5 10.5q11 7 20.5 18t16.5 23.5t11 24.5t4 21q0 2 -4.5 5.5t-10.5 8.5t-10.5 13.5t-4.5 20.5z" />
    <glyph glyph-name="Ncaron" unicode="&#x147;" horiz-adv-x="578" 
d="M447 682q0 9 3.5 13.5t14.5 4.5h34q19 0 19 -18v-664q0 -18 -19 -18h-36q-9 0 -12.5 3t-7.5 11l-311 536v-532q0 -18 -19 -18h-34q-19 0 -19 18v664q0 18 17 18h37q8 0 11.5 -3.5t8.5 -10.5l313 -542v538v0zM288 852l104 68q8 5 11.5 7t7.5 2q5 0 10 -7l6 -8q5 -7 5 -10
q0 -6 -11 -15l-112 -104q-11 -9 -20 -9q-11 0 -21 9l-112 104q-11 9 -11 15q0 3 5 10l6 8q5 7 10 7q4 0 7.5 -2t11.5 -7z" />
    <glyph glyph-name="ncaron" unicode="&#x148;" horiz-adv-x="503" 
d="M378 302q0 112 -130 112q-18 0 -36 -4t-34 -9t-28.5 -11t-19.5 -10v-362q0 -9 -4 -13.5t-15 -4.5h-32q-11 0 -15 4.5t-4 13.5v397q32 23 82.5 40.5t109.5 17.5q60 0 98.5 -14t60 -36t29.5 -49t8 -54v-302q0 -18 -19 -18h-32q-19 0 -19 18v284zM251 616l104 68q8 5 11.5 7
t7.5 2q5 0 10 -7l6 -8q5 -7 5 -10q0 -6 -11 -15l-112 -104q-11 -9 -20 -9q-11 0 -21 9l-112 104q-11 9 -11 15q0 3 5 10l6 8q5 7 10 7q4 0 7.5 -2t11.5 -7z" />
    <glyph glyph-name="Eng" unicode="&#x14a;" horiz-adv-x="578" 
d="M155 -177q0 3 3 10.5t7 15.5t8.5 14t8.5 6q3 0 7 -1.5l12 -4.5q7 -2 33.5 -10.5t66.5 -8.5q33 0 58.5 7t43.5 25t29 50t15 82l-315 542v-532q0 -18 -19 -18h-34q-19 0 -19 18v664q0 18 17 18h37q8 0 11.5 -3.5t8.5 -10.5l313 -542v495h-132q-10 0 -14 4t-4 16v22
q0 19 18 19h185q11 0 14.5 -4.5t3.5 -13.5v-607q0 -70 -8.5 -124.5t-32.5 -92t-66.5 -57t-109.5 -19.5q-34 0 -61 4.5t-46 11.5t-29 13.5t-10 11.5z" />
    <glyph glyph-name="eng" unicode="&#x14b;" horiz-adv-x="503" 
d="M378 302q0 112 -130 112q-18 0 -36 -4t-34 -9t-28.5 -11t-19.5 -10v-362q0 -9 -4 -13.5t-15 -4.5h-32q-11 0 -15 4.5t-4 13.5v397q32 23 82.5 40.5t109.5 17.5q60 0 98.5 -14t60 -36t29.5 -49t8 -54v-358q0 -38 -4.5 -70.5t-18.5 -57t-40.5 -38.5t-69.5 -14
q-30 0 -40.5 4.5t-10.5 15.5v12q0 4 1 11q1 8 3.5 12.5t11.5 4.5q5 0 11 -0.5t14 -0.5q45 0 59 28.5t14 94.5v338z" />
    <glyph glyph-name="Omacron" unicode="&#x14c;" horiz-adv-x="628" 
d="M125 350q0 -76 7.5 -132t28.5 -92.5t58 -54.5t95 -18t95 18t58 54.5t28.5 92.5t7.5 132t-7.5 131.5t-28.5 92.5t-58 55t-95 18t-95 -18t-58 -55t-28.5 -92.5t-7.5 -131.5zM50 350q0 97 14 165.5t45.5 111.5t82 62.5t122.5 19.5t122.5 -19.5t82 -62.5t45.5 -111.5
t14 -165.5t-14 -165.5t-45.5 -111.5t-82 -62.5t-122.5 -19.5t-122.5 19.5t-82 62.5t-45.5 111.5t-14 165.5zM206 806q-15 0 -20.5 3t-5.5 17v17q0 12 5.5 15.5t20.5 3.5h216q15 0 20.5 -3t5.5 -16v-17q0 -13 -5.5 -16.5t-20.5 -3.5h-216v0z" />
    <glyph glyph-name="omacron" unicode="&#x14d;" horiz-adv-x="506" 
d="M389 232q0 53 -8 88t-25 56t-42.5 29.5t-60.5 8.5t-61 -8.5t-43 -29.5t-25 -56t-8 -88t8 -88t25 -56t43 -29.5t61 -8.5t60.5 8.5t42.5 29.5t25 56t8 88zM45 232q0 130 52 185.5t156 55.5q52 0 91 -13t65 -42t39 -75t13 -111t-13 -111t-39 -75t-65 -42t-91 -13t-91 13
t-65 42t-39 75t-13 111zM145 570q-15 0 -20.5 3t-5.5 17v17q0 12 5.5 15.5t20.5 3.5h216q15 0 20.5 -3t5.5 -16v-17q0 -13 -5.5 -16.5t-20.5 -3.5h-216v0z" />
    <glyph glyph-name="Obreve" unicode="&#x14e;" horiz-adv-x="628" 
d="M125 350q0 -76 7.5 -132t28.5 -92.5t58 -54.5t95 -18t95 18t58 54.5t28.5 92.5t7.5 132t-7.5 131.5t-28.5 92.5t-58 55t-95 18t-95 -18t-58 -55t-28.5 -92.5t-7.5 -131.5zM50 350q0 97 14 165.5t45.5 111.5t82 62.5t122.5 19.5t122.5 -19.5t82 -62.5t45.5 -111.5
t14 -165.5t-14 -165.5t-45.5 -111.5t-82 -62.5t-122.5 -19.5t-122.5 19.5t-82 62.5t-45.5 111.5t-14 165.5zM419 891q0 -23 -9 -40.5t-24 -29.5t-33.5 -18t-37.5 -6q-44 0 -75 24.5t-31 69.5h39q7 -20 21 -33t45 -13q29 0 44.5 13t22.5 33h38z" />
    <glyph glyph-name="obreve" unicode="&#x14f;" horiz-adv-x="506" 
d="M389 232q0 53 -8 88t-25 56t-42.5 29.5t-60.5 8.5t-61 -8.5t-43 -29.5t-25 -56t-8 -88t8 -88t25 -56t43 -29.5t61 -8.5t60.5 8.5t42.5 29.5t25 56t8 88zM45 232q0 130 52 185.5t156 55.5q52 0 91 -13t65 -42t39 -75t13 -111t-13 -111t-39 -75t-65 -42t-91 -13t-91 13
t-65 42t-39 75t-13 111zM358 655q0 -23 -9 -40.5t-24 -29.5t-33.5 -18t-37.5 -6q-44 0 -75 24.5t-31 69.5h39q7 -20 21 -33t45 -13q29 0 44.5 13t22.5 33h38z" />
    <glyph glyph-name="Ohungarumlaut" unicode="&#x150;" horiz-adv-x="628" 
d="M125 350q0 -76 7.5 -132t28.5 -92.5t58 -54.5t95 -18t95 18t58 54.5t28.5 92.5t7.5 132t-7.5 131.5t-28.5 92.5t-58 55t-95 18t-95 -18t-58 -55t-28.5 -92.5t-7.5 -131.5zM50 350q0 97 14 165.5t45.5 111.5t82 62.5t122.5 19.5t122.5 -19.5t82 -62.5t45.5 -111.5
t14 -165.5t-14 -165.5t-45.5 -111.5t-82 -62.5t-122.5 -19.5t-122.5 19.5t-82 62.5t-45.5 111.5t-14 165.5zM265 761q-5 -5 -8 -9t-8 -4q-7 0 -11 3l-11 6q-6 4 -6 11q0 4 5 14l81 162q4 7 9 12t13 5q6 0 14 -5l24 -15q5 -3 8.5 -7t3.5 -11q0 -8 -7 -18zM413 761
q-5 -5 -8 -9t-8 -4q-7 0 -11 3l-11 6q-6 4 -6 11q0 4 5 14l81 162q4 7 9 12t13 5q4 0 14 -5l24 -15q5 -2 8.5 -6.5t3.5 -11.5q0 -8 -7 -18z" />
    <glyph glyph-name="ohungarumlaut" unicode="&#x151;" horiz-adv-x="506" 
d="M389 232q0 53 -8 88t-25 56t-42.5 29.5t-60.5 8.5t-61 -8.5t-43 -29.5t-25 -56t-8 -88t8 -88t25 -56t43 -29.5t61 -8.5t60.5 8.5t42.5 29.5t25 56t8 88zM45 232q0 130 52 185.5t156 55.5q52 0 91 -13t65 -42t39 -75t13 -111t-13 -111t-39 -75t-65 -42t-91 -13t-91 13
t-65 42t-39 75t-13 111zM194 525q-5 -5 -8 -9t-8 -4q-7 0 -11 3l-11 6q-6 4 -6 11q0 4 5 14l81 162q4 7 9 12t13 5q6 0 14 -5l24 -15q5 -3 8.5 -7t3.5 -11q0 -8 -7 -18zM342 525q-5 -5 -8 -9t-8 -4q-7 0 -11 3l-11 6q-6 4 -6 11q0 4 5 14l81 162q4 7 9 12t13 5q4 0 14 -5
l24 -15q5 -2 8.5 -6.5t3.5 -11.5q0 -8 -7 -18z" />
    <glyph glyph-name="OE" unicode="&#x152;" horiz-adv-x="882" 
d="M410 642q-16 2 -36.5 3.5t-43.5 1.5q-65 0 -105.5 -18t-62.5 -54.5t-29.5 -92.5t-7.5 -132q0 -89 11 -146.5t36 -91t63.5 -47t94.5 -13.5q24 0 45 1.5t37 3.5q18 2 33 5v575zM465 0q-17 0 -32 -1.5t-30.5 -3t-33 -3t-39.5 -1.5q-77 0 -130.5 19.5t-86.5 62t-48 111
t-15 166.5t15 166.5t48 111t86.5 62t130.5 19.5q45 0 80 -4.5t55 -4.5h348q18 0 18 -19v-23q0 -10 -3.5 -14.5t-14.5 -4.5h-296v-250h277q11 0 14.5 -4.5t3.5 -14.5v-23q0 -19 -18 -19h-277v-267h297q11 0 14.5 -4.5t3.5 -14.5v-23q0 -19 -18 -19h-349z" />
    <glyph glyph-name="oe" unicode="&#x153;" horiz-adv-x="819" 
d="M614 -9q-74 0 -119.5 20t-69.5 61q-25 -43 -67.5 -62t-104.5 -19q-52 0 -91 13t-65 42t-39 75t-13 111q0 130 52 185.5t156 55.5q63 0 105.5 -19.5t67.5 -64.5q24 41 64 62.5t98 21.5q96 0 141 -56t45 -169q0 -26 -7 -35t-26 -9h-279q0 -38 7.5 -66.5t25 -48t47.5 -29.5
t75 -10q52 0 81 10.5t37 10.5q4 0 8 -5t7 -12t5 -14t2 -11q0 -8 -13.5 -14.5t-34.5 -12t-46 -8.5t-49 -3zM389 232q0 53 -8 88t-25 56t-42.5 29.5t-60.5 8.5t-61 -8.5t-43 -29.5t-25 -56t-8 -88t8 -88t25 -56t43 -29.5t61 -8.5t60.5 8.5t42.5 29.5t25 56t8 88zM704 272
q0 61 -26.5 101.5t-88.5 40.5q-68 0 -97.5 -42t-29.5 -112h242v12z" />
    <glyph glyph-name="Racute" unicode="&#x154;" horiz-adv-x="570" 
d="M295 294h-163v-276q0 -18 -19 -18h-34q-19 0 -19 18v664q0 18 19 18h246q59 0 97.5 -18.5t61 -47.5t31.5 -66t9 -73q0 -33 -7 -65t-24.5 -59.5t-47 -47.5t-74.5 -27l160 -274q4 -8 4 -11q0 -11 -14 -11h-47q-7 0 -10.5 3.5t-6.5 8.5zM450 496q0 31 -7 57.5t-22.5 45.5
t-41.5 29.5t-65 10.5h-182v-284h182q77 0 106.5 38.5t29.5 102.5zM220 777q-6 -4 -9.5 -6t-6.5 -2t-4.5 1.5l-4.5 4.5l-9 10q-4 5 -4 9t3 7.5t7 7.5l136 121q9 9 19 9t17 -10l17 -22q6 -7 6 -15q0 -10 -14 -19z" />
    <glyph glyph-name="racute" unicode="&#x155;" horiz-adv-x="308" 
d="M130 18q0 -9 -4 -13.5t-15 -4.5h-32q-11 0 -15 4.5t-4 13.5v397q7 6 23.5 15.5t39.5 19t52 16.5t62 7q25 0 45.5 -3.5t20.5 -10.5q0 -2 -1.5 -13.5t-3.5 -19.5q-3 -15 -13 -15q-5 0 -15.5 1.5t-30.5 1.5q-36 0 -65.5 -12t-43.5 -21v-363v0zM124 541q-6 -4 -9.5 -6
t-6.5 -2t-4.5 1.5l-4.5 4.5l-9 10q-4 5 -4 9t3 7.5t7 7.5l136 121q9 9 19 9t17 -10l17 -22q6 -7 6 -15q0 -10 -14 -19z" />
    <glyph glyph-name="Rcommaaccent" unicode="&#x156;" horiz-adv-x="570" 
d="M295 294h-163v-276q0 -18 -19 -18h-34q-19 0 -19 18v664q0 18 19 18h246q59 0 97.5 -18.5t61 -47.5t31.5 -66t9 -73q0 -33 -7 -65t-24.5 -59.5t-47 -47.5t-74.5 -27l160 -274q4 -8 4 -11q0 -11 -14 -11h-47q-7 0 -10.5 3.5t-6.5 8.5zM450 496q0 31 -7 57.5t-22.5 45.5
t-41.5 29.5t-65 10.5h-182v-284h182q77 0 106.5 38.5t29.5 102.5zM223 -95q0 20 14 33t34 13q21 0 34 -13.5t13 -32.5q0 -17 -5.5 -35.5t-15 -37t-22.5 -34.5t-28 -28q-10 -9 -18 -12.5t-12 -3.5q-5 0 -9.5 5.5t-6.5 10.5q11 7 20.5 18t16.5 23.5t11 24.5t4 21q0 2 -4.5 5.5
t-10.5 8.5t-10.5 13.5t-4.5 20.5z" />
    <glyph glyph-name="rcommaaccent" unicode="&#x157;" horiz-adv-x="308" 
d="M130 18q0 -9 -4 -13.5t-15 -4.5h-32q-11 0 -15 4.5t-4 13.5v397q7 6 23.5 15.5t39.5 19t52 16.5t62 7q25 0 45.5 -3.5t20.5 -10.5q0 -2 -1.5 -13.5t-3.5 -19.5q-3 -15 -13 -15q-5 0 -15.5 1.5t-30.5 1.5q-36 0 -65.5 -12t-43.5 -21v-363v0zM94 -95q0 20 14 33t34 13
q21 0 34 -13.5t13 -32.5q0 -17 -5.5 -35.5t-15 -37t-22.5 -34.5t-28 -28q-10 -9 -18 -12.5t-12 -3.5q-5 0 -9.5 5.5t-6.5 10.5q11 7 20.5 18t16.5 23.5t11 24.5t4 21q0 2 -4.5 5.5t-10.5 8.5t-10.5 13.5t-4.5 20.5z" />
    <glyph glyph-name="Rcaron" unicode="&#x158;" horiz-adv-x="570" 
d="M295 294h-163v-276q0 -18 -19 -18h-34q-19 0 -19 18v664q0 18 19 18h246q59 0 97.5 -18.5t61 -47.5t31.5 -66t9 -73q0 -33 -7 -65t-24.5 -59.5t-47 -47.5t-74.5 -27l160 -274q4 -8 4 -11q0 -11 -14 -11h-47q-7 0 -10.5 3.5t-6.5 8.5zM450 496q0 31 -7 57.5t-22.5 45.5
t-41.5 29.5t-65 10.5h-182v-284h182q77 0 106.5 38.5t29.5 102.5zM264 852l104 68q8 5 11.5 7t7.5 2q5 0 10 -7l6 -8q5 -7 5 -10q0 -6 -11 -15l-112 -104q-11 -9 -20 -9q-11 0 -21 9l-112 104q-11 9 -11 15q0 3 5 10l6 8q5 7 10 7q4 0 7.5 -2t11.5 -7z" />
    <glyph glyph-name="rcaron" unicode="&#x159;" horiz-adv-x="308" 
d="M130 18q0 -9 -4 -13.5t-15 -4.5h-32q-11 0 -15 4.5t-4 13.5v397q7 6 23.5 15.5t39.5 19t52 16.5t62 7q25 0 45.5 -3.5t20.5 -10.5q0 -2 -1.5 -13.5t-3.5 -19.5q-3 -15 -13 -15q-5 0 -15.5 1.5t-30.5 1.5q-36 0 -65.5 -12t-43.5 -21v-363v0zM154 616l104 68q8 5 11.5 7
t7.5 2q5 0 10 -7l6 -8q5 -7 5 -10q0 -6 -11 -15l-112 -104q-11 -9 -20 -9q-11 0 -21 9l-112 104q-11 9 -11 15q0 3 5 10l6 8q5 7 10 7q4 0 7.5 -2t11.5 -7z" />
    <glyph glyph-name="Sacute" unicode="&#x15a;" horiz-adv-x="476" 
d="M62 92q4 0 16 -6t30.5 -13.5t42 -13.5t52.5 -6q46 0 77.5 10.5t50.5 28t27 39t8 43.5q0 19 -7 37t-25.5 38t-50.5 43.5t-82 52.5q-75 45 -116.5 91t-41.5 108q0 75 52 120t158 45q36 0 64.5 -5.5t48 -13t30 -14.5t10.5 -10q0 -2 -3 -9.5t-7.5 -15.5t-9.5 -14.5t-8 -6.5
q-4 0 -14 4t-26 9.5t-37.5 9.5t-49.5 4q-38 0 -64 -8t-41.5 -21.5t-22 -32.5t-6.5 -41q0 -39 34 -74.5t106 -80.5q38 -23 71.5 -46t58.5 -47.5t39.5 -53.5t14.5 -64q0 -45 -17 -79.5t-47.5 -58.5t-74 -36.5t-97.5 -12.5q-39 0 -70.5 7.5t-53.5 16.5t-34 18t-12 12t3 10.5
t7 15.5t9 14.5t8 6.5zM206 777q-6 -4 -9.5 -6t-6.5 -2t-4.5 1.5l-4.5 4.5l-9 10q-4 5 -4 9t3 7.5t7 7.5l136 121q9 9 19 9t17 -10l17 -22q6 -7 6 -15q0 -10 -14 -19z" />
    <glyph glyph-name="sacute" unicode="&#x15b;" horiz-adv-x="351" 
d="M150 -9q-19 0 -39 3t-37 7.5t-28 11t-11 13.5q0 3 1.5 10t4.5 14t6.5 12t6.5 5q10 0 33 -9.5t61 -9.5q43 0 71 16.5t28 54.5q0 16 -5.5 28t-18 23.5t-34 23.5t-52.5 29q-17 9 -34 20t-31 26t-23 35t-9 47q0 51 36 86.5t117 35.5q19 0 39 -2.5t36.5 -7t27 -9.5t10.5 -11
q0 -2 -2 -8.5t-5 -13.5t-7 -13t-8 -6q-9 0 -32.5 7t-57.5 7q-24 0 -40.5 -5.5t-26 -14.5t-13.5 -20t-4 -22q0 -16 5 -28t17 -23.5t32 -23t49 -27.5q48 -26 75.5 -55t27.5 -72q0 -24 -7 -48t-26 -43t-51 -31t-82 -12zM130 541q-6 -4 -9.5 -6t-6.5 -2t-4.5 1.5l-4.5 4.5l-9 10
q-4 5 -4 9t3 7.5t7 7.5l136 121q9 9 19 9t17 -10l17 -22q6 -7 6 -15q0 -10 -14 -19z" />
    <glyph glyph-name="Scircumflex" unicode="&#x15c;" horiz-adv-x="476" 
d="M62 92q4 0 16 -6t30.5 -13.5t42 -13.5t52.5 -6q46 0 77.5 10.5t50.5 28t27 39t8 43.5q0 19 -7 37t-25.5 38t-50.5 43.5t-82 52.5q-75 45 -116.5 91t-41.5 108q0 75 52 120t158 45q36 0 64.5 -5.5t48 -13t30 -14.5t10.5 -10q0 -2 -3 -9.5t-7.5 -15.5t-9.5 -14.5t-8 -6.5
q-4 0 -14 4t-26 9.5t-37.5 9.5t-49.5 4q-38 0 -64 -8t-41.5 -21.5t-22 -32.5t-6.5 -41q0 -39 34 -74.5t106 -80.5q38 -23 71.5 -46t58.5 -47.5t39.5 -53.5t14.5 -64q0 -45 -17 -79.5t-47.5 -58.5t-74 -36.5t-97.5 -12.5q-39 0 -70.5 7.5t-53.5 16.5t-34 18t-12 12t3 10.5
t7 15.5t9 14.5t8 6.5zM134 785q-8 -5 -11.5 -7t-7.5 -2q-5 0 -10 7l-6 8q-5 7 -5 10q0 6 11 15l112 104q10 9 21 9q9 0 20 -9l112 -104q11 -9 11 -15q0 -3 -5 -10l-6 -8q-5 -7 -10 -7q-4 0 -7.5 2t-11.5 7l-104 68z" />
    <glyph glyph-name="scircumflex" unicode="&#x15d;" horiz-adv-x="351" 
d="M150 -9q-19 0 -39 3t-37 7.5t-28 11t-11 13.5q0 3 1.5 10t4.5 14t6.5 12t6.5 5q10 0 33 -9.5t61 -9.5q43 0 71 16.5t28 54.5q0 16 -5.5 28t-18 23.5t-34 23.5t-52.5 29q-17 9 -34 20t-31 26t-23 35t-9 47q0 51 36 86.5t117 35.5q19 0 39 -2.5t36.5 -7t27 -9.5t10.5 -11
q0 -2 -2 -8.5t-5 -13.5t-7 -13t-8 -6q-9 0 -32.5 7t-57.5 7q-24 0 -40.5 -5.5t-26 -14.5t-13.5 -20t-4 -22q0 -16 5 -28t17 -23.5t32 -23t49 -27.5q48 -26 75.5 -55t27.5 -72q0 -24 -7 -48t-26 -43t-51 -31t-82 -12zM72 549q-8 -5 -11.5 -7t-7.5 -2q-5 0 -10 7l-6 8
q-5 7 -5 10q0 6 11 15l112 104q10 9 21 9q9 0 20 -9l112 -104q11 -9 11 -15q0 -3 -5 -10l-6 -8q-5 -7 -10 -7q-4 0 -7.5 2t-11.5 7l-104 68z" />
    <glyph glyph-name="Scedilla" unicode="&#x15e;" horiz-adv-x="476" 
d="M136 -156v3.5t1 4.5q1 3 2 5q4 9 12 9q5 0 20 -4.5t41 -4.5q28 0 43.5 10.5t15.5 28.5q0 17 -11.5 24.5t-30.5 7.5q-16 0 -29.5 -3.5t-20.5 -6.5l-24 30l34 44q-36 1 -64.5 8.5t-48.5 16.5t-30.5 17t-10.5 11t3 10.5t7 15.5t9 14.5t8 6.5q4 0 16 -6t30.5 -13.5t42 -13.5
t52.5 -6q46 0 77.5 10.5t50.5 28t27 39t8 43.5q0 19 -7 37t-25.5 38t-50.5 43.5t-82 52.5q-75 45 -116.5 91t-41.5 108q0 75 52 120t158 45q36 0 64.5 -5.5t48 -13t30 -14.5t10.5 -10q0 -2 -3 -9.5t-7.5 -15.5t-9.5 -14.5t-8 -6.5q-4 0 -14 4t-26 9.5t-37.5 9.5t-49.5 4
q-38 0 -64 -8t-41.5 -21.5t-22 -32.5t-6.5 -41q0 -39 34 -74.5t106 -80.5q38 -23 71.5 -46t58.5 -47.5t39.5 -53.5t14.5 -64q0 -84 -55.5 -131.5t-150.5 -54.5l-20 -31l8 2q10 2 21 2q36 0 55.5 -18.5t19.5 -47.5q0 -37 -28.5 -58t-82.5 -21q-12 0 -24.5 2t-23 5t-17.5 7.5
t-7 9.5z" />
    <glyph glyph-name="scedilla" unicode="&#x15f;" horiz-adv-x="351" 
d="M84 -156v3.5t1 4.5q1 3 2 5q4 9 12 9q5 0 20 -4.5t41 -4.5q28 0 43.5 10.5t15.5 28.5q0 17 -11.5 24.5t-30.5 7.5q-16 0 -29.5 -3.5t-20.5 -6.5l-24 30l34 43q-18 1 -36 4t-33 7.5t-24 10.5t-9 13q0 3 1.5 10t4.5 14t6.5 12t6.5 5q10 0 33 -9.5t61 -9.5q43 0 71 16.5
t28 54.5q0 16 -5.5 28t-18 23.5t-34 23.5t-52.5 29q-17 9 -34 20t-31 26t-23 35t-9 47q0 51 36 86.5t117 35.5q19 0 39 -2.5t36.5 -7t27 -9.5t10.5 -11q0 -2 -2 -8.5t-5 -13.5t-7 -13t-8 -6q-9 0 -32.5 7t-57.5 7q-24 0 -40.5 -5.5t-26 -14.5t-13.5 -20t-4 -22q0 -16 5 -28
t17 -23.5t32 -23t49 -27.5q48 -26 75.5 -55t27.5 -72q0 -22 -6 -44t-21 -40.5t-40.5 -31t-64.5 -16.5l-21 -32l8 2q10 2 21 2q36 0 55.5 -18.5t19.5 -47.5q0 -37 -28.5 -58t-82.5 -21q-12 0 -24.5 2t-23 5t-17.5 7.5t-7 9.5z" />
    <glyph glyph-name="Scaron" unicode="&#x160;" horiz-adv-x="476" 
d="M62 92q4 0 16 -6t30.5 -13.5t42 -13.5t52.5 -6q46 0 77.5 10.5t50.5 28t27 39t8 43.5q0 19 -7 37t-25.5 38t-50.5 43.5t-82 52.5q-75 45 -116.5 91t-41.5 108q0 75 52 120t158 45q36 0 64.5 -5.5t48 -13t30 -14.5t10.5 -10q0 -2 -3 -9.5t-7.5 -15.5t-9.5 -14.5t-8 -6.5
q-4 0 -14 4t-26 9.5t-37.5 9.5t-49.5 4q-38 0 -64 -8t-41.5 -21.5t-22 -32.5t-6.5 -41q0 -39 34 -74.5t106 -80.5q38 -23 71.5 -46t58.5 -47.5t39.5 -53.5t14.5 -64q0 -45 -17 -79.5t-47.5 -58.5t-74 -36.5t-97.5 -12.5q-39 0 -70.5 7.5t-53.5 16.5t-34 18t-12 12t3 10.5
t7 15.5t9 14.5t8 6.5zM237 852l104 68q8 5 11.5 7t7.5 2q5 0 10 -7l6 -8q5 -7 5 -10q0 -6 -11 -15l-112 -104q-11 -9 -20 -9q-11 0 -21 9l-112 104q-11 9 -11 15q0 3 5 10l6 8q5 7 10 7q4 0 7.5 -2t11.5 -7z" />
    <glyph glyph-name="scaron" unicode="&#x161;" horiz-adv-x="351" 
d="M150 -9q-19 0 -39 3t-37 7.5t-28 11t-11 13.5q0 3 1.5 10t4.5 14t6.5 12t6.5 5q10 0 33 -9.5t61 -9.5q43 0 71 16.5t28 54.5q0 16 -5.5 28t-18 23.5t-34 23.5t-52.5 29q-17 9 -34 20t-31 26t-23 35t-9 47q0 51 36 86.5t117 35.5q19 0 39 -2.5t36.5 -7t27 -9.5t10.5 -11
q0 -2 -2 -8.5t-5 -13.5t-7 -13t-8 -6q-9 0 -32.5 7t-57.5 7q-24 0 -40.5 -5.5t-26 -14.5t-13.5 -20t-4 -22q0 -16 5 -28t17 -23.5t32 -23t49 -27.5q48 -26 75.5 -55t27.5 -72q0 -24 -7 -48t-26 -43t-51 -31t-82 -12zM175 616l104 68q8 5 11.5 7t7.5 2q5 0 10 -7l6 -8
q5 -7 5 -10q0 -6 -11 -15l-112 -104q-11 -9 -20 -9q-11 0 -21 9l-112 104q-11 9 -11 15q0 3 5 10l6 8q5 7 10 7q4 0 7.5 -2t11.5 -7z" />
    <glyph glyph-name="Tcommaaccent" unicode="&#x162;" horiz-adv-x="513" 
d="M34 640q-10 0 -14.5 4t-4.5 15v22q0 19 19 19h446q18 0 18 -19v-23q0 -11 -4 -14.5t-14 -3.5h-187v-622q0 -9 -4 -13.5t-15 -4.5h-34q-19 0 -19 18v622h-187v0zM210 -95q0 20 14 33t34 13q21 0 34 -13.5t13 -32.5q0 -17 -5.5 -35.5t-15 -37t-22.5 -34.5t-28 -28
q-10 -9 -18 -12.5t-12 -3.5q-5 0 -9.5 5.5t-6.5 10.5q11 7 20.5 18t16.5 23.5t11 24.5t4 21q0 2 -4.5 5.5t-10.5 8.5t-10.5 13.5t-4.5 20.5z" />
    <glyph glyph-name="tcommaaccent" unicode="&#x163;" horiz-adv-x="307" 
d="M161 172q0 -65 15 -94t59 -29q8 0 14.5 0.5t11.5 0.5q8 0 10.5 -4.5t3.5 -9.5q0 -3 1 -14t1 -13q0 -10 -11.5 -14t-40.5 -4q-41 0 -67 12.5t-41 35.5t-20.5 56.5t-5.5 74.5v234h-53q-18 0 -18 20v20q0 20 18 20h53v110q0 8 3 12.5t14 8.5q17 5 28.5 8t15.5 3q6 0 7.5 -3
t1.5 -13v-126h108q18 0 18 -20v-21q0 -19 -18 -19h-108v-232v0zM146 -95q0 20 14 33t34 13q21 0 34 -13.5t13 -32.5q0 -17 -5.5 -35.5t-15 -37t-22.5 -34.5t-28 -28q-10 -9 -18 -12.5t-12 -3.5q-5 0 -9.5 5.5t-6.5 10.5q11 7 20.5 18t16.5 23.5t11 24.5t4 21q0 2 -4.5 5.5
t-10.5 8.5t-10.5 13.5t-4.5 20.5z" />
    <glyph glyph-name="Tcaron" unicode="&#x164;" horiz-adv-x="513" 
d="M34 640q-10 0 -14.5 4t-4.5 15v22q0 19 19 19h446q18 0 18 -19v-23q0 -11 -4 -14.5t-14 -3.5h-187v-622q0 -9 -4 -13.5t-15 -4.5h-34q-19 0 -19 18v622h-187v0zM256 852l104 68q8 5 11.5 7t7.5 2q5 0 10 -7l6 -8q5 -7 5 -10q0 -6 -11 -15l-112 -104q-11 -9 -20 -9
q-11 0 -21 9l-112 104q-11 9 -11 15q0 3 5 10l6 8q5 7 10 7q4 0 7.5 -2t11.5 -7z" />
    <glyph glyph-name="tcaron" unicode="&#x165;" horiz-adv-x="337" 
d="M161 172q0 -65 15 -94t59 -29q8 0 14.5 0.5t11.5 0.5q8 0 10.5 -4.5t3.5 -9.5q0 -3 1 -14t1 -13q0 -10 -11.5 -14t-40.5 -4q-41 0 -67 12.5t-41 35.5t-20.5 56.5t-5.5 74.5v234h-53q-18 0 -18 20v20q0 20 18 20h53v110q0 8 3 12.5t14 8.5q17 5 28.5 8t15.5 3q6 0 7.5 -3
t1.5 -13v-126h108q18 0 18 -20v-21q0 -19 -18 -19h-108v-232v0zM242 663q0 20 14 33t34 13q21 0 34 -13.5t13 -32.5q0 -17 -5.5 -35.5t-15 -37t-22.5 -34.5t-28 -28q-10 -9 -18 -12.5t-12 -3.5q-5 0 -9.5 5.5t-6.5 10.5q11 7 20.5 18t16.5 23.5t11 24.5t4 21q0 2 -4.5 5.5
t-10.5 8.5t-10.5 13.5t-4.5 20.5z" />
    <glyph glyph-name="Tbar" unicode="&#x166;" horiz-adv-x="513" 
d="M221 522v118h-187q-10 0 -14.5 4t-4.5 15v22q0 19 19 19h446q18 0 18 -19v-23q0 -11 -4 -14.5t-14 -3.5h-187v-118h121q11 0 14.5 -3.5t3.5 -14.5v-22q0 -11 -3.5 -14.5t-14.5 -3.5h-121v-446q0 -9 -4 -13.5t-15 -4.5h-34q-19 0 -19 18v446h-123q-11 0 -14.5 3.5
t-3.5 14.5v22q0 11 3.5 14.5t14.5 3.5h123z" />
    <glyph glyph-name="tbar" unicode="&#x167;" horiz-adv-x="307" 
d="M46 280q-15 0 -20.5 3t-5.5 17v18q0 13 5.5 16.5t20.5 3.5h45v66h-53q-18 0 -18 20v20q0 20 18 20h53v110q0 8 3 12.5t14 8.5q17 5 28.5 8t15.5 3q6 0 7.5 -3t1.5 -13v-126h108q18 0 18 -20v-21q0 -19 -18 -19h-108v-66h100q15 0 20.5 -3t5.5 -17v-18q0 -13 -5.5 -16.5
t-20.5 -3.5h-100v-108q0 -65 15 -94t59 -29q8 0 14.5 0.5t11.5 0.5q8 0 10.5 -4.5t3.5 -9.5q0 -5 1 -15t1 -12q0 -10 -11.5 -14t-40.5 -4q-41 0 -67 12.5t-41 35.5t-20.5 56.5t-5.5 74.5v110h-45v0z" />
    <glyph glyph-name="Utilde" unicode="&#x168;" horiz-adv-x="592" 
d="M296 53q51 0 84 12t51.5 39t26 70.5t7.5 107.5v400q0 18 19 18h33q20 0 20 -18v-397q0 -79 -11.5 -134.5t-39 -91t-74 -52t-116.5 -16.5t-116.5 16.5t-74 52t-39 91t-11.5 134.5v397q0 18 19 18h34q19 0 19 -18v-400q0 -64 7 -107.5t26 -70.5t52 -39t84 -12zM220 812
q-21 0 -37 -7t-31 -7q-9 0 -13 8l-4 12q-2 5 -3 8.5t-1 4.5q0 5 9.5 12t24 13.5t32.5 11t35 4.5q23 0 40 -4.5t32.5 -10t31.5 -10t37 -4.5q24 0 37.5 7t28.5 7q8 0 13 -8q2 -6 4 -11t3 -9t1 -5q0 -5 -9 -12t-23.5 -13t-32 -10.5t-33.5 -4.5q-24 0 -41.5 4.5t-33 9.5t-31 9.5
t-36.5 4.5z" />
    <glyph glyph-name="utilde" unicode="&#x169;" horiz-adv-x="518" 
d="M125 177q0 -27 5.5 -50t19.5 -40.5t37 -27t58 -9.5q24 0 44 6t35 14.5t25 18.5t16 18v338q0 19 19 19h32q20 0 20 -19v-340q0 -24 9.5 -40t32.5 -16q6 0 11 0.5t8 0.5q11 0 12 -14l2 -14q0 -3 0.5 -5.5t0.5 -4.5q0 -3 1 -5q0 -5 -11.5 -10.5t-37.5 -5.5q-32 0 -53.5 14
t-29.5 43q-6 -7 -19 -16.5t-31 -18.5t-42 -15.5t-52 -6.5q-91 0 -136.5 43t-45.5 127v284q0 19 19 19h32q11 0 15 -4.5t4 -14.5v-268zM183 576q-21 0 -37 -7t-31 -7q-9 0 -13 8l-4 12q-2 5 -3 8.5t-1 4.5q0 5 9.5 12t24 13.5t32.5 11t35 4.5q23 0 40 -4.5t32.5 -10t31.5 -10
t37 -4.5q24 0 37.5 7t28.5 7q8 0 13 -8q2 -6 4 -11t3 -9t1 -5q0 -5 -9 -12t-23.5 -13t-32 -10.5t-33.5 -4.5q-24 0 -41.5 4.5t-33 9.5t-31 9.5t-36.5 4.5z" />
    <glyph glyph-name="Umacron" unicode="&#x16a;" horiz-adv-x="592" 
d="M296 53q51 0 84 12t51.5 39t26 70.5t7.5 107.5v400q0 18 19 18h33q20 0 20 -18v-397q0 -79 -11.5 -134.5t-39 -91t-74 -52t-116.5 -16.5t-116.5 16.5t-74 52t-39 91t-11.5 134.5v397q0 18 19 18h34q19 0 19 -18v-400q0 -64 7 -107.5t26 -70.5t52 -39t84 -12zM188 806
q-15 0 -20.5 3t-5.5 17v17q0 12 5.5 15.5t20.5 3.5h216q15 0 20.5 -3t5.5 -16v-17q0 -13 -5.5 -16.5t-20.5 -3.5h-216v0z" />
    <glyph glyph-name="umacron" unicode="&#x16b;" horiz-adv-x="518" 
d="M125 177q0 -27 5.5 -50t19.5 -40.5t37 -27t58 -9.5q24 0 44 6t35 14.5t25 18.5t16 18v338q0 19 19 19h32q20 0 20 -19v-340q0 -24 9.5 -40t32.5 -16q6 0 11 0.5t8 0.5q11 0 12 -14l2 -14q0 -3 0.5 -5.5t0.5 -4.5q0 -3 1 -5q0 -5 -11.5 -10.5t-37.5 -5.5q-32 0 -53.5 14
t-29.5 43q-6 -7 -19 -16.5t-31 -18.5t-42 -15.5t-52 -6.5q-91 0 -136.5 43t-45.5 127v284q0 19 19 19h32q11 0 15 -4.5t4 -14.5v-268zM141 570q-15 0 -20.5 3t-5.5 17v17q0 12 5.5 15.5t20.5 3.5h216q15 0 20.5 -3t5.5 -16v-17q0 -13 -5.5 -16.5t-20.5 -3.5h-216v0z" />
    <glyph glyph-name="Ubreve" unicode="&#x16c;" horiz-adv-x="592" 
d="M296 53q51 0 84 12t51.5 39t26 70.5t7.5 107.5v400q0 18 19 18h33q20 0 20 -18v-397q0 -79 -11.5 -134.5t-39 -91t-74 -52t-116.5 -16.5t-116.5 16.5t-74 52t-39 91t-11.5 134.5v397q0 18 19 18h34q19 0 19 -18v-400q0 -64 7 -107.5t26 -70.5t52 -39t84 -12zM401 891
q0 -23 -9 -40.5t-24 -29.5t-33.5 -18t-37.5 -6q-44 0 -75 24.5t-31 69.5h39q7 -20 21 -33t45 -13q29 0 44.5 13t22.5 33h38z" />
    <glyph glyph-name="ubreve" unicode="&#x16d;" horiz-adv-x="518" 
d="M125 177q0 -27 5.5 -50t19.5 -40.5t37 -27t58 -9.5q24 0 44 6t35 14.5t25 18.5t16 18v338q0 19 19 19h32q20 0 20 -19v-340q0 -24 9.5 -40t32.5 -16q6 0 11 0.5t8 0.5q11 0 12 -14l2 -14q0 -3 0.5 -5.5t0.5 -4.5q0 -3 1 -5q0 -5 -11.5 -10.5t-37.5 -5.5q-32 0 -53.5 14
t-29.5 43q-6 -7 -19 -16.5t-31 -18.5t-42 -15.5t-52 -6.5q-91 0 -136.5 43t-45.5 127v284q0 19 19 19h32q11 0 15 -4.5t4 -14.5v-268zM354 655q0 -23 -9 -40.5t-24 -29.5t-33.5 -18t-37.5 -6q-44 0 -75 24.5t-31 69.5h39q7 -20 21 -33t45 -13q29 0 44.5 13t22.5 33h38z" />
    <glyph glyph-name="Uring" unicode="&#x16e;" horiz-adv-x="592" 
d="M296 53q51 0 84 12t51.5 39t26 70.5t7.5 107.5v400q0 18 19 18h33q20 0 20 -18v-397q0 -79 -11.5 -134.5t-39 -91t-74 -52t-116.5 -16.5t-116.5 16.5t-74 52t-39 91t-11.5 134.5v397q0 18 19 18h34q19 0 19 -18v-400q0 -64 7 -107.5t26 -70.5t52 -39t84 -12zM382 860
q0 -35 -25.5 -60t-60.5 -25q-38 0 -62 25t-24 60q0 38 24 61.5t62 23.5q16 0 31.5 -6.5t27.5 -18t19.5 -27t7.5 -33.5zM342 860q0 19 -14.5 33.5t-32.5 14.5q-20 0 -32.5 -14t-12.5 -34q0 -19 12.5 -33t32.5 -14q19 0 33 14t14 33z" />
    <glyph glyph-name="uring" unicode="&#x16f;" horiz-adv-x="518" 
d="M125 177q0 -27 5.5 -50t19.5 -40.5t37 -27t58 -9.5q24 0 44 6t35 14.5t25 18.5t16 18v338q0 19 19 19h32q20 0 20 -19v-340q0 -24 9.5 -40t32.5 -16q6 0 11 0.5t8 0.5q11 0 12 -14l2 -14q0 -3 0.5 -5.5t0.5 -4.5q0 -3 1 -5q0 -5 -11.5 -10.5t-37.5 -5.5q-32 0 -53.5 14
t-29.5 43q-6 -7 -19 -16.5t-31 -18.5t-42 -15.5t-52 -6.5q-91 0 -136.5 43t-45.5 127v284q0 19 19 19h32q11 0 15 -4.5t4 -14.5v-268zM345 624q0 -35 -25.5 -60t-60.5 -25q-38 0 -62 25t-24 60q0 38 24 61.5t62 23.5q16 0 31.5 -6.5t27.5 -18t19.5 -27t7.5 -33.5zM305 624
q0 19 -14.5 33.5t-32.5 14.5q-20 0 -32.5 -14t-12.5 -34q0 -19 12.5 -33t32.5 -14q19 0 33 14t14 33z" />
    <glyph glyph-name="Uhungarumlaut" unicode="&#x170;" horiz-adv-x="592" 
d="M296 53q51 0 84 12t51.5 39t26 70.5t7.5 107.5v400q0 18 19 18h33q20 0 20 -18v-397q0 -79 -11.5 -134.5t-39 -91t-74 -52t-116.5 -16.5t-116.5 16.5t-74 52t-39 91t-11.5 134.5v397q0 18 19 18h34q19 0 19 -18v-400q0 -64 7 -107.5t26 -70.5t52 -39t84 -12zM227 761
q-5 -5 -8 -9t-8 -4q-7 0 -11 3l-11 6q-6 4 -6 11q0 4 5 14l81 162q4 7 9 12t13 5q6 0 14 -5l24 -15q5 -3 8.5 -7t3.5 -11q0 -8 -7 -18zM375 761q-5 -5 -8 -9t-8 -4q-7 0 -11 3l-11 6q-6 4 -6 11q0 4 5 14l81 162q4 7 9 12t13 5q4 0 14 -5l24 -15q5 -2 8.5 -6.5t3.5 -11.5
q0 -8 -7 -18z" />
    <glyph glyph-name="uhungarumlaut" unicode="&#x171;" horiz-adv-x="518" 
d="M125 177q0 -27 5.5 -50t19.5 -40.5t37 -27t58 -9.5q24 0 44 6t35 14.5t25 18.5t16 18v338q0 19 19 19h32q20 0 20 -19v-340q0 -24 9.5 -40t32.5 -16q6 0 11 0.5t8 0.5q11 0 12 -14l2 -14q0 -3 0.5 -5.5t0.5 -4.5q0 -3 1 -5q0 -5 -11.5 -10.5t-37.5 -5.5q-32 0 -53.5 14
t-29.5 43q-6 -7 -19 -16.5t-31 -18.5t-42 -15.5t-52 -6.5q-91 0 -136.5 43t-45.5 127v284q0 19 19 19h32q11 0 15 -4.5t4 -14.5v-268zM180 525q-5 -5 -8 -9t-8 -4q-7 0 -11 3l-11 6q-6 4 -6 11q0 4 5 14l81 162q4 7 9 12t13 5q6 0 14 -5l24 -15q5 -3 8.5 -7t3.5 -11
q0 -8 -7 -18zM328 525q-5 -5 -8 -9t-8 -4q-7 0 -11 3l-11 6q-6 4 -6 11q0 4 5 14l81 162q4 7 9 12t13 5q4 0 14 -5l24 -15q5 -2 8.5 -6.5t3.5 -11.5q0 -8 -7 -18z" />
    <glyph glyph-name="Uogonek" unicode="&#x172;" horiz-adv-x="592" 
d="M418 -158q0 -4 -6.5 -8t-17 -7t-23 -5t-24.5 -2q-45 0 -66 22t-21 52q0 33 20.5 57t43.5 41q-7 -1 -14 -1h-14q-70 0 -116.5 16.5t-74 52t-39 91t-11.5 134.5v397q0 18 19 18h34q19 0 19 -18v-400q0 -64 7 -107.5t26 -70.5t52 -39t84 -12t84 12t51.5 39t26 70.5
t7.5 107.5v400q0 18 19 18h33q20 0 20 -18v-397q0 -66 -8 -116t-26.5 -85t-49.5 -56t-77 -30q-28 -26 -42.5 -49.5t-14.5 -48.5q0 -20 14.5 -32t35.5 -12q16 0 25 3t13 3q2 0 6.5 -4t4.5 -16z" />
    <glyph glyph-name="uogonek" unicode="&#x173;" horiz-adv-x="518" 
d="M513 -158q0 -4 -6.5 -8t-17 -7t-23 -5t-24.5 -2q-45 0 -66 22t-21 52q0 18 6.5 33t17 28t23.5 23.5t25 18.5q-37 13 -46 51q-6 -7 -19 -16.5t-31 -18.5t-42 -15.5t-52 -6.5q-91 0 -136.5 43t-45.5 127v284q0 19 19 19h32q11 0 15 -4.5t4 -14.5v-268q0 -27 5.5 -50
t19.5 -40.5t37 -27t58 -9.5q24 0 44 6t35 14.5t25 18.5t16 18v338q0 19 19 19h32q20 0 20 -19v-340q0 -24 9.5 -40t32.5 -16q6 0 11 0.5t8 0.5q11 0 12 -14l2 -14q0 -3 0.5 -5.5t0.5 -4.5q0 -3 1 -5q0 -5 -11.5 -10.5t-37.5 -5.5q-50 -47 -50 -91q0 -20 14.5 -32t35.5 -12
q16 0 25 3t13 3q2 0 6.5 -4t4.5 -16z" />
    <glyph glyph-name="Wcircumflex" unicode="&#x174;" horiz-adv-x="845" 
d="M606 71q28 114 49.5 201t37 151.5t26.5 109t18 73.5l19 77q2 8 5 12.5t12 4.5h43q14 0 14 -8q0 -2 -2 -10l-166 -664q-2 -9 -5.5 -13.5t-13.5 -4.5h-74q-10 0 -14 4.5t-6 13.5l-127 537l-126 -537q-3 -10 -6.5 -14t-13.5 -4h-73q-11 0 -14.5 4.5t-5.5 13.5l-166 664
l-2 10q0 8 13 8h45q10 0 12 -5t4 -13l150 -611l146 611q2 9 5 13.5t12 4.5h42q8 0 11 -4.5t5 -13.5l146 -611v0zM319 785q-8 -5 -11.5 -7t-7.5 -2q-5 0 -10 7l-6 8q-5 7 -5 10q0 6 11 15l112 104q10 9 21 9q9 0 20 -9l112 -104q11 -9 11 -15q0 -3 -5 -10l-6 -8q-5 -7 -10 -7
q-4 0 -7.5 2t-11.5 7l-104 68z" />
    <glyph glyph-name="wcircumflex" unicode="&#x175;" horiz-adv-x="638" 
d="M222 16q-2 -9 -6 -12.5t-15 -3.5h-37q-11 0 -15 3.5t-7 12.5l-130 427q-2 8 -2 10q0 11 16 11h39q11 0 15 -4t6 -13l98 -364l101 372q2 4 4.5 6.5t8.5 2.5h41q8 0 10 -2t4 -7l102 -372l97 364q3 9 6 13t14 4h41q15 0 15 -11q0 -2 -2 -10l-129 -427q-4 -9 -7.5 -12.5
t-14.5 -3.5h-38q-11 0 -14.5 3.5t-6.5 12.5l-97 330l-97 -330v0zM215 549q-8 -5 -11.5 -7t-7.5 -2q-5 0 -10 7l-6 8q-5 7 -5 10q0 6 11 15l112 104q10 9 21 9q9 0 20 -9l112 -104q11 -9 11 -15q0 -3 -5 -10l-6 -8q-5 -7 -10 -7q-4 0 -7.5 2t-11.5 7l-104 68z" />
    <glyph glyph-name="Ycircumflex" unicode="&#x176;" horiz-adv-x="502" 
d="M10 689q0 11 14 11h48q8 0 11 -4t7 -12l161 -317l162 319q4 6 7.5 10t10.5 4h47q14 0 14 -11q0 -5 -3 -11l-202 -381v-279q0 -9 -4 -13.5t-15 -4.5h-34q-19 0 -19 18v279l-202 381q-3 6 -3 11zM147 785q-8 -5 -11.5 -7t-7.5 -2q-5 0 -10 7l-6 8q-5 7 -5 10q0 6 11 15
l112 104q10 9 21 9q9 0 20 -9l112 -104q11 -9 11 -15q0 -3 -5 -10l-6 -8q-5 -7 -10 -7q-4 0 -7.5 2t-11.5 7l-104 68z" />
    <glyph glyph-name="ycircumflex" unicode="&#x177;" horiz-adv-x="414" 
d="M176 -168q-4 -9 -7 -12.5t-12 -3.5h-39q-14 0 -14 10q0 3 2 9l67 174l-166 434q-2 6 -2 9q0 12 15 12h40q10 0 14 -3.5t7 -13.5l128 -355l129 356q3 9 6 12.5t12 3.5h38q15 0 15 -12q0 -4 -2 -10l-231 -610v0zM103 549q-8 -5 -11.5 -7t-7.5 -2q-5 0 -10 7l-6 8
q-5 7 -5 10q0 6 11 15l112 104q10 9 21 9q9 0 20 -9l112 -104q11 -9 11 -15q0 -3 -5 -10l-6 -8q-5 -7 -10 -7q-4 0 -7.5 2t-11.5 7l-104 68z" />
    <glyph glyph-name="Ydieresis" unicode="&#x178;" horiz-adv-x="502" 
d="M10 689q0 11 14 11h48q8 0 11 -4t7 -12l161 -317l162 319q4 6 7.5 10t10.5 4h47q14 0 14 -11q0 -5 -3 -11l-202 -381v-279q0 -9 -4 -13.5t-15 -4.5h-34q-19 0 -19 18v279l-202 381q-3 6 -3 11zM360 829q0 -17 -12.5 -29.5t-29.5 -12.5q-20 0 -31.5 12.5t-11.5 29.5
q0 20 11.5 31t31.5 11q16 0 29 -12t13 -30zM227 829q0 -17 -12.5 -29.5t-29.5 -12.5q-20 0 -31.5 12.5t-11.5 29.5q0 20 11.5 31t31.5 11q16 0 29 -12t13 -30z" />
    <glyph glyph-name="Zacute" unicode="&#x179;" horiz-adv-x="533" 
d="M64 639q-9 0 -13.5 4t-4.5 16v22q0 19 18 19h429q15 0 15 -11q0 -5 -5 -13l-371 -615h351q9 0 13.5 -4t4.5 -15v-23q0 -19 -18 -19h-443q-8 0 -11.5 4t-3.5 8q0 5 5 12l369 615h-335v0zM255 777q-6 -4 -9.5 -6t-6.5 -2t-4.5 1.5l-4.5 4.5l-9 10q-4 5 -4 9t3 7.5t7 7.5
l136 121q9 9 19 9t17 -10l17 -22q6 -7 6 -15q0 -10 -14 -19z" />
    <glyph glyph-name="zacute" unicode="&#x17a;" horiz-adv-x="388" 
d="M343 464q14 0 14 -12q0 -5 -3 -9l-222 -383h207q19 0 19 -20v-21q0 -19 -19 -19h-296q-13 0 -13 9q0 4 4 10l222 385h-200q-18 0 -18 20v20q0 20 18 20h287v0zM173 541q-6 -4 -9.5 -6t-6.5 -2t-4.5 1.5l-4.5 4.5l-9 10q-4 5 -4 9t3 7.5t7 7.5l136 121q9 9 19 9t17 -10
l17 -22q6 -7 6 -15q0 -10 -14 -19z" />
    <glyph glyph-name="Zdotaccent" unicode="&#x17b;" horiz-adv-x="533" 
d="M64 639q-9 0 -13.5 4t-4.5 16v22q0 19 18 19h429q15 0 15 -11q0 -5 -5 -13l-371 -615h351q9 0 13.5 -4t4.5 -15v-23q0 -19 -18 -19h-443q-8 0 -11.5 4t-3.5 8q0 5 5 12l369 615h-335v0zM341 831q0 -23 -16 -38t-37 -15q-23 0 -38.5 15t-15.5 38q0 24 15.5 38t38.5 14
q20 0 36.5 -14.5t16.5 -37.5z" />
    <glyph glyph-name="zdotaccent" unicode="&#x17c;" horiz-adv-x="388" 
d="M343 464q14 0 14 -12q0 -5 -3 -9l-222 -383h207q19 0 19 -20v-21q0 -19 -19 -19h-296q-13 0 -13 9q0 4 4 10l222 385h-200q-18 0 -18 20v20q0 20 18 20h287v0zM257 595q0 -23 -16 -38t-37 -15q-23 0 -38.5 15t-15.5 38q0 24 15.5 38t38.5 14q20 0 36.5 -14.5t16.5 -37.5z
" />
    <glyph glyph-name="Zcaron" unicode="&#x17d;" horiz-adv-x="533" 
d="M64 639q-9 0 -13.5 4t-4.5 16v22q0 19 18 19h429q15 0 15 -11q0 -5 -5 -13l-371 -615h351q9 0 13.5 -4t4.5 -15v-23q0 -19 -18 -19h-443q-8 0 -11.5 4t-3.5 8q0 5 5 12l369 615h-335v0zM283 852l104 68q8 5 11.5 7t7.5 2q5 0 10 -7l6 -8q5 -7 5 -10q0 -6 -11 -15
l-112 -104q-11 -9 -20 -9q-11 0 -21 9l-112 104q-11 9 -11 15q0 3 5 10l6 8q5 7 10 7q4 0 7.5 -2t11.5 -7z" />
    <glyph glyph-name="zcaron" unicode="&#x17e;" horiz-adv-x="388" 
d="M343 464q14 0 14 -12q0 -5 -3 -9l-222 -383h207q19 0 19 -20v-21q0 -19 -19 -19h-296q-13 0 -13 9q0 4 4 10l222 385h-200q-18 0 -18 20v20q0 20 18 20h287v0zM202 616l104 68q8 5 11.5 7t7.5 2q5 0 10 -7l6 -8q5 -7 5 -10q0 -6 -11 -15l-112 -104q-11 -9 -20 -9
q-11 0 -21 9l-112 104q-11 9 -11 15q0 3 5 10l6 8q5 7 10 7q4 0 7.5 -2t11.5 -7z" />
    <glyph glyph-name="Acaron" unicode="&#x1cd;" horiz-adv-x="565" 
d="M401 266l-119 366l-118 -366h237zM553 18q2 -6 2 -8q0 -10 -14 -10h-40q-10 0 -13 3.5t-7 14.5l-61 187h-276l-60 -187q-3 -9 -6 -13.5t-14 -4.5h-39q-15 0 -15 10q0 2 2 8l214 664q3 10 6.5 14t12.5 4h75q9 0 12.5 -3.5t7.5 -14.5zM282 852l104 68q8 5 11.5 7t7.5 2
q5 0 10 -7l6 -8q5 -7 5 -10q0 -6 -11 -15l-112 -104q-11 -9 -20 -9q-11 0 -21 9l-112 104q-11 9 -11 15q0 3 5 10l6 8q5 7 10 7q4 0 7.5 -2t11.5 -7z" />
    <glyph glyph-name="acaron" unicode="&#x1ce;" horiz-adv-x="520" 
d="M500 50q8 0 11 -15q1 -6 2.5 -16t1.5 -12q0 -5 -11.5 -10.5t-40.5 -5.5q-20 0 -34 5.5t-23.5 14t-15 18t-8.5 18.5q-3 -3 -14 -12.5t-29.5 -19t-44 -17t-57.5 -7.5q-89 0 -140.5 56t-51.5 183q0 68 14.5 114.5t41.5 75t66.5 41t89.5 12.5q36 0 66 -5.5t53 -13t38.5 -15.5
t22.5 -12v-323q0 -26 8.5 -41t33.5 -15q7 0 12.5 1t8.5 1zM366 389q-15 7 -32 12q-15 5 -34 9t-42 4q-35 0 -61.5 -9t-44.5 -30.5t-27 -57t-9 -87.5q0 -95 33 -137.5t98 -42.5q27 0 48.5 7.5t36.5 17t23.5 19t10.5 12.5v283zM259 616l104 68q8 5 11.5 7t7.5 2q5 0 10 -7
l6 -8q5 -7 5 -10q0 -6 -11 -15l-112 -104q-11 -9 -20 -9q-11 0 -21 9l-112 104q-11 9 -11 15q0 3 5 10l6 8q5 7 10 7q4 0 7.5 -2t11.5 -7z" />
    <glyph glyph-name="AEacute" unicode="&#x1fc;" horiz-adv-x="860" 
d="M424 636l-201 -370h201v370zM791 700q11 0 14.5 -5t3.5 -14v-23q0 -10 -3.5 -14.5t-14.5 -4.5h-296v-250h277q11 0 14.5 -4.5t3.5 -14.5v-23q0 -9 -3.5 -14t-14.5 -5h-277v-267h298q11 0 14 -4.5t3 -14.5v-23q0 -8 -3 -13.5t-14 -5.5h-342q-27 0 -27 28v177h-234
l-100 -184q-5 -10 -9.5 -15.5t-14.5 -5.5h-39q-17 0 -17 12q0 6 5 16l348 644q7 14 13.5 21t20.5 7h394zM514 777q-6 -4 -9.5 -6t-6.5 -2t-4.5 1.5l-4.5 4.5l-9 10q-4 5 -4 9t3 7.5t7 7.5l136 121q9 9 19 9t17 -10l17 -22q6 -7 6 -15q0 -10 -14 -19z" />
    <glyph glyph-name="aeacute" unicode="&#x1fd;" horiz-adv-x="795" 
d="M590 -9q-76 0 -120 19.5t-68 55.5q-8 -10 -21 -23t-33 -24.5t-47.5 -19.5t-63.5 -8q-89 0 -140.5 56t-51.5 183q0 68 14.5 114.5t41.5 75t66.5 41t89.5 12.5q61 0 103 -16.5t68 -33.5q23 23 55 36.5t82 13.5q96 0 140.5 -56t44.5 -169q0 -26 -6.5 -35t-26.5 -9h-279
q0 -78 34.5 -116t117.5 -38q25 0 46.5 3.5t37.5 7t26 7t12 3.5q4 0 8 -5t7 -12t4.5 -14t1.5 -11q0 -8 -13.5 -14.5t-34 -12t-46 -8.5t-49.5 -3zM366 383q-16 8 -34 15q-15 6 -34.5 11t-39.5 5q-35 0 -61.5 -9t-44.5 -30.5t-27 -57t-9 -87.5q0 -95 33 -137.5t98 -42.5
q27 0 48.5 8t36.5 18t23.5 19.5t10.5 12.5v275zM681 272q0 61 -27 101.5t-89 40.5q-68 0 -97.5 -42t-29.5 -112h243v12zM425 541q-6 -4 -9.5 -6t-6.5 -2t-4.5 1.5l-4.5 4.5l-9 10q-4 5 -4 9t3 7.5t7 7.5l136 121q9 9 19 9t17 -10l17 -22q6 -7 6 -15q0 -10 -14 -19z" />
    <glyph glyph-name="Oslashacute" unicode="&#x1fe;" horiz-adv-x="628" 
d="M305 777q-6 -4 -9.5 -6t-6.5 -2t-4.5 1.5l-4.5 4.5l-9 10q-4 5 -4 9t3 7.5t7 7.5l136 121q9 9 19 9t17 -10l17 -22q6 -7 6 -15q0 -10 -14 -19zM578 350q0 -98 -14 -166t-45.5 -111t-82 -62.5t-122.5 -19.5q-66 0 -115 17l-10 -22q-7 -17 -12 -20.5t-17 -3.5h-27
q-15 0 -15 14q0 2 2 7.5t3 7.5l21 47q-34 24 -53 64.5t-28 85t-11 88t-2 74.5q0 88 11.5 155t41.5 112.5t81 68.5t130 23q37 0 67 -5t56 -16l12 28q6 14 11.5 18t13.5 4h29q17 0 17 -14q0 -2 -1.5 -7t-2.5 -7l-24 -54q46 -44 66 -116t20 -190zM314 647q-56 0 -92.5 -17
t-58 -53t-30 -92.5t-8.5 -134.5q0 -85 9.5 -146t40.5 -96q27 59 54 119t56 123.5t60 132t65 145.5q-19 9 -42.5 14t-53.5 5zM503 350q0 81 -9 139t-35 95l-232 -516q34 -15 87 -15q58 0 94.5 18t57.5 54.5t29 92.5t8 132z" />
    <glyph glyph-name="oslashacute" unicode="&#x1ff;" horiz-adv-x="506" 
d="M226 541q-6 -4 -9.5 -6t-6.5 -2t-4.5 1.5l-4.5 4.5l-9 10q-4 5 -4 9t3 7.5t7 7.5l136 121q9 9 19 9t17 -10l17 -22q6 -7 6 -15q0 -10 -14 -19zM128 21q-42 26 -62.5 77t-20.5 134q0 130 52 185.5t156 55.5q19 0 36.5 -1.5t33.5 -5.5l9 20q5 12 9.5 18.5t14.5 6.5h31
q17 0 17 -14q0 -6 -8.5 -24.5t-13.5 -31.5q40 -27 59.5 -78t19.5 -131q0 -65 -13 -111t-39 -75t-65 -42t-91 -13q-39 0 -66 7q-11 -24 -16 -34t-16 -10h-33q-16 0 -16 13q0 5 4 15zM298 409q-6 1 -13 2q-6 1 -14.5 2t-17.5 1q-42 0 -68.5 -12t-42 -35t-21 -57t-5.5 -78
q0 -60 10.5 -95.5t28.5 -52.5zM389 232q0 58 -9 91t-26 55l-142 -324q5 -1 11 -2q5 -1 12.5 -1.5t17.5 -0.5q35 0 60.5 8.5t42.5 29.5t25 56t8 88z" />
    <glyph glyph-name="Scommaaccent" unicode="&#x218;" horiz-adv-x="476" 
d="M62 92q4 0 16 -6t30.5 -13.5t42 -13.5t52.5 -6q46 0 77.5 10.5t50.5 28t27 39t8 43.5q0 19 -7 37t-25.5 38t-50.5 43.5t-82 52.5q-75 45 -116.5 91t-41.5 108q0 75 52 120t158 45q36 0 64.5 -5.5t48 -13t30 -14.5t10.5 -10q0 -2 -3 -9.5t-7.5 -15.5t-9.5 -14.5t-8 -6.5
q-4 0 -14 4t-26 9.5t-37.5 9.5t-49.5 4q-38 0 -64 -8t-41.5 -21.5t-22 -32.5t-6.5 -41q0 -39 34 -74.5t106 -80.5q38 -23 71.5 -46t58.5 -47.5t39.5 -53.5t14.5 -64q0 -45 -17 -79.5t-47.5 -58.5t-74 -36.5t-97.5 -12.5q-39 0 -70.5 7.5t-53.5 16.5t-34 18t-12 12t3 10.5
t7 15.5t9 14.5t8 6.5zM172 -95q0 20 14 33t34 13q21 0 34 -13.5t13 -32.5q0 -17 -5.5 -35.5t-15 -37t-22.5 -34.5t-28 -28q-10 -9 -18 -12.5t-12 -3.5q-5 0 -9.5 5.5t-6.5 10.5q11 7 20.5 18t16.5 23.5t11 24.5t4 21q0 2 -4.5 5.5t-10.5 8.5t-10.5 13.5t-4.5 20.5z" />
    <glyph glyph-name="scommaaccent" unicode="&#x219;" horiz-adv-x="351" 
d="M150 -9q-19 0 -39 3t-37 7.5t-28 11t-11 13.5q0 3 1.5 10t4.5 14t6.5 12t6.5 5q10 0 33 -9.5t61 -9.5q43 0 71 16.5t28 54.5q0 16 -5.5 28t-18 23.5t-34 23.5t-52.5 29q-17 9 -34 20t-31 26t-23 35t-9 47q0 51 36 86.5t117 35.5q19 0 39 -2.5t36.5 -7t27 -9.5t10.5 -11
q0 -2 -2 -8.5t-5 -13.5t-7 -13t-8 -6q-9 0 -32.5 7t-57.5 7q-24 0 -40.5 -5.5t-26 -14.5t-13.5 -20t-4 -22q0 -16 5 -28t17 -23.5t32 -23t49 -27.5q48 -26 75.5 -55t27.5 -72q0 -24 -7 -48t-26 -43t-51 -31t-82 -12zM139 -95q0 20 14 33t34 13q21 0 34 -13.5t13 -32.5
q0 -17 -5.5 -35.5t-15 -37t-22.5 -34.5t-28 -28q-10 -9 -18 -12.5t-12 -3.5q-5 0 -9.5 5.5t-6.5 10.5q11 7 20.5 18t16.5 23.5t11 24.5t4 21q0 2 -4.5 5.5t-10.5 8.5t-10.5 13.5t-4.5 20.5z" />
    <glyph glyph-name="dotlessj" unicode="&#x237;" horiz-adv-x="254" 
d="M51 -159q45 0 59 28.5t14 94.5v440h-94q-19 0 -19 19v21q0 20 19 20h146q19 0 19 -18v-484q0 -38 -4.5 -70.5t-19 -57t-41 -38.5t-69.5 -14q-30 0 -40.5 4.5t-10.5 15.5v12q0 4 1 11q1 8 3.5 12.5t11.5 4.5q5 0 11 -0.5t14 -0.5z" />
    <glyph glyph-name="circumflex" unicode="&#x2c6;" horiz-adv-x="387" 
d="M90 549q-8 -5 -11.5 -7t-7.5 -2q-5 0 -10 7l-6 8q-5 7 -5 10q0 6 11 15l112 104q10 9 21 9q9 0 20 -9l112 -104q11 -9 11 -15q0 -3 -5 -10l-6 -8q-5 -7 -10 -7q-4 0 -7.5 2t-11.5 7l-104 68z" />
    <glyph glyph-name="caron" unicode="&#x2c7;" horiz-adv-x="387" 
d="M193 616l104 68q8 5 11.5 7t7.5 2q5 0 10 -7l6 -8q5 -7 5 -10q0 -6 -11 -15l-112 -104q-11 -9 -20 -9q-11 0 -21 9l-112 104q-11 9 -11 15q0 3 5 10l6 8q5 7 10 7q4 0 7.5 -2t11.5 -7z" />
    <glyph glyph-name="breve" unicode="&#x2d8;" horiz-adv-x="310" 
d="M260 685q0 -23 -9 -40.5t-24 -29.5t-33.5 -18t-37.5 -6q-44 0 -75 24.5t-31 69.5h39q7 -20 21 -33t45 -13q29 0 44.5 13t22.5 33h38z" />
    <glyph glyph-name="dotaccent" unicode="&#x2d9;" horiz-adv-x="207" 
d="M157 595q0 -23 -16 -38t-37 -15q-23 0 -38.5 15t-15.5 38q0 24 15.5 38t38.5 14q20 0 36.5 -14.5t16.5 -37.5z" />
    <glyph glyph-name="ring" unicode="&#x2da;" horiz-adv-x="272" 
d="M222 624q0 -35 -25.5 -60t-60.5 -25q-38 0 -62 25t-24 60q0 38 24 61.5t62 23.5q16 0 31.5 -6.5t27.5 -18t19.5 -27t7.5 -33.5zM182 624q0 19 -14.5 33.5t-32.5 14.5q-20 0 -32.5 -14t-12.5 -34q0 -19 12.5 -33t32.5 -14q19 0 33 14t14 33z" />
    <glyph glyph-name="ogonek" unicode="&#x2db;" horiz-adv-x="258" 
d="M208 -158q0 -4 -6.5 -8t-17 -7t-23 -5t-24.5 -2q-45 0 -66 22t-21 52q0 19 7 34.5t18.5 29t25 24t26.5 18.5h42q-29 -26 -44.5 -50.5t-15.5 -49.5q0 -20 14.5 -32t35.5 -12q16 0 25 3t13 3q2 0 6.5 -4t4.5 -16z" />
    <glyph glyph-name="tilde" unicode="&#x2dc;" horiz-adv-x="429" 
d="M139 576q-21 0 -37 -7t-31 -7q-9 0 -13 8l-4 12q-2 5 -3 8.5t-1 4.5q0 5 9.5 12t24 13.5t32.5 11t35 4.5q23 0 40 -4.5t32.5 -10t31.5 -10t37 -4.5q24 0 37.5 7t28.5 7q8 0 13 -8q2 -6 4 -11t3 -9t1 -5q0 -5 -9 -12t-23.5 -13t-32 -10.5t-33.5 -4.5q-24 0 -41.5 4.5
t-33 9.5t-31 9.5t-36.5 4.5z" />
    <glyph glyph-name="hungarumlaut" unicode="&#x2dd;" horiz-adv-x="406" 
d="M94 525q-5 -5 -8 -9t-8 -4q-7 0 -11 3l-11 6q-6 4 -6 11q0 4 5 14l81 162q4 7 9 12t13 5q6 0 14 -5l24 -15q5 -3 8.5 -7t3.5 -11q0 -8 -7 -18zM242 525q-5 -5 -8 -9t-8 -4q-7 0 -11 3l-11 6q-6 4 -6 11q0 4 5 14l81 162q4 7 9 12t13 5q4 0 14 -5l24 -15q5 -2 8.5 -6.5
t3.5 -11.5q0 -8 -7 -18z" />
    <glyph glyph-name="Delta" unicode="&#x394;" horiz-adv-x="3511" 
d="M1230 408q20 18 46 32q23 12 56 22.5t75 10.5q50 0 65 -6t15 -16l-9 -58q-2 -13 -7.5 -16.5t-13.5 -3.5q-2 0 -11.5 0.5t-14.5 0.5q-22 0 -38 -4t-27 -9q-13 -5 -22 -12v-321q0 -28 -29 -28h-55q-30 0 -30 28v380zM288 28q0 -28 -25 -28h-60q-28 0 -28 28v343h-47
q-28 0 -28 29v37q0 12 6.5 19.5t21.5 7.5h47q0 73 8 114.5t27 67.5q26 35 65.5 49t78.5 14q49 0 73 -5t24 -22l-4 -47q-1 -12 -6 -15.5t-13 -3.5q-3 0 -9 0.5t-13.5 0.5t-15 0.5t-12.5 0.5q-48 0 -69 -27t-21 -88v-39h111q28 0 28 -27v-40q0 -26 -28 -26h-111v-343zM930 408
q20 18 46 32q23 12 56 22.5t75 10.5q50 0 65 -6t15 -16l-9 -58q-2 -13 -7.5 -16.5t-13.5 -3.5q-2 0 -11.5 0.5t-14.5 0.5q-22 0 -38 -4t-27 -9q-13 -5 -22 -12v-321q0 -28 -28 -28h-56q-30 0 -30 28v380zM738 279q0 102 -86 102q-44 0 -69.5 -24.5t-25.5 -89.5h181v12z
M557 186q0 -25 5 -44.5t19 -33t38.5 -20.5t62.5 -7q29 0 49.5 3t34.5 7t23 7t15 3q12 0 16 -11l12 -38l2 -6t1 -5q0 -12 -15.5 -21t-39 -15.5t-50.5 -10t-51 -3.5q-68 0 -114 15t-74 45t-40 75t-12 106q0 62 15.5 107.5t43.5 75t66.5 44t85.5 14.5q105 0 153 -58t48 -165
q0 -35 -8.5 -49.5t-31.5 -14.5h-254zM2960 365q-10 4 -23 8q-11 3 -26.5 5.5t-35.5 2.5q-34 0 -53.5 -9.5t-30 -28.5t-13.5 -48t-3 -68q0 -31 3 -57.5t12.5 -46t27.5 -31t47 -11.5q32 0 50.5 7.5t28.5 17.5q11 11 16 25v234zM3072 123q0 -21 8 -32t28 -11q5 0 10 0.5t8 0.5
q18 0 21 -18l5 -35t1 -9q0 -9 -13.5 -18.5t-56.5 -9.5q-29 0 -46.5 9.5t-27.5 21.5q-11 14 -16 32q-11 -18 -29 -32q-16 -12 -42 -21.5t-67 -9.5q-105 0 -151.5 60t-46.5 176q0 125 53 185.5t163 60.5q49 0 85.5 -8t62.5 -17q29 -11 51 -25v-300zM3385 81q26 0 26 -62
q0 -15 -19.5 -21.5t-54.5 -6.5q-48 0 -76.5 14.5t-43.5 39t-19.5 58t-4.5 72.5v482q0 25 23 32q25 7 39.5 11.5t22 6l10 2t4.5 0.5q8 0 10.5 -4.5t2.5 -17.5v-512q0 -46 9.5 -70.5t47.5 -24.5q14 0 17 0.5t6 0.5zM1619 232q0 -44 5 -73t17 -46.5t31.5 -24.5t48.5 -7t48.5 7
t31 24.5t16.5 46.5t5 73q0 43 -5 71.5t-16.5 46t-31 24.5t-48.5 7t-48.5 -7t-31.5 -24.5t-17 -46t-5 -71.5zM1502 232q0 66 14 111.5t42 74.5t68.5 42t94.5 13q108 0 163 -55t55 -186q0 -66 -13.5 -111.5t-40.5 -74.5t-68 -42t-96 -13q-109 0 -164 55t-55 186zM2567 28
q0 -28 -28 -28h-56q-19 0 -24.5 12t-5.5 29v394q0 29 30 29h56q17 0 22.5 -12.5t5.5 -29.5v-394zM2578 595q0 -28 -20 -47.5t-47 -19.5q-31 0 -49.5 19.5t-18.5 47.5q0 31 18.5 49t49.5 18q26 0 46.5 -19t20.5 -48zM2288 446q4 12 13.5 15t15.5 3h65q8 0 13.5 -4.5
t5.5 -12.5q0 -1 -0.5 -4t-1.5 -8l-162 -412q-6 -16 -12.5 -19.5t-21.5 -3.5h-45q-12 0 -20.5 3.5t-14.5 19.5l-161 412q-1 5 -1 7v4q0 18 21 18h69q27 0 35 -23l99 -297z" />
    <glyph glyph-name="Delta" unicode="&#x2206;" horiz-adv-x="3511" 
d="M1230 408q20 18 46 32q23 12 56 22.5t75 10.5q50 0 65 -6t15 -16l-9 -58q-2 -13 -7.5 -16.5t-13.5 -3.5q-2 0 -11.5 0.5t-14.5 0.5q-22 0 -38 -4t-27 -9q-13 -5 -22 -12v-321q0 -28 -29 -28h-55q-30 0 -30 28v380zM288 28q0 -28 -25 -28h-60q-28 0 -28 28v343h-47
q-28 0 -28 29v37q0 12 6.5 19.5t21.5 7.5h47q0 73 8 114.5t27 67.5q26 35 65.5 49t78.5 14q49 0 73 -5t24 -22l-4 -47q-1 -12 -6 -15.5t-13 -3.5q-3 0 -9 0.5t-13.5 0.5t-15 0.5t-12.5 0.5q-48 0 -69 -27t-21 -88v-39h111q28 0 28 -27v-40q0 -26 -28 -26h-111v-343zM930 408
q20 18 46 32q23 12 56 22.5t75 10.5q50 0 65 -6t15 -16l-9 -58q-2 -13 -7.5 -16.5t-13.5 -3.5q-2 0 -11.5 0.5t-14.5 0.5q-22 0 -38 -4t-27 -9q-13 -5 -22 -12v-321q0 -28 -28 -28h-56q-30 0 -30 28v380zM738 279q0 102 -86 102q-44 0 -69.5 -24.5t-25.5 -89.5h181v12z
M557 186q0 -25 5 -44.5t19 -33t38.5 -20.5t62.5 -7q29 0 49.5 3t34.5 7t23 7t15 3q12 0 16 -11l12 -38l2 -6t1 -5q0 -12 -15.5 -21t-39 -15.5t-50.5 -10t-51 -3.5q-68 0 -114 15t-74 45t-40 75t-12 106q0 62 15.5 107.5t43.5 75t66.5 44t85.5 14.5q105 0 153 -58t48 -165
q0 -35 -8.5 -49.5t-31.5 -14.5h-254zM2960 365q-10 4 -23 8q-11 3 -26.5 5.5t-35.5 2.5q-34 0 -53.5 -9.5t-30 -28.5t-13.5 -48t-3 -68q0 -31 3 -57.5t12.5 -46t27.5 -31t47 -11.5q32 0 50.5 7.5t28.5 17.5q11 11 16 25v234zM3072 123q0 -21 8 -32t28 -11q5 0 10 0.5t8 0.5
q18 0 21 -18l5 -35t1 -9q0 -9 -13.5 -18.5t-56.5 -9.5q-29 0 -46.5 9.5t-27.5 21.5q-11 14 -16 32q-11 -18 -29 -32q-16 -12 -42 -21.5t-67 -9.5q-105 0 -151.5 60t-46.5 176q0 125 53 185.5t163 60.5q49 0 85.5 -8t62.5 -17q29 -11 51 -25v-300zM3385 81q26 0 26 -62
q0 -15 -19.5 -21.5t-54.5 -6.5q-48 0 -76.5 14.5t-43.5 39t-19.5 58t-4.5 72.5v482q0 25 23 32q25 7 39.5 11.5t22 6l10 2t4.5 0.5q8 0 10.5 -4.5t2.5 -17.5v-512q0 -46 9.5 -70.5t47.5 -24.5q14 0 17 0.5t6 0.5zM1619 232q0 -44 5 -73t17 -46.5t31.5 -24.5t48.5 -7t48.5 7
t31 24.5t16.5 46.5t5 73q0 43 -5 71.5t-16.5 46t-31 24.5t-48.5 7t-48.5 -7t-31.5 -24.5t-17 -46t-5 -71.5zM1502 232q0 66 14 111.5t42 74.5t68.5 42t94.5 13q108 0 163 -55t55 -186q0 -66 -13.5 -111.5t-40.5 -74.5t-68 -42t-96 -13q-109 0 -164 55t-55 186zM2567 28
q0 -28 -28 -28h-56q-19 0 -24.5 12t-5.5 29v394q0 29 30 29h56q17 0 22.5 -12.5t5.5 -29.5v-394zM2578 595q0 -28 -20 -47.5t-47 -19.5q-31 0 -49.5 19.5t-18.5 47.5q0 31 18.5 49t49.5 18q26 0 46.5 -19t20.5 -48zM2288 446q4 12 13.5 15t15.5 3h65q8 0 13.5 -4.5
t5.5 -12.5q0 -1 -0.5 -4t-1.5 -8l-162 -412q-6 -16 -12.5 -19.5t-21.5 -3.5h-45q-12 0 -20.5 3.5t-14.5 19.5l-161 412q-1 5 -1 7v4q0 18 21 18h69q27 0 35 -23l99 -297z" />
    <glyph glyph-name="pi" unicode="&#x3c0;" horiz-adv-x="3511" 
d="M1230 408q20 18 46 32q23 12 56 22.5t75 10.5q50 0 65 -6t15 -16l-9 -58q-2 -13 -7.5 -16.5t-13.5 -3.5q-2 0 -11.5 0.5t-14.5 0.5q-22 0 -38 -4t-27 -9q-13 -5 -22 -12v-321q0 -28 -29 -28h-55q-30 0 -30 28v380zM288 28q0 -28 -25 -28h-60q-28 0 -28 28v343h-47
q-28 0 -28 29v37q0 12 6.5 19.5t21.5 7.5h47q0 73 8 114.5t27 67.5q26 35 65.5 49t78.5 14q49 0 73 -5t24 -22l-4 -47q-1 -12 -6 -15.5t-13 -3.5q-3 0 -9 0.5t-13.5 0.5t-15 0.5t-12.5 0.5q-48 0 -69 -27t-21 -88v-39h111q28 0 28 -27v-40q0 -26 -28 -26h-111v-343zM930 408
q20 18 46 32q23 12 56 22.5t75 10.5q50 0 65 -6t15 -16l-9 -58q-2 -13 -7.5 -16.5t-13.5 -3.5q-2 0 -11.5 0.5t-14.5 0.5q-22 0 -38 -4t-27 -9q-13 -5 -22 -12v-321q0 -28 -28 -28h-56q-30 0 -30 28v380zM738 279q0 102 -86 102q-44 0 -69.5 -24.5t-25.5 -89.5h181v12z
M557 186q0 -25 5 -44.5t19 -33t38.5 -20.5t62.5 -7q29 0 49.5 3t34.5 7t23 7t15 3q12 0 16 -11l12 -38l2 -6t1 -5q0 -12 -15.5 -21t-39 -15.5t-50.5 -10t-51 -3.5q-68 0 -114 15t-74 45t-40 75t-12 106q0 62 15.5 107.5t43.5 75t66.5 44t85.5 14.5q105 0 153 -58t48 -165
q0 -35 -8.5 -49.5t-31.5 -14.5h-254zM2960 365q-10 4 -23 8q-11 3 -26.5 5.5t-35.5 2.5q-34 0 -53.5 -9.5t-30 -28.5t-13.5 -48t-3 -68q0 -31 3 -57.5t12.5 -46t27.5 -31t47 -11.5q32 0 50.5 7.5t28.5 17.5q11 11 16 25v234zM3072 123q0 -21 8 -32t28 -11q5 0 10 0.5t8 0.5
q18 0 21 -18l5 -35t1 -9q0 -9 -13.5 -18.5t-56.5 -9.5q-29 0 -46.5 9.5t-27.5 21.5q-11 14 -16 32q-11 -18 -29 -32q-16 -12 -42 -21.5t-67 -9.5q-105 0 -151.5 60t-46.5 176q0 125 53 185.5t163 60.5q49 0 85.5 -8t62.5 -17q29 -11 51 -25v-300zM3385 81q26 0 26 -62
q0 -15 -19.5 -21.5t-54.5 -6.5q-48 0 -76.5 14.5t-43.5 39t-19.5 58t-4.5 72.5v482q0 25 23 32q25 7 39.5 11.5t22 6l10 2t4.5 0.5q8 0 10.5 -4.5t2.5 -17.5v-512q0 -46 9.5 -70.5t47.5 -24.5q14 0 17 0.5t6 0.5zM1619 232q0 -44 5 -73t17 -46.5t31.5 -24.5t48.5 -7t48.5 7
t31 24.5t16.5 46.5t5 73q0 43 -5 71.5t-16.5 46t-31 24.5t-48.5 7t-48.5 -7t-31.5 -24.5t-17 -46t-5 -71.5zM1502 232q0 66 14 111.5t42 74.5t68.5 42t94.5 13q108 0 163 -55t55 -186q0 -66 -13.5 -111.5t-40.5 -74.5t-68 -42t-96 -13q-109 0 -164 55t-55 186zM2567 28
q0 -28 -28 -28h-56q-19 0 -24.5 12t-5.5 29v394q0 29 30 29h56q17 0 22.5 -12.5t5.5 -29.5v-394zM2578 595q0 -28 -20 -47.5t-47 -19.5q-31 0 -49.5 19.5t-18.5 47.5q0 31 18.5 49t49.5 18q26 0 46.5 -19t20.5 -48zM2288 446q4 12 13.5 15t15.5 3h65q8 0 13.5 -4.5
t5.5 -12.5q0 -1 -0.5 -4t-1.5 -8l-162 -412q-6 -16 -12.5 -19.5t-21.5 -3.5h-45q-12 0 -20.5 3.5t-14.5 19.5l-161 412q-1 5 -1 7v4q0 18 21 18h69q27 0 35 -23l99 -297z" />
    <glyph glyph-name="Wgrave" unicode="&#x1e80;" horiz-adv-x="845" 
d="M606 71q28 114 49.5 201t37 151.5t26.5 109t18 73.5l19 77q2 8 5 12.5t12 4.5h43q14 0 14 -8q0 -2 -2 -10l-166 -664q-2 -9 -5.5 -13.5t-13.5 -4.5h-74q-10 0 -14 4.5t-6 13.5l-127 537l-126 -537q-3 -10 -6.5 -14t-13.5 -4h-73q-11 0 -14.5 4.5t-5.5 13.5l-166 664
l-2 10q0 8 13 8h45q10 0 12 -5t4 -13l150 -611l146 611q2 9 5 13.5t12 4.5h42q8 0 11 -4.5t5 -13.5l146 -611v0zM292 873q-14 9 -14 19q0 8 6 15l17 22q7 10 17 10t19 -9l136 -121q4 -4 7 -7.5t3 -7.5t-4 -9l-8 -10l-4.5 -4.5t-4.5 -1.5q-4 0 -17 8z" />
    <glyph glyph-name="wgrave" unicode="&#x1e81;" horiz-adv-x="638" 
d="M222 16q-2 -9 -6 -12.5t-15 -3.5h-37q-11 0 -15 3.5t-7 12.5l-130 427q-2 8 -2 10q0 11 16 11h39q11 0 15 -4t6 -13l98 -364l101 372q2 4 4.5 6.5t8.5 2.5h41q8 0 10 -2t4 -7l102 -372l97 364q3 9 6 13t14 4h41q15 0 15 -11q0 -2 -2 -10l-129 -427q-4 -9 -7.5 -12.5
t-14.5 -3.5h-38q-11 0 -14.5 3.5t-6.5 12.5l-97 330l-97 -330v0zM194 637q-14 9 -14 19q0 8 6 15l17 22q7 10 17 10t19 -9l136 -121q4 -4 7 -7.5t3 -7.5t-4 -9l-8 -10l-4.5 -4.5t-4.5 -1.5q-4 0 -17 8z" />
    <glyph glyph-name="Wacute" unicode="&#x1e82;" horiz-adv-x="845" 
d="M606 71q28 114 49.5 201t37 151.5t26.5 109t18 73.5l19 77q2 8 5 12.5t12 4.5h43q14 0 14 -8q0 -2 -2 -10l-166 -664q-2 -9 -5.5 -13.5t-13.5 -4.5h-74q-10 0 -14 4.5t-6 13.5l-127 537l-126 -537q-3 -10 -6.5 -14t-13.5 -4h-73q-11 0 -14.5 4.5t-5.5 13.5l-166 664
l-2 10q0 8 13 8h45q10 0 12 -5t4 -13l150 -611l146 611q2 9 5 13.5t12 4.5h42q8 0 11 -4.5t5 -13.5l146 -611v0zM404 777q-6 -4 -9.5 -6t-6.5 -2t-4.5 1.5l-4.5 4.5l-9 10q-4 5 -4 9t3 7.5t7 7.5l136 121q9 9 19 9t17 -10l17 -22q6 -7 6 -15q0 -10 -14 -19z" />
    <glyph glyph-name="wacute" unicode="&#x1e83;" horiz-adv-x="638" 
d="M222 16q-2 -9 -6 -12.5t-15 -3.5h-37q-11 0 -15 3.5t-7 12.5l-130 427q-2 8 -2 10q0 11 16 11h39q11 0 15 -4t6 -13l98 -364l101 372q2 4 4.5 6.5t8.5 2.5h41q8 0 10 -2t4 -7l102 -372l97 364q3 9 6 13t14 4h41q15 0 15 -11q0 -2 -2 -10l-129 -427q-4 -9 -7.5 -12.5
t-14.5 -3.5h-38q-11 0 -14.5 3.5t-6.5 12.5l-97 330l-97 -330v0zM292 541q-6 -4 -9.5 -6t-6.5 -2t-4.5 1.5l-4.5 4.5l-9 10q-4 5 -4 9t3 7.5t7 7.5l136 121q9 9 19 9t17 -10l17 -22q6 -7 6 -15q0 -10 -14 -19z" />
    <glyph glyph-name="Wdieresis" unicode="&#x1e84;" horiz-adv-x="845" 
d="M606 71q28 114 49.5 201t37 151.5t26.5 109t18 73.5l19 77q2 8 5 12.5t12 4.5h43q14 0 14 -8q0 -2 -2 -10l-166 -664q-2 -9 -5.5 -13.5t-13.5 -4.5h-74q-10 0 -14 4.5t-6 13.5l-127 537l-126 -537q-3 -10 -6.5 -14t-13.5 -4h-73q-11 0 -14.5 4.5t-5.5 13.5l-166 664
l-2 10q0 8 13 8h45q10 0 12 -5t4 -13l150 -611l146 611q2 9 5 13.5t12 4.5h42q8 0 11 -4.5t5 -13.5l146 -611v0zM531 829q0 -17 -12.5 -29.5t-29.5 -12.5q-20 0 -31.5 12.5t-11.5 29.5q0 20 11.5 31t31.5 11q16 0 29 -12t13 -30zM398 829q0 -17 -12.5 -29.5t-29.5 -12.5
q-20 0 -31.5 12.5t-11.5 29.5q0 20 11.5 31t31.5 11q16 0 29 -12t13 -30z" />
    <glyph glyph-name="wdieresis" unicode="&#x1e85;" horiz-adv-x="638" 
d="M222 16q-2 -9 -6 -12.5t-15 -3.5h-37q-11 0 -15 3.5t-7 12.5l-130 427q-2 8 -2 10q0 11 16 11h39q11 0 15 -4t6 -13l98 -364l101 372q2 4 4.5 6.5t8.5 2.5h41q8 0 10 -2t4 -7l102 -372l97 364q3 9 6 13t14 4h41q15 0 15 -11q0 -2 -2 -10l-129 -427q-4 -9 -7.5 -12.5
t-14.5 -3.5h-38q-11 0 -14.5 3.5t-6.5 12.5l-97 330l-97 -330v0zM428 593q0 -17 -12.5 -29.5t-29.5 -12.5q-20 0 -31.5 12.5t-11.5 29.5q0 20 11.5 31t31.5 11q16 0 29 -12t13 -30zM295 593q0 -17 -12.5 -29.5t-29.5 -12.5q-20 0 -31.5 12.5t-11.5 29.5q0 20 11.5 31
t31.5 11q16 0 29 -12t13 -30z" />
    <glyph glyph-name="Ygrave" unicode="&#x1ef2;" horiz-adv-x="502" 
d="M10 689q0 11 14 11h48q8 0 11 -4t7 -12l161 -317l162 319q4 6 7.5 10t10.5 4h47q14 0 14 -11q0 -5 -3 -11l-202 -381v-279q0 -9 -4 -13.5t-15 -4.5h-34q-19 0 -19 18v279l-202 381q-3 6 -3 11zM112 873q-14 9 -14 19q0 8 6 15l17 22q7 10 17 10t19 -9l136 -121
q4 -4 7 -7.5t3 -7.5t-4 -9l-8 -10l-4.5 -4.5t-4.5 -1.5q-4 0 -17 8z" />
    <glyph glyph-name="ygrave" unicode="&#x1ef3;" horiz-adv-x="414" 
d="M176 -168q-4 -9 -7 -12.5t-12 -3.5h-39q-14 0 -14 10q0 3 2 9l67 174l-166 434q-2 6 -2 9q0 12 15 12h40q10 0 14 -3.5t7 -13.5l128 -355l129 356q3 9 6 12.5t12 3.5h38q15 0 15 -12q0 -4 -2 -10l-231 -610v0zM72 637q-14 9 -14 19q0 8 6 15l17 22q7 10 17 10t19 -9
l136 -121q4 -4 7 -7.5t3 -7.5t-4 -9l-8 -10l-4.5 -4.5t-4.5 -1.5q-4 0 -17 8z" />
    <glyph glyph-name="endash" unicode="&#x2013;" horiz-adv-x="540" 
d="M452 307q11 0 14.5 -3.5t3.5 -14.5v-22q0 -11 -3.5 -14.5t-14.5 -3.5h-364q-11 0 -14.5 3.5t-3.5 14.5v22q0 11 3.5 14.5t14.5 3.5h364z" />
    <glyph glyph-name="emdash" unicode="&#x2014;" horiz-adv-x="730" 
d="M642 307q11 0 14.5 -3.5t3.5 -14.5v-22q0 -11 -3.5 -14.5t-14.5 -3.5h-554q-11 0 -14.5 3.5t-3.5 14.5v22q0 11 3.5 14.5t14.5 3.5h554z" />
    <glyph glyph-name="quoteleft" unicode="&#x2018;" horiz-adv-x="257" 
d="M184 521q0 -25 -18 -42t-44 -17t-44 18t-18 47q0 39 16 72.5t36.5 57.5t38.5 38t23 14q6 0 13.5 -6.5t9.5 -12.5q-8 -5 -17 -15.5t-17 -24t-13.5 -29.5t-5.5 -33q0 -3 6 -8t13.5 -12.5t14 -19t6.5 -27.5z" />
    <glyph glyph-name="quoteright" unicode="&#x2019;" horiz-adv-x="257" 
d="M74 650q0 25 18 42t43 17q26 0 44 -18t18 -47q0 -39 -16 -72.5t-36.5 -57.5t-39 -38t-22.5 -14q-6 0 -13.5 6.5t-9.5 12.5q8 5 17.5 15.5t17.5 24.5t13.5 30t5.5 33q0 3 -6.5 7.5t-14 12t-13.5 19t-6 27.5z" />
    <glyph glyph-name="quotesinglbase" unicode="&#x201a;" horiz-adv-x="241" 
d="M58 58q0 26 18 44t44 18t43.5 -18t17.5 -44t-7 -51.5t-19.5 -48t-29 -41.5t-35.5 -34q-11 -8 -21 -14.5t-15 -6.5q-8 0 -15 8.5t-9 14.5q14 9 26 22.5t21 28.5t14.5 30t5.5 27q0 3 -6 7.5t-13.5 12t-13.5 18.5t-6 27z" />
    <glyph glyph-name="quotedblleft" unicode="&#x201c;" horiz-adv-x="424" 
d="M184 521q0 -25 -18 -42t-44 -17t-44 18t-18 47q0 39 16 72.5t36.5 57.5t38.5 38t23 14q6 0 13.5 -6.5t9.5 -12.5q-8 -5 -17 -15.5t-17 -24t-13.5 -29.5t-5.5 -33q0 -3 6 -8t13.5 -12.5t14 -19t6.5 -27.5zM350 521q0 -25 -18 -42t-44 -17t-44 18t-18 47q0 39 16 72.5
t36.5 57.5t39 38t23.5 14q6 0 13.5 -6.5t9.5 -12.5q-8 -5 -17.5 -15.5t-17.5 -24t-13.5 -29.5t-5.5 -33q0 -3 6 -8t13.5 -12.5t14 -19t6.5 -27.5z" />
    <glyph glyph-name="quotedblright" unicode="&#x201d;" horiz-adv-x="424" 
d="M240 650q0 25 18 42t44 17t44 -18t18 -47q0 -39 -16 -72.5t-36.5 -57.5t-39 -38t-23.5 -14q-6 0 -13.5 6.5t-9.5 12.5q8 5 17.5 15.5t17.5 24.5t13.5 30t5.5 33q0 3 -6.5 7.5t-14 12t-13.5 19t-6 27.5zM74 650q0 25 18 42t43 17q26 0 44 -18t18 -47q0 -39 -16 -72.5
t-36.5 -57.5t-39 -38t-22.5 -14q-6 0 -13.5 6.5t-9.5 12.5q8 5 17.5 15.5t17.5 24.5t13.5 30t5.5 33q0 3 -6.5 7.5t-14 12t-13.5 19t-6 27.5z" />
    <glyph glyph-name="quotedblbase" unicode="&#x201e;" horiz-adv-x="416" 
d="M58 58q0 26 18 44t44 18t43.5 -18t17.5 -44t-7 -51.5t-19.5 -48t-29 -41.5t-35.5 -34q-11 -8 -21 -14.5t-15 -6.5q-8 0 -15 8.5t-9 14.5q14 9 26 22.5t21 28.5t14.5 30t5.5 27q0 3 -6 7.5t-13.5 12t-13.5 18.5t-6 27zM232 58q0 26 18 44t44 18t44 -18t18 -44t-7 -51.5
t-19.5 -48t-29.5 -41.5t-36 -34q-11 -8 -21 -14.5t-15 -6.5q-8 0 -15 8.5t-9 14.5q14 9 26 22.5t21 28.5t14.5 30t5.5 27q0 3 -6 7.5t-13.5 12t-13.5 18.5t-6 27z" />
    <glyph glyph-name="dagger" unicode="&#x2020;" horiz-adv-x="381" 
d="M157 415h-83q-15 0 -19.5 4t-4.5 15v21q0 11 4.5 14.5t19.5 3.5h83v162q0 8 4 13t16 5h27q12 0 15.5 -5t3.5 -13v-162h84q15 0 19.5 -4t4.5 -14v-21q0 -11 -4.5 -15t-19.5 -4h-84v-453l-9 -145q-1 -14 -4 -19.5t-14 -5.5h-12q-10 0 -13 5.5t-4 19.5l-10 145v453z" />
    <glyph glyph-name="daggerdbl" unicode="&#x2021;" horiz-adv-x="381" 
d="M157 318v97h-83q-15 0 -19.5 4t-4.5 15v21q0 11 4.5 14.5t19.5 3.5h83v162q0 8 4 13t16 5h27q12 0 15.5 -5t3.5 -13v-162h84q15 0 19.5 -3.5t4.5 -14.5v-21q0 -11 -4.5 -15t-19.5 -4h-84v-97l-15 -97l15 -96v-95h84q15 0 19.5 -4t4.5 -15v-21q0 -11 -4.5 -14.5
t-19.5 -3.5h-84v-162q0 -8 -3.5 -13t-15.5 -5h-27q-12 0 -16 5t-4 13v162h-83q-15 0 -19.5 4t-4.5 14v21q0 11 4.5 15t19.5 4h83v95l16 96z" />
    <glyph glyph-name="bullet" unicode="&#x2022;" horiz-adv-x="355" 
d="M80 293q0 20 8 37.5t21.5 31t31 21t37.5 7.5t37.5 -7.5t31 -21t21 -31t7.5 -37.5t-7.5 -37.5t-21 -30.5t-31 -20.5t-37.5 -7.5t-37.5 7.5t-31 20.5t-21.5 30.5t-8 37.5z" />
    <glyph glyph-name="ellipsis" unicode="&#x2026;" horiz-adv-x="683" 
d="M60 52q0 26 17.5 43.5t43.5 17.5t43.5 -17.5t17.5 -43.5t-17.5 -43.5t-43.5 -17.5t-43.5 17.5t-17.5 43.5zM501 52q0 26 17.5 43.5t43.5 17.5q25 0 43 -17.5t18 -43.5t-18 -43.5t-43 -17.5q-26 0 -43.5 17.5t-17.5 43.5zM276 52q0 26 17.5 43.5t42.5 17.5
q26 0 43.5 -17.5t17.5 -43.5t-17.5 -43.5t-43.5 -17.5q-25 0 -42.5 17.5t-17.5 43.5z" />
    <glyph glyph-name="perthousand" unicode="&#x2030;" horiz-adv-x="1287" 
d="M308 517q0 39 -4.5 65.5t-16 42.5t-29.5 22.5t-45 6.5q-28 0 -46.5 -6.5t-30 -22.5t-16.5 -42.5t-5 -65.5q0 -40 5 -67t16.5 -43t30 -22.5t46.5 -6.5q27 0 45 6.5t29.5 22.5t16 43t4.5 67zM373 517q0 -106 -37.5 -150t-122.5 -44q-43 0 -74 10.5t-50.5 33.5t-29 60
t-9.5 90q0 105 38.5 148.5t124.5 43.5q85 0 122.5 -43.5t37.5 -148.5zM555 672q6 14 11 21t16 7h36q17 0 17 -14q0 -2 -2 -7t-3 -7l-284 -644q-6 -14 -11 -21t-16 -7h-35q-17 0 -17 14q0 2 1.5 7t2.5 7zM786 185q0 39 -4.5 65.5t-16 42.5t-29.5 22.5t-45 6.5
q-28 0 -46.5 -6.5t-30 -22.5t-16.5 -42.5t-5 -65.5q0 -40 5 -67t16.5 -43t30 -22.5t46.5 -6.5q27 0 45 6.5t29.5 22.5t16 43t4.5 67zM851 185q0 -106 -37.5 -150t-122.5 -44q-43 0 -74 10.5t-50.5 33.5t-29 60t-9.5 90q0 105 38.5 148.5t124.5 43.5q85 0 122.5 -43.5
t37.5 -148.5zM1172 185q0 39 -4.5 65.5t-16 42.5t-30 22.5t-45.5 6.5t-46 -6.5t-30 -22.5t-16 -42.5t-5 -65.5q0 -40 5 -67t16 -43t30 -22.5t46 -6.5t45.5 6.5t30 22.5t16 43t4.5 67zM1237 185q0 -106 -38 -150t-123 -44q-43 0 -74 10.5t-50.5 33.5t-28.5 60t-9 90
q0 105 38 148.5t124 43.5q85 0 123 -43.5t38 -148.5z" />
    <glyph glyph-name="guilsinglleft" unicode="&#x2039;" horiz-adv-x="230" 
d="M35 234q-5 6 -5 14q0 7 5 13l96 136q8 12 13 15.5t13 3.5l24 -3q9 -1 9 -9q0 -4 -6 -16l-83 -140l83 -141q2 -5 4 -9.5t2 -6.5q0 -8 -9 -9l-24 -3q-8 0 -13 3.5t-13 15.5l-96 136v0z" />
    <glyph glyph-name="guilsinglright" unicode="&#x203a;" horiz-adv-x="230" 
d="M99 98q-8 -12 -13 -15.5t-13 -3.5l-24 3q-9 1 -9 9q0 5 7 16l82 141l-82 140q-7 14 -7 16q0 8 9 9l24 3q8 0 13 -3.5t13 -15.5l96 -136q5 -6 5 -13q0 -8 -5 -14z" />
    <glyph glyph-name="fraction" unicode="&#x2044;" horiz-adv-x="388" 
d="M298 672q6 14 11 21t15 7h37q17 0 17 -14q0 -2 -1.5 -7t-2.5 -7l-284 -644q-6 -14 -11 -21t-15 -7h-37q-17 0 -17 14q0 2 1.5 7t2.5 7z" />
    <glyph glyph-name="Euro" unicode="&#x20ac;" horiz-adv-x="610" 
d="M219 250q5 -54 18 -91.5t35.5 -61t55.5 -34t79 -10.5q27 0 47 3.5t34.5 8t23.5 8.5t13 4q6 0 9 -3.5t5 -9.5q4 -9 7.5 -20t3.5 -13q0 -4 -10 -11t-28.5 -13.5t-45 -11t-59.5 -4.5q-63 0 -109.5 14t-78 45t-50 80.5t-24.5 119.5h-67q-11 0 -14.5 3.5t-3.5 13.5v23
q0 11 3.5 14.5t14.5 3.5h63q-1 10 -1 20.5v21.5v26t1 25h-63q-11 0 -14.5 3.5t-3.5 14.5v23q0 10 3.5 13.5t14.5 3.5h67q7 67 26 114.5t50.5 77.5t77.5 44t108 14q34 0 58.5 -4t40.5 -9.5t23.5 -10.5t7.5 -7q0 -10 -11 -29q-12 -18 -19 -18q-4 0 -11 2.5t-18.5 5.5t-29 5.5
t-41.5 2.5q-45 0 -78 -10t-55.5 -32.5t-35 -58.5t-18.5 -87h213q11 0 14.5 -3.5t3.5 -13.5v-23q0 -11 -3.5 -14.5t-14.5 -3.5h-217q-1 -12 -1 -24.5v-26.5v-21.5t1 -20.5h217q11 0 14.5 -3.5t3.5 -14.5v-23q0 -10 -3.5 -13.5t-14.5 -3.5h-214z" />
    <glyph glyph-name="trademark" unicode="&#x2122;" horiz-adv-x="686" 
d="M540 687q9 13 19 13h33q19 0 19 -20v-304q0 -14 -13 -14h-28q-13 0 -13 14v234l-56 -120q-2 -3 -5.5 -7t-11.5 -4h-17q-12 0 -16 11l-54 120v-234q0 -14 -14 -14h-27q-8 0 -10.5 3.5t-2.5 10.5v304q0 20 19 20h32q11 0 18 -13l64 -139zM67 652q-11 0 -14 2.5t-3 12.5v19
q0 8 3 11t14 3h211q11 0 14.5 -3t3.5 -11v-20q0 -8 -3 -11t-15 -3h-78v-276q0 -14 -13 -14h-28q-13 0 -13 14v276h-79z" />
    <glyph glyph-name="minus" unicode="&#x2212;" horiz-adv-x="495" 
d="M407 307q11 0 14.5 -3.5t3.5 -14.5v-22q0 -11 -3.5 -14.5t-14.5 -3.5h-319q-11 0 -14.5 3.5t-3.5 14.5v22q0 11 3.5 14.5t14.5 3.5h319z" />
    <glyph glyph-name="notequal" unicode="&#x2260;" horiz-adv-x="523" 
d="M269 391l50 115q6 14 11 21t15 7h31q17 0 17 -14q0 -2 -1.5 -7t-2.5 -7l-51 -115h97q11 0 14.5 -3.5t3.5 -13.5v-23q0 -11 -3.5 -14.5t-14.5 -3.5h-123l-47 -108h170q11 0 14.5 -3.5t3.5 -14.5v-23q0 -10 -3.5 -13.5t-14.5 -3.5h-196l-50 -116q-6 -14 -11 -21t-16 -7h-30
q-7 0 -12 3t-5 11q0 2 1.5 7t2.5 7l51 116h-82q-11 0 -14.5 3.5t-3.5 13.5v23q0 10 3.5 14t14.5 4h107l48 108h-155q-11 0 -14.5 4t-3.5 14v23q0 10 3.5 13.5t14.5 3.5h181z" />
    <glyph glyph-name="lessequal" unicode="&#x2264;" horiz-adv-x="495" 
d="M83 401q-10 7 -10 13v16q0 7 10 13l247 172q8 5 13 5q7 0 13 -10l10 -15q6 -8 6 -12q0 -6 -10 -13l-212 -148l212 -147q10 -7 10 -14q0 -5 -6 -12l-10 -15q-7 -10 -12 -10q-7 0 -14 6zM407 140q11 0 14.5 -3.5t3.5 -14.5v-22q0 -11 -3.5 -14.5t-14.5 -3.5h-319
q-11 0 -14.5 3.5t-3.5 14.5v22q0 11 3.5 14.5t14.5 3.5h319z" />
    <glyph glyph-name="greaterequal" unicode="&#x2265;" horiz-adv-x="495" 
d="M165 230q-8 -6 -14 -6q-5 0 -12 10l-10 15q-6 7 -6 12q0 7 10 14l212 147l-212 148q-10 7 -10 13q0 4 6 12l10 15q6 10 13 10q5 0 13 -5l247 -172q10 -7 10 -13v-16q0 -6 -10 -13zM407 140q11 0 14.5 -3.5t3.5 -14.5v-22q0 -11 -3.5 -14.5t-14.5 -3.5h-319
q-11 0 -14.5 3.5t-3.5 14.5v22q0 11 3.5 14.5t14.5 3.5h319z" />
    <glyph glyph-name="commaaccent" horiz-adv-x="217" 
d="M72 -95q0 20 14 33t34 13q21 0 34 -13.5t13 -32.5q0 -17 -5.5 -35.5t-15 -37t-22.5 -34.5t-28 -28q-10 -9 -18 -12.5t-12 -3.5q-5 0 -9.5 5.5t-6.5 10.5q11 7 20.5 18t16.5 23.5t11 24.5t4 21q0 2 -4.5 5.5t-10.5 8.5t-10.5 13.5t-4.5 20.5z" />
    <glyph glyph-name="Asmall" horiz-adv-x="425" 
d="M281 199l-69 229l-68 -229h137zM126 141l-40 -123q-4 -11 -7 -14.5t-16 -3.5h-27q-9 0 -15 3t-6 11v3.5t2 6.5l147 457q2 8 7 13.5t16 5.5h51q11 0 15.5 -4.5t7.5 -14.5l147 -457q2 -5 2 -6.5v-3.5q0 -8 -6 -11t-15 -3h-27q-13 0 -16 3.5t-7 14.5l-40 123h-173z" />
    <glyph glyph-name="Aacutesmall" horiz-adv-x="425" 
d="M281 199l-69 229l-68 -229h137zM126 141l-40 -123q-4 -11 -7 -14.5t-16 -3.5h-27q-9 0 -15 3t-6 11v3.5t2 6.5l147 457q2 8 7 13.5t16 5.5h51q11 0 15.5 -4.5t7.5 -14.5l147 -457q2 -5 2 -6.5v-3.5q0 -8 -6 -11t-15 -3h-27q-13 0 -16 3.5t-7 14.5l-40 123h-173zM160 581
q-6 -4 -9.5 -6t-6.5 -2t-4.5 1.5l-4.5 4.5l-9 10q-4 5 -4 9t3 7.5t7 7.5l136 121q9 9 19 9t17 -10l17 -22q6 -7 6 -15q0 -10 -14 -19z" />
    <glyph glyph-name="Abreve.small" horiz-adv-x="425" 
d="M281 199l-69 229l-68 -229h137zM126 141l-40 -123q-4 -11 -7 -14.5t-16 -3.5h-27q-9 0 -15 3t-6 11v3.5t2 6.5l147 457q2 8 7 13.5t16 5.5h51q11 0 15.5 -4.5t7.5 -14.5l147 -457q2 -5 2 -6.5v-3.5q0 -8 -6 -11t-15 -3h-27q-13 0 -16 3.5t-7 14.5l-40 123h-173zM319 695
q0 -23 -9 -40.5t-24 -29.5t-33.5 -18t-37.5 -6q-44 0 -75 24.5t-31 69.5h39q7 -20 21 -33t45 -13q29 0 44.5 13t22.5 33h38z" />
    <glyph glyph-name="Acaron.small" horiz-adv-x="425" 
d="M281 199l-69 229l-68 -229h137zM126 141l-40 -123q-4 -11 -7 -14.5t-16 -3.5h-27q-9 0 -15 3t-6 11v3.5t2 6.5l147 457q2 8 7 13.5t16 5.5h51q11 0 15.5 -4.5t7.5 -14.5l147 -457q2 -5 2 -6.5v-3.5q0 -8 -6 -11t-15 -3h-27q-13 0 -16 3.5t-7 14.5l-40 123h-173zM212 633
l104 68q8 5 11.5 7t7.5 2q5 0 10 -7l6 -8q5 -7 5 -10q0 -6 -11 -15l-112 -104q-11 -9 -20 -9q-11 0 -21 9l-112 104q-11 9 -11 15q0 3 5 10l6 8q5 7 10 7q4 0 7.5 -2t11.5 -7z" />
    <glyph glyph-name="Acircumflexsmall" horiz-adv-x="425" 
d="M281 199l-69 229l-68 -229h137zM126 141l-40 -123q-4 -11 -7 -14.5t-16 -3.5h-27q-9 0 -15 3t-6 11v3.5t2 6.5l147 457q2 8 7 13.5t16 5.5h51q11 0 15.5 -4.5t7.5 -14.5l147 -457q2 -5 2 -6.5v-3.5q0 -8 -6 -11t-15 -3h-27q-13 0 -16 3.5t-7 14.5l-40 123h-173zM109 565
q-8 -5 -11.5 -7t-7.5 -2q-5 0 -10 7l-6 8q-5 7 -5 10q0 6 11 15l112 104q10 9 21 9q9 0 20 -9l112 -104q11 -9 11 -15q0 -3 -5 -10l-6 -8q-5 -7 -10 -7q-4 0 -7.5 2t-11.5 7l-104 68z" />
    <glyph glyph-name="Adieresissmall" horiz-adv-x="425" 
d="M281 199l-69 229l-68 -229h137zM126 141l-40 -123q-4 -11 -7 -14.5t-16 -3.5h-27q-9 0 -15 3t-6 11v3.5t2 6.5l147 457q2 8 7 13.5t16 5.5h51q11 0 15.5 -4.5t7.5 -14.5l147 -457q2 -5 2 -6.5v-3.5q0 -8 -6 -11t-15 -3h-27q-13 0 -16 3.5t-7 14.5l-40 123h-173zM321 643
q0 -17 -12.5 -29.5t-29.5 -12.5q-20 0 -31.5 12.5t-11.5 29.5q0 20 11.5 31t31.5 11q16 0 29 -12t13 -30zM188 643q0 -17 -12.5 -29.5t-29.5 -12.5q-20 0 -31.5 12.5t-11.5 29.5q0 20 11.5 31t31.5 11q16 0 29 -12t13 -30z" />
    <glyph glyph-name="Agravesmall" horiz-adv-x="425" 
d="M281 199l-69 229l-68 -229h137zM126 141l-40 -123q-4 -11 -7 -14.5t-16 -3.5h-27q-9 0 -15 3t-6 11v3.5t2 6.5l147 457q2 8 7 13.5t16 5.5h51q11 0 15.5 -4.5t7.5 -14.5l147 -457q2 -5 2 -6.5v-3.5q0 -8 -6 -11t-15 -3h-27q-13 0 -16 3.5t-7 14.5l-40 123h-173zM89 677
q-14 9 -14 19q0 8 6 15l17 22q7 10 17 10t19 -9l136 -121q4 -4 7 -7.5t3 -7.5t-4 -9l-8 -10l-4.5 -4.5t-4.5 -1.5q-4 0 -17 8z" />
    <glyph glyph-name="Amacron.small" horiz-adv-x="425" 
d="M281 199l-69 229l-68 -229h137zM126 141l-40 -123q-4 -11 -7 -14.5t-16 -3.5h-27q-9 0 -15 3t-6 11v3.5t2 6.5l147 457q2 8 7 13.5t16 5.5h51q11 0 15.5 -4.5t7.5 -14.5l147 -457q2 -5 2 -6.5v-3.5q0 -8 -6 -11t-15 -3h-27q-13 0 -16 3.5t-7 14.5l-40 123h-173zM103 620
q-15 0 -20.5 3t-5.5 17v17q0 12 5.5 15.5t20.5 3.5h216q15 0 20.5 -3t5.5 -16v-17q0 -13 -5.5 -16.5t-20.5 -3.5h-216v0z" />
    <glyph glyph-name="Aogonek.small" horiz-adv-x="425" 
d="M371 0q-29 -26 -44.5 -50.5t-15.5 -49.5q0 -20 14.5 -32t35.5 -12q16 0 25 3t13 3q2 0 6.5 -4t4.5 -16q0 -4 -6.5 -8t-17 -7t-23 -5t-24.5 -2q-45 0 -66 22t-21 52q0 19 7 34.5t18.5 29t25 24t26.5 18.5l14 8l-4 10l-40 123h-173l-40 -123q-4 -11 -7 -14.5t-16 -3.5h-27
q-9 0 -15 3t-6 11v3.5t2 6.5l147 457q2 8 7 13.5t16 5.5h51q11 0 15.5 -4.5t7.5 -14.5l147 -457q2 -5 2 -6.5v-3.5q0 -8 -6 -11t-15 -3h-18zM281 199l-69 229l-68 -229h137z" />
    <glyph glyph-name="Aringsmall" horiz-adv-x="425" 
d="M281 199l-69 229l-68 -229h137zM126 141l-40 -123q-4 -11 -7 -14.5t-16 -3.5h-27q-9 0 -15 3t-6 11v3.5t2 6.5l147 457q2 8 7 13.5t16 5.5h51q11 0 15.5 -4.5t7.5 -14.5l147 -457q2 -5 2 -6.5v-3.5q0 -8 -6 -11t-15 -3h-27q-13 0 -16 3.5t-7 14.5l-40 123h-173zM297 664
q0 -35 -25.5 -60t-60.5 -25q-38 0 -62 25t-24 60q0 38 24 61.5t62 23.5q16 0 31.5 -6.5t27.5 -18t19.5 -27t7.5 -33.5zM257 664q0 19 -14.5 33.5t-32.5 14.5q-20 0 -32.5 -14t-12.5 -34q0 -19 12.5 -33t32.5 -14q19 0 33 14t14 33z" />
    <glyph glyph-name="Atildesmall" horiz-adv-x="425" 
d="M281 199l-69 229l-68 -229h137zM126 141l-40 -123q-4 -11 -7 -14.5t-16 -3.5h-27q-9 0 -15 3t-6 11v3.5t2 6.5l147 457q2 8 7 13.5t16 5.5h51q11 0 15.5 -4.5t7.5 -14.5l147 -457q2 -5 2 -6.5v-3.5q0 -8 -6 -11t-15 -3h-27q-13 0 -16 3.5t-7 14.5l-40 123h-173zM136 626
q-21 0 -37 -7t-31 -7q-9 0 -13 8l-4 12q-2 5 -3 8.5t-1 4.5q0 5 9.5 12t24 13.5t32.5 11t35 4.5q23 0 40 -4.5t32.5 -10t31.5 -10t37 -4.5q24 0 37.5 7t28.5 7q8 0 13 -8q2 -6 4 -11t3 -9t1 -5q0 -5 -9 -12t-23.5 -13t-32 -10.5t-33.5 -4.5q-24 0 -41.5 4.5t-33 9.5t-31 9.5
t-36.5 4.5z" />
    <glyph glyph-name="AEsmall" horiz-adv-x="630" 
d="M297 409l-113 -210h113v210zM557 500q14 0 18 -5.5t4 -15.5v-18q0 -11 -4 -16t-18 -5h-192v-157h179q14 0 18 -5t4 -16v-18q0 -10 -4 -15.5t-18 -5.5h-179v-163h193q14 0 18 -5t4 -16v-18q0 -8 -3.5 -14.5t-18.5 -6.5h-234q-27 0 -27 28v113h-145l-65 -122
q-5 -9 -9.5 -14t-15.5 -5h-26q-21 0 -21 17q0 2 1 6.5t3 8.5l238 444q5 10 12.5 17t19.5 7h268z" />
    <glyph glyph-name="AEacute.small" horiz-adv-x="630" 
d="M297 409l-113 -210h113v210zM557 500q14 0 18 -5.5t4 -15.5v-18q0 -11 -4 -16t-18 -5h-192v-157h179q14 0 18 -5t4 -16v-18q0 -10 -4 -15.5t-18 -5.5h-179v-163h193q14 0 18 -5t4 -16v-18q0 -8 -3.5 -14.5t-18.5 -6.5h-234q-27 0 -27 28v113h-145l-65 -122
q-5 -9 -9.5 -14t-15.5 -5h-26q-21 0 -21 17q0 2 1 6.5t3 8.5l238 444q5 10 12.5 17t19.5 7h268zM373 581q-6 -4 -9.5 -6t-6.5 -2t-4.5 1.5l-4.5 4.5l-9 10q-4 5 -4 9t3 7.5t7 7.5l136 121q9 9 19 9t17 -10l17 -22q6 -7 6 -15q0 -10 -14 -19z" />
    <glyph glyph-name="Bsmall" horiz-adv-x="441" 
d="M60 479q0 11 4.5 16t17.5 5h162q44 0 72 -12.5t44 -32.5t22 -44t6 -48q0 -33 -11.5 -58.5t-29.5 -42.5q26 -17 40 -46t14 -74q0 -60 -35 -101t-106 -41h-178q-13 0 -17.5 5t-4.5 16v458zM331 142q0 42 -19 63t-64 21h-120v-166h124q35 0 57 18.5t22 63.5zM318 363
q0 33 -17 55t-64 22h-109v-154h109q47 0 64 22.5t17 54.5z" />
    <glyph glyph-name="Csmall" horiz-adv-x="409" 
d="M244 -9q-53 0 -90 14t-60 45t-33.5 80.5t-10.5 119.5t10.5 119.5t33.5 80.5t60 45t90 14q28 0 49.5 -5t36.5 -11.5t22.5 -12.5t7.5 -8t-2 -9t-8 -16q-7 -11 -11 -14t-8 -3q-3 0 -6.5 1.5t-8.5 3.5q-11 4 -27 9t-45 5q-35 0 -59 -10.5t-38.5 -34t-20.5 -61.5t-6 -93
q0 -54 6 -92t20.5 -62t38.5 -34.5t59 -10.5q28 0 50.5 7t33.5 12q5 2 9 3.5t7 1.5q7 0 10 -2.5t5 -7.5q7 -16 8.5 -20.5t1.5 -9.5q0 -4 -9 -11t-25.5 -14.5t-39.5 -13t-51 -5.5z" />
    <glyph glyph-name="Cacute.small" horiz-adv-x="409" 
d="M244 -9q-53 0 -90 14t-60 45t-33.5 80.5t-10.5 119.5t10.5 119.5t33.5 80.5t60 45t90 14q28 0 49.5 -5t36.5 -11.5t22.5 -12.5t7.5 -8t-2 -9t-8 -16q-7 -11 -11 -14t-8 -3q-3 0 -6.5 1.5t-8.5 3.5q-11 4 -27 9t-45 5q-35 0 -59 -10.5t-38.5 -34t-20.5 -61.5t-6 -93
q0 -54 6 -92t20.5 -62t38.5 -34.5t59 -10.5q28 0 50.5 7t33.5 12q5 2 9 3.5t7 1.5q7 0 10 -2.5t5 -7.5q7 -16 8.5 -20.5t1.5 -9.5q0 -4 -9 -11t-25.5 -14.5t-39.5 -13t-51 -5.5zM185 581q-6 -4 -9.5 -6t-6.5 -2t-4.5 1.5l-4.5 4.5l-9 10q-4 5 -4 9t3 7.5t7 7.5l136 121
q9 9 19 9t17 -10l17 -22q6 -7 6 -15q0 -10 -14 -19z" />
    <glyph glyph-name="Ccaron.small" horiz-adv-x="409" 
d="M244 -9q-53 0 -90 14t-60 45t-33.5 80.5t-10.5 119.5t10.5 119.5t33.5 80.5t60 45t90 14q28 0 49.5 -5t36.5 -11.5t22.5 -12.5t7.5 -8t-2 -9t-8 -16q-7 -11 -11 -14t-8 -3q-3 0 -6.5 1.5t-8.5 3.5q-11 4 -27 9t-45 5q-35 0 -59 -10.5t-38.5 -34t-20.5 -61.5t-6 -93
q0 -54 6 -92t20.5 -62t38.5 -34.5t59 -10.5q28 0 50.5 7t33.5 12q5 2 9 3.5t7 1.5q7 0 10 -2.5t5 -7.5q7 -16 8.5 -20.5t1.5 -9.5q0 -4 -9 -11t-25.5 -14.5t-39.5 -13t-51 -5.5zM225 633l104 68q8 5 11.5 7t7.5 2q5 0 10 -7l6 -8q5 -7 5 -10q0 -6 -11 -15l-112 -104
q-11 -9 -20 -9q-11 0 -21 9l-112 104q-11 9 -11 15q0 3 5 10l6 8q5 7 10 7q4 0 7.5 -2t11.5 -7z" />
    <glyph glyph-name="Ccedillasmall" horiz-adv-x="409" 
d="M224 -39l8 2q10 2 21 2q36 0 55.5 -18.5t19.5 -47.5q0 -37 -28.5 -58t-82.5 -21q-12 0 -24.5 2t-23 5t-17.5 7.5t-7 9.5v3.5t1 4.5q1 3 2 5q4 9 12 9q5 0 20 -4.5t41 -4.5q28 0 43.5 10.5t15.5 28.5q0 17 -11.5 24.5t-30.5 7.5q-16 0 -29.5 -3.5t-20.5 -6.5l-24 30l36 46
q-81 11 -115.5 71t-34.5 185q0 70 10.5 119.5t33.5 80.5t60 45t90 14q28 0 49.5 -5t36.5 -11.5t22.5 -12.5t7.5 -8t-2 -9t-8 -16q-7 -11 -11 -14t-8 -3q-3 0 -6.5 1.5t-8.5 3.5q-11 4 -27 9t-45 5q-35 0 -59 -10.5t-38.5 -34t-20.5 -61.5t-6 -93q0 -54 6 -92t20.5 -62
t38.5 -34.5t59 -10.5q28 0 50.5 7t33.5 12q5 2 9 3.5t7 1.5q7 0 10 -2.5t5 -7.5q7 -16 8.5 -20.5t1.5 -9.5q0 -4 -9 -11t-25.5 -14.5t-39.5 -13t-51 -5.5z" />
    <glyph glyph-name="Ccircumflex.small" horiz-adv-x="409" 
d="M244 -9q-53 0 -90 14t-60 45t-33.5 80.5t-10.5 119.5t10.5 119.5t33.5 80.5t60 45t90 14q28 0 49.5 -5t36.5 -11.5t22.5 -12.5t7.5 -8t-2 -9t-8 -16q-7 -11 -11 -14t-8 -3q-3 0 -6.5 1.5t-8.5 3.5q-11 4 -27 9t-45 5q-35 0 -59 -10.5t-38.5 -34t-20.5 -61.5t-6 -93
q0 -54 6 -92t20.5 -62t38.5 -34.5t59 -10.5q28 0 50.5 7t33.5 12q5 2 9 3.5t7 1.5q7 0 10 -2.5t5 -7.5q7 -16 8.5 -20.5t1.5 -9.5q0 -4 -9 -11t-25.5 -14.5t-39.5 -13t-51 -5.5zM122 565q-8 -5 -11.5 -7t-7.5 -2q-5 0 -10 7l-6 8q-5 7 -5 10q0 6 11 15l112 104q10 9 21 9
q9 0 20 -9l112 -104q11 -9 11 -15q0 -3 -5 -10l-6 -8q-5 -7 -10 -7q-4 0 -7.5 2t-11.5 7l-104 68z" />
    <glyph glyph-name="Cdotaccent.small" horiz-adv-x="409" 
d="M244 -9q-53 0 -90 14t-60 45t-33.5 80.5t-10.5 119.5t10.5 119.5t33.5 80.5t60 45t90 14q28 0 49.5 -5t36.5 -11.5t22.5 -12.5t7.5 -8t-2 -9t-8 -16q-7 -11 -11 -14t-8 -3q-3 0 -6.5 1.5t-8.5 3.5q-11 4 -27 9t-45 5q-35 0 -59 -10.5t-38.5 -34t-20.5 -61.5t-6 -93
q0 -54 6 -92t20.5 -62t38.5 -34.5t59 -10.5q28 0 50.5 7t33.5 12q5 2 9 3.5t7 1.5q7 0 10 -2.5t5 -7.5q7 -16 8.5 -20.5t1.5 -9.5q0 -4 -9 -11t-25.5 -14.5t-39.5 -13t-51 -5.5zM282 648q0 -23 -16 -38t-37 -15q-23 0 -38.5 15t-15.5 38q0 24 15.5 38t38.5 14
q20 0 36.5 -14.5t16.5 -37.5z" />
    <glyph glyph-name="Dsmall" horiz-adv-x="462" 
d="M60 479q0 11 4.5 16t17.5 5h133q52 0 89.5 -13t61.5 -42.5t35 -77.5t11 -118q0 -69 -11 -116.5t-35 -77t-61.5 -42.5t-89.5 -13h-133q-13 0 -17.5 5t-4.5 16v458zM215 60q36 0 60.5 10t39.5 32t21 58t6 89t-6 89.5t-21 59t-39.5 32.5t-60.5 10h-87v-380h87z" />
    <glyph glyph-name="Dcaron.small" horiz-adv-x="462" 
d="M60 479q0 11 4.5 16t17.5 5h133q52 0 89.5 -13t61.5 -42.5t35 -77.5t11 -118q0 -69 -11 -116.5t-35 -77t-61.5 -42.5t-89.5 -13h-133q-13 0 -17.5 5t-4.5 16v458zM215 60q36 0 60.5 10t39.5 32t21 58t6 89t-6 89.5t-21 59t-39.5 32.5t-60.5 10h-87v-380h87zM215 633
l104 68q8 5 11.5 7t7.5 2q5 0 10 -7l6 -8q5 -7 5 -10q0 -6 -11 -15l-112 -104q-11 -9 -20 -9q-11 0 -21 9l-112 104q-11 9 -11 15q0 3 5 10l6 8q5 7 10 7q4 0 7.5 -2t11.5 -7z" />
    <glyph glyph-name="Dcroat.small" horiz-adv-x="478" 
d="M46 242q-15 0 -20.5 3t-5.5 17v19q0 12 5.5 15.5t20.5 3.5h30v179q0 11 4.5 16t17.5 5h133q52 0 89.5 -13t61.5 -42.5t35 -77.5t11 -118q0 -69 -11 -116.5t-35 -77t-61.5 -42.5t-89.5 -13h-133q-13 0 -17.5 5t-4.5 16v221h-30zM231 60q36 0 60.5 10t39.5 32t21 58t6 89
t-6 89.5t-21 59t-39.5 32.5t-60.5 10h-87v-140h80q15 0 20.5 -3t5.5 -16v-19q0 -13 -5.5 -16.5t-20.5 -3.5h-80v-182h87z" />
    <glyph glyph-name="Esmall" horiz-adv-x="393" 
d="M60 479q0 11 4.5 16t17.5 5h239q22 0 22 -21v-18q0 -12 -5.5 -16.5t-16.5 -4.5h-193v-154h180q13 0 17.5 -4.5t4.5 -16.5v-18q0 -12 -4.5 -16.5t-17.5 -4.5h-180v-166h194q11 0 16 -4.5t5 -16.5v-18q0 -21 -21 -21h-240q-13 0 -17.5 5t-4.5 16v458v0z" />
    <glyph glyph-name="Eacutesmall" horiz-adv-x="393" 
d="M60 479q0 11 4.5 16t17.5 5h239q22 0 22 -21v-18q0 -12 -5.5 -16.5t-16.5 -4.5h-193v-154h180q13 0 17.5 -4.5t4.5 -16.5v-18q0 -12 -4.5 -16.5t-17.5 -4.5h-180v-166h194q11 0 16 -4.5t5 -16.5v-18q0 -21 -21 -21h-240q-13 0 -17.5 5t-4.5 16v458v0zM160 581
q-6 -4 -9.5 -6t-6.5 -2t-4.5 1.5l-4.5 4.5l-9 10q-4 5 -4 9t3 7.5t7 7.5l136 121q9 9 19 9t17 -10l17 -22q6 -7 6 -15q0 -10 -14 -19z" />
    <glyph glyph-name="Ebreve.small" horiz-adv-x="393" 
d="M60 479q0 11 4.5 16t17.5 5h239q22 0 22 -21v-18q0 -12 -5.5 -16.5t-16.5 -4.5h-193v-154h180q13 0 17.5 -4.5t4.5 -16.5v-18q0 -12 -4.5 -16.5t-17.5 -4.5h-180v-166h194q11 0 16 -4.5t5 -16.5v-18q0 -21 -21 -21h-240q-13 0 -17.5 5t-4.5 16v458v0zM309 695
q0 -23 -9 -40.5t-24 -29.5t-33.5 -18t-37.5 -6q-44 0 -75 24.5t-31 69.5h39q7 -20 21 -33t45 -13q29 0 44.5 13t22.5 33h38z" />
    <glyph glyph-name="Ecaron.small" horiz-adv-x="393" 
d="M60 479q0 11 4.5 16t17.5 5h239q22 0 22 -21v-18q0 -12 -5.5 -16.5t-16.5 -4.5h-193v-154h180q13 0 17.5 -4.5t4.5 -16.5v-18q0 -12 -4.5 -16.5t-17.5 -4.5h-180v-166h194q11 0 16 -4.5t5 -16.5v-18q0 -21 -21 -21h-240q-13 0 -17.5 5t-4.5 16v458v0zM203 633l104 68
q8 5 11.5 7t7.5 2q5 0 10 -7l6 -8q5 -7 5 -10q0 -6 -11 -15l-112 -104q-11 -9 -20 -9q-11 0 -21 9l-112 104q-11 9 -11 15q0 3 5 10l6 8q5 7 10 7q4 0 7.5 -2t11.5 -7z" />
    <glyph glyph-name="Ecircumflexsmall" horiz-adv-x="393" 
d="M60 479q0 11 4.5 16t17.5 5h239q22 0 22 -21v-18q0 -12 -5.5 -16.5t-16.5 -4.5h-193v-154h180q13 0 17.5 -4.5t4.5 -16.5v-18q0 -12 -4.5 -16.5t-17.5 -4.5h-180v-166h194q11 0 16 -4.5t5 -16.5v-18q0 -21 -21 -21h-240q-13 0 -17.5 5t-4.5 16v458v0zM101 565
q-8 -5 -11.5 -7t-7.5 -2q-5 0 -10 7l-6 8q-5 7 -5 10q0 6 11 15l112 104q10 9 21 9q9 0 20 -9l112 -104q11 -9 11 -15q0 -3 -5 -10l-6 -8q-5 -7 -10 -7q-4 0 -7.5 2t-11.5 7l-104 68z" />
    <glyph glyph-name="Edieresissmall" horiz-adv-x="393" 
d="M60 479q0 11 4.5 16t17.5 5h239q22 0 22 -21v-18q0 -12 -5.5 -16.5t-16.5 -4.5h-193v-154h180q13 0 17.5 -4.5t4.5 -16.5v-18q0 -12 -4.5 -16.5t-17.5 -4.5h-180v-166h194q11 0 16 -4.5t5 -16.5v-18q0 -21 -21 -21h-240q-13 0 -17.5 5t-4.5 16v458v0zM318 643
q0 -17 -12.5 -29.5t-29.5 -12.5q-20 0 -31.5 12.5t-11.5 29.5q0 20 11.5 31t31.5 11q16 0 29 -12t13 -30zM185 643q0 -17 -12.5 -29.5t-29.5 -12.5q-20 0 -31.5 12.5t-11.5 29.5q0 20 11.5 31t31.5 11q16 0 29 -12t13 -30z" />
    <glyph glyph-name="Edotaccent.small" horiz-adv-x="393" 
d="M60 479q0 11 4.5 16t17.5 5h239q22 0 22 -21v-18q0 -12 -5.5 -16.5t-16.5 -4.5h-193v-154h180q13 0 17.5 -4.5t4.5 -16.5v-18q0 -12 -4.5 -16.5t-17.5 -4.5h-180v-166h194q11 0 16 -4.5t5 -16.5v-18q0 -21 -21 -21h-240q-13 0 -17.5 5t-4.5 16v458v0zM262 648
q0 -23 -16 -38t-37 -15q-23 0 -38.5 15t-15.5 38q0 24 15.5 38t38.5 14q20 0 36.5 -14.5t16.5 -37.5z" />
    <glyph glyph-name="Egravesmall" horiz-adv-x="393" 
d="M60 479q0 11 4.5 16t17.5 5h239q22 0 22 -21v-18q0 -12 -5.5 -16.5t-16.5 -4.5h-193v-154h180q13 0 17.5 -4.5t4.5 -16.5v-18q0 -12 -4.5 -16.5t-17.5 -4.5h-180v-166h194q11 0 16 -4.5t5 -16.5v-18q0 -21 -21 -21h-240q-13 0 -17.5 5t-4.5 16v458v0zM90 677
q-14 9 -14 19q0 8 6 15l17 22q7 10 17 10t19 -9l136 -121q4 -4 7 -7.5t3 -7.5t-4 -9l-8 -10l-4.5 -4.5t-4.5 -1.5q-4 0 -17 8z" />
    <glyph glyph-name="Emacron.small" horiz-adv-x="393" 
d="M60 479q0 11 4.5 16t17.5 5h239q22 0 22 -21v-18q0 -12 -5.5 -16.5t-16.5 -4.5h-193v-154h180q13 0 17.5 -4.5t4.5 -16.5v-18q0 -12 -4.5 -16.5t-17.5 -4.5h-180v-166h194q11 0 16 -4.5t5 -16.5v-18q0 -21 -21 -21h-240q-13 0 -17.5 5t-4.5 16v458v0zM93 620
q-15 0 -20.5 3t-5.5 17v17q0 12 5.5 15.5t20.5 3.5h216q15 0 20.5 -3t5.5 -16v-17q0 -13 -5.5 -16.5t-20.5 -3.5h-216v0z" />
    <glyph glyph-name="Eogonek.small" horiz-adv-x="393" 
d="M343 -158q0 -4 -6.5 -8t-17 -7t-23 -5t-24.5 -2q-45 0 -66 22t-21 52q0 19 7 34.5t18.5 29t25 24t26.5 18.5h-180q-13 0 -17.5 5t-4.5 16v458q0 11 4.5 16t17.5 5h239q22 0 22 -21v-18q0 -12 -5.5 -16.5t-16.5 -4.5h-193v-154h180q13 0 17.5 -4.5t4.5 -16.5v-18
q0 -12 -4.5 -16.5t-17.5 -4.5h-180v-166h194q11 0 16 -4.5t5 -16.5v-18q0 -21 -21 -21h-18q-29 -26 -44.5 -50.5t-15.5 -49.5q0 -20 14.5 -32t35.5 -12q16 0 25 3t13 3q2 0 6.5 -4t4.5 -16z" />
    <glyph glyph-name="Fsmall" horiz-adv-x="371" 
d="M60 479q0 11 4.5 16t17.5 5h232q22 0 22 -21v-18q0 -12 -5 -16.5t-17 -4.5h-186v-154h174q11 0 16 -4.5t5 -16.5v-18q0 -12 -5 -16.5t-16 -4.5h-174v-205q0 -21 -23 -21h-23q-13 0 -17.5 5t-4.5 16v458v0z" />
    <glyph glyph-name="Gsmall" horiz-adv-x="442" 
d="M324 214q0 11 4.5 16.5t17.5 5.5h23q14 0 18.5 -5.5t4.5 -16.5v-176q0 -6 -1.5 -11t-11.5 -10q-9 -5 -46.5 -15.5t-88.5 -10.5q-53 0 -90 14t-60 45t-33.5 80.5t-10.5 119.5t10.5 119.5t33.5 80.5t60 45t90 14q25 0 46 -4.5t35 -10.5t22 -11.5t8 -8.5q0 -2 -2.5 -9.5
t-6.5 -14.5q-6 -11 -11 -14.5t-10 -3.5q-3 0 -6 1t-7 3q-11 5 -27.5 9t-40.5 4q-35 0 -59 -10.5t-38.5 -34t-20.5 -61.5t-6 -93q0 -54 6 -92t20.5 -62t38.5 -34.5t59 -10.5q26 0 46 2.5t34 7.5v153v0z" />
    <glyph glyph-name="Gbreve.small" horiz-adv-x="442" 
d="M324 214q0 11 4.5 16.5t17.5 5.5h23q14 0 18.5 -5.5t4.5 -16.5v-176q0 -6 -1.5 -11t-11.5 -10q-9 -5 -46.5 -15.5t-88.5 -10.5q-53 0 -90 14t-60 45t-33.5 80.5t-10.5 119.5t10.5 119.5t33.5 80.5t60 45t90 14q25 0 46 -4.5t35 -10.5t22 -11.5t8 -8.5q0 -2 -2.5 -9.5
t-6.5 -14.5q-6 -11 -11 -14.5t-10 -3.5q-3 0 -6 1t-7 3q-11 5 -27.5 9t-40.5 4q-35 0 -59 -10.5t-38.5 -34t-20.5 -61.5t-6 -93q0 -54 6 -92t20.5 -62t38.5 -34.5t59 -10.5q26 0 46 2.5t34 7.5v153v0zM334 695q0 -23 -9 -40.5t-24 -29.5t-33.5 -18t-37.5 -6q-44 0 -75 24.5
t-31 69.5h39q7 -20 21 -33t45 -13q29 0 44.5 13t22.5 33h38z" />
    <glyph glyph-name="Gcircumflex.small" horiz-adv-x="442" 
d="M324 214q0 11 4.5 16.5t17.5 5.5h23q14 0 18.5 -5.5t4.5 -16.5v-176q0 -6 -1.5 -11t-11.5 -10q-9 -5 -46.5 -15.5t-88.5 -10.5q-53 0 -90 14t-60 45t-33.5 80.5t-10.5 119.5t10.5 119.5t33.5 80.5t60 45t90 14q25 0 46 -4.5t35 -10.5t22 -11.5t8 -8.5q0 -2 -2.5 -9.5
t-6.5 -14.5q-6 -11 -11 -14.5t-10 -3.5q-3 0 -6 1t-7 3q-11 5 -27.5 9t-40.5 4q-35 0 -59 -10.5t-38.5 -34t-20.5 -61.5t-6 -93q0 -54 6 -92t20.5 -62t38.5 -34.5t59 -10.5q26 0 46 2.5t34 7.5v153v0zM129 565q-8 -5 -11.5 -7t-7.5 -2q-5 0 -10 7l-6 8q-5 7 -5 10q0 6 11 15
l112 104q10 9 21 9q9 0 20 -9l112 -104q11 -9 11 -15q0 -3 -5 -10l-6 -8q-5 -7 -10 -7q-4 0 -7.5 2t-11.5 7l-104 68z" />
    <glyph glyph-name="Gcommaaccent.small" horiz-adv-x="442" 
d="M324 214q0 11 4.5 16.5t17.5 5.5h23q14 0 18.5 -5.5t4.5 -16.5v-176q0 -6 -1.5 -11t-11.5 -10q-9 -5 -46.5 -15.5t-88.5 -10.5q-53 0 -90 14t-60 45t-33.5 80.5t-10.5 119.5t10.5 119.5t33.5 80.5t60 45t90 14q25 0 46 -4.5t35 -10.5t22 -11.5t8 -8.5q0 -2 -2.5 -9.5
t-6.5 -14.5q-6 -11 -11 -14.5t-10 -3.5q-3 0 -6 1t-7 3q-11 5 -27.5 9t-40.5 4q-35 0 -59 -10.5t-38.5 -34t-20.5 -61.5t-6 -93q0 -54 6 -92t20.5 -62t38.5 -34.5t59 -10.5q26 0 46 2.5t34 7.5v153v0zM202 -95q0 20 14 33t34 13q21 0 34 -13.5t13 -32.5q0 -17 -5.5 -35.5
t-15 -37t-22.5 -34.5t-28 -28q-10 -9 -18 -12.5t-12 -3.5q-5 0 -9.5 5.5t-6.5 10.5q11 7 20.5 18t16.5 23.5t11 24.5t4 21q0 2 -4.5 5.5t-10.5 8.5t-10.5 13.5t-4.5 20.5z" />
    <glyph glyph-name="Gdotaccent.small" horiz-adv-x="442" 
d="M324 214q0 11 4.5 16.5t17.5 5.5h23q14 0 18.5 -5.5t4.5 -16.5v-176q0 -6 -1.5 -11t-11.5 -10q-9 -5 -46.5 -15.5t-88.5 -10.5q-53 0 -90 14t-60 45t-33.5 80.5t-10.5 119.5t10.5 119.5t33.5 80.5t60 45t90 14q25 0 46 -4.5t35 -10.5t22 -11.5t8 -8.5q0 -2 -2.5 -9.5
t-6.5 -14.5q-6 -11 -11 -14.5t-10 -3.5q-3 0 -6 1t-7 3q-11 5 -27.5 9t-40.5 4q-35 0 -59 -10.5t-38.5 -34t-20.5 -61.5t-6 -93q0 -54 6 -92t20.5 -62t38.5 -34.5t59 -10.5q26 0 46 2.5t34 7.5v153v0zM282 648q0 -23 -16 -38t-37 -15q-23 0 -38.5 15t-15.5 38q0 24 15.5 38
t38.5 14q20 0 36.5 -14.5t16.5 -37.5z" />
    <glyph glyph-name="Hsmall" horiz-adv-x="454" 
d="M326 478q0 11 4.5 16.5t17.5 5.5h23q14 0 18.5 -5.5t4.5 -16.5v-457q0 -11 -4.5 -16t-18.5 -5h-23q-13 0 -17.5 5t-4.5 16v207h-198v-207q0 -21 -23 -21h-23q-14 0 -18 5t-4 16v457q0 11 4 16.5t18 5.5h23q23 0 23 -22v-190h198v190v0z" />
    <glyph glyph-name="Hbar.small" horiz-adv-x="474" 
d="M46 357q-15 0 -20.5 3t-5.5 17v19q0 12 5.5 15.5t20.5 3.5h24v63q0 11 4 16.5t18 5.5h23q23 0 23 -22v-63h198v63q0 11 4.5 16.5t17.5 5.5h23q14 0 18.5 -5.5t4.5 -16.5v-63h24q15 0 20.5 -3t5.5 -16v-19q0 -13 -5.5 -16.5t-20.5 -3.5h-24v-336q0 -11 -4.5 -16t-18.5 -5
h-23q-13 0 -17.5 5t-4.5 16v207h-198v-207q0 -21 -23 -21h-23q-14 0 -18 5t-4 16v336h-24zM336 288v69h-198v-69h198z" />
    <glyph glyph-name="Hcircumflex.small" horiz-adv-x="454" 
d="M326 478q0 11 4.5 16.5t17.5 5.5h23q14 0 18.5 -5.5t4.5 -16.5v-457q0 -11 -4.5 -16t-18.5 -5h-23q-13 0 -17.5 5t-4.5 16v207h-198v-207q0 -21 -23 -21h-23q-14 0 -18 5t-4 16v457q0 11 4 16.5t18 5.5h23q23 0 23 -22v-190h198v190v0zM123 565q-8 -5 -11.5 -7t-7.5 -2
q-5 0 -10 7l-6 8q-5 7 -5 10q0 6 11 15l112 104q10 9 21 9q9 0 20 -9l112 -104q11 -9 11 -15q0 -3 -5 -10l-6 -8q-5 -7 -10 -7q-4 0 -7.5 2t-11.5 7l-104 68z" />
    <glyph glyph-name="Ismall" horiz-adv-x="188" 
d="M60 479q0 11 4.5 16t17.5 5h23q23 0 23 -21v-458q0 -21 -23 -21h-23q-14 0 -18 5t-4 16v458v0z" />
    <glyph glyph-name="Iacutesmall" horiz-adv-x="188" 
d="M60 479q0 11 4.5 16t17.5 5h23q23 0 23 -21v-458q0 -21 -23 -21h-23q-14 0 -18 5t-4 16v458v0zM65 581q-6 -4 -9.5 -6t-6.5 -2t-4.5 1.5l-4.5 4.5l-9 10q-4 5 -4 9t3 7.5t7 7.5l136 121q9 9 19 9t17 -10l17 -22q6 -7 6 -15q0 -10 -14 -19z" />
    <glyph glyph-name="Ibreve.small" horiz-adv-x="188" 
d="M60 479q0 11 4.5 16t17.5 5h23q23 0 23 -21v-458q0 -21 -23 -21h-23q-14 0 -18 5t-4 16v458v0zM199 695q0 -23 -9 -40.5t-24 -29.5t-33.5 -18t-37.5 -6q-44 0 -75 24.5t-31 69.5h39q7 -20 21 -33t45 -13q29 0 44.5 13t22.5 33h38z" />
    <glyph glyph-name="Icircumflexsmall" horiz-adv-x="188" 
d="M60 479q0 11 4.5 16t17.5 5h23q23 0 23 -21v-458q0 -21 -23 -21h-23q-14 0 -18 5t-4 16v458v0zM-9 565q-8 -5 -11.5 -7t-7.5 -2q-5 0 -10 7l-6 8q-5 7 -5 10q0 6 11 15l112 104q10 9 21 9q9 0 20 -9l112 -104q11 -9 11 -15q0 -3 -5 -10l-6 -8q-5 -7 -10 -7q-4 0 -7.5 2
t-11.5 7l-104 68z" />
    <glyph glyph-name="Idieresissmall" horiz-adv-x="188" 
d="M60 479q0 11 4.5 16t17.5 5h23q23 0 23 -21v-458q0 -21 -23 -21h-23q-14 0 -18 5t-4 16v458v0zM203 643q0 -17 -12.5 -29.5t-29.5 -12.5q-20 0 -31.5 12.5t-11.5 29.5q0 20 11.5 31t31.5 11q16 0 29 -12t13 -30zM70 643q0 -17 -12.5 -29.5t-29.5 -12.5q-20 0 -31.5 12.5
t-11.5 29.5q0 20 11.5 31t31.5 11q16 0 29 -12t13 -30z" />
    <glyph glyph-name="Idotaccent.small" horiz-adv-x="188" 
d="M60 479q0 11 4.5 16t17.5 5h23q23 0 23 -21v-458q0 -21 -23 -21h-23q-14 0 -18 5t-4 16v458v0zM148 648q0 -23 -16 -38t-37 -15q-23 0 -38.5 15t-15.5 38q0 24 15.5 38t38.5 14q20 0 36.5 -14.5t16.5 -37.5z" />
    <glyph glyph-name="Igravesmall" horiz-adv-x="188" 
d="M60 479q0 11 4.5 16t17.5 5h23q23 0 23 -21v-458q0 -21 -23 -21h-23q-14 0 -18 5t-4 16v458v0zM-28 677q-14 9 -14 19q0 8 6 15l17 22q7 10 17 10t19 -9l136 -121q4 -4 7 -7.5t3 -7.5t-4 -9l-8 -10l-4.5 -4.5t-4.5 -1.5q-4 0 -17 8z" />
    <glyph glyph-name="Imacron.small" horiz-adv-x="188" 
d="M60 479q0 11 4.5 16t17.5 5h23q23 0 23 -21v-458q0 -21 -23 -21h-23q-14 0 -18 5t-4 16v458v0zM-14 620q-15 0 -20.5 3t-5.5 17v17q0 12 5.5 15.5t20.5 3.5h216q15 0 20.5 -3t5.5 -16v-17q0 -13 -5.5 -16.5t-20.5 -3.5h-216v0z" />
    <glyph glyph-name="Iogonek.small" horiz-adv-x="188" 
d="M128 -158q0 -4 -6.5 -8t-17 -7t-23 -5t-24.5 -2q-45 0 -66 22t-21 52q0 19 7 34.5t18.5 29t25 24t26.5 18.5l15 9q-2 6 -2 12v458q0 11 4.5 16t17.5 5h23q23 0 23 -21v-458q0 -21 -23 -21h-16q-29 -26 -44.5 -50.5t-15.5 -49.5q0 -20 14.5 -32t35.5 -12q16 0 25 3t13 3
q2 0 6.5 -4t4.5 -16z" />
    <glyph glyph-name="Itilde.small" horiz-adv-x="188" 
d="M60 479q0 11 4.5 16t17.5 5h23q23 0 23 -21v-458q0 -21 -23 -21h-23q-14 0 -18 5t-4 16v458v0zM19 626q-21 0 -37 -7t-31 -7q-9 0 -13 8l-4 12q-2 5 -3 8.5t-1 4.5q0 5 9.5 12t24 13.5t32.5 11t35 4.5q23 0 40 -4.5t32.5 -10t31.5 -10t37 -4.5q24 0 37.5 7t28.5 7
q8 0 13 -8q2 -6 4 -11t3 -9t1 -5q0 -5 -9 -12t-23.5 -13t-32 -10.5t-33.5 -4.5q-24 0 -41.5 4.5t-33 9.5t-31 9.5t-36.5 4.5z" />
    <glyph glyph-name="Jsmall" horiz-adv-x="346" 
d="M20 28q0 2 3 8.5t7 13.5t8.5 12.5t8.5 5.5q5 0 8 -1.5t11 -3.5t24 -7t39 -5q22 0 39.5 6t28.5 21.5t17 43t6 71.5v247h-109q-12 0 -16.5 4.5t-4.5 17.5v17q0 11 4.5 16t16.5 5h155q13 0 17.5 -5t4.5 -16v-279q0 -50 -6.5 -89t-24 -65.5t-48.5 -40.5t-80 -14q-51 0 -80 14
t-29 23z" />
    <glyph glyph-name="Jcircumflex.small" horiz-adv-x="346" 
d="M20 28q0 2 3 8.5t7 13.5t8.5 12.5t8.5 5.5q5 0 8 -1.5t11 -3.5t24 -7t39 -5q22 0 39.5 6t28.5 21.5t17 43t6 71.5v247h-109q-12 0 -16.5 4.5t-4.5 17.5v17q0 11 4.5 16t16.5 5h155q13 0 17.5 -5t4.5 -16v-279q0 -50 -6.5 -89t-24 -65.5t-48.5 -40.5t-80 -14q-51 0 -80 14
t-29 23zM84 565q-8 -5 -11.5 -7t-7.5 -2q-5 0 -10 7l-6 8q-5 7 -5 10q0 6 11 15l112 104q10 9 21 9q9 0 20 -9l112 -104q11 -9 11 -15q0 -3 -5 -10l-6 -8q-5 -7 -10 -7q-4 0 -7.5 2t-11.5 7l-104 68z" />
    <glyph glyph-name="Ksmall" horiz-adv-x="392" 
d="M274 486q5 6 9.5 10t13.5 4h34q8 0 12 -4.5t4 -10.5q0 -10 -6 -18l-165 -215l195 -222q6 -6 6 -13q0 -8 -5 -12.5t-13 -4.5h-34q-8 0 -12.5 2.5t-10.5 10.5l-174 196v-188q0 -21 -23 -21h-22q-14 0 -18.5 5t-4.5 16v458q0 11 4.5 16t18.5 5h22q23 0 23 -21v-187z" />
    <glyph glyph-name="Kcommaaccent.small" horiz-adv-x="392" 
d="M274 486q5 6 9.5 10t13.5 4h34q8 0 12 -4.5t4 -10.5q0 -10 -6 -18l-165 -215l195 -222q6 -6 6 -13q0 -8 -5 -12.5t-13 -4.5h-34q-8 0 -12.5 2.5t-10.5 10.5l-174 196v-188q0 -21 -23 -21h-22q-14 0 -18.5 5t-4.5 16v458q0 11 4.5 16t18.5 5h22q23 0 23 -21v-187zM162 -95
q0 20 14 33t34 13q21 0 34 -13.5t13 -32.5q0 -17 -5.5 -35.5t-15 -37t-22.5 -34.5t-28 -28q-10 -9 -18 -12.5t-12 -3.5q-5 0 -9.5 5.5t-6.5 10.5q11 7 20.5 18t16.5 23.5t11 24.5t4 21q0 2 -4.5 5.5t-10.5 8.5t-10.5 13.5t-4.5 20.5z" />
    <glyph glyph-name="Lsmall" horiz-adv-x="360" 
d="M82 0q-13 0 -17.5 5t-4.5 16v458q0 11 4.5 16t17.5 5h23q23 0 23 -21v-419h185q12 0 17 -4.5t5 -16.5v-18q0 -21 -22 -21h-231v0z" />
    <glyph glyph-name="Lacute.small" horiz-adv-x="360" 
d="M82 0q-13 0 -17.5 5t-4.5 16v458q0 11 4.5 16t17.5 5h23q23 0 23 -21v-419h185q12 0 17 -4.5t5 -16.5v-18q0 -21 -22 -21h-231v0zM115 581q-6 -4 -9.5 -6t-6.5 -2t-4.5 1.5l-4.5 4.5l-9 10q-4 5 -4 9t3 7.5t7 7.5l136 121q9 9 19 9t17 -10l17 -22q6 -7 6 -15
q0 -10 -14 -19z" />
    <glyph glyph-name="Lcaron.small" horiz-adv-x="375" 
d="M82 0q-13 0 -17.5 5t-4.5 16v458q0 11 4.5 16t17.5 5h23q23 0 23 -21v-419h185q12 0 17 -4.5t5 -16.5v-18q0 -21 -22 -21h-231v0zM226 453q0 20 14 33t34 13q21 0 34 -13.5t13 -32.5q0 -17 -5.5 -35.5t-15 -37t-22.5 -34.5t-28 -28q-10 -9 -18 -12.5t-12 -3.5
q-5 0 -9.5 5.5t-6.5 10.5q11 7 20.5 18t16.5 23.5t11 24.5t4 21q0 2 -4.5 5.5t-10.5 8.5t-10.5 13.5t-4.5 20.5z" />
    <glyph glyph-name="Lcommaaccent.small" horiz-adv-x="360" 
d="M82 0q-13 0 -17.5 5t-4.5 16v458q0 11 4.5 16t17.5 5h23q23 0 23 -21v-419h185q12 0 17 -4.5t5 -16.5v-18q0 -21 -22 -21h-231v0zM142 -95q0 20 14 33t34 13q21 0 34 -13.5t13 -32.5q0 -17 -5.5 -35.5t-15 -37t-22.5 -34.5t-28 -28q-10 -9 -18 -12.5t-12 -3.5
q-5 0 -9.5 5.5t-6.5 10.5q11 7 20.5 18t16.5 23.5t11 24.5t4 21q0 2 -4.5 5.5t-10.5 8.5t-10.5 13.5t-4.5 20.5z" />
    <glyph glyph-name="Ldot.small" horiz-adv-x="411" 
d="M260 248q0 22 15.5 37t38.5 15q22 0 37 -15t15 -37q0 -23 -15 -38.5t-37 -15.5q-23 0 -38.5 15.5t-15.5 38.5zM82 0q-13 0 -17.5 5t-4.5 16v458q0 11 4.5 16t17.5 5h23q23 0 23 -21v-419h185q12 0 17 -4.5t5 -16.5v-18q0 -21 -22 -21h-231z" />
    </font>
</defs>
</svg>
