<svg xmlns="http://www.w3.org/2000/svg" width="122" height="93.912" viewBox="0 0 122 93.912"><g transform="translate(-358 -130.677)"><g transform="translate(390.409 130.677)"><g transform="translate(57.182 93.912) rotate(180)" fill="none"><path d="M28.591,22.02C12.8,22.02,0-15.83,0,7.718S12.8,50.355,28.591,50.355,57.182,31.266,57.182,7.718,44.382,22.02,28.591,22.02Z" stroke="none"/><path d="M 28.59115409851074 48.35544967651367 C 32.06735229492188 48.35544967651367 35.45269393920898 47.33187866210938 38.65312576293945 45.31317901611328 C 41.82003402709961 43.31560897827148 44.67780303955078 40.4356575012207 47.14704513549805 36.75331878662109 C 49.65568542480469 33.01222991943359 51.62872314453125 28.6435489654541 53.01137542724609 23.76862716674805 C 54.451904296875 18.68960762023926 55.18231582641602 13.28935813903809 55.18231582641602 7.717887878417969 C 55.18231582641602 4.603507041931152 54.94121932983398 3.071353673934937 54.74608612060547 2.341317653656006 C 54.43622970581055 2.58972430229187 53.98140335083008 3.007092952728271 53.34358596801758 3.705878019332886 C 52.29497528076172 4.854708194732666 51.04620361328125 6.432608127593994 49.72411346435547 8.103157997131348 C 47.07094573974609 11.45560836791992 44.06377410888672 15.25535774230957 40.63336563110352 18.34939765930176 C 36.40300369262695 22.16494750976562 32.46396255493164 24.01972770690918 28.59115409851074 24.01972770690918 C 24.71875381469727 24.01972770690918 20.7800350189209 22.16507720947266 16.54993438720703 18.34978866577148 C 13.1197338104248 15.25595855712891 10.11257362365723 11.45634841918945 7.459414005279541 8.104018211364746 C 6.137073993682861 6.433218002319336 4.888073921203613 4.855078220367432 3.839254140853882 3.706078052520752 C 3.200971841812134 3.006823062896729 2.745906352996826 2.589332580566406 2.435977697372437 2.34095287322998 C 2.240984916687012 3.070813894271851 2.000004053115845 4.602997303009033 2.000004053115845 7.717887878417969 C 2.000004053115845 13.28935813903809 2.730414152145386 18.68960762023926 4.170944213867188 23.76862716674805 C 5.55359411239624 28.6435489654541 7.526634216308594 33.01222991943359 10.03526401519775 36.75331878662109 C 12.50450420379639 40.4356575012207 15.36227416992188 43.31560897827148 18.52918434143066 45.31317901611328 C 21.7296142578125 47.33187866210938 25.11495399475098 48.35544967651367 28.59115409851074 48.35544967651367 M 28.59115409851074 50.35544967651367 C 12.80070400238037 50.35544967651367 4.098510544281453e-06 31.26595878601074 4.098510544281453e-06 7.717887878417969 C 4.098510089534102e-06 -15.83017063140869 12.80070400238037 22.01972579956055 28.59115409851074 22.01972770690918 C 44.38159942626953 22.01972579956055 57.18230819702148 -15.83019924163818 57.18231582641602 7.717887878417969 C 57.18231582641602 31.26595878601074 44.3816032409668 50.35544967651367 28.59115409851074 50.35544967651367 Z" stroke="none" fill="#a39fc9"/></g><g transform="translate(7.033 0)" fill="none" stroke="#a39fc9" stroke-width="2"><ellipse cx="21.498" cy="21.936" rx="21.498" ry="21.936" stroke="none"/><ellipse cx="21.498" cy="21.936" rx="20.498" ry="20.936" fill="none"/></g></g><text transform="translate(358 196.255)" fill="#6f6c8b" font-size="30" font-family="Raleway-Regular, Raleway"><tspan x="0" y="0">maluszki</tspan></text></g></svg>