<svg xmlns="http://www.w3.org/2000/svg" width="94" height="65.245" viewBox="0 0 94 65.245"><g transform="translate(-46.5 -105.039)"><g transform="translate(75.168 105.039)"><g transform="translate(39.727 65.245) rotate(180)" fill="none"><path d="M19.864,15.3C8.893,15.3,0-11,0,5.362S8.893,34.984,19.864,34.984,39.727,21.722,39.727,5.362,30.834,15.3,19.864,15.3Z" stroke="none"/><path d="M 19.86367225646973 32.98439788818359 C 22.16167259216309 32.98439788818359 24.404052734375 32.30494689941406 26.52851295471191 30.96491622924805 C 28.65616226196289 29.62287712097168 30.5805721282959 27.68136596679688 32.2483024597168 25.19431686401367 C 33.95541381835938 22.64851570129395 35.29917144775391 19.67172622680664 36.24225234985352 16.34664726257324 C 37.22768402099609 12.87220668792725 37.72734069824219 9.176436424255371 37.72734069824219 5.361996650695801 C 37.72734069824219 4.242852687835693 37.68237686157227 3.438467979431152 37.62344741821289 2.864800214767456 C 37.54794692993164 2.945749759674072 37.46764755249023 3.033625364303589 37.38228225708008 3.129076480865479 C 36.69621276855469 3.896196603775024 35.88419342041016 4.92224645614624 35.02449035644531 6.00852632522583 C 31.25382232666016 10.77300643920898 26.08971214294434 17.29818725585938 19.86367225646973 17.29818725585938 C 13.63829231262207 17.29818725585938 8.474291801452637 10.77335643768311 4.703702449798584 6.00913667678833 C 3.843842267990112 4.922686576843262 3.031672239303589 3.896486520767212 2.34547233581543 3.1292564868927 C 2.259929180145264 3.033610820770264 2.179472684860229 2.945570707321167 2.103829622268677 2.864483118057251 C 2.044947862625122 3.438153028488159 2.000002145767212 4.242743015289307 2.000002145767212 5.361996650695801 C 2.000002145767212 9.176436424255371 2.499662160873413 12.87220668792725 3.485092163085938 16.34664726257324 C 4.42817211151123 19.67172622680664 5.771932125091553 22.64851570129395 7.479042053222656 25.19431686401367 C 9.146772384643555 27.68136596679688 11.07118225097656 29.62287712097168 13.19883251190186 30.96491622924805 C 15.32329273223877 32.30494689941406 17.56567192077637 32.98439788818359 19.86367225646973 32.98439788818359 M 19.86367225646973 34.98439788818359 C 8.893272399902344 34.98439788818359 2.256469770145486e-06 21.72198677062988 2.256469770145486e-06 5.361996650695801 C 2.256469315398135e-06 -10.99799251556396 8.893271446228027 15.29818534851074 19.86367225646973 15.29818630218506 C 30.83406448364258 15.29818630218506 39.72733688354492 -10.99803352355957 39.72734069824219 5.361996650695801 C 39.72734069824219 21.72198677062988 30.83407211303711 34.98439788818359 19.86367225646973 34.98439788818359 Z" stroke="none" fill="#fff"/></g><g transform="translate(4.887 0)" fill="none" stroke="#fff" stroke-width="2"><ellipse cx="14.935" cy="15.24" rx="14.935" ry="15.24" stroke="none"/><ellipse cx="14.935" cy="15.24" rx="13.935" ry="14.24" fill="none"/></g></g><text transform="translate(46.5 153.146)" fill="#fff" font-size="23" font-family="Raleway-Regular, Raleway"><tspan x="0" y="0">maluszki</tspan></text></g></svg>